<svg xmlns="http://www.w3.org/2000/svg" viewBox="0 0 142.89 120.98"><defs><style>.cls-1{fill:#fff;}</style></defs><title>Asset 3</title><g id="Layer_2" data-name="Layer 2"><g id="Layer_1-2" data-name="Layer 1"><path class="cls-1" d="M45.66,83.48a5.78,5.78,0,0,1-4.83-2.31A8.31,8.31,0,0,1,39,75.94q0-5.91,2.49-9A8,8,0,0,1,48,64a4.52,4.52,0,0,1,3,1,3.38,3.38,0,0,1,1.2,2.74,6.75,6.75,0,0,1-2.74,5.45,10.89,10.89,0,0,1-6.7,2.3,7,7,0,0,0,1.44,3.66,3.56,3.56,0,0,0,2.85,1.55A5.63,5.63,0,0,0,50,79.9a8.35,8.35,0,0,0,2.39-2.17A31.45,31.45,0,0,0,56.28,71c.29-.65.52-1.12.68-1.41s.35-.43.54-.43.3.14.3.43q0,2.71-3.31,8.14Q50.92,83.48,45.66,83.48Zm-2.88-9.33a8.4,8.4,0,0,0,4.69-2.06,5.38,5.38,0,0,0,1.49-4c0-1.62-.52-2.44-1.57-2.44-1.26,0-2.33.88-3.2,2.63A14,14,0,0,0,42.78,74.15Z"/><path class="cls-1" d="M70.17,83.48a5,5,0,0,1-3.2-.87c-.26-.25-.38-.89-.38-1.92s0-2.42.11-4.15a21.24,21.24,0,0,1-2.8,5.23,4.35,4.35,0,0,1-3.55,1.71,4.76,4.76,0,0,1-3.79-2q-1.64-2-1.63-6.4a12.69,12.69,0,0,1,2.47-7.73A7.66,7.66,0,0,1,63.88,64q1.73,0,3.9,2.28a7.47,7.47,0,0,1,1.55-1.44A3.38,3.38,0,0,1,71.22,64c.53,0,.79.68.79,2.06a14.09,14.09,0,0,1-.3,2.11A8.25,8.25,0,0,1,71,70.41q-.48,1.25-.48,8.84c0,1,.1,1.46.32,1.46.61,0,1.46-.8,2.55-2.3a34.36,34.36,0,0,0,3.23-5.78c1.06-2.35,1.71-3.52,1.95-3.52s.35.14.35.43a13.13,13.13,0,0,1-1.57,4.83Q73.09,83.48,70.17,83.48ZM63.55,66.13c-1,0-2.09.75-3.23,2.25a8.53,8.53,0,0,0-1.7,5.28,12,12,0,0,0,.89,5c.6,1.3,1.38,1.95,2.36,1.95q1.79,0,5.26-8.94c0-.29.08-.79.13-1.49s.1-1.24.14-1.6a5,5,0,0,0-1.71-1.66A4.14,4.14,0,0,0,63.55,66.13Z"/><path class="cls-1" d="M87.84,74.37q-4.28,9.1-7.24,9.11c-2,0-3.12-.24-3.47-.71s-.51-2-.51-4.66.25-6.45.76-11.44q-2.72-.54-2.88-2.22,0-.87,1.14-.87a4.44,4.44,0,0,1,2,.43q.48-3.9,1.14-7.92a3.73,3.73,0,0,1,1-2,2.43,2.43,0,0,1,1.68-.92c.47,0,.7.74.7,2.22q0,1-.76,9.49a13.75,13.75,0,0,0,3.23-1.08A9.13,9.13,0,0,1,86.76,63c.65,0,1,.19,1,.59s-.63.86-2,1.49a19.82,19.82,0,0,1-4.45,1.44q-.65,7.92-.65,12c0,1.45.22,2.17.65,2.17.65,0,1.52-.79,2.6-2.27a32.56,32.56,0,0,0,3.23-5.78c1.07-2.37,1.72-3.55,2-3.55s.36.14.36.43A13.2,13.2,0,0,1,87.84,74.37Z"/><path class="cls-1" d="M90.17,83.48a5,5,0,0,1-3.2-.87c-.25-.25-.37-1.16-.37-2.71s.11-4.15.35-7.78.44-5.6.62-5.88a9.88,9.88,0,0,1,1.68-1.63,4,4,0,0,1,2.2-1.19c.52,0,.78.68.78,2.06a15.06,15.06,0,0,1-.29,2.11,8.62,8.62,0,0,1-.68,2.28q-.7,1.78-.71,9.38c0,1,.11,1.46.33,1.46.61,0,1.46-.8,2.55-2.3a33.69,33.69,0,0,0,3.22-5.78c1.07-2.35,1.72-3.52,2-3.52s.35.14.35.43a13.33,13.33,0,0,1-1.57,4.83Q93.1,83.48,90.17,83.48ZM88.6,56.69a2,2,0,0,1,1-1.68,3.38,3.38,0,0,1,1.85-.7c1,0,1.46.56,1.46,1.68a4.88,4.88,0,0,1-.87,2.9,2.83,2.83,0,0,1-2.44,1.22C88.94,60.11,88.6,59,88.6,56.69Z"/><path class="cls-1" d="M102.86,80.82a4.21,4.21,0,0,0,3.42-2,14.17,14.17,0,0,0,2.17-5,5.48,5.48,0,0,1-3-2.09,6.28,6.28,0,0,1,0-6.86,3.28,3.28,0,0,1,2.9-1.46c.76,0,1.34.47,1.73,1.43a8.34,8.34,0,0,1,.6,3.23,24.07,24.07,0,0,1-.27,3.58,4.75,4.75,0,0,0,1.73.32,5.76,5.76,0,0,0,4.07-2c.65-.65,1.09-1,1.33-1s.35.19.35.55a2.12,2.12,0,0,1-.7,1.3,9.37,9.37,0,0,1-7.27,3.2,17.63,17.63,0,0,1-3.2,6.67,6.56,6.56,0,0,1-5.31,2.71,3.66,3.66,0,0,1-3-1.57q-2-2.55-2-7.49a42,42,0,0,1,.28-4.33,10.59,10.59,0,0,1,.62-3.26A5.37,5.37,0,0,1,99,65.37a4.77,4.77,0,0,1,1.93-.87c.54,0,.81.33.81,1a15.18,15.18,0,0,1-1.41,6,29.75,29.75,0,0,0,.63,6.59C101.35,79.91,102,80.82,102.86,80.82Zm4.94-15.34c-.29,0-.44.59-.44,1.79A4.79,4.79,0,0,0,109,70.68a8.15,8.15,0,0,0,.11-1.3C109.1,66.78,108.66,65.48,107.8,65.48Z"/><path class="cls-1" d="M121.68,83.48a5.78,5.78,0,0,1-4.83-2.31,8.31,8.31,0,0,1-1.79-5.23q0-5.91,2.5-9A8,8,0,0,1,124,64a4.56,4.56,0,0,1,3,1,3.4,3.4,0,0,1,1.19,2.74,6.72,6.72,0,0,1-2.74,5.45,10.89,10.89,0,0,1-6.7,2.3,7,7,0,0,0,1.44,3.66,3.56,3.56,0,0,0,2.85,1.55A5.69,5.69,0,0,0,126,79.9a8.45,8.45,0,0,0,2.38-2.17A31.89,31.89,0,0,0,132.31,71c.28-.65.51-1.12.67-1.41s.35-.43.55-.43.29.14.29.43q0,2.71-3.3,8.14Q126.93,83.48,121.68,83.48Zm-2.88-9.33a8.36,8.36,0,0,0,4.69-2.06,5.38,5.38,0,0,0,1.5-4c0-1.62-.53-2.44-1.58-2.44-1.26,0-2.33.88-3.2,2.63A14.34,14.34,0,0,0,118.8,74.15Z"/><path class="cls-1" d="M56,61.18c-1.15,1.18-3,1-4.55,1a26.12,26.12,0,0,0-5.85.61,13,13,0,0,0-3.41,1.08,8.54,8.54,0,0,0-2.85,2.56,10.19,10.19,0,0,0-1.44,4,19.19,19.19,0,0,0-.29,3.3c0,3.78.27,8-2.19,10.87a2,2,0,0,1-2,.88c-.82-.29-1-1.34-1.1-2.21a104.92,104.92,0,0,1-.17-12.91c.14-2.9.38-5.94-.86-8.56-1.4-3-4.47-4.79-7.61-5.65S17.21,55.26,14,55c-1.89-.16-4.26-.87-4.44-2.77s2-3.47,1.32-5.19c-.25-.67-.93-1.31-.67-2,.14-.39.57-.64.61-1,.09-.73-1-1-1.33-1.65-.47-1,1-1.92.9-3C10.25,37.84,7.72,38,7,36.65c-.56-1,.19-2.18.93-3,1.86-2.17,4-4.37,4.47-7.18a20.54,20.54,0,0,0,.08-4A22.16,22.16,0,0,1,41.2,1a16.11,16.11,0,0,0-15,14.17c-.3,3.35.49,6.74,0,10.07a13.32,13.32,0,0,1-3.52,7.2,10.28,10.28,0,0,0-1.75,2A2.31,2.31,0,0,0,21,37c.89,1,3.09,1,3.12,2.43,0,1-1.36,1.82-1,2.76.26.7,1.34.93,1.37,1.67,0,.51-.5.88-.61,1.37-.14.65.44,1.21.67,1.83.61,1.67-1.37,3.26-1.3,5a3.27,3.27,0,0,0,2.18,2.66,20,20,0,0,0,3.54.8,13,13,0,0,1,8.77,6.64s2.22-1,2.43-1a25.32,25.32,0,0,1,2.57-.77,25.79,25.79,0,0,1,5.32-.71A25.41,25.41,0,0,1,52.5,60c.73.11,1.46.25,2.18.42.48.1,1,.22,1.42.35.06,0,.13,0,.14.1a.18.18,0,0,1-.05.13A1.12,1.12,0,0,1,56,61.18Z"/><path class="cls-1" d="M19.84,94.94s84.35-13,107.89-8.38A37.67,37.67,0,0,1,134.19,89a3.29,3.29,0,0,1,.34,5.66l-.44.29S132.79,82.66,19.84,94.94Z"/><path class="cls-1" d="M2.13,104.33c0-.19,0-.28-.14-.28s-.45.16-.73.47A2.75,2.75,0,0,0,.72,106a.69.69,0,0,1-.17.39.43.43,0,0,1-.31.17c-.16,0-.24-.13-.24-.4A2.56,2.56,0,0,1,.4,105a5.05,5.05,0,0,1,1-1.33,1.92,1.92,0,0,1,1.27-.59c.47,0,.71.38.7,1.14s-.09,1.87-.25,3.33-.24,2.56-.24,3.29c0,1.85.35,2.78,1,2.78.5,0,1.09-.47,1.76-1.41a11.32,11.32,0,0,0,1.52-2.89c.27-2.89.47-4.75.62-5.59,0-.12.23-.32.62-.61a1.75,1.75,0,0,1,.88-.44c.21,0,.31.31.31.93a8,8,0,0,1-.2,1.89c-.36,1.37-.58,2.24-.68,2.61a43.38,43.38,0,0,0-.33,4.52,3.29,3.29,0,0,1,1.51-.46c.16,0,.24.06.24.17s-.08.2-.24.27a6.46,6.46,0,0,0-1.55.73,19.94,19.94,0,0,1-.61,6,2.49,2.49,0,0,1-2.6,1.6C3.75,121,3,120.37,3,119.13a4.76,4.76,0,0,1,1.07-2.81,12.63,12.63,0,0,1,2.85-2.72c0-.83.1-1.73.16-2.68a12.61,12.61,0,0,1-1.78,2.68,2.65,2.65,0,0,1-1.87,1.12,1.57,1.57,0,0,1-1.4-.89,4.66,4.66,0,0,1-.52-2.39,29.57,29.57,0,0,1,.3-3.76A28,28,0,0,0,2.13,104.33Zm2.93,12.11a4.22,4.22,0,0,0-.68,2,2.16,2.16,0,0,0,.34,1.33,1,1,0,0,0,.77.45c.41,0,.73-.44,1-1.33a25.19,25.19,0,0,0,.44-4.5A6.67,6.67,0,0,0,5.06,116.44Z"/><path class="cls-1" d="M16.93,110.3a5.55,5.55,0,0,0,1.11-.45l.46-.29.24-.14a.35.35,0,0,1,.16-.06c.11,0,.16.06.16.18s-.2.33-.62.63a6.81,6.81,0,0,1-1.53.81,4.5,4.5,0,0,1-1.05,2.7,3.3,3.3,0,0,1-2.61,1,2.14,2.14,0,0,1-1.89-1,4,4,0,0,1-.66-2.31,4.42,4.42,0,0,1,.79-2.49,2.34,2.34,0,0,1,2-1.18,2.24,2.24,0,0,1,1.32-.4,1.88,1.88,0,0,1,1.43.82A3.39,3.39,0,0,1,16.93,110.3Zm-1.29,1-.72,0a2.31,2.31,0,0,1-1.55-.54,1.61,1.61,0,0,1-.64-1.21,2.81,2.81,0,0,1,.22-1.13,3.28,3.28,0,0,0-.85,2.66,4.28,4.28,0,0,0,.4,1.83,1.31,1.31,0,0,0,1.25.86,1.5,1.5,0,0,0,1.33-.73A3.6,3.6,0,0,0,15.64,111.31ZM14.41,108a.56.56,0,0,0-.5.29,1.16,1.16,0,0,0-.18.63,1.51,1.51,0,0,0,.51,1.19,1.67,1.67,0,0,0,1.18.46h.24a6.05,6.05,0,0,0-.33-1.77C15.14,108.28,14.83,108,14.41,108Z"/><path class="cls-1" d="M18.44,112.89l.12-2.23a6.39,6.39,0,0,1,.2-2.33c.14-.13.37-.33.71-.59a1.53,1.53,0,0,1,.74-.39.36.36,0,0,1,.28.08.6.6,0,0,1,.06.32,4.35,4.35,0,0,1-.37,1.73,19.41,19.41,0,0,0-.3,3c0,.78.12,1.17.37,1.17s.67-.26,1.08-.79a9.8,9.8,0,0,0,1.23-2.37,11.41,11.41,0,0,1,.29-2.15,4.67,4.67,0,0,1,.55-.58,1.2,1.2,0,0,1,.72-.42c.2,0,.29.26.29.76a4.51,4.51,0,0,1-.11.78,3.13,3.13,0,0,1-.24.83,14.21,14.21,0,0,0-.22,3.44q0,.54.12.54.33,0,.93-.84a12.25,12.25,0,0,0,1.18-2.12c.4-.86.63-1.3.72-1.3s.13.06.13.16a4.76,4.76,0,0,1-.58,1.77c-1,2.23-1.93,3.35-2.64,3.35a1.89,1.89,0,0,1-1.18-.32,1.54,1.54,0,0,1-.14-.86c0-.47,0-1,.06-1.59A8.58,8.58,0,0,1,21.17,114a1.89,1.89,0,0,1-1.42.71,1.15,1.15,0,0,1-1.05-.42A2.86,2.86,0,0,1,18.44,112.89Z"/><path class="cls-1" d="M27.93,109.42l1.1-.12a.35.35,0,0,1,.28.18.68.68,0,0,1,.12.38c0,.13-.05.59-.13,1.35a16.44,16.44,0,0,0-.13,1.83q0,.66.12.66.33,0,.93-.84a12.23,12.23,0,0,0,1.19-2.12c.39-.86.63-1.3.71-1.3s.13.06.13.16a4.89,4.89,0,0,1-.57,1.77c-1.05,2.23-1.93,3.35-2.65,3.35a1.89,1.89,0,0,1-1.18-.32,5.15,5.15,0,0,1-.13-1.73,9.9,9.9,0,0,1,.33-2.73,1.74,1.74,0,0,1-1.61-.73,1.59,1.59,0,0,1-.24-.86,1.74,1.74,0,0,1,.2-.84.64.64,0,0,1,.57-.35.88.88,0,0,1,.68.38,1.39,1.39,0,0,1,.3.87,1.88,1.88,0,0,1-.27,1A.42.42,0,0,0,27.93,109.42Z"/><path class="cls-1" d="M38.72,113.74A1.54,1.54,0,0,0,40,113a5.32,5.32,0,0,0,.8-1.82,2,2,0,0,1-1.1-.77,2.2,2.2,0,0,1-.38-1.26,2.22,2.22,0,0,1,.37-1.26,1.22,1.22,0,0,1,1.07-.54c.28,0,.49.18.63.53a3,3,0,0,1,.22,1.19,8.35,8.35,0,0,1-.1,1.31,1.69,1.69,0,0,0,.64.12,2.1,2.1,0,0,0,1.49-.72c.24-.24.4-.36.49-.36s.13.07.13.2a.79.79,0,0,1-.26.48,3.43,3.43,0,0,1-2.67,1.17,6.42,6.42,0,0,1-1.17,2.45,2.43,2.43,0,0,1-2,1,1.35,1.35,0,0,1-1.11-.58,4.38,4.38,0,0,1-.74-2.75,15.25,15.25,0,0,1,.1-1.59,3.83,3.83,0,0,1,.23-1.19,1.86,1.86,0,0,1,.64-.54,1.73,1.73,0,0,1,.7-.32q.3,0,.3.36a5.52,5.52,0,0,1-.52,2.21,11.23,11.23,0,0,0,.23,2.42C38.16,113.41,38.4,113.74,38.72,113.74Zm1.81-5.63c-.11,0-.16.22-.16.66A1.76,1.76,0,0,0,41,110a3.88,3.88,0,0,0,0-.48C41,108.59,40.85,108.11,40.53,108.11Z"/><path class="cls-1" d="M45,114.72a1.87,1.87,0,0,1-1.17-.32,2,2,0,0,1-.14-1c0-.57,0-1.52.13-2.85a11.89,11.89,0,0,1,.23-2.16,3.5,3.5,0,0,1,.62-.6,1.49,1.49,0,0,1,.8-.44c.19,0,.29.26.29.76a5.87,5.87,0,0,1-.11.78,2.75,2.75,0,0,1-.25.83,13.13,13.13,0,0,0-.26,3.44q0,.54.12.54c.23,0,.54-.29.94-.84a12.25,12.25,0,0,0,1.18-2.12c.39-.86.63-1.3.72-1.3s.13.06.13.16a4.76,4.76,0,0,1-.58,1.77C46.6,113.6,45.72,114.72,45,114.72Zm-.57-9.83a.73.73,0,0,1,.38-.62,1.24,1.24,0,0,1,.67-.26c.36,0,.54.21.54.62a1.8,1.8,0,0,1-.32,1.06,1,1,0,0,1-.89.45C44.55,106.14,44.43,105.72,44.43,104.89Z"/><path class="cls-1" d="M50.62,108.53l0-.3c0-.24-.14-.36-.41-.36a1,1,0,0,0-.79.53,1.66,1.66,0,0,0-.38.86,3.51,3.51,0,0,0,0,.54q0,.2.09.33a2,2,0,0,0,.17.31l.18.26.22.28a1.88,1.88,0,0,0,.2.25c.69-.57,1.51-1.2,2.47-1.91a.28.28,0,0,1,.18-.06c.13,0,.19.08.19.22a.4.4,0,0,1-.17.34,24.12,24.12,0,0,0-2.41,1.77,2.44,2.44,0,0,1,.44,1.4,1.73,1.73,0,0,1-.58,1.29,2.08,2.08,0,0,1-1.47.54c-.6,0-.9-.29-.9-.86,0-.41.44-1,1.31-1.89-.06-.08-.18-.21-.35-.39a4.06,4.06,0,0,1-.39-.43,4.76,4.76,0,0,1-.31-.41,2,2,0,0,1-.32-1.08,2.51,2.51,0,0,1,.76-1.9,2.3,2.3,0,0,1,1.61-.72,1.13,1.13,0,0,1,.83.28.84.84,0,0,1,.3.59c0,.45-.1.68-.32.68S50.62,108.63,50.62,108.53Zm-1.28,3.92a2.17,2.17,0,0,0-.79,1.28.43.43,0,0,0,.49.49.62.62,0,0,0,.5-.24C49.83,113.58,49.77,113.07,49.34,112.45Z"/><path class="cls-1" d="M53.62,114.72a1.83,1.83,0,0,1-1.17-.32c-.1-.09-.14-.43-.14-1s0-1.52.13-2.85a12.51,12.51,0,0,1,.22-2.16,3.93,3.93,0,0,1,.62-.6,1.54,1.54,0,0,1,.81-.44c.19,0,.29.26.29.76a5.87,5.87,0,0,1-.11.78,3.48,3.48,0,0,1-.25.83,13.13,13.13,0,0,0-.26,3.44q0,.54.12.54c.22,0,.54-.29.93-.84A12.23,12.23,0,0,0,56,110.74c.39-.86.63-1.3.71-1.3s.13.06.13.16a4.89,4.89,0,0,1-.57,1.77C55.22,113.6,54.34,114.72,53.62,114.72ZM53,104.89a.75.75,0,0,1,.38-.62,1.27,1.27,0,0,1,.68-.26c.36,0,.53.21.53.62a1.79,1.79,0,0,1-.31,1.06,1,1,0,0,1-.9.45C53.17,106.14,53,105.72,53,104.89Z"/><path class="cls-1" d="M62.51,110.3a5.55,5.55,0,0,0,1.11-.45l.46-.29.24-.14a.35.35,0,0,1,.16-.06c.11,0,.16.06.16.18s-.2.33-.61.63a7.13,7.13,0,0,1-1.54.81,4.5,4.5,0,0,1-1.05,2.7,3.3,3.3,0,0,1-2.61,1,2.14,2.14,0,0,1-1.89-1,4,4,0,0,1-.65-2.31,4.41,4.41,0,0,1,.78-2.49,2.35,2.35,0,0,1,2-1.18,2.24,2.24,0,0,1,1.32-.4,1.88,1.88,0,0,1,1.43.82A3.39,3.39,0,0,1,62.51,110.3Zm-1.29,1-.72,0a2.32,2.32,0,0,1-1.55-.54,1.61,1.61,0,0,1-.64-1.21,2.81,2.81,0,0,1,.22-1.13,3.28,3.28,0,0,0-.85,2.66,4.28,4.28,0,0,0,.4,1.83,1.31,1.31,0,0,0,1.25.86,1.5,1.5,0,0,0,1.33-.73A3.6,3.6,0,0,0,61.22,111.31ZM60,108a.56.56,0,0,0-.5.29,1.16,1.16,0,0,0-.18.63,1.51,1.51,0,0,0,.51,1.19,1.69,1.69,0,0,0,1.18.46h.24a6.05,6.05,0,0,0-.33-1.77C60.72,108.28,60.41,108,60,108Z"/><path class="cls-1" d="M65.58,113.54l0,.62c0,.37-.11.56-.32.56a3.52,3.52,0,0,1-.92-.13c-.29-.09-.43-.21-.43-.36s0-.68.11-1.57.1-1.57.1-2v-1.18a2,2,0,0,1,.2-1.15c.14-.13.37-.32.71-.58a1.57,1.57,0,0,1,.74-.38c.15,0,.25,0,.28.08a.56.56,0,0,1,.06.3,5.08,5.08,0,0,1-.39,2c-.07.76-.1,1.28-.1,1.57l.83-1.35a12.67,12.67,0,0,1,1.29-1.81,1.43,1.43,0,0,1,.94-.58,1.16,1.16,0,0,1,.75.28.89.89,0,0,1,.33.7c0,.58-.07,1.44-.19,2.58s-.19,1.85-.19,2.14,0,.45.12.45.53-.29.93-.84a12.92,12.92,0,0,0,1.19-2.12c.39-.86.63-1.3.71-1.3s.13.06.13.16a4.76,4.76,0,0,1-.58,1.77c-1,2.23-1.93,3.35-2.64,3.35a1.89,1.89,0,0,1-1.18-.32,1.2,1.2,0,0,1-.14-.73c0-.39,0-1,.11-1.91s.11-1.54.11-2-.07-.65-.22-.65-.56.45-1.21,1.36a6.5,6.5,0,0,0-1,1.74A7.69,7.69,0,0,0,65.58,113.54Z"/><path class="cls-1" d="M72.5,114c0-.15.13-.33.38-.57a1.09,1.09,0,0,1,.68-.35.68.68,0,0,1,.53.37,1.58,1.58,0,0,1,.24.87,3.2,3.2,0,0,1-.72,1.52q-.73,1-1.23,1c-.1,0-.16-.07-.16-.21a1.52,1.52,0,0,1,.4-.74,1.48,1.48,0,0,0,.4-.81.91.91,0,0,0-.26-.58A.87.87,0,0,1,72.5,114Z"/><path class="cls-1" d="M86.11,110.3a5.15,5.15,0,0,0,1.1-.45l.47-.29.24-.14a.35.35,0,0,1,.16-.06c.11,0,.16.06.16.18s-.21.33-.62.63a6.81,6.81,0,0,1-1.53.81,4.5,4.5,0,0,1-1,2.7,3.3,3.3,0,0,1-2.61,1,2.14,2.14,0,0,1-1.89-1,4,4,0,0,1-.66-2.31,4.35,4.35,0,0,1,.79-2.49,2.34,2.34,0,0,1,2-1.18,2.24,2.24,0,0,1,1.32-.4,1.85,1.85,0,0,1,1.42.82A3.33,3.33,0,0,1,86.11,110.3Zm-1.29,1-.72,0a2.31,2.31,0,0,1-1.55-.54,1.58,1.58,0,0,1-.64-1.21,2.65,2.65,0,0,1,.22-1.13,3.28,3.28,0,0,0-.86,2.66,4.43,4.43,0,0,0,.4,1.83,1.33,1.33,0,0,0,1.26.86,1.5,1.5,0,0,0,1.33-.73A3.71,3.71,0,0,0,84.82,111.31ZM83.58,108a.56.56,0,0,0-.49.29,1.16,1.16,0,0,0-.18.63,1.54,1.54,0,0,0,.5,1.19,1.71,1.71,0,0,0,1.19.46h.24a6.05,6.05,0,0,0-.33-1.77C84.32,108.28,84,108,83.58,108Z"/><path class="cls-1" d="M87.62,112.89l.12-2.23a6.39,6.39,0,0,1,.2-2.33,8,8,0,0,1,.71-.59,1.51,1.51,0,0,1,.73-.39c.16,0,.25,0,.29.08a.6.6,0,0,1,.06.32,4.36,4.36,0,0,1-.38,1.73,19.41,19.41,0,0,0-.3,3c0,.78.13,1.17.38,1.17s.67-.26,1.08-.79a9.8,9.8,0,0,0,1.23-2.37,11.41,11.41,0,0,1,.29-2.15,4,4,0,0,1,.55-.58,1.2,1.2,0,0,1,.72-.42c.19,0,.29.26.29.76a5.87,5.87,0,0,1-.11.78,2.75,2.75,0,0,1-.25.83,14.79,14.79,0,0,0-.22,3.44q0,.54.12.54c.23,0,.54-.29.94-.84a12.25,12.25,0,0,0,1.18-2.12c.39-.86.63-1.3.72-1.3s.13.06.13.16a4.76,4.76,0,0,1-.58,1.77c-1,2.23-1.93,3.35-2.65,3.35a1.87,1.87,0,0,1-1.17-.32,1.54,1.54,0,0,1-.14-.86c0-.47,0-1,.06-1.59A8.58,8.58,0,0,1,90.35,114a1.9,1.9,0,0,1-1.42.71,1.13,1.13,0,0,1-1.05-.42A2.86,2.86,0,0,1,87.62,112.89Z"/><path class="cls-1" d="M97.11,109.42l1.1-.12a.35.35,0,0,1,.28.18.76.76,0,0,1,.11.38c0,.13,0,.59-.12,1.35a16.44,16.44,0,0,0-.13,1.83q0,.66.12.66.33,0,.93-.84a12.25,12.25,0,0,0,1.18-2.12c.4-.86.63-1.3.72-1.3s.13.06.13.16a4.76,4.76,0,0,1-.58,1.77c-1,2.23-1.93,3.35-2.64,3.35A1.89,1.89,0,0,1,97,114.4a5,5,0,0,1-.14-1.73,9.87,9.87,0,0,1,.34-2.73,1.74,1.74,0,0,1-1.61-.73,1.59,1.59,0,0,1-.24-.86,1.74,1.74,0,0,1,.2-.84.62.62,0,0,1,.57-.35.84.84,0,0,1,.67.38,1.35,1.35,0,0,1,.31.87,1.8,1.8,0,0,1-.28,1A.45.45,0,0,0,97.11,109.42Z"/><path class="cls-1" d="M108.37,110.42a6.94,6.94,0,0,0,1.8-.66c.49-.26.74-.4.77-.4s.12.07.12.2-.13.3-.4.5a7.84,7.84,0,0,1-2.09,1,16.23,16.23,0,0,1,.52,4.18,14.69,14.69,0,0,1-.42,3.55,3.93,3.93,0,0,1-.74,1.55,1.61,1.61,0,0,1-1.25.59.87.87,0,0,1-.87-.55,3.5,3.5,0,0,1-.34-1.26c0-.62-.06-1.64-.06-3a47,47,0,0,1,.32-5.09,1.53,1.53,0,0,1-.72-1.27,1.83,1.83,0,0,1,.32-1.15,1.44,1.44,0,0,1,.8-.53c.18-1.15.36-2.15.54-3a5.48,5.48,0,0,1,.83-2c.37-.53.74-.79,1.11-.79s.64.47.64,1.41a10.09,10.09,0,0,1-1.65,5A6.6,6.6,0,0,1,108.37,110.42Zm-2.32-1.83a.43.43,0,0,0-.3.46,1.11,1.11,0,0,0,.16.61C106,109.19,106,108.83,106.05,108.59Zm.93,2.82c-.12,1.64-.18,3.51-.18,5.62s.11,3.18.34,3.18q.6,0,1-1.56a14.05,14.05,0,0,0,.4-3.51,17.26,17.26,0,0,0-.44-3.89A4.08,4.08,0,0,1,107,111.41Zm.3-2.19-.12.2-.1,1a1.71,1.71,0,0,0,.47.08l.35,0A5.9,5.9,0,0,0,107.28,109.22Zm0-.79a12.9,12.9,0,0,0,1-2.26,6.54,6.54,0,0,0,.48-2.18q0-.87-.18-.87c-.21,0-.44.48-.68,1.45A31.81,31.81,0,0,0,107.28,108.43Z"/><path class="cls-1" d="M110.42,112.89l.12-2.23a6.39,6.39,0,0,1,.2-2.33,8,8,0,0,1,.71-.59,1.55,1.55,0,0,1,.73-.39c.16,0,.25,0,.29.08a.6.6,0,0,1,.06.32,4.2,4.2,0,0,1-.38,1.73,19.41,19.41,0,0,0-.3,3c0,.78.13,1.17.38,1.17s.67-.26,1.08-.79a9.8,9.8,0,0,0,1.23-2.37,11.41,11.41,0,0,1,.29-2.15,4,4,0,0,1,.55-.58,1.2,1.2,0,0,1,.72-.42c.19,0,.29.26.29.76a5.87,5.87,0,0,1-.11.78,2.75,2.75,0,0,1-.25.83,14.79,14.79,0,0,0-.22,3.44q0,.54.12.54c.23,0,.54-.29.94-.84a12.25,12.25,0,0,0,1.18-2.12c.39-.86.63-1.3.72-1.3s.13.06.13.16a4.76,4.76,0,0,1-.58,1.77c-1,2.23-1.93,3.35-2.65,3.35a1.87,1.87,0,0,1-1.17-.32,1.54,1.54,0,0,1-.14-.86c0-.47,0-1,.06-1.59a8.58,8.58,0,0,1-1.27,2.06,1.9,1.9,0,0,1-1.42.71,1.13,1.13,0,0,1-1-.42A2.86,2.86,0,0,1,110.42,112.89Z"/><path class="cls-1" d="M122.64,111.37c-1,2.23-1.93,3.35-2.66,3.35s-1.15-.09-1.27-.26a4.06,4.06,0,0,1-.19-1.71c0-1,.09-2.37.28-4.2-.66-.13-1-.41-1.06-.82,0-.21.14-.32.42-.32a1.72,1.72,0,0,1,.74.16c.12-.95.26-1.92.42-2.9a1.39,1.39,0,0,1,.37-.72.93.93,0,0,1,.62-.34c.17,0,.26.28.26.82,0,.25-.09,1.41-.28,3.48a4.7,4.7,0,0,0,1.18-.4,3.84,3.84,0,0,1,.77-.29q.36,0,.36.21c0,.14-.23.32-.74.55a7.59,7.59,0,0,1-1.63.53c-.16,1.94-.24,3.4-.24,4.4,0,.53.08.79.24.79s.56-.29,1-.83a12.54,12.54,0,0,0,1.18-2.12c.39-.87.63-1.31.72-1.31s.13.06.13.16A5,5,0,0,1,122.64,111.37Z"/><path class="cls-1" d="M122.68,112.89l.12-2.23a6.15,6.15,0,0,1,.2-2.33,7.47,7.47,0,0,1,.7-.59,1.57,1.57,0,0,1,.74-.39.38.38,0,0,1,.29.08.6.6,0,0,1,.06.32,4.36,4.36,0,0,1-.38,1.73,19.41,19.41,0,0,0-.3,3c0,.78.13,1.17.38,1.17s.66-.26,1.07-.79a9.77,9.77,0,0,0,1.24-2.37,10.5,10.5,0,0,1,.29-2.15,4.33,4.33,0,0,1,.54-.58,1.22,1.22,0,0,1,.73-.42c.19,0,.29.26.29.76a5.87,5.87,0,0,1-.11.78,3.48,3.48,0,0,1-.25.83,14.21,14.21,0,0,0-.22,3.44q0,.54.12.54.34,0,.93-.84a12.23,12.23,0,0,0,1.19-2.12c.39-.86.63-1.3.71-1.3s.13.06.13.16a4.89,4.89,0,0,1-.57,1.77c-1.05,2.23-1.93,3.35-2.65,3.35a1.83,1.83,0,0,1-1.17-.32c-.1-.09-.14-.38-.14-.86s0-1,.06-1.59A8.57,8.57,0,0,1,125.4,114a1.87,1.87,0,0,1-1.42.71,1.13,1.13,0,0,1-1-.42A2.75,2.75,0,0,1,122.68,112.89Z"/><path class="cls-1" d="M132.17,109.42l1.09-.12a.34.34,0,0,1,.28.18.68.68,0,0,1,.12.38c0,.13,0,.59-.13,1.35a16.44,16.44,0,0,0-.13,1.83q0,.66.12.66c.23,0,.54-.29.94-.84a13,13,0,0,0,1.18-2.12c.39-.86.63-1.3.72-1.3s.13.06.13.16a5,5,0,0,1-.58,1.77c-1,2.23-1.93,3.35-2.65,3.35a1.85,1.85,0,0,1-1.17-.32,5,5,0,0,1-.14-1.73,9.51,9.51,0,0,1,.34-2.73,1.73,1.73,0,0,1-1.61-.73,1.59,1.59,0,0,1-.24-.86,1.63,1.63,0,0,1,.2-.84.62.62,0,0,1,.56-.35.86.86,0,0,1,.68.38,1.35,1.35,0,0,1,.31.87,1.8,1.8,0,0,1-.28,1A.43.43,0,0,0,132.17,109.42Z"/><path class="cls-1" d="M138.44,114.72a2.12,2.12,0,0,1-1.77-.85A3,3,0,0,1,136,112a5.07,5.07,0,0,1,.91-3.28,2.94,2.94,0,0,1,2.37-1.12,1.74,1.74,0,0,1,1.12.37,1.25,1.25,0,0,1,.43,1,2.48,2.48,0,0,1-1,2,4,4,0,0,1-2.46.84,2.46,2.46,0,0,0,.53,1.34,1.31,1.31,0,0,0,1,.57,2.07,2.07,0,0,0,1.08-.28,2.92,2.92,0,0,0,.87-.79,11.6,11.6,0,0,0,1.44-2.49c.1-.24.18-.41.24-.52s.13-.16.2-.16.11.06.11.16a6.68,6.68,0,0,1-1.21,3A3.8,3.8,0,0,1,138.44,114.72Zm-1.06-3.43a3.06,3.06,0,0,0,1.72-.75,2,2,0,0,0,.55-1.45c0-.6-.19-.9-.58-.9s-.85.32-1.17,1A5.14,5.14,0,0,0,137.38,111.29Z"/></g></g></svg>