<?xml version="1.0" encoding="utf-8"?>
<!-- Generator: Adobe Illustrator 23.0.3, SVG Export Plug-In . SVG Version: 6.00 Build 0)  -->
<svg version="1.1" id="Layer_1" xmlns="http://www.w3.org/2000/svg" xmlns:xlink="http://www.w3.org/1999/xlink" x="0px" y="0px"
	 viewBox="0 0 300 133" style="enable-background:new 0 0 300 133;" xml:space="preserve">
<style type="text/css">
	.st0{fill:#FFFFFF;}
</style>
<g>
	<path class="st0" d="M171.11,40.72v8.03h6.39c-0.66,1.03-1.57,1.88-2.64,2.45l0,0c-1.12,0.6-2.37,0.91-3.64,0.89
		c-1.02,0.01-2.04-0.2-2.98-0.61c-0.93-0.37-1.77-0.9-2.5-1.58c-0.12-0.12-0.24-0.25-0.34-0.37c-0.53-0.6-0.96-1.29-1.28-2.03
		c-0.4-0.94-0.6-1.95-0.59-2.97c-0.01-1.02,0.2-2.03,0.62-2.97c0.4-0.9,0.95-1.73,1.63-2.44c0.69-0.69,1.5-1.25,2.4-1.63
		c0.94-0.39,1.95-0.6,2.97-0.6c0.8,0.01,1.59,0.14,2.34,0.41c0.75,0.24,1.46,0.58,2.12,1.01l3.17-5.71l0.72-1.3
		c-1.21-0.78-2.53-1.39-3.91-1.8c-1.44-0.43-2.93-0.65-4.44-0.65c-2.09-0.01-4.16,0.4-6.08,1.23c-1.85,0.78-3.53,1.92-4.94,3.35
		c-1.41,1.44-2.54,3.13-3.31,4.99c-0.81,1.92-1.23,3.99-1.22,6.08c-0.01,2.09,0.4,4.16,1.23,6.08c0.46,1.07,1.03,2.09,1.72,3.04
		c0.48,0.68,1.02,1.33,1.61,1.92c1.41,1.42,3.08,2.56,4.92,3.34c1.92,0.83,3.99,1.25,6.08,1.24c2.11,0.02,4.2-0.35,6.17-1.1
		c1.8-0.7,3.43-1.75,4.81-3.1c1.36-1.36,2.43-2.98,3.12-4.78c0.76-1.96,1.13-4.05,1.1-6.16v-4.25L171.11,40.72z"/>
	<path class="st0" d="M211.7,46.39c0.46-0.75,0.84-1.56,1.1-2.4c0.27-0.79,0.41-1.62,0.42-2.45v-1.76c0.01-1.42-0.27-2.83-0.82-4.14
		l0,0c-0.54-1.27-1.32-2.43-2.3-3.4c-0.98-0.98-2.15-1.77-3.43-2.3c-1.31-0.57-2.73-0.85-4.16-0.84h-3.77
		c-1.42-0.01-2.84,0.27-4.14,0.84c-1.27,0.54-2.43,1.31-3.43,2.27c-0.99,0.97-1.79,2.12-2.35,3.38c-0.57,1.27-0.87,2.65-0.86,4.05
		v20.25h7.92v-8.28h1.7c1.06-0.01,2.1,0.23,3.04,0.72c0.92,0.47,1.74,1.1,2.43,1.86c0.71,0.77,1.27,1.66,1.66,2.63
		c0,0,0,0.08,0,0.12c0.36,0.94,0.55,1.94,0.55,2.95h7.98c-0.01-0.99-0.11-1.97-0.3-2.94c-0.18-0.87-0.45-1.72-0.81-2.54
		c-0.04-0.12-0.09-0.24-0.14-0.35c-0.4-0.85-0.9-1.65-1.51-2.37c-0.04-0.06-0.08-0.11-0.13-0.16c-0.67-0.77-1.47-1.4-2.38-1.86
		c0.78-0.22,1.5-0.62,2.1-1.17C210.71,47.88,211.26,47.17,211.7,46.39z M195.87,45.12V39.7c-0.02-0.77,0.29-1.5,0.85-2.03
		c0.54-0.54,1.27-0.84,2.03-0.83h3.75c0.76-0.01,1.49,0.29,2.03,0.83c0.54,0.53,0.84,1.27,0.81,2.03v2.62
		c0.02,1.54-1.22,2.8-2.75,2.82c-0.02,0-0.05,0-0.07,0L195.87,45.12z"/>
	<path class="st0" d="M225.8,29.16c-1.42-0.01-2.83,0.28-4.13,0.85c-1.26,0.55-2.4,1.33-3.37,2.3c-0.97,0.99-1.76,2.15-2.31,3.42
		c-0.56,1.31-0.84,2.71-0.84,4.13v9.41c0.01,1.39,0.29,2.77,0.84,4.05c0.37,0.84,0.84,1.63,1.4,2.35c0.28,0.36,0.58,0.69,0.9,1.01
		c0.98,0.96,2.12,1.73,3.37,2.28c1.3,0.57,2.71,0.85,4.13,0.84h10.84v-7.56H225.8c-0.48,0-0.96-0.13-1.37-0.38
		c-0.9-0.57-1.45-1.56-1.46-2.63V48.2h13.65v-7.26h-13.65v-1.23c-0.01-0.76,0.28-1.49,0.82-2.03c0.52-0.56,1.26-0.86,2.03-0.84h10.8
		v-7.69L225.8,29.16z"/>
	<path class="st0" d="M249.53,29.16c-1.42-0.01-2.82,0.28-4.11,0.85c-2.54,1.1-4.57,3.13-5.68,5.67c-0.57,1.3-0.86,2.71-0.85,4.13
		v9.41c0,1.39,0.29,2.77,0.85,4.05c0.37,0.85,0.84,1.65,1.41,2.38c0.28,0.35,0.57,0.69,0.89,1.01c0.98,0.96,2.12,1.73,3.38,2.28
		c1.3,0.57,2.7,0.85,4.11,0.84h10.86v-7.54h-10.86c-0.48,0-0.95-0.13-1.36-0.38c-0.24-0.14-0.45-0.33-0.63-0.54
		c-0.53-0.57-0.83-1.32-0.82-2.1V48.2h13.66v-7.26h-13.63v-1.23c-0.01-0.76,0.28-1.49,0.82-2.03c0.52-0.56,1.26-0.87,2.03-0.84
		h10.86v-7.69L249.53,29.16z"/>
	<path class="st0" d="M280.27,29.07l0.3,17.66v0.08l-7.74-13.56l-1.11-1.94c-0.54-0.94-1.36-1.7-2.35-2.15
		c-0.98-0.5-2.08-0.7-3.17-0.59c-1.07,0.13-2.05,0.66-2.75,1.48c-0.88,1.16-1.3,2.6-1.18,4.05v25.67h8.1V43.32l1.44,2.55l6.69,11.78
		c0.11,0.18,0.22,0.36,0.34,0.53c0.57,0.8,1.37,1.4,2.29,1.72c1.05,0.38,2.18,0.45,3.27,0.21c1.08-0.24,2.06-0.82,2.79-1.64
		c0.8-0.9,1.22-2.07,1.17-3.27V29.07H280.27z"/>
	<path class="st0" d="M189.48,95.39c-0.06-0.27-0.13-0.54-0.23-0.8c-0.14-0.39-0.3-0.77-0.51-1.12c-0.24-0.43-0.52-0.84-0.84-1.22
		c-0.14-0.17-0.29-0.34-0.45-0.5c-0.55-0.54-1.19-0.96-1.9-1.25c1.05-0.66,1.86-1.63,2.34-2.77c0.42-0.96,0.66-1.99,0.7-3.04
		c0-1.12-0.19-2.24-0.58-3.29l-0.16-0.38c-0.46-1.09-1.15-2.07-2.03-2.87c-0.89-0.8-1.92-1.42-3.04-1.84
		c-1.19-0.45-2.46-0.68-3.74-0.67H164.6v30.69h15.65c1.29,0.01,2.56-0.22,3.77-0.67c2.29-0.83,4.14-2.55,5.11-4.78
		c0.5-1.15,0.72-2.4,0.64-3.66C189.72,96.61,189.63,96,189.48,95.39z M172.06,83.43h6.8c0.5,0,0.97,0.23,1.28,0.63
		c0.37,0.5,0.55,1.11,0.52,1.73c0.01,0.04,0.01,0.09,0,0.13c0,0.5-0.18,0.98-0.51,1.36c-0.32,0.36-0.79,0.57-1.28,0.56h-6.8
		L172.06,83.43z M172.06,94.24h8.1c0.5,0.02,0.96,0.26,1.25,0.67c0.34,0.4,0.53,0.9,0.54,1.43c0.01,0.54-0.18,1.07-0.54,1.49
		c-0.28,0.42-0.74,0.69-1.25,0.71h-8.1V94.24z"/>
	<path class="st0" d="M192.46,75.66v30.69h8.02V75.66H192.46z"/>
	<path class="st0" d="M226.78,92.95c0.47-0.75,0.84-1.55,1.09-2.4c0.27-0.79,0.41-1.62,0.42-2.45v-1.76
		c0.01-1.43-0.27-2.85-0.83-4.16l0,0c-1.08-2.58-3.14-4.63-5.72-5.7c-1.32-0.56-2.74-0.85-4.17-0.84h-3.74
		c-1.42-0.01-2.83,0.28-4.14,0.84c-1.27,0.54-2.43,1.31-3.42,2.27c-1,0.97-1.8,2.11-2.36,3.38c-0.57,1.28-0.86,2.65-0.87,4.05v20.25
		h7.93v-8.28h1.7c1.04,0,2.06,0.24,2.99,0.72c0.92,0.47,1.75,1.1,2.44,1.86c0.7,0.77,1.26,1.66,1.65,2.63v0.11
		c0.36,0.94,0.54,1.95,0.55,2.96h7.98c-0.01-0.99-0.11-1.97-0.3-2.94c-0.18-0.87-0.45-1.72-0.81-2.54
		c-0.04-0.12-0.09-0.24-0.14-0.35c-0.4-0.85-0.9-1.65-1.51-2.37c-0.04-0.06-0.08-0.11-0.13-0.16c-0.66-0.77-1.47-1.4-2.37-1.86
		c0.78-0.22,1.5-0.62,2.1-1.17C225.75,94.42,226.32,93.72,226.78,92.95z M210.94,91.67l-0.05-5.42c-0.02-0.76,0.29-1.5,0.84-2.03
		c0.54-0.53,1.27-0.83,2.03-0.83h3.76c0.76-0.01,1.49,0.29,2.03,0.83c0.55,0.53,0.85,1.26,0.82,2.03v2.62
		c0.01,1.55-1.25,2.81-2.79,2.82c-0.01,0-0.02,0-0.03,0L210.94,91.67z"/>
	<path class="st0" d="M255.68,85.03c-0.07-0.17-0.15-0.33-0.23-0.49c-0.74-1.63-1.77-3.11-3.04-4.37c-1.41-1.4-3.07-2.52-4.9-3.3
		c-1.88-0.81-3.91-1.22-5.96-1.21h-11.61v30.69h11.48c2.05,0.01,4.09-0.39,5.97-1.19c3.69-1.59,6.63-4.52,8.22-8.21
		c1.62-3.81,1.62-8.11,0-11.92H255.68z M237.79,83.43h3.69c1.01,0,2.01,0.22,2.93,0.63c0.89,0.39,1.69,0.94,2.37,1.64
		c0.67,0.69,1.2,1.5,1.58,2.38c0.06,0.14,0.11,0.27,0.16,0.42c0.29,0.8,0.44,1.65,0.44,2.5c0.01,1.04-0.19,2.08-0.6,3.04
		c-0.36,0.91-0.9,1.74-1.58,2.44c-0.68,0.7-1.48,1.26-2.37,1.65c-0.92,0.4-1.92,0.61-2.93,0.61h-3.69V83.43z"/>
	<path class="st0" d="M103.76,82.36l28.82,11.52c-1.94-0.31-3.87-0.61-5.81-0.91c-6.09-0.95-12.18-1.89-18.27-2.82
		c-5-0.76-10.02-1.52-15.03-2.28c-1.8-0.26-3.59-0.49-5.39-0.68c-3.03-0.32-6.08-0.48-9.13-0.49c-4,0-7.99,0.15-11.97,0.24
		c-7.55,0.17-15.48,0.41-22.84-1.65c-2.26-0.56-4.38-1.55-6.27-2.9c-1.78-1.4-3.39-3-4.8-4.77c-3.09-3.62-5.78-7.57-8.03-11.76
		c-1.6-3.14-2.89-6.49-6.09-8.37c-2.23-1.23-4.78-1.76-7.32-1.52c0.96-0.85,1.88-1.63,2.75-2.33c0.62-0.49,1.21-0.97,1.79-1.4l0,0
		c1.62-1.22,3.33-2.31,5.12-3.27l0,0l0,0c4.08-2.12,6.7-2.08,8.45-1.36l0.19,0.08c4,1.83,5.46,7.95,9.74,9.29
		c0.37,0.12,0.75,0.19,1.14,0.23c1.06,0.07,2.11-0.15,3.04-0.65c2.03-1.25,3.32-3.41,3.46-5.79c0.02-0.28,0.02-0.56,0-0.84
		c0-0.15,0-0.3-0.06-0.45l0,0l-0.07-0.32c-0.04-0.18-0.09-0.36-0.16-0.53c-0.05-0.18-0.12-0.35-0.18-0.52l-0.17-0.34
		c0-0.08-0.08-0.17-0.13-0.25c-0.04-0.09-0.08-0.17-0.14-0.24c-0.46-0.74-0.97-1.45-1.52-2.12l-0.31-0.41
		c-0.35-0.44-0.66-0.91-0.94-1.39c-0.05-0.08-0.09-0.17-0.13-0.24c-0.22-0.42-0.39-0.86-0.49-1.32c0-0.09,0-0.18-0.05-0.27l0,0
		c0-0.09,0-0.18-0.04-0.28c-0.01-0.08-0.01-0.16,0-0.24c0-0.13,0-0.24,0-0.37v-0.07c0-0.17,0-0.33,0-0.5c0-0.05,0-0.09,0-0.13
		c0.02-0.17,0.04-0.33,0.08-0.49c0.02-0.14,0.05-0.29,0.09-0.43c0.03-0.07,0.05-0.15,0.07-0.23c0.05-0.14,0.09-0.28,0.14-0.43
		c0.28-0.73,0.66-1.41,1.13-2.03c0.07-0.11,0.15-0.21,0.24-0.31l0.25-0.3c0.17-0.19,0.36-0.39,0.54-0.57
		c1.33-1.32,2.93-2.32,4.7-2.93c2.1-0.66,4.24-1.14,6.42-1.44c10.52-1.69,21.38-1.65,32.03-1.61c7.65,0.05,15.3,0.69,22.95,0.69
		l3.38,0.17c-4.79,1.45-9.59,2.85-14.42,4.14c-4.26,1.13-8.55,2.04-12.87,2.95c-3.09,0.65-6.2,2.34-7.09,5.58
		c-0.76,2.74-0.49,5.6-0.69,8.37c-0.08,1.18-0.28,2.35-0.59,3.49c-0.37,1.32-0.88,2.59-1.52,3.81l0,0c0,0-0.04,0.08-0.08,0.15
		l-0.27,0.55c-0.47,0.99-1.42,2.83-2.51,4.66c-0.91,1.69-2.07,3.23-3.45,4.57l1.28,0.86c1.91,1.28,3.92,2.42,5.99,3.41
		c0.51,0.24,1.01,0.48,1.52,0.71l0.2,0.08l0,0c0.27,0.12,0.56,0.24,0.84,0.34s0.51,0.2,0.76,0.29c0.25,0.09,0.48,0.17,0.76,0.24
		c0.37,0.12,0.76,0.24,1.13,0.33c2.09,0.44,4.24,0.49,6.35,0.15c2.69-0.3,5.37-0.69,8.05-1.13c3.81-0.63,7.61-1.35,11.37-1.99
		c3.2-0.56,6.4-1.12,9.6-1.69l9.29-1.67l0.28-0.05l0,0c4.16-0.75,8.33-1.51,12.49-2.28l3.35-0.62l2.44-0.45h0.19l-37.81,15.22
		l-2.63,1.07L103.76,82.36z"/>
	<path class="st0" d="M132.58,93.88l-24.07-3.73c-3.71-1.98-29.26-8.08-58.91-7.85c-6.74,0.08-12.07-3.52-16.39-8.75
		c-3.11-3.63-5.82-7.59-8.09-11.79c-1.59-3.14-2.79-5.74-5.96-7.61c-0.76-0.44-3.26-0.43-4.77-0.53l6.85-4.67l0,0l0,0
		c3.81-1.58,6.9-1.92,8.45-1.36l0.19,0.08c4,1.83,5.46,7.95,9.74,9.29c0.37,0.12,0.75,0.19,1.14,0.23c1.06,0.07,2.11-0.15,3.04-0.65
		c2.03-1.25,3.32-3.41,3.46-5.79c0.02-0.28,0.02-0.56,0-0.84c0-0.15,0-0.3-0.06-0.45l0,0l-0.07-0.32c-0.04-0.18-0.09-0.36-0.16-0.53
		c0.09-0.25,0.16-0.5,0.22-0.76c0.11-0.39,0.19-0.78,0.22-1.18c0.23-3.81-3.04-5.43-4.1-8.33c0.28-0.73,0.66-1.41,1.13-2.03
		c0.07-0.11,0.15-0.21,0.24-0.31l0.25-0.3c0.17-0.19,0.36-0.39,0.54-0.57c1.31-1.31,2.9-2.31,4.65-2.92
		c2.1-0.66,4.24-1.14,6.42-1.44c10.52-1.69,21.38-1.65,32.03-1.61c7.65,0.05,15.3,0.69,22.95,0.69l3.38,0.17
		c-4.79,1.45-9.59,2.85-14.42,4.14c-4.26,1.13-8.55,2.04-12.87,2.95c-3.09,0.65-6.2,2.34-7.09,5.58c-0.76,2.74-0.49,5.6-0.69,8.37
		c-0.08,1.18-0.28,2.35-0.59,3.49c-0.37,1.32-0.88,2.59-1.52,3.81l0,0c0,0-0.04,0.08-0.08,0.15l-0.2,0.35
		c-0.03,0.06-0.06,0.13-0.08,0.2c-0.47,0.99-1.42,2.83-2.51,4.66c-0.91,1.69-2.07,3.23-3.45,4.57l1.28,0.86
		c1.91,1.28,3.92,2.42,5.99,3.41c0.51,0.24,1.01,0.48,1.52,0.71l0.2,0.08l0,0c0.27,0.12,0.56,0.24,0.84,0.34s0.51,0.2,0.76,0.29
		c0.25,0.09,0.48,0.17,0.76,0.24c0.37,0.12,0.76,0.24,1.13,0.33c2.09,0.44,4.24,0.49,6.35,0.15c2.69-0.3,5.37-0.69,8.05-1.13
		c3.81-0.63,7.61-1.35,11.37-1.99c3.2-0.56,6.4-1.12,9.6-1.69l9.29-1.67l0.28-0.05l-11.37,4.57l-6.88,2.82l-3.33,1.34l-0.27,0.11
		l-3.11,1.26l5.56,1.75h0.05h0.05l-2.63,1.07l-3.17,1.28L132.58,93.88z"/>
	<path class="st0" d="M140.08,29.54c-0.06-0.33-0.31-0.6-0.64-0.69l0,0c0.26-0.02,0.5-0.14,0.66-0.34c0.14-0.23,0.21-0.49,0.2-0.76
		c0.04-0.39-0.1-0.77-0.38-1.04c-0.37-0.24-0.81-0.36-1.25-0.33c-0.57-0.01-1.15,0.01-1.72,0.06v4.51h0.96v-1.76h0.71
		c0.11,0,0.22,0.02,0.31,0.08c0.08,0.08,0.14,0.18,0.16,0.29l0.34,1.39h1.06L140.08,29.54z M139.16,28.31
		c-0.16,0.11-0.35,0.16-0.54,0.14h-0.76v-1.3h0.76c0.19-0.02,0.38,0.02,0.54,0.12c0.11,0.15,0.16,0.33,0.14,0.51
		C139.32,27.97,139.27,28.16,139.16,28.31z"/>
	<path class="st0" d="M138.67,24.04c-2.56,0-4.63,2.07-4.63,4.63c0,2.56,2.07,4.63,4.63,4.63s4.63-2.07,4.63-4.63c0,0,0-0.01,0-0.01
		C143.29,26.11,141.22,24.04,138.67,24.04z M138.67,32.71c-2.24,0-4.05-1.81-4.06-4.04c0-2.24,1.81-4.05,4.04-4.06
		s4.05,1.81,4.06,4.04c0,0,0,0.01,0,0.01C142.71,30.89,140.9,32.7,138.67,32.71z"/>
	<path class="st0" d="M76.95,103.67c-1.41,0.52-2.82,1-4.26,1.45c-1.23,0.4-2.46,0.76-3.71,1.11c-7.13,2.1-14.57,3-21.99,2.65
		c-3.41-0.15-6.77-0.82-9.97-2.01c-0.53-0.21-1.04-0.44-1.52-0.69c-1.54-0.73-2.96-1.68-4.22-2.82c-2.13-1.95-3.66-4.47-4.4-7.26
		c-0.61-2.67-0.13-5.47,1.34-7.78c0.69-1.17,1.59-2.22,2.63-3.09c0.38-0.31,2.81-2.28,3.3-1.77c1.72,1.69,3.75,3.04,5.98,3.97
		c0.53,0.23,1.07,0.43,1.61,0.6l0.84,0.24c1.22,0.34,2.48,0.55,3.75,0.63c0.83,0.05,1.67,0.05,2.5,0c0.6,0,1.99,0,2.49-0.31
		c-1.52,1.1-3.14,2.28-3.95,3.96c-0.05,0.12-0.11,0.24-0.15,0.37c-0.27,0.61-0.33,1.29-0.18,1.93c0.36,0.87,1.03,1.57,1.88,1.97
		c1.25,0.75,2.56,1.38,3.92,1.9l0.27,0.1c2.86,1.03,5.78,1.86,8.75,2.49c4.4,1.02,8.87,1.76,13.37,2.19h0.2
		C75.9,103.66,76.43,103.71,76.95,103.67z"/>
	<path class="st0" d="M63.56,102.46c1.74,0.52,5.66,1.64,9.13,2.66c-1.23,0.4-2.46,0.76-3.71,1.11c-7.13,2.1-14.57,3-21.99,2.65
		c-3.98-0.14-7.89-1.05-11.52-2.69c-1.25-1.62-2.17-3.48-2.69-5.46c-0.62-2.66-0.16-5.46,1.29-7.78c0.7-1.17,1.59-2.22,2.64-3.09
		c0.22-0.18,1.94-1.52,3.4-2.43c0.53,0.23,1.07,0.43,1.61,0.6c2.28,0.73,4.69,1.03,7.08,0.88c0.6,0,1.99,0,2.49-0.31
		c-1.52,1.1-3.14,2.28-3.95,3.96c-0.05,0.12-0.11,0.24-0.15,0.37c-0.27,0.61-0.33,1.29-0.18,1.93c0.36,0.87,1.03,1.57,1.88,1.97
		c1.25,0.75,2.56,1.38,3.92,1.9C52.81,99,63.31,102.39,63.56,102.46z"/>
	<path class="st0" d="M114.92,30.05c-4.79,1.45-9.58,2.85-14.42,4.14c-4.26,1.13-8.56,2.04-12.87,2.95
		c-3.09,0.65-6.2,2.33-7.09,5.58c-0.76,2.73-0.49,5.6-0.69,8.37c-0.08,1.18-0.28,2.35-0.59,3.49c-0.37,1.32-0.88,2.59-1.52,3.81l0,0
		c0,0-0.04,0.08-0.08,0.15l-0.27,0.55c-0.48,0.99-1.42,2.83-2.51,4.66c-8.22,4.42-24.15,25.42-35.22-6.85
		c0.37,0.12,0.74,0.19,1.13,0.23c1.06,0.07,2.11-0.15,3.04-0.65c1.7-1.01,2.89-2.68,3.3-4.61c0.09-0.39,0.15-0.78,0.17-1.17
		c0.02-0.28,0.02-0.56,0-0.84c-0.01-0.15-0.03-0.3-0.05-0.45l0,0l-0.07-0.32c-0.04-0.18-0.09-0.36-0.15-0.53
		c-0.06-0.17-0.12-0.34-0.2-0.51c-0.04-0.1-0.08-0.2-0.14-0.29c0-0.08-0.08-0.17-0.13-0.25c-0.04-0.09-0.09-0.17-0.14-0.25
		c-0.46-0.74-0.97-1.44-1.52-2.11l-0.31-0.41c-0.36-0.43-0.69-0.89-0.98-1.36c-0.05-0.08-0.09-0.16-0.13-0.24
		c-0.22-0.42-0.39-0.86-0.49-1.32c0-0.09,0-0.18-0.05-0.27l0,0c0-0.09,0-0.19-0.04-0.28c-0.01-0.08-0.01-0.16,0-0.24
		c0-0.12,0-0.24,0-0.37v-0.06c0-0.17,0-0.33,0-0.5c0-0.05,0-0.09,0-0.14c0-0.16,0.05-0.32,0.08-0.49c0.02-0.14,0.05-0.28,0.09-0.42
		l0.07-0.24c0.04-0.14,0.08-0.28,0.14-0.42c0.28-0.73,0.66-1.42,1.13-2.04c0.08-0.11,0.16-0.21,0.24-0.3s0.17-0.21,0.25-0.3
		s0.36-0.38,0.54-0.57c1.33-1.32,2.93-2.32,4.7-2.93c2.1-0.65,4.24-1.13,6.42-1.44c10.52-1.69,21.38-1.65,32.03-1.61
		c7.65,0.05,15.3,0.68,22.95,0.68L114.92,30.05z"/>
	<path class="st0" d="M111.54,29.88l3.38,0.18c-4.79,1.45-9.58,2.85-14.42,4.14c-4.26,1.13-8.56,2.04-12.87,2.95
		c-3.09,0.65-6.2,2.33-7.09,5.58c-0.76,2.73-0.49,5.6-0.69,8.37c-0.08,1.18-0.28,2.35-0.59,3.49c-0.37,1.32-0.88,2.59-1.52,3.81
		c-6.2-1.22-12.57-4.57-17.97-11.64c-5.18-6.79-10.07-10.2-14.33-11.64c1.33-1.3,2.93-2.29,4.69-2.89c2.1-0.65,4.24-1.13,6.42-1.44
		c10.52-1.69,21.38-1.65,32.03-1.61C96.24,29.25,103.89,29.88,111.54,29.88z"/>
	<path class="st0" d="M80.26,73.26c1.18,0.52,2.41,0.95,3.65,1.29c2.09,0.44,4.24,0.49,6.35,0.15c2.69-0.3,5.37-0.69,8.05-1.14
		c3.81-0.62,7.61-1.34,11.37-1.99c10.57-1.83,21.12-3.76,31.69-5.69c1.12-0.2,2.23-0.41,3.34-0.62l2.63-0.49L98.31,84.49
		L80.26,73.26z"/>
</g>
</svg>
