<svg id="Layer_1" data-name="Layer 1" xmlns="http://www.w3.org/2000/svg" viewBox="0 0 180 80"><defs><style>.cls-1{fill:#fff;}</style></defs><title>01</title><path class="cls-1" d="M158.55,17.49l.32,1c-.11-.35-.23-.7-.36-1Z"/><path class="cls-1" d="M158.87,18.53l.31,1h0C159.07,19.23,159,18.88,158.87,18.53Z"/><path class="cls-1" d="M166.82,44.78c-.08-.35-.17-.7-.28-1.05s-.22-.69-.35-1a14.28,14.28,0,0,0-6.58-7.4,14.54,14.54,0,0,0-3-1.18,14.06,14.06,0,0,0-2.33-.43A14,14,0,0,0,156,32a15,15,0,0,0,1.82-2.65,14.18,14.18,0,0,0,1.33-9.81c-.07-.35-.17-.7-.27-1s-.23-.7-.36-1a14.16,14.16,0,0,0-6.58-7.4,13.94,13.94,0,0,0-3-1.19,14.2,14.2,0,0,0-7.88.13l-29.22,8.88-.73,1.56-.52,1.09,10.82-3.28,7,23.13-8.16,2.49,0,.15a1.53,1.53,0,0,1,.57.79,1.56,1.56,0,0,1,0,1l0,.15,8.16-2.48,7,23.13-4.92,1.49h.05l0,0-1.66,2.15h1.94l.41-.13h0l.53-.16,24.56-7.47a14.27,14.27,0,0,0,9.77-16.75ZM125.34,17.36l16.38-5A10.88,10.88,0,0,1,155,18.69c.12.3.23.61.33.92s.18.63.24.95a10.88,10.88,0,0,1-7.48,12.63l-16.38,5Zm36.83,35.75a10.89,10.89,0,0,1-6.44,5.29l-16.38,5L133,42.57l16.38-5a10.88,10.88,0,0,1,13.25,6.32,9.07,9.07,0,0,1,.32.92c.1.31.18.63.25,1A10.88,10.88,0,0,1,162.17,53.11Z"/><path class="cls-1" d="M112.53,24.45a3.1,3.1,0,0,0-.51-.85c-.1-.11-.19-.21-.3-.31a3.13,3.13,0,0,0-1.82-.79h-.2a3.13,3.13,0,0,0-2.45,5.13,3.17,3.17,0,0,0,2.12,1.09,3.09,3.09,0,0,0,2.27-.72,3.12,3.12,0,0,0,.89-3.54Zm-1.39,1.18v.1a1.51,1.51,0,0,1-2.66.85,1.51,1.51,0,0,1,.19-2.12,1.43,1.43,0,0,1,.91-.36h.18a1.49,1.49,0,0,1,1,.53A1.52,1.52,0,0,1,111.14,25.63Z"/><path class="cls-1" d="M122,42.4a3.12,3.12,0,0,0-5.46,2.8h0a3.12,3.12,0,0,0,5.73.56,3.15,3.15,0,0,0,.36-1.28,3.22,3.22,0,0,0-.13-1.1h0A3.13,3.13,0,0,0,122,42.4Zm-2,3.33a1.52,1.52,0,0,1-1.15-.11,1.48,1.48,0,0,1-.73-.89A1.51,1.51,0,0,1,120.19,43l.16.1a1.53,1.53,0,0,1,.57.79,1.56,1.56,0,0,1,0,1,1.3,1.3,0,0,1-.08.17A1.48,1.48,0,0,1,119.92,45.73Z"/><path class="cls-1" d="M123.53,67.31l-.06-.18a2.76,2.76,0,0,0-.38-.72,3.11,3.11,0,0,0-5.52,2.71,3.12,3.12,0,0,0,5.73.56,2.59,2.59,0,0,0,.17-.38,2.67,2.67,0,0,0,.18-.79A2.9,2.9,0,0,0,123.53,67.31Zm-1.65,1.61a1.48,1.48,0,0,1-.89.73,1.52,1.52,0,0,1-1.15-.11,1.48,1.48,0,0,1-.73-.89,1.51,1.51,0,0,1,2.15-1.77,1.54,1.54,0,0,1,.73.89A1.52,1.52,0,0,1,121.88,68.92Z"/><polygon class="cls-1" points="127.68 35.89 127.89 36.58 123.61 37.9 121.4 36.76 117.45 37.96 117.23 37.24 121.51 35.94 123.7 37.13 127.68 35.89"/><polygon class="cls-1" points="133.38 53.32 133.6 54.04 128.27 55.65 127.11 57.82 122.82 59.13 122.61 58.44 126.61 57.23 127.75 55.02 133.38 53.32"/><polygon class="cls-1" points="131.46 47.75 131.68 48.47 123.8 50.85 123.58 50.13 131.46 47.75"/><polygon class="cls-1" points="125.95 30.22 126.16 30.91 120.61 32.62 118.05 31.26 117.8 31.12 118.14 30.48 118.47 30.63 120.7 31.85 125.95 30.22"/><path class="cls-1" d="M122.88,58.36a1.23,1.23,0,0,0-1.44-.49,1.34,1.34,0,0,0-.92,1.67,1.36,1.36,0,0,0,2.66-.52l-.08-.26A.76.76,0,0,0,122.88,58.36Zm-.83,1.51a.76.76,0,1,1-.44-1.45.76.76,0,0,1,.44,1.45Z"/><path class="cls-1" d="M123.74,50.08a1.28,1.28,0,0,0-1.49-.58,1.37,1.37,0,0,0,.79,2.62A1.28,1.28,0,0,0,124,50.8a.69.69,0,0,0,0-.38A.71.71,0,0,0,123.74,50.08Zm-.88,1.45a.77.77,0,0,1-1-.49.8.8,0,0,1,.52-1,.79.79,0,0,1,1,.53A.75.75,0,0,1,122.86,51.53Z"/><polygon class="cls-1" points="134.93 59.11 135.12 59.71 131.16 60.9 130.98 60.3 134.93 59.11"/><path class="cls-1" d="M131.09,60.33s0,0,0,0h0a.89.89,0,0,0-1-.35,1,1,0,0,0-.67,1.21,1,1,0,0,0,1.23.63.92.92,0,0,0,.63-.87v0s0,0,0-.06a.57.57,0,0,0,0-.24A.8.8,0,0,0,131.09,60.33Zm-.62,1a.54.54,0,0,1-.68-.33.55.55,0,0,1,.37-.68.53.53,0,1,1,.31,1Z"/><rect class="cls-1" x="115.92" y="25.07" width="8.4" height="0.62" transform="translate(-2.18 36.09) rotate(-16.93)"/><path class="cls-1" d="M116.16,26.33s0,0,0,0a.92.92,0,0,0-1-.36,1,1,0,0,0-.67,1.2,1,1,0,0,0,1.23.63,1,1,0,0,0,.66-.88.13.13,0,0,0,0-.08c0-.06,0-.14,0-.24S116.18,26.4,116.16,26.33Zm-.65,1a.55.55,0,0,1-.68-.37.54.54,0,0,1,.36-.68.55.55,0,0,1,.32,1.05Z"/><path class="cls-1" d="M117.62,37.12A1.35,1.35,0,0,0,116,36.5a1.35,1.35,0,1,0,.78,2.58,1.33,1.33,0,0,0,1-1.22,1,1,0,0,0,0-.45C117.71,37.31,117.65,37.22,117.62,37.12Zm-1,1.4a.81.81,0,0,1-1-.49.79.79,0,0,1,.53-1,.77.77,0,0,1,.44,1.47Z"/><path class="cls-1" d="M116.75,29a1.38,1.38,0,0,0-.91,1.7,1.36,1.36,0,0,0,1.69.88,1.08,1.08,0,0,0,.52-.3,1.62,1.62,0,0,0,.42-.63,1.59,1.59,0,0,0,0-.75A1.38,1.38,0,0,0,116.75,29Zm-.32,1.52a.76.76,0,0,1,.49-1,.8.8,0,0,1,1,.52.79.79,0,0,1-.53.95A.75.75,0,0,1,116.43,30.5Z"/><polygon class="cls-1" points="114.26 17.91 114.05 18.34 113.41 19.72 111.72 23.29 111.29 24.21 109.32 23.29 109.7 22.49 110.6 20.57 111.12 19.48 111.85 17.92 113.31 17.47 114.26 17.91"/><polygon class="cls-1" points="132.49 69 131.96 69.17 131.94 69.17 131.53 69.3 129.59 69.3 123.47 69.3 122.91 69.3 122.91 67.13 123.47 67.13 131.25 67.12 131.42 67.12 131.65 67.53 132.49 69"/><polyline class="cls-1" points="131.25 67.12 131.25 67.15 131.94 69.17"/><line class="cls-1" x1="131.96" y1="69.16" x2="131.3" y2="67.12"/><path class="cls-1" d="M20,57.87v.75c0,1.43-.39,2.31-1.72,2.6,1.42.28,2,1.33,2,2.81v1.15c0,1.9-.87,3-2.88,3H14.59V55.07h2.76C19.32,55.07,20,56.05,20,57.87Zm-.86.92V58c0-1.37-.43-2.09-1.84-2.09H15.45v5h1.47C18.46,60.88,19.17,60.46,19.17,58.79Zm.24,6.37V64c0-1.71-.77-2.31-2.33-2.31H15.45v5.76H17.4C18.85,67.43,19.41,66.62,19.41,65.16Z"/><path class="cls-1" d="M22.67,68.22h-.79l2.87-13.17H26l2.93,13.17h-.86l-.66-2.91h-4.1Zm4.62-3.66-1.94-8.51-1.89,8.51Z"/><path class="cls-1" d="M32.59,68.22,30.46,55.07h.85l2,12L35.2,55.13h.92L38,67l1.9-11.95h.77L38.52,68.22H37.4L35.63,57.46,33.79,68.22Z"/><path class="cls-1" d="M42.66,68.22h-.79l2.87-13.17H46l2.93,13.17h-.86l-.66-2.91H43.32Zm4.62-3.66-1.93-8.51-1.9,8.51Z"/><path class="cls-1" d="M56.07,57.87v.75c0,1.43-.39,2.31-1.72,2.6,1.42.28,2,1.33,2,2.81v1.15c0,1.9-.87,3-2.88,3H50.63V55.07h2.76C55.36,55.07,56.07,56.05,56.07,57.87Zm-.86.92V58c0-1.37-.43-2.09-1.84-2.09H51.49v5H53C54.5,60.88,55.21,60.46,55.21,58.79Zm.24,6.37V64c0-1.71-.77-2.31-2.33-2.31H51.49v5.76h1.95C54.89,67.43,55.45,66.62,55.45,65.16Z"/><path class="cls-1" d="M58.71,68.22h-.79l2.87-13.17h1.26L65,68.22h-.86l-.66-2.91h-4.1Zm4.62-3.66-1.94-8.51L59.5,64.56Z"/><path class="cls-1" d="M67.28,68.22h-.79l2.87-13.17h1.26l2.93,13.17h-.86L72,65.31h-4.1Zm4.62-3.66L70,56.05l-1.9,8.51Z"/><path class="cls-1" d="M80.8,55.86H78.12v-.79h6.21v.79H81.67V68.22H80.8Z"/><path class="cls-1" d="M90.29,62H86.7v5.48H91v.79H85.84V55.07H91v.79H86.7v5.3h3.59Z"/><path class="cls-1" d="M98.43,58.28v1.09H97.6V58.23c0-1.41-.54-2.48-2-2.48s-2,1.07-2,2.48v6.84c0,1.4.54,2.46,2,2.46s2-1.06,2-2.46V63.51h.83V65c0,1.9-.83,3.32-2.84,3.32S92.75,66.91,92.75,65V58.28c0-1.89.83-3.32,2.84-3.32S98.43,56.39,98.43,58.28Z"/><path class="cls-1" d="M101.08,68.22h-.86V55.07h.86v6.18h4.09V55.07h.89V68.22h-.89V62h-4.09Z"/><path class="cls-1" d="M23.65,42.17c.09,0,.13.1.13.23v1.8c0,.14-.14.21-.4.21h-.93a3,3,0,0,1-.78-.1,2.47,2.47,0,0,1-.73-.31,2.56,2.56,0,0,1-.61-.53,2.64,2.64,0,0,1-.43-.78,3,3,0,0,1-.94.89,2.93,2.93,0,0,1-1.39.27A4,4,0,0,1,16,43.53a3.85,3.85,0,0,1-1.26-.89,4,4,0,0,1-.82-1.35,5.2,5.2,0,0,1-.28-1.76,8.63,8.63,0,0,1,.17-1.79,3.86,3.86,0,0,1,.61-1.48,3,3,0,0,1,1.19-1,4.43,4.43,0,0,1,1.91-.36h4v5.24a2.55,2.55,0,0,0,.36,1.56,1.41,1.41,0,0,0,1.19.44h.34A1.1,1.1,0,0,1,23.65,42.17ZM18.2,30.63v2.2H16v-2.2Zm.49,10.56a3.72,3.72,0,0,0,.25-1.62V37.08H17.48a1,1,0,0,0-1,.71,4.45,4.45,0,0,0-.3,1.74,3.42,3.42,0,0,0,.3,1.55,1.27,1.27,0,0,0,1.24.59A1,1,0,0,0,18.69,41.19Zm2.39-10.56v2.2H18.89v-2.2Z"/><path class="cls-1" d="M23,44.2V42.4c0-.13,0-.2.12-.23a1.26,1.26,0,0,1,.28,0h.78a1.64,1.64,0,0,0,.42-.06,1.2,1.2,0,0,0,.76-.71,1.7,1.7,0,0,0,.13-.73V35.81h2.71v4.43a2.22,2.22,0,0,0,.14.86,1.65,1.65,0,0,0,.37.59,1.46,1.46,0,0,0,.52.34,1.73,1.73,0,0,0,.58.1h.67a1.1,1.1,0,0,1,.27,0c.09,0,.13.1.13.23v1.8c0,.14-.13.21-.4.21h-.67a2.27,2.27,0,0,1-.72-.12,3.67,3.67,0,0,1-1.75-1.21,2.93,2.93,0,0,1-.77.65,4.8,4.8,0,0,1-.86.41,4.39,4.39,0,0,1-.83.21,4.72,4.72,0,0,1-.7.06h-.78C23.11,44.41,23,44.34,23,44.2Zm3.44,2.1v2.19H24.26V46.3Zm2.88,0v2.19H27.11V46.3Z"/><path class="cls-1" d="M30.06,44.2V42.4c0-.13,0-.2.12-.23a1.26,1.26,0,0,1,.28,0h.78a1.64,1.64,0,0,0,.42-.06,1.2,1.2,0,0,0,.76-.71,1.7,1.7,0,0,0,.13-.73V35.81h2.71v4.43a2.22,2.22,0,0,0,.14.86,1.65,1.65,0,0,0,.37.59,1.46,1.46,0,0,0,.52.34,1.73,1.73,0,0,0,.58.1h.67a1.1,1.1,0,0,1,.27,0c.09,0,.13.1.13.23v1.8c0,.14-.13.21-.4.21h-.67a2.27,2.27,0,0,1-.72-.12,3.67,3.67,0,0,1-1.75-1.21,2.93,2.93,0,0,1-.77.65,4.8,4.8,0,0,1-.86.41,4.39,4.39,0,0,1-.83.21,4.72,4.72,0,0,1-.7.06h-.78C30.19,44.41,30.06,44.34,30.06,44.2Zm5.12-13.57v2.25h-2.7V30.63Z"/><path class="cls-1" d="M37.14,44.2V42.4c0-.13,0-.2.12-.23a1.26,1.26,0,0,1,.28,0h2.21v-.07a3,3,0,0,1-.32-.57c-.09-.23-.17-.46-.24-.7a5.94,5.94,0,0,1-.17-.7,4.83,4.83,0,0,1-.05-.6,5.37,5.37,0,0,1,1.12-3.62,4.05,4.05,0,0,1,3.25-1.31,4.28,4.28,0,0,1,3.3,1.26,5.26,5.26,0,0,1,1.16,3.67,3.57,3.57,0,0,1-.06.6,6.18,6.18,0,0,1-.41,1.4,3,3,0,0,1-.31.57v.07h2.2a1.11,1.11,0,0,1,.28,0c.08,0,.12.1.12.23v1.8c0,.14-.13.21-.4.21H37.54C37.27,44.41,37.14,44.34,37.14,44.2ZM43,30.63v2.2H40.83v-2.2Zm-1.24,9.92a2.77,2.77,0,0,0,.21.88,1.47,1.47,0,0,0,.5.6,1.5,1.5,0,0,0,.87.22,1.53,1.53,0,0,0,.88-.23,1.43,1.43,0,0,0,.49-.62,2.65,2.65,0,0,0,.22-.88c0-.32,0-.67,0-1s0-.7,0-1a2.58,2.58,0,0,0-.22-.88,1.35,1.35,0,0,0-1.37-.87,1.43,1.43,0,0,0-.87.24,1.56,1.56,0,0,0-.5.63,2.84,2.84,0,0,0-.21.88,11,11,0,0,0,0,2.1Zm4.11-9.92v2.2H43.69v-2.2Z"/><path class="cls-1" d="M48.83,44.2V42.4c0-.13,0-.2.12-.23a1.11,1.11,0,0,1,.28,0H50a1.76,1.76,0,0,0,.42-.06,1.27,1.27,0,0,0,.42-.24,1.3,1.3,0,0,0,.34-.47,1.7,1.7,0,0,0,.13-.73V35.81H54v4.43a2.42,2.42,0,0,0,.14.86,1.67,1.67,0,0,0,.38.59,1.38,1.38,0,0,0,.52.34,1.73,1.73,0,0,0,.58.1h.66a1.11,1.11,0,0,1,.28,0c.08,0,.12.1.12.23v1.8c0,.14-.13.21-.4.21h-.66a2.27,2.27,0,0,1-.72-.12,3.27,3.27,0,0,1-.69-.3,4,4,0,0,1-.6-.42,3.44,3.44,0,0,1-.46-.49,2.82,2.82,0,0,1-.78.65,4.72,4.72,0,0,1-.85.41,4.59,4.59,0,0,1-.83.21,4.83,4.83,0,0,1-.7.06h-.78C49,44.41,48.83,44.34,48.83,44.2Zm3.56-13.57v2.2H50.22v-2.2Zm2.87,0v2.2H53.07v-2.2Z"/><path class="cls-1" d="M58.89,30.63H61.6V44.41H56.31c-.27,0-.4-.07-.4-.21V42.4c0-.13,0-.2.12-.23a1.11,1.11,0,0,1,.28,0h2.58Z"/><path class="cls-1" d="M63.88,30.63h2.7V44.41h-2.7Z"/><path class="cls-1" d="M79.66,42.17c.08,0,.12.1.12.23v1.8c0,.14-.13.21-.4.21h-.93a3,3,0,0,1-.77-.1A2.47,2.47,0,0,1,77,44a2.56,2.56,0,0,1-.61-.53,2.44,2.44,0,0,1-.44-.78,2.87,2.87,0,0,1-.93.89,2.93,2.93,0,0,1-1.39.27A4,4,0,0,1,72,43.53a3.71,3.71,0,0,1-1.25-.89,3.86,3.86,0,0,1-.82-1.35,5.2,5.2,0,0,1-.29-1.76,9.37,9.37,0,0,1,.17-1.79,4,4,0,0,1,.61-1.48,3,3,0,0,1,1.19-1,4.43,4.43,0,0,1,1.91-.36h4v5.24a2.64,2.64,0,0,0,.35,1.56,1.42,1.42,0,0,0,1.19.44h.34A1.18,1.18,0,0,1,79.66,42.17ZM74.21,30.63v2.2H72v-2.2Zm.48,10.56A3.69,3.69,0,0,0,75,39.57V37.08H73.48a1,1,0,0,0-1,.71,4.27,4.27,0,0,0-.31,1.74,3.28,3.28,0,0,0,.31,1.55,1.25,1.25,0,0,0,1.23.59A1,1,0,0,0,74.69,41.19Zm2.39-10.56v2.2H74.89v-2.2Z"/><path class="cls-1" d="M79,44.2V42.4c0-.13,0-.2.12-.23a1.11,1.11,0,0,1,.28,0h2.13V35.81h2.7v8.6H79.39C79.12,44.41,79,44.34,79,44.2Zm5.21,2v2.25H81.5V46.24Z"/><path class="cls-1" d="M86.5,30.63h2.71V44.41H86.5Z"/><path class="cls-1" d="M93.85,49a4.63,4.63,0,0,1-.55-.1l-.48-.15V46.64a4.23,4.23,0,0,0,.72.23,3,3,0,0,0,.75.08,1.9,1.9,0,0,0,1.45-.56,3.78,3.78,0,0,0,.75-2H95.28a4.21,4.21,0,0,1-1.73-.34,3.75,3.75,0,0,1-1.31-.94,4.37,4.37,0,0,1-.84-1.46,5.82,5.82,0,0,1-.29-1.87,11,11,0,0,1,.16-1.9,4.59,4.59,0,0,1,.62-1.67A3.49,3.49,0,0,1,93.15,35a4.2,4.2,0,0,1,2.11-.46,4.43,4.43,0,0,1,2.1.43,3.11,3.11,0,0,1,1.26,1.23,5.38,5.38,0,0,1,.6,1.9,16.71,16.71,0,0,1,.17,2.47c0,.26,0,.52,0,.77l0,.77h1.48a1.18,1.18,0,0,1,.28,0c.08,0,.12.1.12.23v1.8c0,.14-.13.21-.4.21H99.12a9.45,9.45,0,0,1-.5,1.83,4.7,4.7,0,0,1-.85,1.45,3.75,3.75,0,0,1-1.32,1,4.71,4.71,0,0,1-1.88.34C94.31,49,94.06,49,93.85,49Zm0-8.14a1.65,1.65,0,0,0,.3.74,1.41,1.41,0,0,0,.62.43,2.91,2.91,0,0,0,1,.14h.83c0-.24,0-.5,0-.77s0-.55,0-.85c0-.56,0-1.08,0-1.55a5.92,5.92,0,0,0-.21-1.2A1.82,1.82,0,0,0,96,37a1,1,0,0,0-.74-.28,1,1,0,0,0-.7.27,2,2,0,0,0-.44.71,3.78,3.78,0,0,0-.24,1,8.08,8.08,0,0,0-.07,1.09A6.36,6.36,0,0,0,93.89,40.82Z"/><path class="cls-1" d="M100.44,44.2V42.4c0-.13,0-.2.12-.23a1.1,1.1,0,0,1,.27,0H103V35.81h2.7v8.6h-4.84Q100.44,44.41,100.44,44.2Zm5.21,2v2.25H103V46.24Z"/></svg>