<svg id="Layer_1" data-name="Layer 1" xmlns="http://www.w3.org/2000/svg" viewBox="0 0 180 80"><defs><style>.cls-1{fill:#fff;}</style></defs><title>01</title><path class="cls-1" d="M88.74,23.88l-.11,0a.8.8,0,0,0-.3.09l-.1,0c-.09,0-.14,0-.19.09a.05.05,0,0,0,0,0,.44.44,0,0,0-.24.11h0a3.15,3.15,0,0,1-.92,0h-.11a.85.85,0,0,0-.42.22s0,0,0,0l-.48.22h0l0,0A3.22,3.22,0,0,1,84,24.58h0a.43.43,0,0,0-.24-.1h0a.47.47,0,0,0-.58,0l-.57.24h-.11l-.41.11H81.3l-.21,0-.82-.23h0l-.36-.2c-.19,0-.23-.22-.39-.26s-.26-.25-.38-.39a.37.37,0,0,0-.56-.07h0l-.23.11h0a1.19,1.19,0,0,0-.42.11l-.33,0h-.46a3.14,3.14,0,0,1-2.71-2.18,3,3,0,0,1,1.12-3.38.82.82,0,0,0,.36-.77,3.35,3.35,0,0,1,2.81-3.48,5.31,5.31,0,0,1,1.32,0,.53.53,0,0,0,.49-.22,3.36,3.36,0,0,1,5.23-.12.68.68,0,0,0,.67.27A4.23,4.23,0,0,1,90.92,17l.2,1v.34l-.12.93-.13.44a.39.39,0,0,0-.1.25s0,0,0,0c-.14.27-.37.53-.31.86a3,3,0,0,1-.12,1.52l0,.11-.35.57h0a.63.63,0,0,0-.23.23h0l-.47.35s-.08,0-.1.05l-.13.06-.1,0ZM83.19,15a.54.54,0,0,1,.47-.36,3.07,3.07,0,0,1,1.09,0,.66.66,0,0,0,.34,0c.26-.06.37-.31.21-.49a2.85,2.85,0,0,0-4.38.06.21.21,0,0,0,0,.34c.26.29.52.59.76.91a.3.3,0,0,1,0,.44c-.18.12-.29,0-.38-.18a2.32,2.32,0,0,0-2.66-1.05,2.81,2.81,0,0,0-1.89,4.18.5.5,0,0,1,0,.34c0,.12,0,.14-.16.12s-.33-.21-.43-.39-.18-.3-.47-.07A2.56,2.56,0,0,0,75.05,22a2.62,2.62,0,0,0,3,1.27c.59-.18.62-.22.51-.83,0-.05,0-.11,0-.17a2.24,2.24,0,0,1,.84-2.17,4,4,0,0,1,.85-.49,1.06,1.06,0,0,0,.65-1,3.44,3.44,0,0,1,0-.46c0-.1,0-.27.18-.26a.35.35,0,0,1,.31.27.86.86,0,0,1,0,.23,2.84,2.84,0,0,1-.11.71c0,.15,0,.21.16.15a3,3,0,0,0,1.58-1.18c.38-.59.35-.72-.1-1.13l-.06-.06a.34.34,0,0,1,0-.43c.1-.09.27,0,.39.08a1.28,1.28,0,0,0,.44.32,1.35,1.35,0,0,0,1.06,0c.17-.05.36,0,.4.13a.3.3,0,0,1-.26.34,2.43,2.43,0,0,1-.6.1.51.51,0,0,0-.57.4,2.66,2.66,0,0,1-1.39,1.57,14.55,14.55,0,0,1-1.81.67,2,2,0,0,0-1.23,3,2.69,2.69,0,0,0,4,.66c.67-.57,1.29-1.2,1.93-1.81a3.1,3.1,0,0,1,2.18-1,.59.59,0,0,0,.29-.1c.26-.13.51-.27.77-.39s.32-.12.39.06,0,.29-.2.37l-.26.12A.68.68,0,0,0,88,22a.65.65,0,0,1,.08.27c0,.09,0,.21-.06.26s-.19,0-.28-.06a.23.23,0,0,1-.13-.17c-.07-.21-.15-.42-.21-.63s-.06-.18-.19-.16a2.22,2.22,0,0,0-1.22.45l-2,1.81c-.12.1-.11.15,0,.24a2,2,0,0,0,2.37-.22c.09-.1.11-.16,0-.26s-.35-.35-.52-.53a.31.31,0,0,1,0-.4c.09-.12.26,0,.38.05a1.13,1.13,0,0,1,.25.24,1.84,1.84,0,0,0,1.26.62A2,2,0,0,0,90,21.34a2.09,2.09,0,0,0-2.45-2c-.35,0-.71,0-.66.56a.26.26,0,0,1-.25.26c-.13,0-.21-.12-.22-.26s0-.08,0-.12a1,1,0,0,0-.61-.9.23.23,0,0,1-.1-.34c0-.13.19-.12.3-.07a2,2,0,0,1,.47.27.66.66,0,0,0,.55.18,7.5,7.5,0,0,1,1.64,0c.26,0,.37-.09.38-.34a3.7,3.7,0,0,0-.08-.88,4,4,0,0,0-.33-.89.31.31,0,0,1,.1-.39c.12-.09.21,0,.27.12a2.84,2.84,0,0,1,.51,2.13.88.88,0,0,0,.33,1,.93.93,0,0,1,.14.14c.14.18.24.14.31,0a3.73,3.73,0,0,0-4.13-5.19c-.26.05-.52.16-.55.43s.21.42.41.55.43.22.63.35a2.44,2.44,0,0,1,1,1.34c.06.17,0,.35-.12.4s-.26-.07-.32-.22a1.08,1.08,0,0,0-.08-.19A2.62,2.62,0,0,0,85.83,16a1.21,1.21,0,0,1-.7-.65.53.53,0,0,0-.51-.31,3,3,0,0,0-.6,0A1,1,0,0,1,83.19,15Z"/><path class="cls-1" d="M76.37,27.53a15.38,15.38,0,0,0,1.75,1.38c.9.65,1.8,1.29,2.71,1.92.56.38,1.1.8,1.65,1.2,1,.75,2.08,1.53,3.1,2.32,3.54,2.72,7.48,6.3,9.23,10.53a11.74,11.74,0,0,1,.56,1.64,11,11,0,0,1-3.57,11.4,11.87,11.87,0,0,1-1.36,1l-.07-.08c.24-.32.43-.67.69-1a6,6,0,0,0,.87-1.43,12.17,12.17,0,0,0,.71-1.7c1.59-5.37-3-9.48-6.94-12.32-1.44-1.06-2.87-2.14-4.32-3.19s-3-2.22-4.55-3.34a38.52,38.52,0,0,1-4.44-3.49l-.3-.34a.69.69,0,0,0-.54-.26c-.58,0-1.16.09-1.74.13s-1.3,0-2,0a.77.77,0,0,1-.52-.29l-.18-.18A1.34,1.34,0,0,1,67.07,30a1.66,1.66,0,0,0-.14-1.61,2,2,0,0,1-.3-.6c-.09-.32.16-.51.38-.66s.13-.14,0-.26a2,2,0,0,1-.43-.49.68.68,0,0,1,.05-.71,2.1,2.1,0,0,0,.57-1.08.48.48,0,0,0-.21-.4c-.2-.17-.41-.31-.62-.47-.4-.3-.38-.55-.06-.95a3.3,3.3,0,0,1,1-.73,4.26,4.26,0,0,0,1.17-.8c.36-.39.38-1.49.53-2a16.84,16.84,0,0,1,5.4-7.89,12.45,12.45,0,0,1,8-2.85,11.26,11.26,0,0,1,4.81,1,10.55,10.55,0,0,1,2.4,1.62,10.67,10.67,0,0,1,2.12,2.66,12.64,12.64,0,0,1,1.49,4,10.93,10.93,0,0,1,.15,3.52,2.84,2.84,0,0,0-.06.5c0,.29-.12.4-.4.34s-.27,0-.4-.07c-.37-.12-.38-.22-.33-.63a6.83,6.83,0,0,0,.1-2c-.09-.6-.09-1.21-.24-1.81a9.32,9.32,0,0,0-4.18-5.93,10,10,0,0,0-4.37-1.28,10.68,10.68,0,0,0-7.89,2.46,7.94,7.94,0,0,0-2.92,5,10,10,0,0,0,0,3.61,8.77,8.77,0,0,0,2.7,5.11l.82.73A.49.49,0,0,0,76.37,27.53Z"/><path class="cls-1" d="M90.82,42.45l-.06,0A1.78,1.78,0,0,0,89.71,44a1.92,1.92,0,0,0,1.19,2,2,2,0,0,0,2.14-.4,2,2,0,0,0,.43-2.2A1.94,1.94,0,0,0,90.82,42.45Z"/><path class="cls-1" d="M87.35,38.61c-.1-.07-.17,0-.26,0a2.22,2.22,0,0,0-.85,2.81,2.08,2.08,0,0,0,1.56,1.25,1.51,1.51,0,0,0,.94,0,2.22,2.22,0,0,0-.69-4.38c-.25,0-.45-.12-.61.16Z"/><path class="cls-1" d="M78.22,31.63A2.33,2.33,0,0,0,77,34.25a2.35,2.35,0,0,0,4.58-1,2.32,2.32,0,0,0-3.24-1.62Z"/><path class="cls-1" d="M83.87,39.41a2.33,2.33,0,0,0,2.37-2.34,2.36,2.36,0,1,0-4.71,0A2.32,2.32,0,0,0,83.87,39.41Z"/><path class="cls-1" d="M74.82,32.61a2.3,2.3,0,0,0,2.35-2.25,2.36,2.36,0,1,0-2.35,2.25Z"/><path class="cls-1" d="M93.74,49.47A1.48,1.48,0,0,0,95.24,48a1.51,1.51,0,1,0-3,0A1.47,1.47,0,0,0,93.74,49.47Z"/><path class="cls-1" d="M94.33,52.41a1.05,1.05,0,0,0,1.09-1.07,1.07,1.07,0,0,0-1.07-1,1.06,1.06,0,0,0,0,2.11Z"/><path class="cls-1" d="M96.3,56.75a19.24,19.24,0,0,0,1.25-12A15.4,15.4,0,0,0,97,42.22s0-.12,0-.13.11,0,.13.06c.13.22.25.45.36.67a21.75,21.75,0,0,1,.42,18.85,13.48,13.48,0,0,1-1.1,1.87,19.68,19.68,0,0,1-16.29,8,19.35,19.35,0,0,1-6.44-1.12A17.22,17.22,0,0,1,63.15,58.32h5.63a.89.89,0,0,1,.4.06.85.85,0,0,1,.37.44,14.61,14.61,0,0,0,3.25,4A14.94,14.94,0,0,0,75,64.46a9.44,9.44,0,0,0,1.24.6c.3.12.94.15,1.17.33a1.18,1.18,0,0,0,.35.11,15.88,15.88,0,0,0,5,.51,19.48,19.48,0,0,0,2.84-.34,11.42,11.42,0,0,0,3.07-1.21,20.88,20.88,0,0,0,1.89-1.12,18.85,18.85,0,0,0,1.5-1.17c.15-.12.34-.18.44-.36l.14-.12,0,0s.12-.06.11-.14c.45-.47.93-.9,1.33-1.41a12.24,12.24,0,0,0,1.52-2.19c.15-.33.34-.64.52-1A.33.33,0,0,0,96.3,56.75Z"/><path class="cls-1" d="M98.67,56.05c0-.19-.18-.23-.3-.27a1.15,1.15,0,0,0-1.49.62,1.17,1.17,0,0,0,.52,1.51A1.19,1.19,0,0,0,99,57.46c.28-.45.19-1.15-.17-1.31C98.78,56.08,98.73,56.06,98.67,56.05Z"/><path class="cls-1" d="M97.76,59.09l0,0a1.49,1.49,0,0,0-1.89-.32,1.53,1.53,0,0,0-.68,1.86,1.46,1.46,0,0,0,1.55,1,1.51,1.51,0,0,0,1.05-2.5Z"/><path class="cls-1" d="M89.88,67.08h0a1.59,1.59,0,0,0,1.65.49,1.66,1.66,0,0,0,1.34-1.31,1.69,1.69,0,0,0-.69-1.88,1.7,1.7,0,0,0-1.94-.11A1.77,1.77,0,0,0,89.88,67.08Z"/><path class="cls-1" d="M73.67,65.41a2.3,2.3,0,0,0-2.3-2.36,2.34,2.34,0,1,0,0,4.68A2.3,2.3,0,0,0,73.67,65.41Z"/><path class="cls-1" d="M76.52,70.3a2.33,2.33,0,0,0,2.35-2.41,2.35,2.35,0,1,0-2.35,2.41Z"/><path class="cls-1" d="M79.89,68.61a2.34,2.34,0,1,0,2.33-2.34A2.29,2.29,0,0,0,79.89,68.61Z"/><path class="cls-1" d="M67.78,63.55A2.2,2.2,0,0,0,70,61.35a2.24,2.24,0,1,0-4.48,0A2.21,2.21,0,0,0,67.78,63.55Z"/><path class="cls-1" d="M87.31,65.86a1.89,1.89,0,0,0-1.93,1.89,1.93,1.93,0,0,0,1.91,1.93,2,2,0,0,0,1.93-1.94A1.9,1.9,0,0,0,87.31,65.86Z"/><path class="cls-1" d="M94.32,61.51a1.66,1.66,0,0,0-1.71,1.67,1.7,1.7,0,0,0,3.39,0A1.68,1.68,0,0,0,94.32,61.51Z"/><path class="cls-1" d="M70,45.7a6.44,6.44,0,0,0-2,3.22.89.89,0,0,1-.15.36c-.3.34-4.9,0-4.9.12a5.31,5.31,0,0,1,.39-1.4,9.22,9.22,0,0,1,1-2.14,7.46,7.46,0,0,1,1.16-1.64,9.43,9.43,0,0,1,1.75-1.46c3.44-2,7.6-1.16,10.69,1.05,0,0,.05,0,0,.1a2.69,2.69,0,0,0-.57-.06A9.77,9.77,0,0,0,70,45.7Z"/><path class="cls-1" d="M66.15,45.42a1.69,1.69,0,0,0-1.72,1.71,1.67,1.67,0,0,0,1.66,1.68,1.76,1.76,0,0,0,1.73-1.69A1.73,1.73,0,0,0,66.15,45.42Z"/><path class="cls-1" d="M68.78,45.72a1.55,1.55,0,1,0-1.55-1.55A1.55,1.55,0,0,0,68.78,45.72Z"/><path class="cls-1" d="M79.59,55v-.11l.18-.58h.63c.18,0,.18.11.18.24,0,.64,0,1.27,0,1.9s0,.53-.53.52h0V55a9.75,9.75,0,0,0-.45,1.55c-.06.3-.17.42-.47.35h0L78.66,55c0,.58,0,1.14,0,1.71,0,.19-.05.27-.23.25l-.23,0V54.28l.62,0c.14,0,.23,0,.24.2a1.66,1.66,0,0,0,.11.38v.06s0,0,0,0a.08.08,0,0,1,0,0h0l.09.28s0,0,0,0a1.1,1.1,0,0,0,.12.49l.09-.37,0-.11A.74.74,0,0,0,79.59,55Z"/><path class="cls-1" d="M58.58,56.92c-.39,0-.39,0-.39-.41,0-.66,0-1.33,0-2,0-.2,0-.28.25-.26s.4,0,.61,0h.34s0,0,0,0l.29.12h0a.74.74,0,0,1-.08,1.17.75.75,0,0,1-.14,1.36H59.1a0,0,0,0,0-.05,0h-.47Zm.14-.8c0,.22,0,.36.28.34s.49-.12.49-.35-.17-.32-.5-.34S58.69,55.91,58.72,56.12Zm.3-.83c.23,0,.42,0,.41-.29s-.22-.26-.42-.27-.31,0-.31.28S58.78,55.35,59,55.29Z"/><path class="cls-1" d="M50,53h-.62V50.33h1.24a.79.79,0,0,1,.53.52v.34a1.19,1.19,0,0,1-.34.44.88.88,0,0,1,.35.31h0a.87.87,0,0,1-.23.93h0l-.23.11H50Zm-.11-.84c0,.2-.06.41.27.38s.5-.11.51-.33-.16-.34-.48-.37S49.89,51.94,49.93,52.15Zm.29-.79c.22,0,.43,0,.43-.27s-.21-.29-.43-.29-.31,0-.3.27S50,51.43,50.22,51.36Z"/><path class="cls-1" d="M81.17,51.6l-.07.1c-.37.22,0,.44,0,.65v.06a.43.43,0,0,0,.1.24l0,.1,0,.23h-.34a.24.24,0,0,1-.27-.19c-.07-.24-.17-.47-.23-.71s-.17-.14-.28-.14-.12.11-.13.2,0,.38,0,.58,0,.23-.07.24-.36.14-.47-.1V50.44c0-.15.12-.11.21-.11h1l.34.12h0l.12.11h0A1,1,0,0,1,81.17,51.6ZM80,51.19c0,.1-.1.32.23.3s.49-.12.49-.36-.15-.31-.47-.34S80,51,80,51.19Z"/><path class="cls-1" d="M64.29,53H63.9c-.16,0-.12-.12-.12-.21,0-.82,0-1.63,0-2.45a6.32,6.32,0,0,1,1.37.06l.06,0,.06,0,.23.33h0a1.71,1.71,0,0,1-.06.81l0,.06c-.2.11-.29.25-.12.45l0,.06a.34.34,0,0,0,.09.24h0l.16.56-.38,0h-.12a.23.23,0,0,1-.08-.11,7.32,7.32,0,0,1-.25-.75c0-.19-.16-.19-.3-.19s-.12.14-.12.23C64.29,52.44,64.29,52.71,64.29,53Zm0-1.89c0,.39,0,.39.24.39s.48-.11.47-.36-.21-.3-.44-.33S64.28,50.94,64.29,51.09Z"/><path class="cls-1" d="M66.43,54.92s0,0,0,0a2.73,2.73,0,0,1,0,1.27l-.06.12s-.06.06-.06.11l0,0-.15.19L66,56.8l-.24.11h0a3.74,3.74,0,0,1-1-.06c0-.51,0-1,0-1.53,0-.31,0-.63,0-1s.25,0,.36-.12h.58A1.2,1.2,0,0,1,66.43,54.92Zm-1.2.63c0,.19,0,.37,0,.55s-.06.24.06.28a.46.46,0,0,0,.41-.05,1.13,1.13,0,0,0,0-1.46.45.45,0,0,0-.43-.08c-.14.05-.06.2-.07.31S65.23,55.4,65.23,55.55Z"/><path class="cls-1" d="M55.36,54.27c.41,0,.41,0,.41.37,0,.67,0,1.35,0,2,0,.08.07.24-.1.24s-.32.08-.42-.13c-.21-.47-.44-.92-.66-1.37a1.59,1.59,0,0,0-.11-.2c0,.5,0,.92,0,1.33s0,.39-.4.38h0V54.26c.19,0,.37-.18.56,0l.66,1.4,0,0V54.27Z"/><path class="cls-1" d="M61.48,52.23a.07.07,0,0,0,0,.06,1.85,1.85,0,0,1-.46.58h0l-.29.11h-.81c-.17,0-.17-.09-.17-.21,0-.63,0-1.25,0-1.88s0-.58.61-.57h.32l.35.11h0l.34.35h0A2.11,2.11,0,0,1,61.48,52.23Zm-1.22-.58h0v.66c0,.1,0,.16.15.16a.49.49,0,0,0,.41-.15,1.23,1.23,0,0,0,0-1.33.51.51,0,0,0-.39-.14c-.12,0-.17,0-.17.16S60.26,51.43,60.26,51.65Z"/><path class="cls-1" d="M73.71,51.42l0,.08.12.23a4.35,4.35,0,0,0,0-.71c0-.23,0-.46,0-.69h.38c0,.83,0,1.66,0,2.49,0,.21-.13.15-.24.17h-.12c-.22-.1-.19-.38-.35-.52v-.06a.32.32,0,0,0-.1-.18v0l-.4-.83,0,0v1.38L73,53h-.22c-.13,0-.18,0-.18-.18,0-.83,0-1.65,0-2.48.2,0,.45-.12.62.12a.4.4,0,0,0,.12.23.07.07,0,0,0,0,0s0,.06,0,.07h0a1.53,1.53,0,0,0,.23.46h0A.19.19,0,0,0,73.71,51.42Z"/><path class="cls-1" d="M45.11,50.68l.06.12a.31.31,0,0,1,0,.08c0,.12.19.29-.07.35s-.38.11-.42-.2a.29.29,0,0,0-.32-.24.34.34,0,0,0-.33.27,1.93,1.93,0,0,0,0,1.19.35.35,0,0,0,.41.28.36.36,0,0,0,.29-.35c0-.23-.17-.11-.25-.12s-.15-.12-.14-.22-.07-.25.14-.28c.71-.1.77-.05.75.65,0,.26.08.53-.06.78a.2.2,0,0,1-.24-.18v-.05l0,.05,0,0-.17.12h0l-.08,0h0a.94.94,0,0,1-.75-.13h0l-.13-.14a.48.48,0,0,0-.12-.22l-.1-.3,0-.27v-.47l0-.33.1-.25,0-.09.08-.12h0l0-.07h0l.24-.23.11-.06A.89.89,0,0,1,45.11,50.68Z"/><path class="cls-1" d="M62.22,54.25h1.21c.08,0,.16,0,.18.12v.12c0,.26-.09.37-.37.33s-.32,0-.49,0-.2,0-.22.21.09.33.34.32c.52,0,.52,0,.5.52h-.63c-.25-.05-.2.13-.2.26s0,.27.21.25h.51c.35,0,.35,0,.33.35s-.27.1-.39.18h-.4l-.8,0V54.26s0,0,0,0Z"/><path class="cls-1" d="M47.61,52.87v0a2.05,2.05,0,0,1-.37-1.59h0c.07-.07,0-.16.05-.24l.12-.27.22-.31c.07-.15.25-.07.35-.17a1.82,1.82,0,0,1,.57.07h0l.23.19a.05.05,0,0,0,0,0s0,.1.1.12h0A.55.55,0,0,0,49,51V51l.1.48v.32a.7.7,0,0,0,0,.35l0,0a2.36,2.36,0,0,1-.27.58h0l-.23.18-.11,0a1.1,1.1,0,0,1-.57,0l-.06,0Zm.93-1.19a1.51,1.51,0,0,0-.1-.7.31.31,0,0,0-.29-.19.29.29,0,0,0-.29.2,1.88,1.88,0,0,0,0,1.32.3.3,0,0,0,.3.22.3.3,0,0,0,.28-.2A1.33,1.33,0,0,0,48.54,51.68Z"/><path class="cls-1" d="M82.2,54.25h.17c.07,0,.19,0,.21,0a1.14,1.14,0,0,1,0,.45c0,.12-.16.06-.25.07h-.57c-.17,0-.21,0-.21.21s0,.37.3.32c.1,0,.21,0,.32,0s.19.06.21.21,0,.36-.31.31-.23,0-.35,0-.17.13-.17.25-.06.28.18.27h.66c.1,0,.24,0,.21.14s.14.37-.17.39H81l0,0V54.26H82.2Z"/><path class="cls-1" d="M84.34,56.92h-.12l-.1,0,0-.1-.74-1.56a8.8,8.8,0,0,0,0,1.35c0,.29-.09.37-.35.31V54.61c0-.1,0-.21,0-.3v-.05h.28a.36.36,0,0,1,.4.26c.18.41.38.8.58,1.19h.06V54.26h.23c.2,0,.16.15.16.27,0,.7,0,1.4,0,2.1C84.62,56.84,84.57,57,84.34,56.92Z"/><path class="cls-1" d="M78.44,50.28l.34.17.24.35,0,.1c0,.08,0,.18.1.24h0a7.06,7.06,0,0,1,0,.92v.12a0,0,0,0,0,0,0h0c-.06.05,0,.12-.06.18s0,.07,0,.12a.14.14,0,0,0-.06.11h0s0,0,0,.06,0,0,0,.05a.86.86,0,0,1-1.26.07l-.13-.17-.06-.16a1.84,1.84,0,0,1,.42-2.15h0A1.56,1.56,0,0,1,78.44,50.28Zm.18,1.39a1.58,1.58,0,0,0-.09-.65c0-.12-.11-.22-.27-.23A.3.3,0,0,0,78,51a1.85,1.85,0,0,0,0,1.33.31.31,0,0,0,.31.21.32.32,0,0,0,.29-.24A1.46,1.46,0,0,0,78.62,51.67Z"/><path class="cls-1" d="M75.21,54.24h.06a1.67,1.67,0,0,1,.33.32,2.1,2.1,0,0,1,0,2.06A.75.75,0,0,1,75,57a.91.91,0,0,1-.94-.8,3,3,0,0,1,0-1.22h0C74.4,54.27,74.64,54.12,75.21,54.24Zm.12,1.37a1.58,1.58,0,0,0-.1-.65.31.31,0,0,0-.29-.24.3.3,0,0,0-.31.24,1.82,1.82,0,0,0,0,1.26.3.3,0,0,0,.29.24.29.29,0,0,0,.31-.24A1.43,1.43,0,0,0,75.33,55.61Z"/><path class="cls-1" d="M70.48,52.34s0,0,0-.05a2.61,2.61,0,0,1,.12-1.56h0l.14-.2h0l.09-.09h0l.17-.11.06,0a1.54,1.54,0,0,1,.48,0c.41.09.52.42.68.72v.06l0,.2A1.73,1.73,0,0,1,71.74,53l0,0a1.49,1.49,0,0,1-.63,0h0L71,53l-.06,0-.12-.09s0,0,0,0Zm.46-.71a1.59,1.59,0,0,0,.1.68.31.31,0,0,0,.3.22.3.3,0,0,0,.3-.22,1.88,1.88,0,0,0,0-1.3.29.29,0,0,0-.3-.22A.32.32,0,0,0,71,51,1.47,1.47,0,0,0,70.94,51.63Z"/><path class="cls-1" d="M45.48,54.25H46l0,.57v1a1.93,1.93,0,0,0,0,.34.31.31,0,0,0,.33.25c.17,0,.33,0,.35-.23h0c.08-.09,0-.2,0-.3V54.47c0-.13,0-.23.17-.22h.27c0,.62,0,1.25,0,1.87a1.08,1.08,0,0,1-.15.55l-.08.1a1.14,1.14,0,0,1-1.31,0s0,0,0,0a1.63,1.63,0,0,1-.22-.59V54.37l0-.11h0Z"/><path class="cls-1" d="M68.21,55.86l-.56,0c-.21-.05-.28,0-.29.24s.11.29.31.27H68c.5,0,.5,0,.44.52H67c-.13,0-.12-.1-.12-.19,0-.82,0-1.65,0-2.47h1.43c.28.15.1.38.11.58h-.63c-.41,0-.39,0-.39.33s.22.18.35.18C68.23,55.36,68.23,55.35,68.21,55.86Z"/><path class="cls-1" d="M63.43,53H62.16c-.22,0-.3-.05-.29-.3,0-.78,0-1.57,0-2.36h1.55c0,.55,0,.55-.51.55H62.6c-.15,0-.2,0-.2.2s0,.4.31.34c.1,0,.21,0,.32,0s.2,0,.22.21-.06.36-.32.32c-.1,0-.21,0-.31,0s-.22,0-.23.21,0,.35.3.31H63C63.47,52.46,63.47,52.46,63.43,53Z"/><path class="cls-1" d="M71.92,56.92h-1.1c-.18,0-.25-.06-.25-.26,0-.67,0-1.34,0-2,0-.3,0-.46.37-.41h1.2a1.32,1.32,0,0,0,0,.28c0,.21,0,.3-.27.28a5.42,5.42,0,0,0-.57,0c-.16,0-.22,0-.23.2s.07.37.34.33h.28c.17,0,.21,0,.22.21s-.05.36-.31.31c-.1,0-.21,0-.32,0s-.19,0-.21.19.06.37.33.33a4,4,0,0,1,.49,0c.15,0,.27,0,.25.2S72.21,57,71.92,56.92Z"/><path class="cls-1" d="M43.44,54.89v-.17h0a.44.44,0,0,0,.12-.22h0a1,1,0,0,1,1-.23l.21.12.23.35c0,.16-.17.12-.22.21l-.1,0-.11,0a.05.05,0,0,0,0,0,.83.83,0,0,0-.07-.13.36.36,0,0,0-.41-.12.22.22,0,0,0-.17.24c0,.18.15.23.29.28l.49.17.06,0,.28.34v.06l0,.07h0a1.57,1.57,0,0,1,0,.57s0,0,0,0a.34.34,0,0,0-.11.18h0l-.08.1h0l-.21.14s0,0,0,0a1.12,1.12,0,0,1-1.14-.25s0,0,0-.05,0-.06-.05,0-.2-.21-.06-.35a.32.32,0,0,0,.14,0,.28.28,0,0,1,.43.14c.09.16.27.16.44.14a.28.28,0,0,0,.24-.25.23.23,0,0,0-.17-.26,1.22,1.22,0,0,0-.24-.1,1.24,1.24,0,0,1-.72-.49v-.5Z"/><path class="cls-1" d="M47.92,54.26s0,0,0,0a.9.9,0,0,1,1,.24c.23.25.18.36-.14.46-.16,0-.16-.07-.22-.13a.38.38,0,0,0-.42-.11A.2.2,0,0,0,48,55c0,.16.12.22.25.26l.22.07a.83.83,0,0,1,.65,1.11l0,.11-.22.29c-.08,0-.07.09-.12.11l-.17,0a1,1,0,0,1-1.08-.32c-.2-.3-.14-.4.21-.45.16,0,.16.1.21.18a.46.46,0,0,0,.5.14.25.25,0,0,0,.21-.27c0-.2-.17-.23-.31-.29l-.13-.05c-.56-.18-.69-.35-.72-.92v-.17l.09-.17,0-.07Z"/><path class="cls-1" d="M58.93,53h-.87c-.08,0-.18,0-.18-.12v-1l0-1.5h1.54a2.28,2.28,0,0,0,0,.26c0,.22-.06.31-.29.29s-.34,0-.52,0-.24,0-.25.24.06.35.32.31.25,0,.37,0a.12.12,0,0,1,.14.11c.07.31,0,.41-.32.41-.11,0-.21,0-.32,0s-.18.14-.18.27,0,.27.2.25.42,0,.63,0,.21,0,.22.21,0,.38-.3.33A.88.88,0,0,0,58.93,53Z"/><path class="cls-1" d="M51.5,54.61c.06-.07,0-.16,0-.24l.06-.11h.28a.31.31,0,0,1,.4.33.93.93,0,0,0,.05.1,0,0,0,0,0,0,0,.87.87,0,0,0,.11.41l0,.16a3.7,3.7,0,0,0,.21.72.32.32,0,0,0,.05.23c0,.16.07.32.11.48s0,.2-.16.2h-.28c-.15-.1-.12-.27-.17-.41s0-.15-.15-.18c-.42-.07-.56,0-.68.4,0,0,0,0,0,0,0,.23-.24.15-.37.15s0-.16-.08-.23l0-.11c.06-.06.05-.15.07-.23s0-.15.05-.22,0-.16.08-.24l0-.18a.8.8,0,0,0,.11-.4h0a.74.74,0,0,0,.1-.35l0-.12C51.51,54.77,51.48,54.68,51.5,54.61Zm.35.38c-.07.27-.14.49-.19.71,0,0,0,.14,0,.15a.65.65,0,0,0,.34,0c.09,0,0-.11,0-.17S51.92,55.26,51.85,55Z"/><path class="cls-1" d="M52,50.5a.19.19,0,0,1,.23-.18,3,3,0,0,0,.42,0c.08.16.06.36.17.52s0,0,0,0a1,1,0,0,0,.1.41v.06a.92.92,0,0,0,.1.36l0,.1a.74.74,0,0,0,.1.35l0,.11a.88.88,0,0,0,.1.35h0c-.05.12.11.24,0,.35h-.5a2,2,0,0,0-.08-.33c0-.09,0-.25-.17-.23h-.29c-.21-.05-.33,0-.36.25s0,.33-.21.32H51.6c-.2,0-.28,0-.19-.26a2.61,2.61,0,0,0,.12-.5v-.1a.67.67,0,0,0,.1-.3l0-.11a.83.83,0,0,0,.1-.41s0,0,0-.05a1,1,0,0,0,.12-.46h0a.34.34,0,0,0,.08-.23h0Zm.33.65h-.06c-.06.22-.11.44-.16.66,0,0-.05.1,0,.11a1.29,1.29,0,0,0,.34,0c.07,0,0-.07,0-.11C52.43,51.6,52.38,51.38,52.32,51.15Z"/><path class="cls-1" d="M66.32,50.67a.06.06,0,0,0,0,0l.11-.3H67a6.25,6.25,0,0,0,.21.74l0,.12,0,.07h0a.51.51,0,0,0,.07.24l0,.1a.74.74,0,0,0,.1.35.07.07,0,0,0,0,0,.84.84,0,0,0,.11.41h0a1.16,1.16,0,0,0,.09.41c0,.09,0,.17-.09.17h-.35l-.1,0h0c0-.07,0-.16-.06-.22h0c0-.14,0-.38-.24-.33h-.4c-.09,0-.13,0-.12.1h0a.89.89,0,0,0-.12.45h-.45L66,52h0a5.9,5.9,0,0,0,.21-.75l0-.15A.67.67,0,0,0,66.32,50.67Zm.58,1.25-.2-.78h-.06l-.2.79A1.19,1.19,0,0,0,66.9,51.92Z"/><path class="cls-1" d="M57.2,54.25c.08,0,.11,0,.13.13L58,56.91h-.26c-.24.05-.36,0-.37-.28,0-.38-.3-.27-.52-.3s-.29.13-.34.32,0,.28-.18.25-.28.14-.3-.11l0-.16a3.29,3.29,0,0,0,.21-.76l0-.1a.75.75,0,0,0,.1-.36l0-.09a.43.43,0,0,0,.07-.25h0l0-.07V55a3.4,3.4,0,0,0,.2-.69s0,0,0,0h.46Zm-.23.82h0c-.05.19-.09.37-.14.55s-.09.19,0,.23a.47.47,0,0,0,.33,0c.13,0,0-.16,0-.25S57,55.25,57,55.07Z"/><path class="cls-1" d="M77.76,55.64l-.12.13-.13.1s0,0-.05,0c-.23,0-.55,0-.69.08s0,.48,0,.72-.06.26-.24.24H76.2c0-.79,0-1.57,0-2.36,0-.24.08-.32.3-.3h.8a.77.77,0,0,1,.61.64A1.26,1.26,0,0,1,77.76,55.64Zm-1-.55c0,.18-.06.37.25.34s.43-.13.42-.35-.16-.33-.44-.35S76.73,54.93,76.72,55.09Z"/><path class="cls-1" d="M56.62,52.52v.35c0,.07,0,.12-.12.12h-.17c-.23,0-.33-.06-.28-.3a1,1,0,0,0,0-.17c0-.65,0-1.3,0-2,0-.19.06-.24.25-.24.45,0,.9,0,1.35,0a1.29,1.29,0,0,1,0,.55h-.52l-.31,0c-.11,0-.15,0-.16.15,0,.43,0,.45.39.45.1,0,.21,0,.31,0s.12,0,.13.12v.17c0,.29-.17.23-.33.23C56.59,52,56.59,52,56.62,52.52Z"/><path class="cls-1" d="M75.57,50.33h1.55a.78.78,0,0,0,0,.14c0,.41,0,.41-.38.41a2,2,0,0,1-.35,0c-.23,0-.3.06-.31.3s.08.34.32.31a2.41,2.41,0,0,1,.38,0,.12.12,0,0,1,.14.11c.07.3,0,.42-.32.42h-.23c-.23,0-.33.06-.26.29V53l-.28,0h-.24s0-.08-.06-.12v-.69Z"/><path class="cls-1" d="M69.44,56.92h-.12c-.15,0-.19-.08-.22-.2-.07-.29-.15-.57-.22-.85l0-.11a.69.69,0,0,0-.1-.37v-.1a.74.74,0,0,0-.1-.35h0c0-.24-.14-.44-.12-.68h.23c.11,0,.27,0,.34.12l0,.11a1,1,0,0,0,.09.35h0a1.08,1.08,0,0,0,.11.47h0a3,3,0,0,0,.19.79l.16-.68V55.3a.88.88,0,0,0,.1-.35l0-.16a.56.56,0,0,0,.09-.31l0-.21h.43c0,.24-.13.44-.11.68h0a.64.64,0,0,0-.1.35l0,.1a.77.77,0,0,0-.1.42.07.07,0,0,0,0,.06,4.64,4.64,0,0,0-.2.73C69.76,56.84,69.68,57,69.44,56.92Z"/><path class="cls-1" d="M69.09,50.9h-.23c-.13.05-.08.16-.08.25v1.43c0,.39,0,.39-.38.41l-.15,0,0-.22v-.11c0-.54,0-1.07,0-1.61,0-.05,0-.11-.07-.13l-.45,0v-.55h1.61v.34l0,.22h-.22Z"/><path class="cls-1" d="M50.39,55v1.84c0,.17-.15.1-.24.13h0c-.2,0-.27-.06-.26-.26,0-.54,0-1.08,0-1.62,0-.15,0-.25-.21-.22s-.4-.1-.35-.38v-.18c.16-.14.32,0,.49,0h1.11a.19.19,0,0,1,0,.08c0,.43,0,.43-.39.48C50.43,54.83,50.37,54.84,50.39,55Z"/><path class="cls-1" d="M86.35,54.83h-.28c-.2,0-.17.09-.17.2,0,.55,0,1.1,0,1.64,0,.08,0,.24-.09.23s-.34.13-.44-.11V55c0-.09,0-.15-.1-.12h-.4c-.1-.18,0-.38,0-.57h1.59C86.4,54.45,86.5,54.65,86.35,54.83Z"/><path class="cls-1" d="M61.46,56.92h-.94c-.15,0-.2,0-.19-.2,0-.81,0-1.63,0-2.45.54,0,.54,0,.54.53s0,1,0,1.48c0,.13.07.12.15.12h.51c.07,0,.15,0,.19.08A.3.3,0,0,1,61.46,56.92Z"/><path class="cls-1" d="M45.64,52.41V50.73s0-.08,0-.11c0-.23,0-.34.29-.29a1.62,1.62,0,0,0,.22,0c0,.59,0,1.18,0,1.76,0,.31.08.39.38.38.51,0,.52,0,.5.51H45.65v-.57Z"/><path class="cls-1" d="M72.79,54.25c.17,0,.19.09.19.24,0,.55,0,1.09,0,1.64,0,.2.06.29.26.26h.14c.51,0,.51,0,.46.52H72.61c-.16,0-.17-.09-.17-.22,0-.7,0-1.4,0-2.1.06-.11-.1-.3.13-.35h.23Z"/><path class="cls-1" d="M54,53h-.39V50.33h.51c0,.54,0,1.09,0,1.63s0,.5.5.5.41,0,.38.41A.5.5,0,0,1,55,53H54Z"/><path class="cls-1" d="M53.27,56.92c-.14,0-.12-.11-.12-.21,0-.75,0-1.49,0-2.24,0-.19.08-.23.24-.21s.28,0,.28.2q0,1.13,0,2.25c0,.23-.14.2-.27.21Z"/><path class="cls-1" d="M69.56,50.33h.51V53H70c-.13-.07-.34.12-.42-.12V50.56Z"/><path class="cls-1" d="M83,56.9s-.06,0-.06-.08c0-.84,0-1.68,0-2.51.08.09,0,.2,0,.3Z"/><path class="cls-1" d="M136.65,51.37h-.39c0-.85,0-1.7,0-2.54a.43.43,0,0,1,.06-.22h0c.39-.06.39-.06.39.33,0,.73,0,1.45,0,2.17C136.69,51.19,136.73,51.29,136.65,51.37Z"/><path class="cls-1" d="M131.69,56.72c-.05,0-.11,0-.17,0s-.16-.22-.31-.12a1.51,1.51,0,0,1-1.14.13s0,0,0,0c-.17-.19-.31-.22-.4.06l-.08.09-.1.08h0a.53.53,0,0,0-.24.11h-.4l-.22,0c-.15-.1-.34-.16-.44-.34s-.18-.14-.28,0l-.1,0a1.33,1.33,0,0,1-1.08-.13c-.08-.05-.13,0-.2,0a1.86,1.86,0,0,1-1.61,0l-.06-.06,0,0,0,0h0l-.07.06a1,1,0,0,1-.34.15l0,0h0l-.47-.05-.28-.13a1.36,1.36,0,0,1-.28-.58l0-.22a1.09,1.09,0,0,1,0-.18.82.82,0,0,1,1-.86h.63c.14,0,.19.05.19.18,0,.28,0,.56,0,.84,0,.56,0,.62.61.6.21,0,.45.1.61-.12a.12.12,0,0,0,.07-.1s0-.08,0-.13V55c0-.21.27-.12.36-.23h0a10.29,10.29,0,0,1,0,1.11c0,.2,0,.43.28.49a2.25,2.25,0,0,0,.58,0c.08,0,.13,0,.18-.1l0,0a.31.31,0,0,0,.11-.3.09.09,0,0,0,0,0l.18-.41,0,0,.29-.18a0,0,0,0,0,0,0h.2c.64-.06.95.2,1,.77a.29.29,0,0,0,.16.28c.2.22.45.11.69.12s.4-.12.41-.38,0-.74,0-1.11a.05.05,0,0,0,0,0,.54.54,0,0,0,.3-.1h0a.55.55,0,0,1,0,.31c0,.31,0,.61,0,.92s.13.42.42.38h.46c.29,0,.4-.13.41-.39s0-.63,0-.95.2-.21.33-.23.08.14.09.22c0,.3,0,.61,0,.92s.13.42.44.43h.58c.32,0,.34-.26.33-.51V54l.18-.11h.05c.11,0,.21,0,.19.14a5.42,5.42,0,0,0,0,.57,10,10,0,0,0,0,1.45s0,0,0,0a.24.24,0,0,0,.29.22,1.73,1.73,0,0,0,.75,0c.21-.1.2-.3.21-.49,0-.6,0-1.21,0-1.82.14,0,.26-.11.41-.06,0,.18,0,.36,0,.54a12.26,12.26,0,0,1-.05,1.82s0,0,0,0a1.67,1.67,0,0,1-.39.36h-.06a1.89,1.89,0,0,1-1.22-.07c-.18-.1-.29-.09-.41.05s-.16,0-.22.06a4.55,4.55,0,0,1-1,0h-.05a.27.27,0,0,0-.47,0,0,0,0,0,0-.05,0A3.63,3.63,0,0,1,131.69,56.72Zm-7.11-1.15h0V55.2a.12.12,0,0,0-.08-.13.55.55,0,0,0-.8.52,1.93,1.93,0,0,0,0,.34c0,.3.15.42.44.41s.4-.12.42-.42C124.59,55.8,124.58,55.69,124.58,55.57Zm3.86.52c0,.4.15.59.46.59s.47-.21.47-.6-.16-.56-.46-.57S128.44,55.67,128.44,56.09Z"/><path class="cls-1" d="M115.64,56.32h.69c.21,0,.1-.14.11-.23V55c.13-.16.26-.29.47-.12V56.1c-.07.36.19.21.34.23l.35,0a.34.34,0,0,0,.23-.19c.07-.2.12-.4.18-.59l.17-.22.23-.12.11,0,.69,0h0a.94.94,0,0,1,.46.52l0,.16a.7.7,0,0,0,1.13.35s0,0,0,0a.59.59,0,0,0,.1-.41c0-.5,0-1,0-1.52,0-.16,0-.28.19-.33l.22,0c0,.63,0,1.26,0,1.89a1,1,0,0,1-.29.81h0l-.18.11h-.06a1.91,1.91,0,0,1-.79,0l0,0,0,0-.07,0-.06,0c-.11-.05-.23-.32-.34,0l-.35.29a.12.12,0,0,0-.12.05l-.29,0h0l-.28,0-.19-.1s0,0,0,0l-.19-.17c-.07-.05,0-.28-.23-.12a1.58,1.58,0,0,1-.64.12h-3.9a3.34,3.34,0,0,1-.43-.05h-.1c-.16-.2-.32-.16-.47,0h-.12a2.6,2.6,0,0,1-.39.05h-2.22c-.06,0-.14,0-.19-.05l.14-.25h0c.13-.15.32-.06.47-.11h.35c.25.06.39,0,.35-.3s0-.41,0-.62a.33.33,0,0,0-.26-.3c-.31-.11-.53.07-.76.27,0-.43,0-.43.42-.66h.38a1.52,1.52,0,0,1,.57.35l0,.12c0,.17,0,.33,0,.49s-.07.44,0,.64a4.82,4.82,0,0,0,.93,0,.29.29,0,0,0,.22-.22,10.6,10.6,0,0,0,0-1.26.82.82,0,0,0,.34-.12c.14,0,.1.11.1.19,0,.34,0,.68,0,1,0,.11,0,.22.1.29h0a.13.13,0,0,0,.12.1.57.57,0,0,0,.29,0h.52a1.34,1.34,0,0,0,0-.74c0-.31.08-.45.42-.43,0,.32,0,.64,0,1,0,.07-.07.21.11.2h.69c.17,0,.09-.13.1-.21a10.17,10.17,0,0,1,0-1.1c.09-.09.23,0,.33-.08h.06c0,.28,0,.55,0,.83S115.52,56.15,115.64,56.32Zm2.7-.21c0,.38.15.56.45.57s.47-.2.47-.59-.15-.58-.47-.58S118.33,55.69,118.34,56.11Z"/><path class="cls-1" d="M133.42,49.4v1.32l-.11.3-.12.15a1,1,0,0,1-.57.21H122.56l-.27,0-.29-.25,0-.09c-.09-.75,0-1.5,0-2.25,0-.23.22-.2.34-.22s.1.14.1.22V50.7c0,.22.07.32.3.32H129c.09,0,.19,0,.17-.13a1.22,1.22,0,0,0,0-.57h0a.56.56,0,0,0-.64-.57.89.89,0,0,0-.64.34l-.28-.23c0-.11.09-.14.12-.22s0,0,.05,0l.37-.21.21,0h.46l.46.19.23.29.13.46c.09.84-.12.68.62.67h.18l2.14,0a.34.34,0,0,0,.28-.12c.13-.08.13-.21.12-.34a5.48,5.48,0,0,0,0-.81v-.12c0-.15.15-.15.24-.22l.1,0Z"/><path class="cls-1" d="M107.1,49.93l.23-.1a2,2,0,0,1,.8,0h0c.31.16.36.47.46.75a0,0,0,0,0,0,.05.36.36,0,0,0,.32.31h0c.63.15.86,0,.86-.65V48.9c0-.11,0-.22.08-.3l.11,0,.08,0s0,0,0,0h.11v.23c0,.56,0,1.12,0,1.68a1,1,0,0,1-.3.8s0,0,0,0a2.32,2.32,0,0,1-1,.1l-.16-.07c-.1-.12-.2-.24-.3,0a1.57,1.57,0,0,1-.25.27s0,0,0,0a2.83,2.83,0,0,1-.58.11h0l-.3-.1s0,0,0,0-.23-.17-.29-.3-.06-.1-.11-.07c-.37.26-.78.11-1.17.15-.08,0-.13,0-.12.11a0,0,0,0,0,0,.05,1,1,0,0,1-.34.53h0a1.92,1.92,0,0,1-1.27.12h0l-.33-.2,0,0-.19-.28V51.6a2.24,2.24,0,0,1,0-1.15h0c.06-.17.24-.22.35-.35h0c.06,0,.23-.13.13.11s-.08.3-.13.45v.11a.87.87,0,0,0,0,.36l0,.23a.89.89,0,0,0,1.23.38.33.33,0,0,0,.15-.16c.06-.1.14-.22-.09-.24s-.28-.14-.39-.28a0,0,0,0,0,0,0l.17-.34h0c.14.15.23.35.49.35s.69,0,1,0,.45-.1.48-.39V50.5A1.3,1.3,0,0,1,107.1,49.93Zm.1.8c0,.41.14.6.46.6s.47-.21.47-.59-.17-.59-.49-.58S107.2,50.34,107.2,50.73Z"/><path class="cls-1" d="M117.32,51.37H111a.63.63,0,0,1-.36-.66c0-.57,0-1.15,0-1.73,0-.38,0-.38.42-.44v2.13c0,.12-.06.24.1.3h0c.06.08.15,0,.23,0h3.38c.15,0,.19-.06.19-.2s0-.52,0-.78l0-.11.09-.18a0,0,0,0,0,0,0l.18-.18.05,0,.18-.09h.63l.23.12h0a.15.15,0,0,1,0,.23h0a.15.15,0,0,0-.11.11h0a.19.19,0,0,1-.19,0c-.36-.21-.67,0-.68.37,0,.21,0,.42,0,.64s0,.18.12.18a13.47,13.47,0,0,0,1.68-.05h0c.27,0,.32-.24.32-.46,0-.53,0-1.05,0-1.58,0-.22,0-.34.26-.39h0c.09,0,.18,0,.17.12s0,.21,0,.31a15.55,15.55,0,0,1,0,1.93,0,0,0,0,0,0,.05l-.12.17h0a.23.23,0,0,0-.12.12h0Z"/><path class="cls-1" d="M104.05,54.72h1.08c.11.06.07.17.07.26,0,.27,0,.53,0,.8,0,.49.09.57.57.58h.17c.36,0,.45-.12.45-.48v-.11a.92.92,0,0,1,.59-.93h.11a1,1,0,0,1,.92.36h0l.12.34V56a1.11,1.11,0,0,1-.47.63.85.85,0,0,1-1-.11c-.15-.08-.2.08-.3.12h-.06a2.6,2.6,0,0,1-1,0l-.1,0-.18-.11h0c0-.05,0-.1-.08-.09s0,.05,0,.08h0a.38.38,0,0,0-.18.12h0a1.38,1.38,0,0,1-.7,0h0l-.29-.22a.3.3,0,0,1-.12-.24,2.31,2.31,0,0,1,0-1v-.06A1,1,0,0,1,104.05,54.72Zm.74.83h0v-.34c0-.06,0-.11-.07-.14a.58.58,0,0,0-.82.44,1.14,1.14,0,0,0,0,.45c0,.23.15.38.42.39a.4.4,0,0,0,.45-.37A3.11,3.11,0,0,0,104.79,55.55Zm2.9.22a1.91,1.91,0,0,0,0-.2.39.39,0,0,0-.38-.39.4.4,0,0,0-.44.37,1.11,1.11,0,0,0,0,.48.35.35,0,0,0,.4.32C107.55,56.35,107.69,56.18,107.69,55.77Z"/><path class="cls-1" d="M134,51h.07c.4,0,.4,0,.4-.37,0-.09,0-.17,0-.25v-1a2.62,2.62,0,0,0,0-.28.31.31,0,0,1,.25-.4h.15c0,.66,0,1.32,0,2,0,.1-.09.27.09.31a.42.42,0,0,0,.45-.19.54.54,0,0,0,.08-.33c0-.48,0-1,0-1.46,0-.3,0-.5.36-.55a0,0,0,0,0,0,0c0,.62,0,1.24,0,1.86a1.58,1.58,0,0,1,0,.57V51l-.12.16h0a.18.18,0,0,0-.12.12h0l-.24.11-1.2,0h-.29s0,0,0,0Z"/><path class="cls-1" d="M120.21,49.53a.05.05,0,0,0,.05,0l.17-.09h.63l.35.23h0a1,1,0,0,1,.18.5c0,.41,0,.82,0,1.22l-1.21,0h-.52c.08-.29.27-.37.56-.36.84,0,.84,0,.76-.83a.28.28,0,0,0,0-.09.41.41,0,0,0-.42-.35.76.76,0,0,0-.65.35h0C120.09,49.9,120,49.68,120.21,49.53Z"/><path class="cls-1" d="M121.75,56.56V54a.35.35,0,0,0,.11,0c.23-.1.32-.06.32.22,0,.79,0,1.57,0,2.36,0,.12,0,.22-.16.21S121.73,56.78,121.75,56.56Z"/><path class="cls-1" d="M109,56.39v.17c0,.22-.14.17-.27.18s-.16-.09-.16-.21V54.11c0-.2.2-.17.32-.22s.08.09.11.13v2.37Z"/><path class="cls-1" d="M118.47,51.38h-.12c-.11-.06-.07-.17-.07-.26,0-.73,0-1.46,0-2.19,0-.21,0-.34.26-.39h0c.22,0,.18.12.18.24,0,.78,0,1.57,0,2.35C118.7,51.32,118.65,51.39,118.47,51.38Z"/><path class="cls-1" d="M104.45,53c0-.35,0-.4.32-.37l.13.14-.07.23,0,0-.23,0Z"/><path class="cls-1" d="M104,52.6c.3,0,.34.06.29.37a0,0,0,0,0,0,0l-.24,0-.1-.07a.32.32,0,0,1,0-.34Z"/><path class="cls-1" d="M132.55,53.9c.17-.07.31,0,.36.15a.19.19,0,0,1-.18.26c-.2,0-.26-.1-.26-.28Z"/><path class="cls-1" d="M103.91,54.14c0-.17.1-.31.3-.26s.2.2.15.36l0,0a.3.3,0,0,1-.34,0Z"/><path class="cls-1" d="M105,54.14c-.08.13-.17.23-.34.17a.23.23,0,0,1-.13-.26.21.21,0,0,1,.16-.18c.14,0,.22.07.31.16Z"/><path class="cls-1" d="M132.39,48.61c.11-.07.23-.13.36,0s.07.23,0,.35l0,0c-.07,0-.14,0-.22,0S132.38,48.75,132.39,48.61Z"/><path class="cls-1" d="M133.29,49c-.18,0-.31,0-.32-.21a.2.2,0,0,1,.21-.22c.21,0,.25.13.25.3Z"/><path class="cls-1" d="M131.5,54.17c-.09.13-.21.21-.36.11s-.11-.24,0-.37a.37.37,0,0,1,.34,0,0,0,0,0,0,0,0l0,.06h0v.11S131.49,54.15,131.5,54.17Z"/><path class="cls-1" d="M126.85,57.59c-.1-.07-.22-.14-.18-.29a.23.23,0,0,1,.18-.17.24.24,0,0,1,.26.14c.06.17-.06.25-.17.32Z"/><path class="cls-1" d="M112.41,54a.24.24,0,0,1-.09.33.2.2,0,0,1-.26,0,.21.21,0,0,1,0-.27.23.23,0,0,1,.26-.12Z"/><path class="cls-1" d="M126.32,57.6c-.17,0-.28-.14-.23-.33s.16-.16.28-.13.19.24,0,.44Z"/><path class="cls-1" d="M112.75,53.86c.18,0,.33.09.27.3s-.22.19-.39.09a.28.28,0,0,1,0-.27Z"/><path class="cls-1" d="M124,53.86c.14,0,.24.1.24.24a.23.23,0,0,1-.25.23.23.23,0,0,1-.23-.24C123.74,54,123.86,53.89,124,53.86Z"/><path class="cls-1" d="M124.58,53.86c.11,0,.22.08.23.21a.21.21,0,0,1-.22.25.21.21,0,0,1-.23-.2C124.34,54,124.45,53.9,124.58,53.86Z"/><path class="cls-1" d="M133.29,53.86c.13,0,.24.1.23.25a.21.21,0,0,1-.22.21.21.21,0,0,1-.23-.21C133.06,54,133.16,53.9,133.29,53.86Z"/><path class="cls-1" d="M78.69,17.47c0-.31-.13-.57-.53-.7a1,1,0,0,1-.33-.17.27.27,0,0,1-.1-.35.28.28,0,0,1,.34-.05l.2.11a1.26,1.26,0,0,0,1.27,0l.09-.07c.15-.1.35-.13.43,0s0,.31-.18.4a.82.82,0,0,1-.17.11c-.48.15-.56.49-.55,1a3.46,3.46,0,0,1-1.49,3,.56.56,0,0,0-.23.47,3.32,3.32,0,0,1-.06.83.53.53,0,0,1-.4.4.22.22,0,0,1-.21-.38.64.64,0,0,0,.17-.85c0-.09-.1-.1-.18-.11l-.56-.11a.52.52,0,0,1-.36-.22.21.21,0,0,1,0-.26.19.19,0,0,1,.23-.07,1.47,1.47,0,0,0,1.23,0,2.6,2.6,0,0,0,1-1.16A3.76,3.76,0,0,0,78.69,17.47Z"/><path class="cls-1" d="M83.45,21.19a2.82,2.82,0,0,1,.72,0c.09,0,.24.06.22.17a.27.27,0,0,1-.24.25,2,2,0,0,1-.8-.06.89.89,0,0,0-.79.06,3,3,0,0,0-1.31,1,.21.21,0,0,1-.32.08.29.29,0,0,1,0-.39,3.39,3.39,0,0,1,1.12-1,9.34,9.34,0,0,0,.87-.5,2.18,2.18,0,0,0,1-1.22c.07-.19.2-.43.37-.37s.18.32.11.53a2.61,2.61,0,0,1-.66,1.06A.83.83,0,0,0,83.45,21.19Z"/></svg>