<?xml version="1.0" encoding="utf-8"?>
<!-- Generator: Adobe Illustrator 23.0.3, SVG Export Plug-In . SVG Version: 6.00 Build 0)  -->
<svg version="1.1" id="Layer_1" xmlns="http://www.w3.org/2000/svg" xmlns:xlink="http://www.w3.org/1999/xlink" x="0px" y="0px"
	 viewBox="0 0 180 80" style="enable-background:new 0 0 180 80;" xml:space="preserve">
<style type="text/css">
	.st0{fill:#FFFFFF;}
</style>
<g>
	<title>01</title>
	<g>
		<path class="st0" d="M162.2,28.5c0.1,2-0.1,4-1.2,5.8c-1.4,2.3-3.6,3.2-6,3.8c-2.7,0.6-5.4,1.2-8,1.9c-1.3,0.3-2.5,0.9-3.6,1.7
			c-1.4,1.1-1.6,2-1,3.7c1.4,4.2,3.2,8.4,4.3,12.7c0.4,1.7,0.8,3.4,0.7,5.1c0,0.3,0,0.7-0.4,0.8c-0.4,0-0.6-0.2-0.7-0.6
			c-1.3-4.1-3.4-7.9-4.9-11.8c-1.5-3.9-2-7.9-1-12c0.7-2.5,2.3-4.2,4.9-4.9c1.8-0.5,3.5-0.9,5.3-1.4c0.5-0.1,0.7-0.4,0.9-0.8
			c0.4-1.3,0.9-2.5,1.4-3.7c0.2-0.6,0.6-0.7,1.2-0.6c2.6,0.3,4.7-0.7,6.4-2.8c0.1-0.2,0.3-0.4,0.4-0.5c0.5-0.5,1.1-0.3,1.2,0.4
			C162.1,26.3,162.2,27.4,162.2,28.5z"/>
		<path class="st0" d="M129.7,37c0.1-1.9,0.2-3.8,0.9-5.6c0.8-1.9,2.2-3.1,4.1-3.8c1.8-0.6,3.6-1.1,5.4-1.5c1.2-0.3,1.2-1.3,1.5-2.1
			c0.3-0.9,0.7-1.7,1-2.6c0.2-0.4,0.4-0.7,0.9-0.6c3,0.4,5.1-0.9,6.9-3.1c0.2-0.3,0.4-0.8,0.9-0.6c0.5,0.1,0.4,0.7,0.4,1
			c0.2,2.3,0.5,4.5,0,6.8c-0.7,2.9-2.6,4.8-5.4,5.6c-3.1,0.9-6.2,1.5-9.4,2.3c-1.6,0.4-3.2,1.1-4.4,2.3c-0.6,0.6-0.8,1.2-0.5,2.1
			c0.9,3.6,2.4,7,3.6,10.4c0.9,2.5,1.6,5.1,1.7,7.9c0,0.4,0.2,0.9-0.4,1c-0.6,0.1-0.7-0.4-0.8-0.7c-0.6-1.6-1.2-3.2-1.9-4.7
			c-1.1-2.5-2.3-4.8-3.2-7.4C130.2,41.6,129.6,39.4,129.7,37z"/>
		<path class="st0" d="M85.9,38.1c-4.2,0-8.3,0-12.5,0c-1.3,0-1.6-0.3-1.6-1.6c0-0.9,0-1.8,0-2.7c0.1-1-0.6-0.8-1.1-0.8
			c-0.7,0-0.9,0.3-0.8,0.9c0.1,0.7,0.2,1.5,0.7,2c0.6,0.7,0.4,1.4,0.4,2.1c0,0.3-0.1,0.6-0.5,0.3c-0.9-0.8-2.1-1.3-2.8-2.3
			c-0.6-0.7-0.5-1.5-0.5-2.4c0-0.4,0-0.9,0-1.3c0-1.5,0.3-1.9,1.8-1.9c1.2,0,2.4,0,3.6,0c1.5,0,1.6,0.2,1.6,1.6c0,0.9,0,1.8,0,2.7
			c0,0.5,0.2,0.8,0.7,0.8c0.6,0,0.9-0.2,0.9-0.8c0-1.1,0-2.1,0-3.2c0-1.2,0.7-1.1,1.5-1.1c0.9,0,1,0.4,0.9,1.1c0,1.1,0,2.2,0,3.3
			c0,0.7,0.4,0.7,0.9,0.7c0.5,0,0.9,0,0.9-0.7c0-1,0-2.1,0-3.1c0-1.1,1.3-1.8,2.3-1.2c0.3,0.2,0.3,0.5,0.3,0.8c0,1,0,2.1,0.1,3.1
			c0,0.7,0.2,1.1,1,1.1c0.8,0,1-0.4,1-1.1c0-1,0-1.9,0-2.9c0-0.7,0-1.2,0.9-1.1c1.1,0.1,1.5,0.3,1.5,1.2c0,1,0,2,0,3
			c0,0.4-0.1,0.9,0.6,0.9c0.7,0,0.7-0.4,0.7-0.9c0-1,0-1.9,0-2.9c0-0.5,0.3-0.9,0.7-1.1c0.5-0.3,1.1-0.2,1.6,0
			c0.3,0.1,0.2,0.5,0.2,0.8c0,1,0.1,2.1,0.1,3.1c0,0.8,0.4,1.1,1.2,1.1c0.9,0,0.8-0.5,0.8-1.1c0-0.9,0-1.9,0-2.8
			c0-0.5,0.1-0.9,0.6-1.1c0.5-0.2,1.1-0.2,1.7,0c0.3,0.1,0.2,0.5,0.2,0.7c0,1.1,0,2.1,0,3.2c0,0.8,0.4,1.1,1.1,1c0.7,0,1-0.4,1-1.1
			c0-1,0-1.9,0-2.9c0-0.5-0.1-1.1,0.7-1.1c0.8,0,1.7,0,1.7,1c0.1,1.8,0.1,3.5,0,5.3c0,0.9-0.7,1.3-1.6,1.3
			C94.3,38,90.1,38,85.9,38.1C85.9,38,85.9,38,85.9,38.1z"/>
		<path class="st0" d="M53.3,38.1c-2.5,0-5,0-7.5,0c-0.6,0-1,0.1-1.2,0.6c-0.4,0.9-1.2,1.3-2,1.6c-0.9,0.3-1.8,0.5-2.7,1
			c-0.2,0.1-0.4,0.1-0.6-0.1c-0.2-0.2-0.1-0.4,0-0.6c0.3-0.5,0.7-0.9,1.2-1.2c1.3-0.7,2.1-1.6,2-3.3c-0.1-1.5,0-2.9,0-4.4
			c0-0.5-0.2-1.2,0.7-1.2c1.1-0.1,1.7,0.2,1.8,1.1c0.1,0.9,0.1,1.9,0,2.8c-0.1,0.9,0.3,1.2,1.2,1.2c1.4-0.1,2.8,0,4.2,0
			c0.7,0,0.8-0.2,0.5-0.8c-0.4-0.9-1.3-1.1-2.1-1.4c-0.8-0.3-1.7-0.5-2.1-1.4c-0.2-0.5-0.3-1,0-1.4c0.3-0.4,0.9-0.1,1.3,0.1
			c0.8,0.5,1.8,0.3,2.7,0.7c1.4,0.6,2.1,1.4,2.6,2.8c0.2,0.6,0.2,1.2,0.8,1.4c0.5,0.2,1,0.1,1-0.7c0-0.9,0-1.7,0-2.6
			c0-1.2,0.5-1.8,1.7-1.8c1.4,0,2.7,0,4.1,0c0.8,0,1.2,0.4,1.2,1.2c0,1.7,0,3.5,0,5.2c0,0.9-0.4,1.2-1.2,1.2
			C58.4,38,55.8,38.1,53.3,38.1z M59.7,34.4c0-0.1,0-0.2,0-0.3c0-0.6,0-1.1-0.9-1.1c-0.9,0-1,0.4-1,1.1c0,0.3,0,0.7,0,1
			c0,0.4,0.2,0.6,0.6,0.6C59.6,35.7,59.7,35.6,59.7,34.4z"/>
		<path class="st0" d="M25.4,38.2c-1.3,0-2.7,0-4,0c-1.4,0-1.5-0.2-1.5-1.5c0-0.9,0-1.7,0-2.6c0-0.8-0.5-0.9-1.1-0.9
			c-0.6,0-1.1,0.1-1.1,0.9c0,1.2,0.3,2.4-0.4,3.5c-0.9,1.6-3.8,2.7-5.4,2c-1.3-0.6-2.3-1.2-2.9-2.5c-0.5-1-0.4-2.2-0.2-3.2
			c0.2-0.9,1.1-0.7,1.8-0.6c0.8,0,0.5,0.6,0.5,1.1c0,1.9,0.2,2.3,1.7,2.8c1.1,0.5,2.4-0.3,2.4-1.5c0-1.2,0-2.4,0-3.6
			c0-1,0.5-1.4,1.4-1.5c1.5-0.1,2.9-0.1,4.4,0c0.8,0,1.4,0.5,1.3,1.4c0,1,0,2,0,3c0,0.6,0.2,0.7,0.7,0.7c0.5,0,0.7-0.1,0.7-0.7
			c0-0.9,0-1.7,0-2.6c0-1.2,0.6-1.8,1.8-1.8c1.3,0,2.5,0,3.8,0c1,0,1.4,0.4,1.4,1.5c0,1.6,0,3.3,0,4.9c0,0.9-0.3,1.2-1.2,1.2
			c-1.4,0-2.7,0-4.1,0C25.4,38.1,25.4,38.2,25.4,38.2z M28.2,34.6c0-0.3,0-0.4,0-0.5c0-0.5,0.1-1-0.7-0.9c-0.7,0-1.2,0.1-1.1,1
			c0,0.3,0,0.5,0,0.8c-0.1,0.6,0.2,0.8,0.8,0.8C28.1,35.7,28.3,35.3,28.2,34.6z"/>
		<path class="st0" d="M105,38c-0.8,0-1.6,0-2.3,0c-1,0-1.6-0.6-1.7-1.6c0-1.6-0.1-3.1,0-4.7c0-0.7,0.3-1.2,1.1-1.3
			c1.6,0,3.2,0,4.8,0c0.8,0,1.1,0.3,1.1,1.2c0,1,0,2,0,3c0,0.6,0.2,0.9,0.8,0.9c0.6,0,0.9-0.3,0.9-0.9c0-1.1,0-2.1,0-3.2
			c0-0.6,0.3-0.9,0.9-0.9c1.5,0,3.1-0.1,4.6-0.1c0.9,0,1.4,0.5,1.4,1.4c0,1.5,0,3.1,0,4.6c0,1.1-0.6,1.6-1.7,1.6c-2.1,0-4.3,0-6.4,0
			c-0.5,0-0.8,0.1-1.1,0.6c-0.5,1.1-1.8,1.3-2.8,1.7c-0.5,0.2-1,0.4-1.6,0.6c-0.2,0.1-0.4,0.3-0.6,0c-0.2-0.3-0.1-0.5,0.1-0.7
			c0.5-0.7,1.4-1.1,2.1-1.6C104.8,38.4,105,38.4,105,38z M105.6,34.1c0.1-0.6,0.1-1.2-0.9-1.2c-0.7,0-1.1,0.2-0.9,1
			c0.1,0.6-0.4,1.6,0.9,1.6C105.6,35.6,105.6,34.9,105.6,34.1z M112.2,33.9c0,0.3,0,0.4,0,0.5c-0.1,0.7,0.1,1,0.9,1
			c0.8,0,1-0.4,0.9-1c0-0.3,0-0.5,0-0.8c0-0.5-0.2-0.7-0.7-0.7C112.5,32.9,111.9,33.1,112.2,33.9z"/>
		<path class="st0" d="M13.7,50.6c-0.3,0.6-0.2,1.2-0.2,1.7c0,0.7-0.2,1.4-0.4,2c-0.1,0.4-0.4,0.5-0.8,0.5c-0.4,0-0.6-0.2-0.7-0.6
			c-0.4-1.1-0.4-2.3-0.6-3.4c-0.3,1-0.2,2-0.2,3c0.1,0.8-0.2,1.1-1.1,1.1c-0.9,0-1-0.4-1-1.1c0-2.3,0-4.6,0-6.9
			c0-0.8,0.2-1.2,1.1-1.2c2,0,2.2,0.1,2.3,2.2c0,0.4-0.1,0.9,0.2,1.3c0.4-0.6,0.2-1.2,0.3-1.8c0.1-1.4,1.8-2.3,3-1.6
			c0.3,0.2,0.3,0.4,0.3,0.7c0,2.5,0,5,0.1,7.5c0,0.9-0.6,0.8-1.1,0.8c-0.7,0-0.9-0.2-0.9-0.9C13.9,52.8,13.9,51.7,13.7,50.6z"/>
		<path class="st0" d="M31.8,34.5c0-0.9,0-1.7,0-2.6c0-0.9,0.4-1.3,1.4-1.3c1.4,0,2.7,0,4.1,0c0.8,0,1.3,0.4,1.3,1.2
			c0.1,2.1,0.2,4.1-0.1,6.2c-0.2,1.3-1.2,2-2.4,2.4c-0.8,0.3-1.7,0.5-2.5,0.9c-0.2,0.1-0.5,0.2-0.6,0c-0.2-0.2-0.1-0.5,0-0.7
			c0.5-0.8,1.4-1,2-1.6c0.2-0.2,0.6-0.3,0.5-0.6c-0.1-0.4-0.5-0.2-0.8-0.2c-0.7,0-1.3,0-2,0c-0.6,0-0.9-0.3-0.9-0.8
			C31.8,36.3,31.8,35.4,31.8,34.5C31.8,34.5,31.8,34.5,31.8,34.5z M36.1,34.3c0-0.1,0-0.3,0-0.4c0.1-0.6-0.1-0.9-0.9-0.9
			c-0.7,0-1,0.3-0.9,0.9c0,0.3,0,0.5,0,0.8c-0.1,0.7,0.2,0.9,0.9,0.9C36.3,35.7,36.1,34.9,36.1,34.3z"/>
		<path class="st0" d="M50.1,51.1c0-0.8,0-1.6,0-2.4c0-1.4,0.8-1.9,2.1-1.3c0.3,0.2,0.5,0.1,0.8,0c1.5-0.2,3,0.1,4.5,0
			c0.5,0,0.8,0.9,0.9,1.5c0,1.7,0,3.4,0,5.1c0,1.2-0.9,0.7-1.5,0.8c-0.6,0.1-1-0.1-1-0.8c0.1-1.5,0-2.9,0-4.4c0-0.3,0.2-0.7-0.3-0.7
			c-0.4,0-0.4,0.4-0.4,0.7c0,1.4-0.1,2.8,0,4.2c0,0.8-0.2,1.1-1.1,1.1c-0.8,0-1.1-0.2-1.1-1.1c0.1-1.4,0-2.9,0-4.3
			c0-0.3,0.1-0.7-0.5-0.7c-0.5,0-0.3,0.4-0.3,0.7c0,1.5,0,3,0,4.5c0,0.7-0.3,0.9-0.9,0.8C51,54.7,50.2,55,50.1,54
			C50.1,53,50.1,52,50.1,51.1C50.1,51.1,50.1,51.1,50.1,51.1z"/>
		<path class="st0" d="M92.2,50.2c0,1,0,2.1,0,3.1c0,1.4-0.9,2-2.2,1.3c-0.3-0.2-0.4-0.1-0.7,0c-1.2,0.4-2.2,0.2-2.3-1.2
			c-0.1-1.6-0.3-3.2,0-4.9c0.2-1.3,0.6-1.6,2-1.3c0.7,0.1,1.1,0,1-0.8c-0.1-0.7,0.1-1.1,0.9-1c0.7,0,1.4,0,1.4,1
			C92.2,47.6,92.2,48.9,92.2,50.2C92.2,50.2,92.2,50.2,92.2,50.2z M89.8,51c0-0.6,0-1.2,0-1.8c0-0.3,0-0.6-0.4-0.5
			c-0.3,0-0.4,0.2-0.4,0.5c0,1.2,0,2.4,0,3.6c0,0.3,0.1,0.5,0.4,0.5c0.4,0,0.4-0.2,0.4-0.5C89.8,52.1,89.8,51.5,89.8,51z"/>
		<path class="st0" d="M28.2,50.2c0-1.2,0-2.3,0-3.5c0-0.7,0.2-1,0.9-0.9c0.6,0.1,1.5-0.4,1.4,0.8c0,0.6,0.1,0.9,0.8,0.6
			c0.9-0.3,2.2,0.3,2.1,1.7c-0.1,1.7-0.1,3.3,0,5c0,1-0.6,0.8-1.2,0.8c-0.6,0-1.2,0.1-1.2-0.9c0.1-1.5,0-3.1,0-4.6
			c0-0.2,0.1-0.5-0.2-0.5c-0.4,0-0.3,0.3-0.3,0.5c0,1.4,0,2.8,0,4.2c0,0.9-0.2,1.3-1.2,1.3c-1.1,0-1.2-0.5-1.2-1.3
			C28.2,52.4,28.2,51.3,28.2,50.2C28.2,50.2,28.2,50.2,28.2,50.2z"/>
		<path class="st0" d="M25.3,53.2C25,53.4,25,53.6,25,53.8c0.1,0.8-0.3,1-1,1c-1.4,0-1.4,0.1-1.4-1.3c0-2.3,0-4.5,0-6.8
			c0-0.9,0.5-0.9,1.1-0.9c0.6,0,1.3-0.2,1.3,0.9c0,0.6-0.2,1.2,0.1,1.9c0.4-0.7,0.4-1.5,1.4-1.4c0.8,0.1,1,0.6,0.8,1.1
			c-0.9,1.9-0.3,3.7,0.3,5.4c0.2,0.7,0.2,1-0.6,1C25.7,54.9,25.7,54.9,25.3,53.2z"/>
		<path class="st0" d="M49.4,51.1c0,1,0,1.9,0,2.9c0,0.5-0.2,0.8-0.7,0.8c-1.1,0-2.2,0.1-3.3,0.1c-0.9,0-1.5-0.7-1.5-1.7
			c0-1.7,0-3.3,0-5c0-1.1,0.8-0.9,1.5-0.9c0.8-0.1,1,0.3,1,1c0,1.5,0,3,0,4.5c0,0.3-0.1,0.7,0.3,0.7c0.4,0,0.5-0.4,0.5-0.7
			c0-1.5,0-3,0-4.5c0-0.7,0.2-1,1-1c0.7,0,1.3,0.1,1.3,1C49.4,49.1,49.4,50.1,49.4,51.1C49.4,51.1,49.4,51.1,49.4,51.1z"/>
		<path class="st0" d="M80.7,50.9c0-0.9,0-1.9,0-2.8c0-0.7,0.2-1,0.9-1c1,0.1,1.9,0.1,2.9-0.1c0.9-0.2,1.6,0.5,1.6,1.4
			c0.1,1.8,0.1,3.7,0,5.5c0,1-0.9,0.7-1.4,0.7c-0.6,0.1-1,0-1-0.8c0-1.5,0-3.1,0-4.6c0-0.3,0.2-0.8-0.4-0.8c-0.4,0-0.4,0.4-0.4,0.8
			c0,1.5,0,2.9,0,4.4c0,0.7-0.2,1-0.9,1c-0.7,0-1.3,0.1-1.3-0.9C80.8,52.9,80.8,51.9,80.7,50.9C80.8,50.9,80.8,50.9,80.7,50.9z"/>
		<path class="st0" d="M80.1,51c0,0.7,0,1.5,0,2.2c0,1.5-0.1,1.7-1.5,1.5c-0.8-0.1-1.6,0-2.4,0.1c-0.7,0-1.1-0.2-1.2-0.9
			c-0.3-2-0.3-4-0.2-6c0-1,0.9-0.6,1.5-0.6c0.6-0.1,0.8,0.2,0.8,0.8c0,1.5,0,3,0,4.5c0,0.3-0.1,0.8,0.4,0.8c0.5,0,0.4-0.4,0.4-0.7
			c0-1.5,0-2.9,0-4.4c0-0.6,0.2-1,0.9-0.9c0.6,0.1,1.4-0.3,1.4,0.8C80.1,49,80.1,50,80.1,51C80.1,51,80.1,51,80.1,51z"/>
		<path class="st0" d="M111.2,50.8c0-0.9,0-1.8,0-2.7c0-0.7,0.3-1,1-1c0.9,0,1.8,0.4,2.8-0.3c0.4-0.3,1.3,0.2,1.4,1
			c0.4,2,0.2,4.1,0.2,6.2c0,0.9-0.8,0.7-1.4,0.8c-0.7,0.1-0.8-0.4-0.8-0.9c0-1.4,0-2.8,0-4.2c0-0.3,0-0.5-0.1-0.8
			c0-0.2-0.2-0.5-0.4-0.5c-0.3,0-0.3,0.3-0.3,0.5c0,1.6,0,3.1,0,4.7c0,0.7,0,1.2-0.9,1.1c-0.8,0-1.5-0.1-1.5-1.1
			C111.2,52.7,111.2,51.7,111.2,50.8C111.2,50.8,111.2,50.8,111.2,50.8z"/>
		<path class="st0" d="M18.3,50.7c-0.2-0.1-0.3-0.2-0.3-0.2c-0.5-0.1-1.1,0.2-1.3-0.6c-0.2-0.8,0.1-1.5,0.7-2
			c0.8-0.7,1.9-0.9,2.9-0.6c1.2,0.4,1.6,0.9,1.6,2.2c-0.1,1.5,0,2.9,0,4.4c0,0.7-0.2,1-0.9,0.9c-0.8,0-1.6-0.2-2.4,0.2
			c-0.5,0.2-1-0.1-1.4-0.5C16,53.4,16.5,51.6,18.3,50.7z M19.2,51.7c-0.3,0.6-0.2,1.2-0.1,1.8c0,0,0.2,0,0.2,0
			c0.3-0.6,0.2-1.1,0.1-1.7C19.4,51.8,19.3,51.8,19.2,51.7z M19.1,48.7c-0.1,0.5-0.1,1,0,1.6c0,0,0.2,0,0.3,0c0.2-0.5,0.3-1,0-1.5
			C19.3,48.8,19.2,48.8,19.1,48.7z"/>
		<path class="st0" d="M94.9,50.3c-0.5-0.3-0.8-0.2-1.2-0.2c-1,0-1.3-0.4-1-1.4c0.7-2,3.1-2.2,4.5-1.2c0.5,0.3,0.6,0.8,0.6,1.4
			c0,1.5,0,3,0,4.5c0,1.3-0.6,1.7-1.8,1.2c-0.3-0.1-0.4-0.3-0.8-0.1c-1.2,0.5-2,0.2-2.5-0.9c-0.4-0.9,0-2.3,0.8-2.8
			C93.9,50.6,94.3,50.5,94.9,50.3z M95,52.3c0.1,0.3-0.2,0.8,0.3,0.8c0.5,0.1,0.4-0.5,0.4-0.8c0-0.3,0.1-0.8-0.3-0.8
			C94.8,51.5,95.1,52,95,52.3z M95.2,48.4c-0.3,0.2-0.2,0.5-0.2,0.7c0,0.3-0.1,0.5,0.1,0.8c0,0,0.2,0,0.3,0c0.3-0.2,0.3-0.6,0.3-0.9
			C95.5,48.8,95.5,48.4,95.2,48.4z"/>
		<path class="st0" d="M43.5,51.1c0,0.2,0,0.3,0,0.5c-0.1,3.4-1.5,3.5-4.2,3.1c-0.5-0.1-0.8-0.5-0.9-1c-0.2-1.4-0.3-2.8-0.2-4.3
			c0.1-1.5,1.2-2.5,2.9-2.3c1.2,0.1,2.2,1.1,2.3,2.5C43.5,50.2,43.5,50.6,43.5,51.1C43.5,51.1,43.5,51.1,43.5,51.1z M41.2,51.2
			C41.2,51.2,41.2,51.2,41.2,51.2c0-0.6,0-1.3,0-1.9c0-0.2,0-0.5-0.3-0.5c-0.4,0-0.4,0.2-0.4,0.5c0,0.8,0,1.7,0,2.5
			c0,0.4,0,0.9,0.1,1.3c0,0.2,0.2,0.4,0.4,0.4c0.3,0,0.2-0.3,0.2-0.5C41.2,52.4,41.2,51.8,41.2,51.2z"/>
		<path class="st0" d="M68.9,51.2c0-0.7,0-1.4,0-2.1c0.1-1.2,0.9-1.8,2-1.9c2.2-0.2,3.3,0.8,3.2,3.2c-0.1,1.1,0.3,2.3-0.4,3.4
			c-0.4,0.6-0.9,1.1-1.7,1c0,0-0.1,0-0.1,0c-2.6,0.2-3.1-0.4-3.1-3C68.9,51.5,68.9,51.4,68.9,51.2C68.9,51.2,68.9,51.2,68.9,51.2z
			 M71.8,51C71.8,51,71.8,51,71.8,51c0-0.6,0-1.2,0-1.8c0-0.2,0-0.5-0.3-0.5c-0.3,0-0.4,0.2-0.4,0.5c0,1.2,0,2.5,0,3.7
			c0,0.3,0.2,0.4,0.4,0.4c0.3,0,0.3-0.3,0.3-0.5C71.8,52.2,71.8,51.6,71.8,51z"/>
		<path class="st0" d="M105.2,50.8c0.1-0.6,0.1-1.1,0.2-1.7c0.1-2.3,2.7-2.8,4.3-1.7c0.8,0.5,0.9,1.4,0.9,2.2
			c0.1,1.1,0.2,2.3-0.3,3.4c-0.6,1.5-1.2,1.8-3,1.7c-1-0.1-1.7-0.8-1.9-1.9C105.3,52.1,105.3,51.5,105.2,50.8z M108.4,50.9
			C108.4,50.9,108.4,50.9,108.4,50.9c0-0.6,0-1.3,0-1.9c0-0.3,0-0.6-0.4-0.6c-0.3,0-0.4,0.3-0.4,0.5c0,1.3,0,2.5,0,3.8
			c0,0.3,0.1,0.5,0.4,0.5c0.4,0,0.4-0.3,0.4-0.6C108.4,52.1,108.4,51.5,108.4,50.9z"/>
		<path class="st0" d="M64.3,50.2c0-1.2,0-2.5,0-3.7c0-0.6,0.2-0.9,0.8-0.9c0.8,0,1.7-0.1,2.5-0.1c0.5,0,0.9,0.3,1,0.9
			c0,0.7-0.3,0.9-0.9,0.8c-0.7,0-0.9,0.3-0.9,0.9c0,0.6,0.1,0.9,0.7,0.8c0.6-0.1,0.7,0.3,0.6,0.8c0,0.4,0.2,1.1-0.6,1.1
			c-0.8,0-0.9,0.4-0.8,1c0,0.5,0,0.9,0,1.4c0,1.2-1,1.9-2.1,1.3c-0.4-0.2-0.3-0.5-0.3-0.8C64.3,52.7,64.3,51.5,64.3,50.2
			C64.3,50.2,64.3,50.2,64.3,50.2z"/>
		<path class="st0" d="M101.1,50.7c0,0.6,0,1.1,0,1.6c0,0.4-0.1,0.8,0.5,0.9c0.5,0.1,0.4,0.5,0.4,0.9c-0.1,0.4-0.3,0.5-0.7,0.6
			c-1.6,0.2-2.4-0.5-2.5-2.2c0-1,0-2,0-3c0-0.3,0.1-0.7-0.1-1c-0.8-0.8,0-1.5,0.3-2.1c0.3-0.6,1.1-0.3,1.8-0.4
			c0.2,0,0.4,0.1,0.4,0.3c0,0.4,0.2,0.7,0.5,1c0.2,0.2,0.2,0.5,0,0.7C100.8,48.9,101.1,49.9,101.1,50.7z"/>
		<path class="st0" d="M35.7,54.8c-2.2,0-2.2,0-1.5-2.1c0.2-0.8,0.6-1.5,0.9-2.3c0.2-0.5,0.7-1.4-0.5-1.6c-0.4-0.1-0.4-0.6-0.3-0.9
			c0.1-0.4,0.3-0.6,0.7-0.6c0.7,0,1.5,0,2.2,0c0.6,0,0.6,0.5,0.7,0.9c0.1,1.1-0.3,2.2-0.8,3.1c-0.2,0.5-0.2,1.1-0.6,1.5
			c-0.3,0.4,0.2,0.4,0.5,0.4c0.6,0,0.9,0.1,0.9,0.8c0,0.7-0.5,0.7-1,0.7C36.4,54.8,36,54.8,35.7,54.8z"/>
		<path class="st0" d="M120.6,45.8c-0.2-1.2,0.4-2.3,0.6-3.5c0.2-0.8,0.4-1.6,0.5-2.4c0.1-0.6-0.3-1.1-0.8-1.6
			c-0.5-0.5-0.8-1.1-1.1-1.8c-0.2-0.6-0.1-1.2,0.6-1.2c1.3-0.1,2.7-0.1,3.6,1.3c0.4,0.6,0.5,1-0.1,1.5c-0.3,0.2-0.5,0.6-0.8,0.8
			c-0.7,0.5-0.9,1.1-0.8,1.9c0.1,1-0.3,1.9-0.7,2.8C121.3,44.2,121.2,45.1,120.6,45.8z"/>
		<path class="st0" d="M170.1,48.2c0,3.7-1.4,6.3-4.4,8.1c-0.2,0.1-0.4,0.4-0.6,0.1c-0.3-0.3,0.1-0.5,0.2-0.6
			c1.4-1.4,2.6-3.1,3.5-4.9c0.1-0.2,0.2-0.5,0.2-0.7c0.1-0.6-0.1-0.6-0.6-0.4c-0.6,0.3-1,0.8-1.5,1.3c-0.2,0.2-0.3,0.5-0.7,0.3
			c-0.3-0.1-0.3-0.4-0.3-0.7c0.1-0.8,0.2-1.5,0.9-2c0.5-0.4,0.9-0.8,1.4-1.1c0.4-0.3,0.9-0.7,1.4-0.4C170.3,47.5,170,48,170.1,48.2z
			"/>
		<path class="st0" d="M102.3,50.8c0-1,0-1.9,0-2.9c0-0.9,0.6-0.8,1.1-0.7c0.5,0,1.3-0.2,1.3,0.7c0,2,0,3.9,0,5.9
			c0,1-0.8,0.9-1.4,0.9c-0.7,0.1-0.9-0.3-0.9-0.9C102.4,52.8,102.3,51.8,102.3,50.8C102.3,50.8,102.3,50.8,102.3,50.8z"/>
		<path class="st0" d="M59.1,51c0-0.9,0-1.9,0-2.8c0-0.6,0.1-1,0.8-1c0.6,0,1.5-0.3,1.6,0.8c0.1,0.9,0,1.8,0,2.7c0,1,0,2,0.1,3
			c0,1.1-0.7,1-1.4,1c-0.7,0-1-0.2-1-1C59.2,52.9,59.2,51.9,59.1,51C59.2,51,59.1,51,59.1,51z"/>
		<path class="st0" d="M170.3,37.9c0-0.5-0.4-0.5-0.7-0.6c-1.3-0.5-1.7-2.1-0.7-3.1c0.5-0.5,1.2-0.2,1.5,0.7
			c0.2,0.7,0.4,1.3,0.8,1.9c0.1,0.1,0.1,0.4,0.1,0.5c-0.9,1.8-1.3,3.9-3,5.2c-0.1,0.1-0.3,0.4-0.5,0.2c-0.3-0.2,0-0.4,0.2-0.6
			c0.8-1.2,1.7-2.4,2.1-3.8C170.2,38.1,170.2,38,170.3,37.9z"/>
		<path class="st0" d="M70.6,28.1c-0.1,0.9-0.5,1.2-1.2,1.2c-0.6,0-1-0.3-1.3-0.7c-0.3-0.5,0-1,0.4-1.4c0.5-0.5,1.4-0.4,1.8,0.2
			c0.4,0.6,0.6,0.6,0.9,0c0.4-0.6,1.4-0.8,1.8-0.4c0.5,0.4,0.5,1.6,0.1,2.1c-0.4,0.4-1.5,0.2-2-0.3C71.1,28.6,70.9,28.4,70.6,28.1z"
			/>
		<path class="st0" d="M104.1,29.7c-0.1,0-0.3,0-0.4,0c-0.4-0.1-1,0.3-1.2-0.2c-0.2-0.4,0.4-0.6,0.6-0.9c0.3-0.4,0.2-0.8,0.2-1.1
			c-0.1-0.9,0.3-1.2,1.2-1.1c0.3,0,0.7,0,1,0c0.3,0,0.6-0.2,0.7,0.3c0.1,0.3-0.2,0.6-0.5,0.7c-0.2,0.1-0.4,0.1-0.7,0.2
			c-0.2,0.1-0.3,0.3-0.3,0.5c0,0.2,0.2,0.3,0.3,0.3c0.5,0,1.2-0.1,1.1,0.8c-0.1,0.9-0.9,0.6-1.4,0.7
			C104.5,29.7,104.3,29.7,104.1,29.7C104.1,29.7,104.1,29.7,104.1,29.7z"/>
		<path class="st0" d="M156.5,62.7c-0.2,0.6-0.3,1.2-0.7,1.6c-0.1,0.1-0.2,0.4-0.4,0.3c-0.2-0.1-0.2-0.3-0.2-0.5c0,0,0-0.1,0-0.1
			c0-0.4,0.2-1.1-0.2-1.2c-0.5-0.2-0.8,0.6-1,0.9c-0.6,1.1-1.6,1.7-2.5,2.4c-0.2,0.1-0.4,0.2-0.5,0c-0.2-0.3,0.1-0.4,0.2-0.5
			c0.9-0.7,1.7-1.5,2.4-2.3c0.6-0.8,1-1.6,0.5-2.5c-0.1-0.1-0.2-0.3-0.1-0.5c0.1-0.3,0.1-0.7,0.4-0.9c0.4-0.2,0.4,0.3,0.5,0.5
			c0.5,0.7,0.8,1.4,0.8,2.3C155.7,63.1,156,63,156.5,62.7z"/>
		<path class="st0" d="M127.7,57.5c0.3-0.9-0.1-1.7,0.4-2.4c0.2-0.2,0.3-0.5,0.7-0.5c0.4,0,0.5,0.3,0.6,0.6c0.2,0.4,0.3,0.7-0.4,0.5
			c-0.6-0.1-0.7,0.2-0.7,0.7c0,0.8,0,1.5,0,2.3c0,0.2,0,0.5-0.3,0.6c-0.3,0.1-0.4-0.1-0.6-0.3c-0.2-0.3-0.5-0.6-0.6-1
			c-0.2-0.5-0.5-0.9-1.1-0.8c-0.5,0-0.9-0.4-1.1-0.7c-0.2-0.3-0.3-0.8,0-1.1c0.3-0.4,0.6,0,0.9,0.2C126.4,56,127,56.8,127.7,57.5z"
			/>
		<path class="st0" d="M139.7,18.3c0.3-0.9-0.1-1.8,0.5-2.6c0.2-0.2,0.2-0.6,0.6-0.5c0.4,0.1,0.5,0.4,0.5,0.7c0,0.4-0.1,0.6-0.6,0.5
			c-0.5-0.1-0.3,0.4-0.3,0.7c-0.1,0.9,0.1,1.8-0.4,2.6c-0.1,0.2-0.1,0.5-0.4,0.5c-0.2,0-0.2-0.3-0.2-0.5c0-0.5-0.3-0.8-0.6-1.1
			c-0.4,0.3,0,1-0.5,0.9c-0.5-0.1-0.3-0.7-0.3-1c0-0.4-0.1-0.7-0.5-1c-0.4-0.3-0.8-0.8-0.4-1.3c0.5-0.5,0.9,0.2,1.2,0.5
			C138.9,17.1,139.3,17.7,139.7,18.3z"/>
		<path class="st0" d="M152.8,54c0.2-1,0.3-1.7,0.4-2.4c0-0.3,0.1-0.5,0.4-0.6c0.5-0.1,0.6,0.2,0.9,0.5c0.2,0.2,0.3,0.5,0.2,0.7
			c-0.1,0.2-0.3,0.2-0.5,0.1c-0.8-0.3-1,0.1-0.9,0.8c0,0.7,0.1,1.3,0.1,2c0,0.2,0,0.5-0.3,0.6c-0.3,0.1-0.4-0.1-0.6-0.3
			c-0.2-0.4-0.4-0.7-0.7-1.1c-0.3-0.3-0.3-0.9-1.1-0.6c-0.4,0.1-1-0.5-1.2-1.2c-0.1-0.2-0.1-0.6,0.1-0.8c0.3-0.3,0.5,0,0.7,0.1
			C151.5,52.1,152,53.1,152.8,54z"/>
		<path class="st0" d="M159.2,50.6c0.2,0.5,0.5,0.8,1.2,0.8c0.7,0.1,1.1,1,0.9,1.8c-0.2,0.8-0.9,1.2-1.7,1c-0.4-0.1-0.7-0.3-0.7-0.6
			c0-1,0-2,0-3C159,50.6,159.1,50.6,159.2,50.6z M160.7,52.8c-0.2-0.5-0.8-0.4-1.2-0.7c-0.1-0.1-0.3,0.2-0.2,0.4
			c0,0.5,0.2,0.8,0.8,0.8C160.4,53.3,160.7,53.2,160.7,52.8z"/>
		<path class="st0" d="M45.2,28c-0.1,1-0.5,1.4-1.3,1.4c-0.6,0.1-1.4-0.7-1.4-1.2c0-0.6,0.8-1.4,1.3-1.4
			C44.4,26.8,45.2,27.6,45.2,28z"/>
		<path class="st0" d="M13,41.8c0.1,0.8-0.5,1.1-1.2,1.1c-0.8,0.1-1.2-0.4-1.2-1.3c0-0.8,0.4-1.2,1.2-1.3C12.5,40.2,13,40.8,13,41.8
			z"/>
		<path class="st0" d="M15.8,41.7c0.2,0.8-0.5,1.1-1.2,1.1c-0.7,0-1.3-0.4-1.3-1.2c0-0.7,0.6-1.4,1.3-1.3
			C15.4,40.4,15.8,40.8,15.8,41.7z"/>
		<path class="st0" d="M48.8,29.4c-0.8,0-1.2-0.4-1.3-1.2c0-0.6,0.6-1.4,1.2-1.4c0.6,0,1.4,0.8,1.4,1.3
			C50.1,28.7,49.4,29.4,48.8,29.4z"/>
		<path class="st0" d="M160.8,62.2c-0.2,0-0.3,0-0.4-0.2c-0.1-0.2,0.1-0.3,0.2-0.4c1.3-0.6,2.1-1.5,2.4-2.9c0.1-0.5,0.6-0.4,1-0.3
			c0.5,0.1,0.2,0.4,0.1,0.7C163.7,60.3,161.7,62.2,160.8,62.2z"/>
		<path class="st0" d="M163.6,43.1c-0.1,1.1-2,3.5-3,3.7c-0.1,0-0.3,0-0.3-0.1c-0.1-0.1,0-0.2,0.1-0.3c0.2-0.2,0.5-0.4,0.7-0.7
			c0.6-0.6,1.1-1.3,1-2.2c0-0.5,0.2-0.8,0.7-1C163.5,42.3,163.6,42.6,163.6,43.1z"/>
		<path class="st0" d="M155.5,19c0,0.4-0.3,0.6-0.1,0.9c0.2,0.4,0.6,0.7,1,0.5c0.4-0.2,0.3-0.6,0.1-0.9c-0.1-0.1-0.3-0.3-0.3-0.4
			c0-0.4-0.7-0.6-0.2-1c0.5-0.4,0.6,0.4,0.9,0.5c0.5,0.2,0.7,0.9,0.5,1.5c-0.2,0.6-0.5,1.1-1.1,1.2c-0.5,0.1-1.1,0-1.3-0.6
			C154.5,20.1,154.6,19.5,155.5,19z"/>
		<path class="st0" d="M126.9,47.5c0.1-0.8,0-1.7-0.6-2.4c-0.4-0.5-0.1-0.9,0.2-1.1c0.4-0.2,0.6,0.3,0.8,0.6
			c0.7,1.4,0.7,2.9,0.1,4.4c-0.1,0.1-0.1,0.3-0.3,0.2c-0.1,0-0.2-0.2-0.2-0.3C126.9,48.5,126.9,48,126.9,47.5z"/>
		<path class="st0" d="M167.5,27.5c-0.1,0.5,0,1.2-0.9,1.1c-0.7-0.1-1.4-0.1-1.3-1.1c0.1-0.8,0.3-1.3,1.2-1.2
			C167.3,26.4,167.5,26.9,167.5,27.5z"/>
		<path class="st0" d="M131.4,18.9c0.4,0,0.6,0,0.7,0.2c0.1,0.2-0.1,0.3-0.2,0.4c-1.1,0.3-1.7,1.2-2.4,2.1c-0.2,0.2-0.2,0.5-0.5,0.5
			c-0.3,0-0.5,0.2-0.8,0c-0.2-0.2,0.1-0.4,0.2-0.6C128.9,20,130.1,19.4,131.4,18.9z"/>
		<path class="st0" d="M165,23.8c0,0.6-0.1,1.1-0.8,0.9c-0.5-0.1-1.4,0.1-1.3-0.8c0.1-0.6-0.2-1.4,1-1.3
			C164.7,22.7,165.1,23,165,23.8z"/>
		<path class="st0" d="M126.1,27.8c-0.1,0.9-0.8,1-1.4,1c-0.7,0-0.9-0.9-0.8-1.2c0-0.7,0.8-0.9,1.4-0.9
			C125.9,26.7,126,27.3,126.1,27.8z"/>
		<path class="st0" d="M123.8,31.9c0,0.8-0.7,1-1.3,1c-0.8,0-0.9-0.8-0.9-1.2c0-0.8,0.9-0.7,1.4-0.9
			C123.7,30.6,123.7,31.3,123.8,31.9z"/>
		<path class="st0" d="M103.3,46.7c-0.5,0.1-1,0-1-0.7c0-0.9,0.6-0.7,1.1-0.7c0.5,0,1.2-0.3,1.2,0.5C104.6,46.7,104,46.8,103.3,46.7
			z"/>
		<path class="st0" d="M135.7,24.2c0.6-1.5,1.6-2.5,1.9-3.9c0-0.2,0.1-0.3,0.3-0.3c0.2,0,0.2,0.2,0.2,0.4c0.1,0.6-0.3,0.9-0.5,1.4
			C137.2,22.6,136.8,23.5,135.7,24.2z"/>
		<path class="st0" d="M144.3,65.3c-0.2,0.5-0.1,1.2-0.8,1c-0.5-0.1-0.9-0.4-0.8-1c0.1-0.4,0.3-0.9,0.8-0.8
			C143.9,64.5,144.3,64.8,144.3,65.3z"/>
		<path class="st0" d="M133.8,62.1c0.5,0.2,1,0.4,0.9,0.8c-0.1,0.4,0,1.2-0.7,1.1c-0.4,0-1.1-0.3-1-0.9
			C133,62.5,133.3,62.2,133.8,62.1z"/>
		<path class="st0" d="M60.2,46.8c-0.4,0-0.8,0.1-1-0.3c-0.2-0.3-0.1-0.7,0.3-0.8c0.2-0.1,0.5-0.1,0.7-0.1c0.5,0,1.2-0.2,1.2,0.5
			C61.4,47,60.7,46.8,60.2,46.8z"/>
		<path class="st0" d="M137.7,64.3c-0.1,0.4-0.2,0.9-0.8,0.8c-0.4-0.1-0.9-0.3-0.8-0.9c0.1-0.6,0.4-0.8,0.9-0.8
			C137.6,63.5,137.8,63.9,137.7,64.3z"/>
		<path class="st0" d="M158.5,61.1c0,0.4,0,0.8-0.7,0.4c-0.4-0.2-0.6,0.1-0.7,0.4c-0.1,0.2-0.2,0.4-0.4,0.3c-0.2-0.2-0.2-0.4,0-0.6
			c0.4-0.2,0.3-0.7,0.6-1c0.2-0.2,0.4-0.5,0.8-0.4C158.6,60.4,158.5,60.7,158.5,61.1z"/>
		<path class="st0" d="M123.2,51.8c0-0.4,0-0.8,0.6-0.8c0.5,0.1,0.9,0.3,0.9,0.9c0,0.5-0.3,0.8-0.8,0.8
			C123.3,52.6,123.1,52.3,123.2,51.8z"/>
		<path class="st0" d="M122.6,49c-0.1,0.4-0.2,0.8-0.8,0.7c-0.4-0.1-0.8-0.2-0.7-0.7c0.1-0.5,0.2-0.7,0.8-0.7
			C122.3,48.3,122.6,48.5,122.6,49z"/>
		<path class="st0" d="M129.1,26.5c0.2-0.1,0.6-0.3,0.6,0.1c0.1,0.4-0.4,0.4-0.6,0.5c-0.3,0-0.7-0.1-0.7-0.4
			C128.4,26.1,128.9,26.6,129.1,26.5z"/>
	</g>
</g>
</svg>
