<svg id="Layer_1" data-name="Layer 1" xmlns="http://www.w3.org/2000/svg" viewBox="0 0 180 80"><defs><style>.cls-1{fill:#fff;}</style></defs><title>01</title><path class="cls-1" d="M77.42,66.5c0-1.43,0-2.86,0-4.29,0-.32.07-.46.43-.5a18.81,18.81,0,0,1,4-.08A4.43,4.43,0,0,1,86,66.89c-.3,2.65-1.9,4.14-4.67,4.43a18.39,18.39,0,0,1-3.48,0c-.34,0-.45-.14-.45-.48,0-1.44,0-2.89,0-4.33Zm2.22-.06c0,.93,0,1.86,0,2.78,0,.34.09.5.44.48s.43,0,.65,0a2.92,2.92,0,0,0,2.53-1.41A4.2,4.2,0,0,0,83.52,65a2.25,2.25,0,0,0-1.31-1.48A4.21,4.21,0,0,0,80,63.27c-.27,0-.4.11-.39.43C79.65,64.61,79.64,65.52,79.64,66.44Z"/><path class="cls-1" d="M71.85,71.5a7.77,7.77,0,0,1-2.25-.44c-.29-.1-.39-.25-.29-.56a8.44,8.44,0,0,0,.28-1.1c.06-.32.19-.28.41-.19a4.65,4.65,0,0,0,2.57.42c.49-.08.94-.24,1.05-.83s-.1-.84-.73-1.15-1-.41-1.47-.62a3.15,3.15,0,0,1-2-2.06,2.67,2.67,0,0,1,1.66-3.11,5.74,5.74,0,0,1,4.18,0c.18,0,.27.12.19.35a10.16,10.16,0,0,0-.33,1.2c-.06.27-.16.29-.41.2a4,4,0,0,0-2.15-.28c-.44.09-.85.24-.94.75a.9.9,0,0,0,.64,1c.63.3,1.29.55,1.91.86a2.7,2.7,0,0,1,1.72,2.86,2.9,2.9,0,0,1-2.26,2.48A6.72,6.72,0,0,1,71.85,71.5Z"/><path class="cls-1" d="M67.7,66.5c0,1.47,0,2.93,0,4.39,0,.36-.1.46-.44.43s-1,0-1.45,0c-.23,0-.31-.06-.31-.31q0-4.53,0-9.07c0-.24.08-.31.31-.3a14,14,0,0,0,1.45,0c.35,0,.45.08.44.44C67.69,63.55,67.7,65,67.7,66.5Z"/><path class="cls-1" d="M118.81,70.57a2.44,2.44,0,0,1-1.22.84A2.29,2.29,0,0,1,114.81,70a3.59,3.59,0,0,1,.09-3,2.34,2.34,0,0,1,3.78-.75c.17-.08.1-.23.1-.35,0-.73,0-1.46,0-2.19,0-.4,0-.63.54-.62s.51.22.51.6c0,2.18,0,4.35,0,6.52a3.33,3.33,0,0,0,0,.55c.09.46-.07.59-.54.59S119,70.86,118.81,70.57Zm0-1.91c0-.34,0-.55,0-.77a1.56,1.56,0,0,0-1.1-1.44,1.48,1.48,0,0,0-1.71.69,2.71,2.71,0,0,0-.1,2.67,1.4,1.4,0,0,0,1.41.83,1.51,1.51,0,0,0,1.36-.93A2.29,2.29,0,0,0,118.78,68.66Z"/><path class="cls-1" d="M100.86,68.5a2.76,2.76,0,0,1-4,2.73,2.56,2.56,0,0,1-.79-.59,3.34,3.34,0,0,1-.12-4,2.82,2.82,0,0,1,3.46-.75A2.64,2.64,0,0,1,100.86,68.5Zm-4.43.17a2.52,2.52,0,0,0,.17.86A1.63,1.63,0,0,0,98,70.7a1.46,1.46,0,0,0,1.51-.84,2.64,2.64,0,0,0,0-2.71A1.53,1.53,0,0,0,96.85,67,2.88,2.88,0,0,0,96.43,68.67Z"/><path class="cls-1" d="M138.75,68.45a2.81,2.81,0,0,1-1.42,2.69A2.73,2.73,0,0,1,134.4,71a3.21,3.21,0,0,1-.75-4.12,2.78,2.78,0,0,1,3.7-1A2.72,2.72,0,0,1,138.75,68.45Zm-4.46.07c0,.22,0,.43.05.65a1.78,1.78,0,0,0,1.53,1.54,1.66,1.66,0,0,0,1.66-1.3,2.71,2.71,0,0,0-.16-2.16,1.47,1.47,0,0,0-1.38-.89,1.52,1.52,0,0,0-1.42.91A2.47,2.47,0,0,0,134.29,68.52Z"/><path class="cls-1" d="M105.91,70.55a3,3,0,0,1-.94.75,1.92,1.92,0,0,1-2.77-1.37,9.49,9.49,0,0,1-.1-2c0-.65,0-1.3,0-1.94,0-.47.31-.34.55-.35s.55-.1.54.35c0,.78,0,1.56,0,2.34,0,.33,0,.67,0,1,.07.83.52,1.29,1.23,1.27a1.4,1.4,0,0,0,1.38-1.36c0-1,0-2.07,0-3.1,0-.49.21-.5.59-.52s.49.14.48.51c0,1.55,0,3.1,0,4.64,0,.23.16.57-.32.55s-.69,0-.61-.48A1.63,1.63,0,0,0,105.91,70.55Z"/><path class="cls-1" d="M124.5,70.79a2.87,2.87,0,0,1-1,.62,1.78,1.78,0,0,1-2.26-1,1.86,1.86,0,0,1,1.27-2.36,5,5,0,0,1,1.66-.28c.3,0,.38-.13.34-.4a1.06,1.06,0,0,0-1-1,2.45,2.45,0,0,0-1.36.22c-.17.08-.38.22-.47-.11s-.17-.43.15-.57a3.66,3.66,0,0,1,2.39-.23,1.92,1.92,0,0,1,1.36,2c0,.65,0,1.3,0,1.94,0,.39,0,.77,0,1.15,0,.19.22.51-.17.55s-.77.16-.79-.43C124.58,70.86,124.54,70.84,124.5,70.79Zm0-1.66c-.12-.19.24-.64-.28-.66a2.93,2.93,0,0,0-1.58.35,1.08,1.08,0,0,0-.46,1.33,1,1,0,0,0,1.2.55A1.42,1.42,0,0,0,124.52,69.13Z"/><path class="cls-1" d="M109.46,66.49a2.7,2.7,0,0,1,1.54-.88,1.92,1.92,0,0,1,2.26,1.72,29.15,29.15,0,0,1,.06,3.74c0,.45-.4.2-.62.25s-.43,0-.43-.31c0-.78,0-1.56,0-2.34,0-.33,0-.66,0-1A1.24,1.24,0,0,0,111,66.43a1.42,1.42,0,0,0-1.41,1.29c-.06.84,0,1.69,0,2.54v.44a.6.6,0,0,1-.9.61c-.15-.06-.14-.17-.14-.28,0-1.69,0-3.39,0-5.08,0-.25.1-.35.32-.3s.54-.19.6.23C109.42,66.06,109.43,66.24,109.46,66.49Z"/><path class="cls-1" d="M90.46,67.4c0-1.15,0-2.29,0-3.44,0-.35.07-.49.46-.48q1.7,0,3.39,0c.35,0,.41.14.41.44s-.08.44-.42.43c-.76,0-1.53,0-2.29,0-.37,0-.54.08-.52.49s0,1.1,0,1.65c0,.34.1.47.46.46.61,0,1.22,0,1.84,0,.28,0,.68-.2.68.4s-.41.42-.71.44c-.61,0-1.23,0-1.84,0-.32,0-.43.1-.43.43,0,.91,0,1.82,0,2.73,0,.43-.21.41-.49.39s-.57.09-.56-.38C90.48,69.76,90.46,68.58,90.46,67.4Z"/><path class="cls-1" d="M141,66.45a2.45,2.45,0,0,1,1.68-.85,1.88,1.88,0,0,1,2,1.68,31.76,31.76,0,0,1,.06,3.78c0,.45-.39.21-.61.25s-.43.06-.42-.29c0-.87,0-1.73,0-2.59a5.37,5.37,0,0,0,0-.8,1.21,1.21,0,0,0-1.17-1.19,1.45,1.45,0,0,0-1.43,1.07A6.53,6.53,0,0,0,141,69.1c0,.61,0,1.23,0,1.84,0,.37-.17.42-.45.38s-.59.16-.58-.35c0-1.67,0-3.35,0-5,0-.26.12-.33.33-.29s.53-.17.59.24C140.92,66.07,140.85,66.26,141,66.45Z"/><path class="cls-1" d="M127.27,68.32c0-.48,0-1,0-1.44s-.11-.5-.46-.44-.4-.11-.41-.42.11-.43.41-.38.48-.11.46-.47c0-.51.31-.81.85-.82.1,0,.16,0,.17.13a2.09,2.09,0,0,1,0,.25c0,.91,0,.92,1,.91.33,0,.53,0,.5.45s-.1.35-.38.36c-1.08,0-1.08,0-1.08,1.13,0,.73,0,1.46,0,2.19s.25.85.9.84c.23,0,.46-.09.47.3s0,.47-.38.54c-1.18.22-1.89-.25-2-1.43,0-.56,0-1.13,0-1.7Z"/><path class="cls-1" d="M131.73,71.2l-.6.1V66c.05-.28.27-.21.43-.18s.17.25.17.4C131.74,67.9,131.73,69.55,131.73,71.2Z"/><path class="cls-1" d="M131.47,63.34a.66.66,0,1,1-.71.61A.68.68,0,0,1,131.47,63.34Z"/><path class="cls-1" d="M131.73,71.2c0-1.65,0-3.3,0-5,0-.15.07-.36-.17-.4s-.38-.1-.43.18H131c-.12-.45.2-.4.46-.38s.55-.14.54.33c0,1.65,0,3.3,0,5C132,71.07,132,71.26,131.73,71.2Z"/><path class="cls-1" d="M131,66h.18V71.3c-.26,0-.2-.15-.2-.28C130.93,69.36,130.94,67.69,131,66Z"/><path class="cls-1" d="M107.67,42.3H79.85a1,1,0,0,1-.3,0c-1-.34-1.57.24-2.21.88Q65.28,55.29,53.18,67.36c-1.19,1.19-2.38,2.37-3.56,3.56-.26.27-.4.32-.7,0q-5.46-5.49-11-11L24.71,46.73l-7.58-7.58c-.28-.27-.29-.42,0-.7L37.61,18c3.09-3.09,6.18-6.17,9.26-9.28.31-.31.45-.26.73,0Q62.29,23.44,77,38.13a1.34,1.34,0,0,0,1.29.45,5,5,0,0,1,1.09-.07h82.91c.91,0,.81-.15.81.82s0,1.7,0,2.54c0,.34-.12.43-.44.43-1,0-2.09,0-3.14,0-.49,0-.56.17-.56.59,0,5,0,9.91,0,14.86,0,.49-.1.65-.62.64q-3.22,0-6.43,0c-.48,0-.58-.15-.58-.59,0-4.89,0-9.77,0-14.66,0-.48-.14-.62-.61-.61q-2.9,0-5.79,0c-.43,0-.56.12-.56.56,0,4.54,0,9.08,0,13.62,0,.45-.12.58-.58.57-2.34,0-4.69,0-7,0-.42,0-.52-.13-.52-.53,0-4.61,0-9.21,0-13.81,0-.49-.1-.65-.62-.64ZM48.94,66.24c.25-.22.36-.31.46-.41L74.3,41c.26-.26.28-.4,0-.66C73,39,71.72,37.76,70.44,36.48c-2.31-2.32-4.6-4.64-6.91-6.95s-4.71-4.68-7.05-7c-2.93-2.91-5.86-5.83-8.76-8.76-.28-.28-.42-.21-.63,0s-.6.63-.9.93L39.73,21.1q-4.48,4.48-9,9l-8.34,8.35c-.55.54-.55.54,0,1.09l14.1,14.1L48.64,65.75A2.14,2.14,0,0,1,48.94,66.24Z"/><path class="cls-1" d="M47.68,22.52c.12.11.22.19.31.29l14,14C63,37.85,64.13,39,65.23,40c.27.27.3.42,0,.7-1.58,1.56-3.14,3.13-4.71,4.7l-3.91,3.89-3.83,3.83c-1.23,1.23-2.45,2.47-3.67,3.7-.2.2-.32.26-.56,0-2.31-2.32-4.63-4.61-7-6.92Q36.43,44.78,31.25,39.6c-.31-.3-.27-.44,0-.72q8.06-8,16.08-16.06C47.44,22.72,47.56,22.63,47.68,22.52ZM63.1,40.26c-.07-.08-.14-.17-.22-.25L61.83,39l-5.62-5.62c-2.69-2.69-5.38-5.37-8.06-8.07-.29-.29-.44-.31-.74,0q-6.79,6.84-13.63,13.64c-.46.46-.45.46,0,.91L48.23,54.25c.48.48.48.48,1,0l6.91-6.9,6.69-6.7A.81.81,0,0,0,63.1,40.26Z"/></svg>