<svg id="Layer_1" data-name="Layer 1" xmlns="http://www.w3.org/2000/svg" viewBox="0 0 180 80"><defs><style>.cls-1{fill:#fff;}</style></defs><title>01</title><path class="cls-1" d="M150.23,44.14c0,.1,0,.19,0,.29h-.54c-3.87,0-7.74,0-11.61,0-.41,0-.86-.49-1.22-.83-2.9-2.68-5.76-5.4-8.66-8.09a2.22,2.22,0,0,1-.87-2c.35-2.72-1.81-4.2-3.12-6.08-.65-.95-1.3.14-1.65.5-1.34,1.33-2.39,1.24-3.52-.21a1.63,1.63,0,0,0-2.11-.64c-1.14.39-1.59-1.45-2.78-1.68-.75,1-.84,2.34-2.32,3-.94.43-.67,2,.13,3a40.77,40.77,0,0,1,3,4c-2.54-1.08-5.36-1.49-7.56-3.33-2.37-2-4.14-4.7-7.15-5.95-.46-.19-.75-.82-1-1.3-1.87-2.9-3.71-5.8-5.57-8.68-.29-.46-.73-1.48-1.27-.33-1.75,3.72-5.2,5.84-7.83,8.73a16.75,16.75,0,0,1-6.42,4.6c-4.86,1.86-9.35,4.52-14.26,6.61,1.32-2,2.6-3.94,4-5.86.8-1.13,1.88.34,2.82-.15.2-.68-.31-1.21-.4-1.81,0-.31-.24-.85-.18-.88,2.12-1,.64-3,1.26-4.55l2.6,2.89c.55-2.62.61-4.76-1-6.72-.36-.42-1.43-1.68,0-2.47a6.91,6.91,0,0,0-.47-1c-.85-1.36-1.66-2.74-1.12-4.62a3.49,3.49,0,0,0-2,1.36,15.37,15.37,0,0,1-5,3.72,3,3,0,0,0-1.32,1.06c-1.8,2.47-3.63,4.92-5.39,7.42a8,8,0,0,0-1.14,3.31,12,12,0,0,0,6.89-4.16c.23-.32.43-1,.9-.58s-.12.75-.44,1c-1.36,2.66-2.36,5.6-4.18,7.88a10.27,10.27,0,0,1-5.35,3.45,5.12,5.12,0,0,0-2,.86c-3.71,2.79-7.45,5.56-11.14,8.38a4,4,0,0,1-2.63.88c-2.65,0-5.27,0-8-.25h0l-.22,0a5.7,5.7,0,0,1-.58-.06l.58-.17.22-.07h0c2.31-.71,4.6-1.45,6.94-2.1A6.65,6.65,0,0,0,40.24,41a48.31,48.31,0,0,0,7.49-9.38,9.57,9.57,0,0,1,3.5-3.42,8.53,8.53,0,0,0,2.61-2.47c2.82-3.44,5.35-7.28,8.72-10.07,2.75-2.3,5.77-4.3,8.37-6.83.7-.68,1-.1,1.26.39.91,1.53,1.8,3.08,2.72,4.6.22.34.41,1.09.89.71,1.49-1.16,1.72.31,2.15,1A21.59,21.59,0,0,0,82.68,21c.92.73,1.64,1.07,2.18-.16C85.67,19,88,19.3,89,17.7a41.63,41.63,0,0,1,3.41-4.12c.58-.68.88,0,1.18.3,1.7,1.81,3.4,3.62,5.05,5.48.59.66,1.07,1.08,1.79.17.23-.29.64-.6,1-.19,1.27,1.63,3.2,2.72,3.82,4.85l.38.37c.86-.11,1.16.53,1.5,1.11s.84.87,1.25,1.32c1.88-.4,3.21-1.76,4.72-2.76.89-.57,1.47-.67,2.26.13.63.65,1.23,1.72,2.49.79.44-.32.89.39,1.19.73,1,1.09,2,1.46,3.24.44s2.25-.85,3.39.31c1.88,1.91,4,3.38,5.45,5.91,1.12,2,3.65,3.25,5.55,4.81a13.64,13.64,0,0,1,3.08,3.47,2,2,0,0,0,.25.39,1.46,1.46,0,0,0,.16.19,1.59,1.59,0,0,0,.13.13,2.37,2.37,0,0,0,.39.3l.16.09a1.94,1.94,0,0,0,.36.15l.29.08,1.66.37c1.1.24,2.19.49,3.29.75l1.64.38,1.67.37h.07Z"/><path class="cls-1" d="M148,43.65c-2.2-.5-4.39-1-6.59-1.49a2.55,2.55,0,0,1-1.75-1.34,13.43,13.43,0,0,0-3.08-3.46,3.73,3.73,0,0,1,2.7,2A5.38,5.38,0,0,0,143.25,42C144.88,42.36,146.74,42.24,148,43.65Z"/><path class="cls-1" d="M148,43.65l-1.64-.38c-1.1-.26-2.19-.51-3.29-.75l-1.66-.37-.29-.08a1.94,1.94,0,0,1-.36-.15l-.16-.09a2.37,2.37,0,0,1-.39-.3,1.59,1.59,0,0,1-.13-.13,1.46,1.46,0,0,1-.16-.19,2,2,0,0,1-.25-.39,13.64,13.64,0,0,0-3.08-3.47c1-.56.7-1.7.77-2.44a9.32,9.32,0,0,1,.69-2.7c0-.45.16-1.06.58-.95s1.15.55.68,1.34c.75,1.06.09,2.68,1.41,3.51l.27-.31s.1-.09.14-.14c1.31-.15,0-1.13.47-1.52.73-.56.31-1.27.25-2,.14-.33-.15-.85.35-1l.09,0c.62-.4-1-.76,0-1.17l.43-.44c.54-.65.13-2.18,1.22-2.08.75.09,1.31,1.14,1.27,2.31a5.46,5.46,0,0,0,1,2.5c.32.56-.17.58-.35.82.22.4.89.22,1,.77-.59,1.43.1,2.59.79,3.75,0,.35.78.23.45.78-.55.49,1.33,1,0,1.51a1,1,0,0,1-.91.34,2.13,2.13,0,0,1,1,.39c.57,1.06-.84.6-.88,1.35C148.15,42.08,148.91,42.5,148,43.65Z"/><path class="cls-1" d="M141.14,35.66c0,.05-.1.09-.14.14S141,35.65,141.14,35.66Z"/><path class="cls-1" d="M119.27,65.29h-7.65s-1.94,0-1.94-2.87V55.37a5.66,5.66,0,0,1,5.48-5.31c2.34,0,4.11,1.21,4.11,3.33ZM116.44,53a1.88,1.88,0,0,0-2-1.42c-1.06,0-1.91.57-1.91,1.42v9.38c0,.88.36,1.1.71,1.1h3.19Z"/><path class="cls-1" d="M128,63.52v1.77h-3.76c-1.91,0-1.91-2.3-1.91-2.3V43.34c0-.85.32-2.16,1.77-2.16s3.19,2.16,3.33,2.69c-1.56-1.38-2.3-.21-2.3.71v17.7a1.07,1.07,0,0,0,1.2,1.24Z"/><path class="cls-1" d="M135.73,65.29h-9.2V63.52h2.65a1.22,1.22,0,0,0,1.27-1.24V52c0-.89.18-1.92,1.6-1.92a4.17,4.17,0,0,1,3.33,2.48c-1.56-1.45-2.13-.35-2.13.5V63.52h2.48Zm-8.89,2.37a1.42,1.42,0,0,1,1.42-1.38,1.4,1.4,0,0,1,0,2.79A1.42,1.42,0,0,1,126.84,67.66Zm3.33,0a1.52,1.52,0,0,1,1.42-1.38,1.4,1.4,0,0,1,0,2.79A1.52,1.52,0,0,1,130.17,67.66Z"/><path class="cls-1" d="M146.35,65.29H134.63V63.52h2v-8a5.87,5.87,0,0,1,5.67-5.49c2.09,0,4.07,1.42,4.07,3.37Zm-2.83-12.18a1.79,1.79,0,0,0-2-1.45c-1.06,0-2.16.53-2.16,1.59v9.17c.25.57.57,1.1.71,1.1h3.4Z"/><path class="cls-1" d="M35.12,72.34c-.85,0-3.92-.86-3.92-2.5,0-.35,1.61-1.74,2.32-2.28a4.57,4.57,0,0,0,3.74,3c1.43,0,2.5-1.46,2.5-3.6V52c0-.85.35-2,1.64-2,1.67,0,3.13,1.82,3.35,2.5-1.61-1.39-2.14-.4-2.14.53V63.43h2.64v1.78H42.61C42.47,69.77,39.33,72.34,35.12,72.34Z"/><path class="cls-1" d="M53.76,52.38c-1.56-1.46-2.13-.36-2.13.5v10s0,2.32-1.93,2.32H44.43V63.43H47.6a1,1,0,0,0,1.17-1.25V51.81c0-.89.36-1.93,1.64-1.93A4.15,4.15,0,0,1,53.76,52.38Zm-6.7-5.17a1.43,1.43,0,0,1,1.43-1.43,1.46,1.46,0,0,1,0,2.89A1.44,1.44,0,0,1,47.06,47.21Zm1.61-2.89a1.53,1.53,0,0,1,1.46-1.42,1.43,1.43,0,0,1,0,2.85A1.53,1.53,0,0,1,48.67,44.32Zm1.74,2.89a1.55,1.55,0,0,1,1.43-1.43,1.46,1.46,0,0,1,0,2.89A1.54,1.54,0,0,1,50.41,47.21Z"/><path class="cls-1" d="M65.77,63.43H68.7v1.78H65.77c-.14,4.56-3.27,7.13-7.48,7.13-.86,0-3.92-.75-3.92-2.57,0-.32,1.64-1.67,2.35-2.21.86,1.79,2.28,3,3.74,3S63,68.92,63,67V65.21H57.79c-1.07,0-1.85-1.43-1.85-2.32V55.41a6,6,0,0,1,5.77-5.53c2.14,0,4.06,1.43,4.06,3.39ZM63,53a1.89,1.89,0,0,0-2-1.46c-1,0-2.11.53-2.11,1.6v9.23c.18.57.54,1.11.68,1.11H63Z"/><path class="cls-1" d="M91.68,62.89a2.33,2.33,0,0,1-.07.54h2.71v1.78H67.41V63.43H87.73a1.14,1.14,0,0,0,1.07-1.25V53.27c0-.57-.72-1.25-2-1.39H69.91c-2,0,0-1.82,0-1.82L75.25,44C78.6,40.79,82,40.22,85,43.29c.71.5,2.17,3.39,1.1,4.42-.39.39-2.53.39-3.2.25.67-2,.53-4-.54-4.85-1.07-1.1-2.85-.85-4.28.68l-5.7,6.27H87.51c2.18,0,4.17,1.43,4.17,3.35Z"/><path class="cls-1" d="M102.05,43.65c-1.67-1.39-2.39-.22-2.39.71V62.89s.25,2.32-1.74,2.32H93.18V63.43h2.6a1,1,0,0,0,1.07-1.25V43.11c0-.85.32-2.17,1.78-2.17S101.84,43.11,102.05,43.65Z"/><path class="cls-1" d="M108.07,43.43c-1.56-1.17-2.13-.14-2.13.75v18a2.67,2.67,0,0,1-1.07,2.32c-1.25.89-3.92.71-3.92.71,1.78-.85,2.13-1.78,2.13-2.89V43.11c0-.85.22-2.17,1.64-2.17C106.33,40.94,107.93,42.93,108.07,43.43Z"/></svg>