<svg id="Layer_1" data-name="Layer 1" xmlns="http://www.w3.org/2000/svg" viewBox="0 0 180 80"><defs><style>.cls-1{fill:#fff;}.cls-2{fill:none;stroke:#fff;stroke-miterlimit:10;stroke-width:0.45px;}</style></defs><title>01</title><path class="cls-1" d="M27.51,49.12l.18-1.84a4.11,4.11,0,0,0,1.35.21c1.11,0,1.77-.55,1.77-2.44V36.66H33v8.27c0,2.23-.71,4.36-4.1,4.36A5.88,5.88,0,0,1,27.51,49.12Z"/><path class="cls-1" d="M35.18,32.57h2.19V43.05H39v1.81H35.18Z"/><path class="cls-1" d="M38.78,43.05h2v1.81h-2Z"/><path class="cls-1" d="M40.57,43.05H42.9V36.66h2.19v6.39h1.62v1.81H40.57Zm1,4.43a1.15,1.15,0,1,1,1.14,1.2A1.16,1.16,0,0,1,41.62,47.48Z"/><path class="cls-1" d="M46.46,43.05h6.43A11.59,11.59,0,0,0,53,41.72c0-2.21-.86-3.35-3.25-3.35a14.41,14.41,0,0,0-1.91.14V36.72a16,16,0,0,1,2.12-.16c3.74,0,5.22,1.73,5.22,5.07a22.12,22.12,0,0,1-.28,3.23H46.46Zm2.79-9a1.15,1.15,0,1,1,1.15,1.2A1.17,1.17,0,0,1,49.25,34Z"/><path class="cls-1" d="M55.26,30.58a4.36,4.36,0,0,1,1,.07.86.86,0,0,1-.3-.68c0-1,.6-1.85,2.34-1.85a5.24,5.24,0,0,1,1,.08l-.2,1.21a3.88,3.88,0,0,0-.81-.09c-.53,0-.81.25-.81.59s.29.67,1.16.67h.94v1.2H55.26Zm5.45,11.16H58.48l-2.37-8.69,2.17-.31Zm-3.92,3.12V43.05h5.13V32.86h2.19v12Z"/><path class="cls-1" d="M66.45,32.57h2.19V44.86H66.45Z"/><path class="cls-1" d="M75.46,44.86c-3.24,0-4.45-1.57-4.45-4a4.1,4.1,0,0,1,4.4-4.38,10.22,10.22,0,0,1,3.47.61v6h1.63v1.81ZM72.72,34.15a1.11,1.11,0,1,1,1.1,1.19A1.14,1.14,0,0,1,72.72,34.15Zm4,4.42a3.78,3.78,0,0,0-1.58-.32c-1.25,0-2,1-2,2.36a2.17,2.17,0,0,0,2.49,2.44h1.07Zm-1.28-4.42a1.1,1.1,0,1,1,1.09,1.19A1.14,1.14,0,0,1,75.48,34.15Z"/><path class="cls-1" d="M80.26,43.05h2v1.81h-2Z"/><path class="cls-1" d="M82.05,43.05h2.32V36.66h2.2v8.2H82.05Zm1,4.43a1.15,1.15,0,1,1,1.14,1.2A1.16,1.16,0,0,1,83.1,47.48Z"/><path class="cls-1" d="M88.74,32.57h2.19V44.86H88.74Z"/><path class="cls-1" d="M92.66,49l.13-1.88a13.52,13.52,0,0,0,2.59.29c1.73,0,2.87-.68,2.87-2.32v-.26H97c-3.24,0-4.45-1.57-4.45-4a4.1,4.1,0,0,1,4.4-4.38,10.22,10.22,0,0,1,3.47.61v6H102v1.81h-1.64v0c0,2.4-1.48,4.36-5.2,4.36A16.43,16.43,0,0,1,92.66,49Zm5.59-10.46a3.78,3.78,0,0,0-1.58-.32c-1.24,0-2,1-2,2.36a2.17,2.17,0,0,0,2.49,2.44h1.06Z"/><path class="cls-1" d="M101.75,43.05h2.33V36.66h2.19v8.2h-4.52Zm1,4.43a1.15,1.15,0,1,1,1.14,1.2A1.16,1.16,0,0,1,102.8,47.48Z"/><path class="cls-2" d="M115.08,24.43H10.93l4.93,19.68c.6,2.41,2.69,10.43,10.21,10.43h92.41Z"/><path class="cls-1" d="M123.34,33.33a1.18,1.18,0,0,1-.62,1.06,3,3,0,0,1-1.59.38,3.65,3.65,0,0,1-.59,0l.49-2.68c.22,0,.42,0,.61,0C122.77,32,123.34,32.45,123.34,33.33Z"/><path class="cls-1" d="M121.87,31.28a6.06,6.06,0,0,1-.68,0l.32-1.93c.33,0,.57-.05.73-.05.84,0,1.26.27,1.26.79C123.5,30.88,123,31.28,121.87,31.28Z"/><path class="cls-1" d="M128.1,30.38l-1.63,3h2.06Zm0,0-1.63,3h2.06Zm0,0-1.63,3h2.06Zm14.3,0-1.63,3h2.06ZM147.09,32c-.19,0-.4,0-.61,0L146,34.73a3.65,3.65,0,0,0,.59,0,3,3,0,0,0,1.59-.38,1.18,1.18,0,0,0,.62-1.06C148.79,32.45,148.22,32,147.09,32Zm.6-2.74c-.16,0-.4,0-.73.05l-.32,1.93a6.06,6.06,0,0,0,.68,0c1.08,0,1.63-.4,1.63-1.22C149,29.54,148.53,29.27,147.69,29.27ZM128.1,30.38l-1.63,3h2.06Zm14.3,0-1.63,3h2.06Zm5.29-1.11c-.16,0-.4,0-.73.05l-.32,1.93a6.06,6.06,0,0,0,.68,0c1.08,0,1.63-.4,1.63-1.22C149,29.54,148.53,29.27,147.69,29.27Zm-.6,2.74c-.19,0-.4,0-.61,0L146,34.73a3.65,3.65,0,0,0,.59,0,3,3,0,0,0,1.59-.38,1.18,1.18,0,0,0,.62-1.06C148.79,32.45,148.22,32,147.09,32Zm-19-1.63-1.63,3h2.06Zm14.3,0-1.63,3h2.06ZM147.09,32c-.19,0-.4,0-.61,0L146,34.73a3.65,3.65,0,0,0,.59,0,3,3,0,0,0,1.59-.38,1.18,1.18,0,0,0,.62-1.06C148.79,32.45,148.22,32,147.09,32Zm.6-2.74c-.16,0-.4,0-.73.05l-.32,1.93a6.06,6.06,0,0,0,.68,0c1.08,0,1.63-.4,1.63-1.22C149,29.54,148.53,29.27,147.69,29.27Zm5.86,1.11-1.63,3H154Zm5.8,0-1.63,3h2.06Zm-31.25,0-1.63,3h2.06Zm14.3,0-1.63,3h2.06Zm5.29-1.11c-.16,0-.4,0-.73.05l-.32,1.93a6.06,6.06,0,0,0,.68,0c1.08,0,1.63-.4,1.63-1.22C149,29.54,148.53,29.27,147.69,29.27Zm-.6,2.74c-.19,0-.4,0-.61,0L146,34.73a3.65,3.65,0,0,0,.59,0,3,3,0,0,0,1.59-.38,1.18,1.18,0,0,0,.62-1.06C148.79,32.45,148.22,32,147.09,32Zm12.26-1.63-1.63,3h2.06Zm-5.8,0-1.63,3H154Zm-25.45,0-1.63,3h2.06Zm14.3,0-1.63,3h2.06ZM147.09,32c-.19,0-.4,0-.61,0L146,34.73a3.65,3.65,0,0,0,.59,0,3,3,0,0,0,1.59-.38,1.18,1.18,0,0,0,.62-1.06C148.79,32.45,148.22,32,147.09,32Zm.6-2.74c-.16,0-.4,0-.73.05l-.32,1.93a6.06,6.06,0,0,0,.68,0c1.08,0,1.63-.4,1.63-1.22C149,29.54,148.53,29.27,147.69,29.27Zm5.86,1.11-1.63,3H154Zm5.8,0-1.63,3h2.06Zm-31.25,0-1.63,3h2.06Zm14.3,0-1.63,3h2.06Zm5.29-1.11c-.16,0-.4,0-.73.05l-.32,1.93a6.06,6.06,0,0,0,.68,0c1.08,0,1.63-.4,1.63-1.22C149,29.54,148.53,29.27,147.69,29.27Zm-.6,2.74c-.19,0-.4,0-.61,0L146,34.73a3.65,3.65,0,0,0,.59,0,3,3,0,0,0,1.59-.38,1.18,1.18,0,0,0,.62-1.06C148.79,32.45,148.22,32,147.09,32Zm12.26-1.63-1.63,3h2.06Zm-5.8,0-1.63,3H154Zm-25.45,0-1.63,3h2.06Zm14.3,0-1.63,3h2.06ZM147.09,32c-.19,0-.4,0-.61,0L146,34.73a3.65,3.65,0,0,0,.59,0,3,3,0,0,0,1.59-.38,1.18,1.18,0,0,0,.62-1.06C148.79,32.45,148.22,32,147.09,32Zm.6-2.74c-.16,0-.4,0-.73.05l-.32,1.93a6.06,6.06,0,0,0,.68,0c1.08,0,1.63-.4,1.63-1.22C149,29.54,148.53,29.27,147.69,29.27Zm5.86,1.11-1.63,3H154Zm5.8,0-1.63,3h2.06Zm-31.25,0-1.63,3h2.06Zm14.3,0-1.63,3h2.06Zm5.29-1.11c-.16,0-.4,0-.73.05l-.32,1.93a6.06,6.06,0,0,0,.68,0c1.08,0,1.63-.4,1.63-1.22C149,29.54,148.53,29.27,147.69,29.27Zm-.6,2.74c-.19,0-.4,0-.61,0L146,34.73a3.65,3.65,0,0,0,.59,0,3,3,0,0,0,1.59-.38,1.18,1.18,0,0,0,.62-1.06C148.79,32.45,148.22,32,147.09,32Zm12.26-1.63-1.63,3h2.06Zm-5.8,0-1.63,3H154Zm-25.45,0-1.63,3h2.06Zm14.3,0-1.63,3h2.06ZM147.09,32c-.19,0-.4,0-.61,0L146,34.73a3.65,3.65,0,0,0,.59,0,3,3,0,0,0,1.59-.38,1.18,1.18,0,0,0,.62-1.06C148.79,32.45,148.22,32,147.09,32Zm.6-2.74c-.16,0-.4,0-.73.05l-.32,1.93a6.06,6.06,0,0,0,.68,0c1.08,0,1.63-.4,1.63-1.22C149,29.54,148.53,29.27,147.69,29.27Zm5.86,1.11-1.63,3H154Zm5.8,0-1.63,3h2.06Zm-31.25,0-1.63,3h2.06Zm14.3,0-1.63,3h2.06Zm5.29-1.11c-.16,0-.4,0-.73.05l-.32,1.93a6.06,6.06,0,0,0,.68,0c1.08,0,1.63-.4,1.63-1.22C149,29.54,148.53,29.27,147.69,29.27Zm-.6,2.74c-.19,0-.4,0-.61,0L146,34.73a3.65,3.65,0,0,0,.59,0,3,3,0,0,0,1.59-.38,1.18,1.18,0,0,0,.62-1.06C148.79,32.45,148.22,32,147.09,32Zm12.26-1.63-1.63,3h2.06Zm-5.8,0-1.63,3H154Zm-25.45,0-1.63,3h2.06Zm14.3,0-1.63,3h2.06ZM147.09,32c-.19,0-.4,0-.61,0L146,34.73a3.65,3.65,0,0,0,.59,0,3,3,0,0,0,1.59-.38,1.18,1.18,0,0,0,.62-1.06C148.79,32.45,148.22,32,147.09,32Zm.6-2.74c-.16,0-.4,0-.73.05l-.32,1.93a6.06,6.06,0,0,0,.68,0c1.08,0,1.63-.4,1.63-1.22C149,29.54,148.53,29.27,147.69,29.27Zm5.86,1.11-1.63,3H154Zm5.8,0-1.63,3h2.06Zm-31.25,0-1.63,3h2.06Zm14.3,0-1.63,3h2.06Zm5.29-1.11c-.16,0-.4,0-.73.05l-.32,1.93a6.06,6.06,0,0,0,.68,0c1.08,0,1.63-.4,1.63-1.22C149,29.54,148.53,29.27,147.69,29.27Zm-.6,2.74c-.19,0-.4,0-.61,0L146,34.73a3.65,3.65,0,0,0,.59,0,3,3,0,0,0,1.59-.38,1.18,1.18,0,0,0,.62-1.06C148.79,32.45,148.22,32,147.09,32Zm12.26-1.63-1.63,3h2.06Zm-5.8,0-1.63,3H154Zm-25.45,0-1.63,3h2.06Zm14.3,0-1.63,3h2.06ZM147.09,32c-.19,0-.4,0-.61,0L146,34.73a3.65,3.65,0,0,0,.59,0,3,3,0,0,0,1.59-.38,1.18,1.18,0,0,0,.62-1.06C148.79,32.45,148.22,32,147.09,32Zm.6-2.74c-.16,0-.4,0-.73.05l-.32,1.93a6.06,6.06,0,0,0,.68,0c1.08,0,1.63-.4,1.63-1.22C149,29.54,148.53,29.27,147.69,29.27Zm5.86,1.11-1.63,3H154Zm5.8,0-1.63,3h2.06Zm-31.25,0-1.63,3h2.06Zm14.3,0-1.63,3h2.06Zm6.55-.32c0-.52-.42-.79-1.26-.79-.16,0-.4,0-.73.05l-.32,1.93a6.06,6.06,0,0,0,.68,0C148.4,31.28,149,30.88,149,30.06ZM147.09,32c-.19,0-.4,0-.61,0L146,34.73a3.65,3.65,0,0,0,.59,0,3,3,0,0,0,1.59-.38,1.18,1.18,0,0,0,.62-1.06C148.79,32.45,148.22,32,147.09,32Zm12.26-1.63-1.63,3h2.06Zm-7.43,3H154l-.43-3Zm13.51-8.17c-.58-3.71-4.11-6.48-8.29-6.48H112.85l3.64,36.1c.58,3.71,4.11,6.48,8.28,6.48h44.3ZM154,28.46l1.41,7,4.14-7h.25l1.41,7.08h-1.12l-.23-1.47h-2.54l-.84,1.47h-1.07v0l0,0h-1.1l-.23-1.47h-2.54l-.84,1.47h-1.09l4.16-7.08Zm-7.92.1a9.27,9.27,0,0,1,1.33-.11c1.67,0,2.5.55,2.5,1.65a1.52,1.52,0,0,1-.39,1,1.38,1.38,0,0,1-.93.52,1.41,1.41,0,0,1,1.18,1.6A2,2,0,0,1,149,35a4.69,4.69,0,0,1-2.68.59c-.34,0-.82,0-1.43-.05Zm-3.23-.1,1.41,7.08h-1.12l-.23-1.47h-2.54l-.84,1.47h-1.09l4.16-7.08Zm-10.84.1.58,4.71L135,28.56h.34l.71,4.69,2.23-4.69h1l-3.48,7.07h-.3l-.82-4.71-2.45,4.71H132l-1-7.07Zm-3.45-.1,1.4,7.08h-1.12l-.22-1.47h-2.55l-.84,1.47h-1.08l4.15-7.08Zm-9.18,7.08,1.25-7a9.27,9.27,0,0,1,1.33-.11c1.67,0,2.51.55,2.51,1.65a1.53,1.53,0,0,1-.4,1,1.38,1.38,0,0,1-.93.52,1.41,1.41,0,0,1,1.18,1.6A2,2,0,0,1,123.5,35a4.69,4.69,0,0,1-2.68.59C120.48,35.59,120,35.57,119.4,35.54Zm10.5,15.83h-.52l-4.86-8.7-1.47,8.54h-1.7L123.56,39h.68L129,47.3,130.44,39h1.68Zm11.84-10.92H136l-.61,3.41h4.12l-.25,1.42h-4.13l-.79,4.42H140l-.27,1.51h-7.43L134.49,39H142Zm9,10.92-1.44-8.27L145,51.37h-.53L142.72,39h1.76l1,8.28L149.73,39h.59l1.25,8.24L155.49,39h1.85l-6.11,12.42Zm12.88-10.68a2.42,2.42,0,0,0-.8-.36,3.76,3.76,0,0,0-1.05-.17,2.73,2.73,0,0,0-1.72.49,1.65,1.65,0,0,0-.63,1.39,1.56,1.56,0,0,0,.2.75,2.75,2.75,0,0,0,.54.65c.23.19.7.55,1.4,1.06a5.81,5.81,0,0,1,1.56,1.59,3.52,3.52,0,0,1,.5,1.88,3,3,0,0,1-1.14,2.55,4.68,4.68,0,0,1-3,.9,7.32,7.32,0,0,1-1.5-.19,5.77,5.77,0,0,1-1.31-.42l.52-1.6a3,3,0,0,0,1.09.48,5,5,0,0,0,1.4.2,2.56,2.56,0,0,0,1.62-.48,1.62,1.62,0,0,0,.62-1.34,1.91,1.91,0,0,0-.47-1.26,9.06,9.06,0,0,0-1.58-1.33A7.65,7.65,0,0,1,158.2,44a2.81,2.81,0,0,1-.51-1.72,3.29,3.29,0,0,1,1.07-2.6,4,4,0,0,1,2.76-.94,6.61,6.61,0,0,1,2.54.32Zm-4.23-10.31-1.63,3h2.06Zm-5.8,0-1.63,3H154Zm-4.6-.32c0-.52-.42-.79-1.26-.79-.16,0-.4,0-.73.05l-.32,1.93a6.06,6.06,0,0,0,.68,0C148.4,31.28,149,30.88,149,30.06Zm-.78,4.33a1.18,1.18,0,0,0,.62-1.06c0-.88-.57-1.32-1.7-1.32-.19,0-.4,0-.61,0L146,34.73a3.65,3.65,0,0,0,.59,0A3,3,0,0,0,148.17,34.39Zm-5.77-4-1.63,3h2.06Zm-14.3,0-1.63,3h2.06Zm25.45,0-1.63,3H154Zm5.8,0-1.63,3h2.06ZM147.09,32c-.19,0-.4,0-.61,0L146,34.73a3.65,3.65,0,0,0,.59,0,3,3,0,0,0,1.59-.38,1.18,1.18,0,0,0,.62-1.06C148.79,32.45,148.22,32,147.09,32Zm.6-2.74c-.16,0-.4,0-.73.05l-.32,1.93a6.06,6.06,0,0,0,.68,0c1.08,0,1.63-.4,1.63-1.22C149,29.54,148.53,29.27,147.69,29.27Zm-5.29,1.11-1.63,3h2.06Zm-14.3,0-1.63,3h2.06Zm31.25,0-1.63,3h2.06Zm-5.8,0-1.63,3H154Zm-5.86-1.11c-.16,0-.4,0-.73.05l-.32,1.93a6.06,6.06,0,0,0,.68,0c1.08,0,1.63-.4,1.63-1.22C149,29.54,148.53,29.27,147.69,29.27Zm-.6,2.74c-.19,0-.4,0-.61,0L146,34.73a3.65,3.65,0,0,0,.59,0,3,3,0,0,0,1.59-.38,1.18,1.18,0,0,0,.62-1.06C148.79,32.45,148.22,32,147.09,32Zm-4.69-1.63-1.63,3h2.06Zm-14.3,0-1.63,3h2.06Zm25.45,0-1.63,3H154Zm5.8,0-1.63,3h2.06ZM147.09,32c-.19,0-.4,0-.61,0L146,34.73a3.65,3.65,0,0,0,.59,0,3,3,0,0,0,1.59-.38,1.18,1.18,0,0,0,.62-1.06C148.79,32.45,148.22,32,147.09,32Zm.6-2.74c-.16,0-.4,0-.73.05l-.32,1.93a6.06,6.06,0,0,0,.68,0c1.08,0,1.63-.4,1.63-1.22C149,29.54,148.53,29.27,147.69,29.27Zm-5.29,1.11-1.63,3h2.06Zm-14.3,0-1.63,3h2.06Zm31.25,0-1.63,3h2.06Zm-5.8,0-1.63,3H154Zm-5.86-1.11c-.16,0-.4,0-.73.05l-.32,1.93a6.06,6.06,0,0,0,.68,0c1.08,0,1.63-.4,1.63-1.22C149,29.54,148.53,29.27,147.69,29.27Zm-.6,2.74c-.19,0-.4,0-.61,0L146,34.73a3.65,3.65,0,0,0,.59,0,3,3,0,0,0,1.59-.38,1.18,1.18,0,0,0,.62-1.06C148.79,32.45,148.22,32,147.09,32Zm-4.69-1.63-1.63,3h2.06Zm-14.3,0-1.63,3h2.06Zm25.45,0-1.63,3H154Zm5.8,0-1.63,3h2.06ZM147.09,32c-.19,0-.4,0-.61,0L146,34.73a3.65,3.65,0,0,0,.59,0,3,3,0,0,0,1.59-.38,1.18,1.18,0,0,0,.62-1.06C148.79,32.45,148.22,32,147.09,32Zm.6-2.74c-.16,0-.4,0-.73.05l-.32,1.93a6.06,6.06,0,0,0,.68,0c1.08,0,1.63-.4,1.63-1.22C149,29.54,148.53,29.27,147.69,29.27Zm-5.29,1.11-1.63,3h2.06Zm-14.3,0-1.63,3h2.06Zm31.25,0-1.63,3h2.06Zm-5.8,0-1.63,3H154Zm-5.86-1.11c-.16,0-.4,0-.73.05l-.32,1.93a6.06,6.06,0,0,0,.68,0c1.08,0,1.63-.4,1.63-1.22C149,29.54,148.53,29.27,147.69,29.27Zm-.6,2.74c-.19,0-.4,0-.61,0L146,34.73a3.65,3.65,0,0,0,.59,0,3,3,0,0,0,1.59-.38,1.18,1.18,0,0,0,.62-1.06C148.79,32.45,148.22,32,147.09,32Zm-4.69-1.63-1.63,3h2.06Zm-14.3,0-1.63,3h2.06Zm25.45,0-1.63,3H154Zm5.8,0-1.63,3h2.06ZM147.09,32c-.19,0-.4,0-.61,0L146,34.73a3.65,3.65,0,0,0,.59,0,3,3,0,0,0,1.59-.38,1.18,1.18,0,0,0,.62-1.06C148.79,32.45,148.22,32,147.09,32Zm.6-2.74c-.16,0-.4,0-.73.05l-.32,1.93a6.06,6.06,0,0,0,.68,0c1.08,0,1.63-.4,1.63-1.22C149,29.54,148.53,29.27,147.69,29.27Zm-5.29,1.11-1.63,3h2.06Zm-14.3,0-1.63,3h2.06Zm31.25,0-1.63,3h2.06Zm-5.8,0-1.63,3H154Zm-5.86-1.11c-.16,0-.4,0-.73.05l-.32,1.93a6.06,6.06,0,0,0,.68,0c1.08,0,1.63-.4,1.63-1.22C149,29.54,148.53,29.27,147.69,29.27Zm-.6,2.74c-.19,0-.4,0-.61,0L146,34.73a3.65,3.65,0,0,0,.59,0,3,3,0,0,0,1.59-.38,1.18,1.18,0,0,0,.62-1.06C148.79,32.45,148.22,32,147.09,32Zm-4.69-1.63-1.63,3h2.06Zm-14.3,0-1.63,3h2.06Zm25.45,0-1.63,3H154Zm5.8,0-1.63,3h2.06ZM147.09,32c-.19,0-.4,0-.61,0L146,34.73a3.65,3.65,0,0,0,.59,0,3,3,0,0,0,1.59-.38,1.18,1.18,0,0,0,.62-1.06C148.79,32.45,148.22,32,147.09,32Zm.6-2.74c-.16,0-.4,0-.73.05l-.32,1.93a6.06,6.06,0,0,0,.68,0c1.08,0,1.63-.4,1.63-1.22C149,29.54,148.53,29.27,147.69,29.27Zm-5.29,1.11-1.63,3h2.06Zm-14.3,0-1.63,3h2.06Zm31.25,0-1.63,3h2.06Zm-5.8,0-1.63,3H154Zm-5.86-1.11c-.16,0-.4,0-.73.05l-.32,1.93a6.06,6.06,0,0,0,.68,0c1.08,0,1.63-.4,1.63-1.22C149,29.54,148.53,29.27,147.69,29.27Zm-.6,2.74c-.19,0-.4,0-.61,0L146,34.73a3.65,3.65,0,0,0,.59,0,3,3,0,0,0,1.59-.38,1.18,1.18,0,0,0,.62-1.06C148.79,32.45,148.22,32,147.09,32Zm-4.69-1.63-1.63,3h2.06Zm-14.3,0-1.63,3h2.06Zm25.45,0-1.63,3H154ZM147.09,32c-.19,0-.4,0-.61,0L146,34.73a3.65,3.65,0,0,0,.59,0,3,3,0,0,0,1.59-.38,1.18,1.18,0,0,0,.62-1.06C148.79,32.45,148.22,32,147.09,32Zm.6-2.74c-.16,0-.4,0-.73.05l-.32,1.93a6.06,6.06,0,0,0,.68,0c1.08,0,1.63-.4,1.63-1.22C149,29.54,148.53,29.27,147.69,29.27Zm-5.29,1.11-1.63,3h2.06Zm-14.3,0-1.63,3h2.06Zm25.45,0-1.63,3H154Zm-5.86-1.11c-.16,0-.4,0-.73.05l-.32,1.93a6.06,6.06,0,0,0,.68,0c1.08,0,1.63-.4,1.63-1.22C149,29.54,148.53,29.27,147.69,29.27Zm-.6,2.74c-.19,0-.4,0-.61,0L146,34.73a3.65,3.65,0,0,0,.59,0,3,3,0,0,0,1.59-.38,1.18,1.18,0,0,0,.62-1.06C148.79,32.45,148.22,32,147.09,32Zm-4.69-1.63-1.63,3h2.06Zm-14.3,0-1.63,3h2.06Zm14.3,0-1.63,3h2.06Zm-14.3,0-1.63,3h2.06Zm14.3,0-1.63,3h2.06Zm-14.3,0-1.63,3h2.06Zm0,0-1.63,3h2.06Zm0,0-1.63,3h2.06Z"/><path class="cls-1" d="M155.43,35.51l0,0h0Z"/><path class="cls-1" d="M155.43,35.51l0,0h0Z"/></svg>