<svg id="Layer_1" data-name="Layer 1" xmlns="http://www.w3.org/2000/svg" viewBox="0 0 180 80"><defs><style>.cls-1,.cls-3,.cls-4,.cls-6,.cls-7{fill:none;stroke:#a9a9a9;}.cls-1{stroke-miterlimit:10;stroke-width:0.33px;}.cls-2{fill:#fff;}.cls-3{stroke-width:0.21px;}.cls-4,.cls-6{stroke-width:0.25px;}.cls-5{fill:#a9a9a9;}.cls-6,.cls-7{stroke-linecap:round;}.cls-7{stroke-width:0.31px;}</style></defs><title>01</title><path class="cls-1" d="M111.21,36.5a22.34,22.34,0,1,0,22.34-22.34A22.34,22.34,0,0,0,111.21,36.5"/><path class="cls-2" d="M137.52,66.67s-17.92-3.12-25-14.47c.74-.24,2.1,1.15,2.1,1.15s7.53,10.15,24.11,12.7c.82.13-1.23.62-1.23.62"/><path class="cls-3" d="M137.52,66.67s-17.92-3.12-25-14.47c.74-.24,2.1,1.15,2.1,1.15s7.53,10.15,24.11,12.7C139.57,66.18,137.52,66.67,137.52,66.67Z"/><path class="cls-2" d="M138.46,66.2s-17.92-3.12-25-14.46c.74-.25,2.11,1.14,2.11,1.14s7.53,10.15,24.1,12.7c.82.13-1.22.62-1.22.62"/><path class="cls-3" d="M138.46,66.2s-17.92-3.12-25-14.46c.74-.25,2.11,1.14,2.11,1.14s7.53,10.15,24.1,12.7C140.5,65.71,138.46,66.2,138.46,66.2Z"/><path class="cls-2" d="M139.45,65.73s-17.91-3.12-25-14.46c.74-.25,2.1,1.14,2.1,1.14s7.54,10.15,24.11,12.7c.82.13-1.23.62-1.23.62"/><path class="cls-3" d="M139.45,65.73s-17.92-3.12-25-14.46c.74-.25,2.1,1.14,2.1,1.14s7.54,10.15,24.11,12.7C141.5,65.24,139.45,65.73,139.45,65.73Z"/><path class="cls-2" d="M140.82,65.12s-18-2.7-25.31-13.88c.73-.26,2.13,1.09,2.13,1.09S125.29,62.8,142,64.48c.83.08-1.21.64-1.21.64"/><path class="cls-3" d="M140.82,65.12s-18-2.7-25.31-13.88c.73-.26,2.13,1.09,2.13,1.09S125.29,62.8,142,64.48C142.86,64.56,140.82,65.12,140.82,65.12Z"/><path class="cls-2" d="M141.32,64.64s-18.21-2.79-25.63-14.29c.74-.27,2.16,1.12,2.16,1.12s7.75,10.77,24.7,12.5c.84.09-1.23.67-1.23.67"/><path class="cls-3" d="M141.32,64.64s-18.21-2.79-25.63-14.29c.74-.27,2.16,1.12,2.16,1.12s7.75,10.77,24.7,12.5C143.39,64.06,141.32,64.64,141.32,64.64Z"/><path class="cls-2" d="M142.35,64.18s-18.21-2.73-25.63-14c.74-.27,2.15,1.1,2.15,1.1s7.75,10.56,24.7,12.25c.84.08-1.22.65-1.22.65"/><path class="cls-3" d="M142.35,64.18s-18.21-2.73-25.63-14c.74-.27,2.15,1.1,2.15,1.1s7.75,10.56,24.7,12.25C144.41,63.61,142.35,64.18,142.35,64.18Z"/><path class="cls-2" d="M130.17,66.67s17.91-3.12,25-14.47c-.74-.24-2.1,1.15-2.1,1.15s-7.54,10.15-24.11,12.7c-.82.13,1.23.62,1.23.62"/><path class="cls-3" d="M130.17,66.67s17.91-3.12,25-14.47c-.74-.24-2.1,1.15-2.1,1.15s-7.54,10.15-24.11,12.7C128.12,66.18,130.17,66.67,130.17,66.67Z"/><path class="cls-2" d="M129.23,66.2s17.92-3.12,25-14.46c-.74-.25-2.11,1.14-2.11,1.14S144.58,63,128,65.58c-.83.13,1.22.62,1.22.62"/><path class="cls-3" d="M129.23,66.2s17.92-3.12,25-14.46c-.74-.25-2.11,1.14-2.11,1.14S144.58,63,128,65.58C127.18,65.71,129.23,66.2,129.23,66.2Z"/><path class="cls-2" d="M128.24,65.73s17.91-3.12,25-14.46c-.74-.25-2.1,1.14-2.1,1.14S143.58,62.56,127,65.11c-.82.13,1.23.62,1.23.62"/><path class="cls-3" d="M128.24,65.73s17.91-3.12,25-14.46c-.74-.25-2.1,1.14-2.1,1.14S143.58,62.56,127,65.11C126.19,65.24,128.24,65.73,128.24,65.73Z"/><path class="cls-2" d="M126.87,65.12s18-2.7,25.31-13.88c-.73-.26-2.13,1.09-2.13,1.09S142.4,62.8,125.66,64.48c-.83.08,1.21.64,1.21.64"/><path class="cls-3" d="M126.87,65.12s18-2.7,25.31-13.88c-.73-.26-2.13,1.09-2.13,1.09S142.4,62.8,125.66,64.48C124.83,64.56,126.87,65.12,126.87,65.12Z"/><path class="cls-2" d="M126,64.64s18.21-2.79,25.63-14.29c-.74-.27-2.16,1.12-2.16,1.12S141.75,62.24,124.8,64c-.84.08,1.23.66,1.23.66"/><path class="cls-3" d="M126,64.64s18.21-2.79,25.63-14.29c-.74-.27-2.16,1.12-2.16,1.12S141.75,62.24,124.8,64C124,64.06,126,64.64,126,64.64Z"/><path class="cls-2" d="M125,64.18s18.21-2.73,25.63-14c-.74-.27-2.16,1.1-2.16,1.1s-7.74,10.56-24.69,12.25c-.84.08,1.22.65,1.22.65"/><path class="cls-3" d="M125,64.18s18.21-2.73,25.63-14c-.74-.27-2.16,1.1-2.16,1.1s-7.74,10.56-24.69,12.25C122.94,63.61,125,64.18,125,64.18Z"/><path class="cls-2" d="M117.24,53.22s1.29.8,6.42,1,16.38.11,16.38.11,5.82,0,6.16-.34,1.56.19,4.79-1.1c-1.68,7.26-1.83,7.41-1.83,7.41a1.7,1.7,0,0,1-1.67,1.18c-1.41.07-27.1-.08-27.1-.08a1.91,1.91,0,0,1-1.64-1.56c-.22-1.4-1.51-6.57-1.51-6.57"/><path class="cls-4" d="M117.24,53.22s1.29.8,6.42,1,16.38.11,16.38.11,5.82,0,6.16-.34,1.56.19,4.79-1.1c-1.68,7.26-1.83,7.41-1.83,7.41a1.7,1.7,0,0,1-1.67,1.18c-1.41.07-27.1-.08-27.1-.08a1.91,1.91,0,0,1-1.64-1.56C118.53,58.39,117.24,53.22,117.24,53.22Z"/><path d="M123.14,57l0-.08-.18.09-.16-.06-.06-.15.06-.16.15-.06a.26.26,0,0,1,.22.12.47.47,0,0,1,.08.26.82.82,0,0,1-.14.46l-.28.39a1,1,0,0,0-.14.47.72.72,0,0,0,.18.48.62.62,0,0,0,.49.21.6.6,0,0,0,.44-.18.57.57,0,0,0,.17-.42.82.82,0,0,0-.13-.46.38.38,0,0,0-.32-.21l-.07,0h-.07l0,0,.08-.14.17-.08h0l.07-.06v-.07a.56.56,0,0,1,.11-.31c.07-.11.14-.16.2-.16l0,0,0,.09,0,.18a.72.72,0,0,0,.1.34c.13.22.19.34.2.36a1.18,1.18,0,0,1,.1.5.92.92,0,0,1-.25.68.83.83,0,0,1-.62.27.88.88,0,0,1-.66-.29,1,1,0,0,1-.28-.69,1,1,0,0,1,.17-.53l.31-.42a.69.69,0,0,0,.17-.39"/><path d="M125.33,59.19l-.16-.06-.06-.16.06-.16.16-.06.15.06.06.16-.06.16Zm-.59,0-.16-.06-.06-.16.06-.16.16-.06.15.06L125,59l-.07.16Zm-.65-.76v-.38h1.15V57.8c0-.12,0-.19-.1-.19l-.06,0H125l0,0c0-.08.06-.14.17-.2s.16-.09.16-.12v-.08l.07-.19.08-.14,0-.08,0,0,0,.07v1.61Z"/><path d="M126.1,59.31c-.18,0-.27,0-.27-.08s.06-.06.19-.07a1.22,1.22,0,0,0,.41-.1.73.73,0,0,0,.44-.69.45.45,0,0,0-.12-.31.4.4,0,0,0-.27-.14h-.17l0,0c0-.06,0-.12.14-.19l.14-.11v-.15a.63.63,0,0,1,.08-.26c0-.1.1-.15.13-.15l0,0v.14a.59.59,0,0,0,.12.34l.21.31a1,1,0,0,1,.12.48.86.86,0,0,1-.4.79,1.33,1.33,0,0,1-.72.18"/><path d="M127.14,58.43v-.38h1.63l-.62-.51a.56.56,0,0,0-.31-.16l-.15,0-.06.13a.33.33,0,0,0,.1.22c.07.07.11.12.11.14l-.06,0a.38.38,0,0,1-.22-.15.55.55,0,0,1-.16-.37.45.45,0,0,1,.13-.32.42.42,0,0,1,.32-.14,1,1,0,0,1,.52.28l.45.38a3,3,0,0,0,.47.36.78.78,0,0,0,.31.06v.38Z"/><path d="M130.43,59.17l-.16-.07-.06-.16.06-.16.16-.06.16.06.06.16-.06.16Zm-.92-.74v-.38h1.12v-.28c0-.1,0-.15-.08-.15l-.07,0-.07,0,0,0,.08-.15.15-.06.09,0v-.11l.06-.15.11-.14,0-.12,0,0,0,0v1.6Z"/><path d="M130.83,58.43v-.38h.86v-2c0-.11,0-.16-.12-.16h0l-.06,0,0,0,.08-.16.16-.08.1,0a3.44,3.44,0,0,1,.23-.48l0,.08v3.19Z"/><path d="M133,58.43h-.34V56.09c0-.1,0-.15-.07-.15l-.07,0-.07,0,0,0,.08-.15.16-.05.09-.06v-.11l.07-.15.1-.14,0-.11.05-.06,0,0Z"/><path d="M135.06,56.26l-.15-.07-.06-.15.06-.15.16-.06.15.06.06.15-.06.15Zm0,1-.12.08,0,.1-.11.08a.33.33,0,0,0-.16.21h.44Zm-.57-1-.15-.07-.06-.15.06-.15.15-.06.15.06.06.15-.06.15Zm.57,2.17v-.38h-1L134,58l.05-.07.14-.12a1.7,1.7,0,0,0,.11-.23.78.78,0,0,1,.15-.25l.14-.09.09,0a1,1,0,0,1,.24-.32l.15-.07a.49.49,0,0,0,.2-.17l.06-.14,0-.07,0,0v2Z"/><path d="M135.35,58.43v-.38h4.07v-.14a.14.14,0,0,0-.09-.15,1,1,0,0,0-.3,0H136.1v-.39l2.43-1.78.06,0,0,0-.05.07,0,.07-.09.17a.72.72,0,0,0-.1.17l0,.07,0,.14,0,.14-.05.06,0-.07-.08-.07a.52.52,0,0,0-.25.13l-1.29.9H139a1,1,0,0,1,.57.11.56.56,0,0,1,.16.48v.5Z"/><path d="M139.64,58.43v-.38h.86v-2c0-.11,0-.16-.12-.16h0l-.06,0,0,0,.08-.16.16-.08.11,0a2.43,2.43,0,0,1,.23-.48l0,.08v3.19Z"/><path d="M144.2,58.2l-.07-.18L144,58l-.18.07-.07.18.07.17.18.08.18-.08Zm-1.86,0-.07-.18-.18-.07-.18.07-.07.18.07.17.18.08.18-.08Zm.37-.15h.63a.78.78,0,0,1,.21-.33c.08-.08.12-.12.12-.14v-.09l.06-.18.08-.07,0,0,0,.09a.52.52,0,0,0,.24.19,1.26,1.26,0,0,1,.3.17.46.46,0,0,1,.19.35v.27a.38.38,0,0,1-.14.27l-.19.14a.74.74,0,0,0-.09.21c0,.11-.06.16-.1.16l0-.08-.1-.16-.15-.08-.18-.11a1.13,1.13,0,0,1-.21-.28h-.67a.44.44,0,0,1-.15.22l-.17.12a.58.58,0,0,0-.08.21c0,.11-.07.16-.1.16l0-.08-.09-.16-.16-.08a.7.7,0,0,1-.18-.11,1.13,1.13,0,0,1-.21-.28h-.75v-.38h.72a.78.78,0,0,1,.21-.33c.08-.08.12-.12.12-.14v-.09l.06-.18.08-.07,0,0,0,.09a.52.52,0,0,0,.24.19,1.38,1.38,0,0,1,.29.17.52.52,0,0,1,.19.31"/><path class="cls-2" d="M111.27,29.77s.53,1.74,1.21.22"/><path class="cls-4" d="M111.27,29.77s.53,1.74,1.21.22"/><path class="cls-2" d="M113,27.68s.51,2.41,1.43,3-2,1.83-2,1.83l-1.2-3s1.76-.41,1.77-1.8"/><path class="cls-4" d="M113,27.68s.51,2.41,1.43,3-2,1.83-2,1.83l-1.2-3S113,29.07,113,27.68Z"/><path class="cls-2" d="M112.29,34.52a5.6,5.6,0,0,0,.13-3,7.37,7.37,0,0,0-2-3.22c-.1-.85-.9,2.87.51,4.15,1.07,1,1.35,1.18,1.32,2"/><path class="cls-4" d="M112.29,34.52a5.6,5.6,0,0,0,.13-3,7.37,7.37,0,0,0-2-3.22c-.1-.85-.9,2.87.51,4.15C112,33.47,112.32,33.68,112.29,34.52Z"/><path class="cls-2" d="M112.44,34.33a5.77,5.77,0,0,1,.27-3c.58-1.38,2.69-1.6,2.91-2.38s-.09,2.86-1.62,3.76c-1.17.68-1.47.81-1.56,1.61"/><path class="cls-4" d="M112.44,34.33a5.77,5.77,0,0,1,.27-3c.58-1.38,2.69-1.6,2.91-2.38s-.09,2.86-1.62,3.76C112.83,33.4,112.53,33.53,112.44,34.33Z"/><path class="cls-2" d="M112.4,37a4.09,4.09,0,0,1,.15-3c.75-1.3,2.18-1.51,2.49-2.26s.1,2.94-1.53,3.63c-1.24.53-.92.85-1.11,1.64"/><path class="cls-4" d="M112.4,37a4.09,4.09,0,0,1,.15-3c.75-1.3,2.18-1.51,2.49-2.26s.1,2.94-1.53,3.63C112.27,35.86,112.59,36.18,112.4,37Z"/><path class="cls-2" d="M112.5,39.71s-.81-2.17-.06-3.47,2-1.17,2.35-1.92.3,2.52-1.11,3.62a2.51,2.51,0,0,0-1.18,1.77"/><path class="cls-4" d="M112.5,39.71s-.81-2.17-.06-3.47,2-1.17,2.35-1.92.3,2.52-1.11,3.62A2.51,2.51,0,0,0,112.5,39.71Z"/><path class="cls-2" d="M112.85,42.37s-.82-2.16-.07-3.47,1.66-1.54,2-2.28.68,2.88-.72,4a2.45,2.45,0,0,0-1.18,1.77"/><path class="cls-4" d="M112.85,42.37s-.82-2.16-.07-3.47,1.66-1.54,2-2.28.68,2.88-.72,4A2.45,2.45,0,0,0,112.85,42.37Z"/><path class="cls-2" d="M113.91,45s-1.55-2.09-.8-3.39,1.41-1.44,1.72-2.19,1.55,2.75.15,3.85A2.7,2.7,0,0,0,113.91,45"/><path class="cls-4" d="M113.91,45s-1.55-2.09-.8-3.39,1.41-1.44,1.72-2.19,1.55,2.75.15,3.85A2.7,2.7,0,0,0,113.91,45Z"/><path class="cls-2" d="M114.6,47s-1.36-1.85-.7-3,1.23-1.26,1.5-1.92,1.38,2.42.14,3.4A2.34,2.34,0,0,0,114.6,47"/><path class="cls-4" d="M114.6,47s-1.36-1.85-.7-3,1.23-1.26,1.5-1.92,1.38,2.42.14,3.4A2.34,2.34,0,0,0,114.6,47Z"/><path class="cls-2" d="M112.16,36.87a5.41,5.41,0,0,0-.14-3.29c-.66-1.44-2.12-1.89-2.38-2.7s-.26,3,1.26,4.14c1.16.87,1.13,1,1.26,1.85"/><path class="cls-4" d="M112.16,36.87a5.41,5.41,0,0,0-.14-3.29c-.66-1.44-2.12-1.89-2.38-2.7s-.26,3,1.26,4.14C112.06,35.89,112,36,112.16,36.87Z"/><path class="cls-2" d="M112.44,39.87a8.54,8.54,0,0,0-.47-3.63c-.66-1.45-2.6-1.85-2.85-2.67s.22,3.53,1.85,4.49c1.23.74,1.34,1,1.47,1.81"/><path class="cls-4" d="M112.44,39.87a8.54,8.54,0,0,0-.47-3.63c-.66-1.45-2.6-1.85-2.85-2.67s.22,3.53,1.85,4.49C112.2,38.8,112.31,39,112.44,39.87Z"/><path class="cls-2" d="M113,42.66a13.16,13.16,0,0,0-.86-3.61c-.66-1.45-3-1.94-3.25-2.75s.1,2.93,1.73,3.89c1.23.74,2.25,1.64,2.38,2.47"/><path class="cls-4" d="M113,42.66a13.16,13.16,0,0,0-.86-3.61c-.66-1.45-3-1.94-3.25-2.75s.1,2.93,1.73,3.89C111.8,40.93,112.82,41.83,113,42.66Z"/><path class="cls-2" d="M113.84,45.44a22.39,22.39,0,0,0-1.19-3.59c-.6-1.19-3.35-2.1-3.59-2.78s.87,2.91,2.27,3.67a6,6,0,0,1,2.51,2.7"/><path class="cls-4" d="M113.84,45.44a22.39,22.39,0,0,0-1.19-3.59c-.6-1.19-3.35-2.1-3.59-2.78s.87,2.91,2.27,3.67A6,6,0,0,1,113.84,45.44Z"/><path class="cls-2" d="M114.89,47.73s-.8-2.15-1.41-3.35-3.35-2.11-3.59-2.79.87,2.91,2.27,3.67c1.07.58,2.6,1.77,2.73,2.47"/><path class="cls-4" d="M114.89,47.73s-.8-2.15-1.41-3.35-3.35-2.11-3.59-2.79.87,2.91,2.27,3.67C113.23,45.84,114.76,47,114.89,47.73Z"/><path class="cls-2" d="M108.23,29.68s.54,1.73,1.22.21"/><path class="cls-4" d="M108.23,29.68s.54,1.73,1.22.21"/><path class="cls-2" d="M109.94,27.59s.52,2.4,1.44,2.95-2,1.83-2,1.83l-1.2-3s1.75-.42,1.76-1.8"/><path class="cls-4" d="M109.94,27.59s.52,2.4,1.44,2.95-2,1.83-2,1.83l-1.2-3S109.93,29,109.94,27.59Z"/><path class="cls-2" d="M109.25,34.43a5.63,5.63,0,0,0,.13-3,7.38,7.38,0,0,0-1.95-3.22c-.1-.85-.91,2.87.5,4.15,1.07,1,1.36,1.18,1.32,2"/><path class="cls-4" d="M109.25,34.43a5.63,5.63,0,0,0,.13-3,7.38,7.38,0,0,0-1.95-3.22c-.1-.85-.91,2.87.5,4.15C109,33.38,109.29,33.58,109.25,34.43Z"/><path class="cls-2" d="M109.41,34.23a5.83,5.83,0,0,1,.26-3c.59-1.38,2.7-1.59,2.91-2.38s-.08,2.86-1.62,3.76c-1.16.68-1.46.81-1.55,1.61"/><path class="cls-4" d="M109.41,34.23a5.83,5.83,0,0,1,.26-3c.59-1.38,2.7-1.59,2.91-2.38s-.08,2.86-1.62,3.76C109.8,33.3,109.5,33.43,109.41,34.23Z"/><path class="cls-2" d="M109.37,36.87a4.09,4.09,0,0,1,.15-3c.75-1.3,2.17-1.51,2.48-2.26s.1,2.95-1.53,3.64c-1.24.52-.91.84-1.1,1.63"/><path class="cls-4" d="M109.37,36.87a4.09,4.09,0,0,1,.15-3c.75-1.3,2.17-1.51,2.48-2.26s.1,2.95-1.53,3.64C109.23,35.76,109.56,36.08,109.37,36.87Z"/><path class="cls-2" d="M109.47,39.61s-.82-2.16-.06-3.47,2-1.17,2.35-1.91.29,2.51-1.11,3.61a2.47,2.47,0,0,0-1.18,1.77"/><path class="cls-4" d="M109.47,39.61s-.82-2.16-.06-3.47,2-1.17,2.35-1.91.29,2.51-1.11,3.61A2.47,2.47,0,0,0,109.47,39.61Z"/><path class="cls-2" d="M109.81,42.27s-.81-2.16-.06-3.46,1.65-1.54,2-2.29.68,2.88-.72,4a2.49,2.49,0,0,0-1.18,1.76"/><path class="cls-4" d="M109.81,42.27s-.81-2.16-.06-3.46,1.65-1.54,2-2.29.68,2.88-.72,4A2.49,2.49,0,0,0,109.81,42.27Z"/><path class="cls-2" d="M110.88,44.86s-1.55-2.09-.8-3.39,1.4-1.44,1.71-2.18,1.55,2.74.15,3.85a2.64,2.64,0,0,0-1.06,1.72"/><path class="cls-4" d="M110.88,44.86s-1.55-2.09-.8-3.39,1.4-1.44,1.71-2.18,1.55,2.74.15,3.85A2.64,2.64,0,0,0,110.88,44.86Z"/><path class="cls-2" d="M111.57,46.93s-1.37-1.85-.71-3,1.24-1.27,1.51-1.93,1.37,2.43.14,3.4a2.36,2.36,0,0,0-.94,1.52"/><path class="cls-4" d="M111.57,46.93s-1.37-1.85-.71-3,1.24-1.27,1.51-1.93,1.37,2.43.14,3.4A2.36,2.36,0,0,0,111.57,46.93Z"/><path class="cls-2" d="M109.12,36.77a5.38,5.38,0,0,0-.14-3.28c-.66-1.45-2.11-1.9-2.37-2.71s-.27,3,1.25,4.14c1.16.87,1.14,1,1.26,1.85"/><path class="cls-4" d="M109.12,36.77a5.38,5.38,0,0,0-.14-3.28c-.66-1.45-2.11-1.9-2.37-2.71s-.27,3,1.25,4.14C109,35.79,109,35.94,109.12,36.77Z"/><path class="cls-2" d="M109.4,39.77a8.55,8.55,0,0,0-.47-3.63c-.66-1.44-2.59-1.85-2.85-2.67s.23,3.53,1.85,4.5c1.24.73,1.34,1,1.47,1.8"/><path class="cls-4" d="M109.4,39.77a8.55,8.55,0,0,0-.47-3.63c-.66-1.44-2.59-1.85-2.85-2.67s.23,3.53,1.85,4.5C109.17,38.7,109.27,38.94,109.4,39.77Z"/><path class="cls-2" d="M109.91,42.57a13.08,13.08,0,0,0-.85-3.62c-.66-1.44-3-1.93-3.25-2.75s.1,2.93,1.72,3.9c1.24.73,2.25,1.63,2.38,2.47"/><path class="cls-4" d="M109.91,42.57a13.08,13.08,0,0,0-.85-3.62c-.66-1.44-3-1.93-3.25-2.75s.1,2.93,1.72,3.9C108.77,40.83,109.78,41.73,109.91,42.57Z"/><path class="cls-2" d="M110.8,45.34a21.67,21.67,0,0,0-1.18-3.58c-.61-1.2-3.35-2.11-3.6-2.79s.88,2.91,2.28,3.67a6,6,0,0,1,2.5,2.7"/><path class="cls-4" d="M110.8,45.34a21.67,21.67,0,0,0-1.18-3.58c-.61-1.2-3.35-2.11-3.6-2.79s.88,2.91,2.28,3.67A6,6,0,0,1,110.8,45.34Z"/><path class="cls-2" d="M111.86,47.63s-.81-2.15-1.42-3.35-3.34-2.11-3.59-2.79.88,2.92,2.28,3.68c1.06.57,2.59,1.76,2.73,2.46"/><path class="cls-4" d="M111.86,47.63s-.81-2.15-1.42-3.35-3.34-2.11-3.59-2.79.88,2.92,2.28,3.68C110.19,45.74,111.72,46.93,111.86,47.63Z"/><path class="cls-2" d="M112.45,49.43s-1.37-1.84-.71-3,1.23-1.27,1.51-1.93,1.37,2.43.13,3.4a2.4,2.4,0,0,0-.93,1.52"/><path class="cls-4" d="M112.45,49.43s-1.37-1.84-.71-3,1.23-1.27,1.51-1.93,1.37,2.43.13,3.4A2.4,2.4,0,0,0,112.45,49.43Z"/><path class="cls-2" d="M112.73,50.13s-.8-2.15-1.41-3.35S108,44.67,107.73,44s.87,2.91,2.27,3.67c1.07.57,2.6,1.76,2.73,2.46"/><path class="cls-4" d="M112.73,50.13s-.8-2.15-1.41-3.35S108,44.67,107.73,44s.87,2.91,2.27,3.67C111.07,48.24,112.6,49.43,112.73,50.13Z"/><path class="cls-2" d="M122,19l-2.28,1.95s-1.14,0-.65-.54A12.6,12.6,0,0,1,122,19"/><path class="cls-4" d="M122,19l-2.28,1.95s-1.14,0-.65-.54A12.6,12.6,0,0,1,122,19Z"/><path class="cls-2" d="M118.69,19.83l1.51-3-2.35,2.2s-.43,1.59.84.78"/><path class="cls-4" d="M118.69,19.83l1.51-3-2.35,2.2S117.42,20.64,118.69,19.83Z"/><path class="cls-2" d="M120.31,18.48s-.87,1.94-.42,2.83-2.46.36-2.46.36l.51-2.87s1.56.49,2.37-.32"/><path class="cls-4" d="M120.31,18.48s-.87,1.94-.42,2.83-2.46.36-2.46.36l.51-2.87S119.5,19.29,120.31,18.48Z"/><path class="cls-2" d="M116.32,23.17A5,5,0,0,0,117.87,21a6.69,6.69,0,0,0,0-3.44c.34-.69-2.12,1.72-1.64,3.4.37,1.29.49,1.58,0,2.21"/><path class="cls-4" d="M116.32,23.17A5,5,0,0,0,117.87,21a6.69,6.69,0,0,0,0-3.44c.34-.69-2.12,1.72-1.64,3.4C116.64,22.25,116.76,22.54,116.32,23.17Z"/><path class="cls-2" d="M116.54,23.1A5.06,5.06,0,0,1,118.21,21c1.14-.75,2.9.16,3.46-.32s-1.47,2.12-3.12,2c-1.25-.08-1.55-.13-2,.43"/><path class="cls-4" d="M116.54,23.1A5.06,5.06,0,0,1,118.21,21c1.14-.75,2.9.16,3.46-.32s-1.47,2.12-3.12,2C117.3,22.59,117,22.54,116.54,23.1Z"/><path class="cls-2" d="M115.21,25.08a3.6,3.6,0,0,1,1.6-2.21c1.22-.6,2.44.07,3.1-.25s-1.41,2.09-3,1.78c-1.23-.23-1.13.18-1.67.68"/><path class="cls-4" d="M115.21,25.08a3.6,3.6,0,0,1,1.6-2.21c1.22-.6,2.44.07,3.1-.25s-1.41,2.09-3,1.78C115.65,24.17,115.75,24.58,115.21,25.08Z"/><path class="cls-2" d="M114,27.21s.42-2.06,1.65-2.66,2.18.15,2.79-.26-1,2.05-2.64,2.18a2.25,2.25,0,0,0-1.8.74"/><path class="cls-4" d="M114,27.21s.42-2.06,1.65-2.66,2.18.15,2.79-.26-1,2.05-2.64,2.18A2.25,2.25,0,0,0,114,27.21Z"/><path class="cls-2" d="M112.91,29.4s.43-2,1.66-2.66,2.05-.33,2.66-.74-.87,2.53-2.52,2.66a2.26,2.26,0,0,0-1.8.74"/><path class="cls-4" d="M112.91,29.4s.43-2,1.66-2.66,2.05-.33,2.66-.74-.87,2.53-2.52,2.66A2.26,2.26,0,0,0,112.91,29.4Z"/><path class="cls-2" d="M112.49,31.9s-.2-2.37,1-3,1.81-.37,2.42-.78-.13,2.87-1.77,3a2.44,2.44,0,0,0-1.68.77"/><path class="cls-4" d="M112.49,31.9s-.2-2.37,1-3,1.81-.37,2.42-.78-.13,2.87-1.77,3A2.44,2.44,0,0,0,112.49,31.9Z"/><path class="cls-2" d="M112,33.82s-.17-2.09.91-2.63,1.59-.33,2.13-.69S115,33,113.5,33.14a2.15,2.15,0,0,0-1.48.68"/><path class="cls-4" d="M112,33.82s-.17-2.09.91-2.63,1.59-.33,2.13-.69S115,33,113.5,33.14A2.15,2.15,0,0,0,112,33.82Z"/><path class="cls-2" d="M115.07,24.88a4.74,4.74,0,0,0,1.5-2.56c.19-1.43-.74-2.51-.54-3.26s-1.68,2.14-1,3.78c.48,1.24.39,1.34.08,2"/><path class="cls-4" d="M115.07,24.88a4.74,4.74,0,0,0,1.5-2.56c.19-1.43-.74-2.51-.54-3.26s-1.68,2.14-1,3.78C115.47,24.08,115.38,24.18,115.07,24.88Z"/><path class="cls-2" d="M113.82,27.3a7.52,7.52,0,0,0,1.41-3c.18-1.44-1.14-2.73-.94-3.47s-1.55,2.78-.74,4.34c.61,1.19.58,1.42.27,2.12"/><path class="cls-4" d="M113.82,27.3a7.52,7.52,0,0,0,1.41-3c.18-1.44-1.14-2.73-.94-3.47s-1.55,2.78-.74,4.34C114.16,26.37,114.13,26.6,113.82,27.3Z"/><path class="cls-2" d="M112.85,29.67A11.6,11.6,0,0,0,114,26.5c.19-1.43-1.41-3-1.21-3.74s-1.36,2.27-.55,3.83c.61,1.19,1,2.38.66,3.08"/><path class="cls-4" d="M112.85,29.67A11.6,11.6,0,0,0,114,26.5c.19-1.43-1.41-3-1.21-3.74s-1.36,2.27-.55,3.83C112.8,27.78,113.16,29,112.85,29.67Z"/><path class="cls-2" d="M112.19,32.23a19.22,19.22,0,0,0,.83-3.32c.1-1.22-1.61-3.3-1.47-3.94s-.73,2.65,0,3.94a5.48,5.48,0,0,1,.64,3.32"/><path class="cls-4" d="M112.19,32.23a19.22,19.22,0,0,0,.83-3.32c.1-1.22-1.61-3.3-1.47-3.94s-.73,2.65,0,3.94A5.48,5.48,0,0,1,112.19,32.23Z"/><path class="cls-2" d="M111.9,34.5s.42-2,.53-3.26-1.6-3.3-1.46-3.94-.74,2.65,0,3.94c.56,1,1.18,2.66.94,3.26"/><path class="cls-4" d="M111.9,34.5s.42-2,.53-3.26-1.6-3.3-1.46-3.94-.74,2.65,0,3.94C111.52,32.22,112.14,33.9,111.9,34.5Z"/><path class="cls-2" d="M116.49,31.32s.27,1.8,1.17.4"/><path class="cls-4" d="M116.49,31.32s.27,1.8,1.17.4"/><path class="cls-2" d="M118.49,29.51s.15,2.46,1,3.14-2.25,1.51-2.25,1.51L116.48,31s1.8-.15,2-1.52"/><path class="cls-4" d="M118.49,29.51s.15,2.46,1,3.14-2.25,1.51-2.25,1.51L116.48,31S118.28,30.88,118.49,29.51Z"/><path class="cls-2" d="M116.8,36.17a5.69,5.69,0,0,0,.56-2.9,7.47,7.47,0,0,0-1.45-3.48c0-.85-1.32,2.71-.12,4.18.91,1.13,1.16,1.37,1,2.2"/><path class="cls-4" d="M116.8,36.17a5.69,5.69,0,0,0,.56-2.9,7.47,7.47,0,0,0-1.45-3.48c0-.85-1.32,2.71-.12,4.18C116.7,35.1,117,35.34,116.8,36.17Z"/><path class="cls-2" d="M117,36a5.81,5.81,0,0,1,.7-2.92c.79-1.28,2.9-1.18,3.24-1.92s-.51,2.81-2.16,3.47c-1.26.5-1.57.58-1.78,1.37"/><path class="cls-4" d="M117,36a5.81,5.81,0,0,1,.7-2.92c.79-1.28,2.9-1.18,3.24-1.92s-.51,2.81-2.16,3.47C117.5,35.14,117.19,35.22,117,36Z"/><path class="cls-2" d="M116.55,38.61a4.12,4.12,0,0,1,.59-3c.93-1.17,2.38-1.17,2.79-1.86s-.34,2.93-2.05,3.37c-1.31.33-1,.7-1.33,1.45"/><path class="cls-4" d="M116.55,38.61a4.12,4.12,0,0,1,.59-3c.93-1.17,2.38-1.17,2.79-1.86s-.34,2.93-2.05,3.37C116.57,37.49,116.85,37.86,116.55,38.61Z"/><path class="cls-2" d="M116.24,41.33s-.49-2.26.45-3.44,2.19-.85,2.61-1.54-.08,2.52-1.63,3.41a2.47,2.47,0,0,0-1.43,1.57"/><path class="cls-4" d="M116.24,41.33s-.49-2.26.45-3.44,2.19-.85,2.61-1.54-.08,2.52-1.63,3.41A2.47,2.47,0,0,0,116.24,41.33Z"/><path class="cls-2" d="M116.18,44s-.48-2.27.46-3.44,1.86-1.28,2.28-2,.24,3-1.31,3.83A2.47,2.47,0,0,0,116.18,44"/><path class="cls-4" d="M116.18,44s-.48-2.26.46-3.43,1.86-1.28,2.28-2,.24,3-1.31,3.83A2.5,2.5,0,0,0,116.18,44Z"/><path class="cls-2" d="M116.85,46.73s-1.22-2.29-.28-3.47,1.6-1.21,2-1.91,1.13,2.95-.42,3.84a2.7,2.7,0,0,0-1.31,1.54"/><path class="cls-4" d="M116.85,46.73s-1.22-2.29-.28-3.47,1.6-1.21,2-1.91,1.13,2.95-.42,3.84A2.7,2.7,0,0,0,116.85,46.73Z"/><path class="cls-2" d="M117.23,48.88s-1.08-2-.26-3.07,1.41-1.06,1.78-1.68,1,2.61-.37,3.39a2.34,2.34,0,0,0-1.15,1.36"/><path class="cls-4" d="M117.23,48.88s-1.08-2-.26-3.07,1.41-1.06,1.78-1.68,1,2.61-.37,3.39A2.34,2.34,0,0,0,117.23,48.88Z"/><path class="cls-2" d="M116.32,38.47a5.45,5.45,0,0,0,.35-3.27c-.44-1.52-1.81-2.18-2-3s-.71,2.93.63,4.28c1,1,1,1.18,1,2"/><path class="cls-4" d="M116.32,38.47a5.45,5.45,0,0,0,.35-3.27c-.44-1.52-1.81-2.18-2-3s-.71,2.93.63,4.28C116.37,37.49,116.32,37.63,116.32,38.47Z"/><path class="cls-2" d="M116.15,41.48a8.51,8.51,0,0,0,.07-3.66c-.44-1.53-2.29-2.22-2.42-3.06s-.3,3.52,1.16,4.72c1.12.91,1.18,1.16,1.19,2"/><path class="cls-4" d="M116.15,41.48a8.51,8.51,0,0,0,.07-3.66c-.44-1.53-2.29-2.22-2.42-3.06s-.3,3.52,1.16,4.72C116.08,40.39,116.14,40.64,116.15,41.48Z"/><path class="cls-2" d="M116.24,44.32a13,13,0,0,0-.31-3.7c-.44-1.53-2.67-2.36-2.81-3.21s-.33,2.92,1.13,4.11c1.11.92,2,1.95,2,2.8"/><path class="cls-4" d="M116.24,44.32a13,13,0,0,0-.31-3.7c-.44-1.53-2.67-2.36-2.81-3.21s-.33,2.92,1.13,4.11C115.36,42.44,116.24,43.47,116.24,44.32Z"/><path class="cls-2" d="M116.71,47.2a22.47,22.47,0,0,0-.64-3.72c-.43-1.28-3-2.59-3.14-3.29s.43,3,1.7,4a6,6,0,0,1,2.08,3"/><path class="cls-4" d="M116.71,47.2a22.47,22.47,0,0,0-.64-3.72c-.43-1.28-3-2.59-3.14-3.29s.43,3,1.7,4A6,6,0,0,1,116.71,47.2Z"/><path class="cls-2" d="M117.41,49.62s-.48-2.25-.9-3.53-3-2.58-3.14-3.28.43,3,1.71,4c1,.72,2.3,2.12,2.33,2.84"/><path class="cls-5" d="M117.41,49.62l-.09,0s-.12-.56-.3-1.28-.39-1.61-.6-2.24a5.1,5.1,0,0,0-1.64-1.81c-.36-.29-.71-.55-1-.8a1.46,1.46,0,0,1-.52-.69l0-.06h0l0,0,0,0h0l0,0,0,0,.09,0v.09l-.09-.06.09,0v0h.1l-.1.09v-.09h.1c0,.15.61,3.19,1.68,4a10.3,10.3,0,0,1,1.53,1.45,3.08,3.08,0,0,1,.85,1.47l-.19,0,.09,0h-.1a3,3,0,0,0-.79-1.36,10.86,10.86,0,0,0-1.5-1.41,5,5,0,0,1-1.33-2.37c-.14-.44-.25-.87-.32-1.19q-.06-.24-.09-.39c0-.1,0-.15,0-.18l0-.07.07,0,.09.06,0,.11a1.65,1.65,0,0,0,.46.58c.8.72,2.34,1.68,2.68,2.69.42,1.29.9,3.54.9,3.54l-.09,0h0Z"/><path class="cls-6" d="M116.52,30.83l1.07-3.55m-.1,3.49.84-2.16m.72,3.49.71-1.88m-13.21.51-.06-3m2.31,1.43V23.4m1.13,4.27.37-5.34m-2.94,5.77-.2-3.72m3.24,3.83.58-6.82m.56,3.67,1-5m.06,2.72,1.64-5.25m0,3.19L116,16.38M115.93,19l2.4-4.29"/><path class="cls-2" d="M156.56,29.63s-.52,1.74-1.21.23"/><path class="cls-4" d="M156.56,29.63s-.52,1.74-1.21.23"/><path class="cls-2" d="M154.83,27.56s-.49,2.41-1.4,3,2,1.8,2,1.8l1.17-3s-1.76-.4-1.78-1.78"/><path class="cls-4" d="M154.83,27.56s-.49,2.41-1.4,3,2,1.8,2,1.8l1.17-3S154.85,28.94,154.83,27.56Z"/><path class="cls-2" d="M155.58,34.39a5.61,5.61,0,0,1-.15-2.95,7.43,7.43,0,0,1,1.92-3.24c.09-.86.93,2.86-.46,4.15-1.06,1-1.34,1.19-1.31,2"/><path class="cls-4" d="M155.58,34.39a5.61,5.61,0,0,1-.15-2.95,7.43,7.43,0,0,1,1.92-3.24c.09-.86.93,2.86-.46,4.15C155.83,33.34,155.55,33.54,155.58,34.39Z"/><path class="cls-2" d="M155.43,34.2a5.71,5.71,0,0,0-.3-3c-.59-1.38-2.7-1.57-2.93-2.35s.11,2.86,1.66,3.74c1.17.67,1.47.79,1.57,1.6"/><path class="cls-4" d="M155.43,34.2a5.71,5.71,0,0,0-.3-3c-.59-1.38-2.7-1.57-2.93-2.35s.11,2.86,1.66,3.74C155,33.27,155.33,33.39,155.43,34.2Z"/><path class="cls-2" d="M155.49,36.83a4.06,4.06,0,0,0-.18-3c-.75-1.28-2.18-1.48-2.5-2.23s-.07,2.95,1.57,3.62c1.24.51.92.84,1.11,1.62"/><path class="cls-4" d="M155.49,36.83a4.06,4.06,0,0,0-.18-3c-.75-1.28-2.18-1.48-2.5-2.23s-.07,2.95,1.57,3.62C155.62,35.72,155.3,36.05,155.49,36.83Z"/><path class="cls-2" d="M155.42,39.58s.79-2.18,0-3.47-2-1.15-2.37-1.9-.27,2.52,1.14,3.61a2.45,2.45,0,0,1,1.2,1.76"/><path class="cls-4" d="M155.42,39.58s.79-2.18,0-3.47-2-1.15-2.37-1.9-.27,2.52,1.14,3.61A2.45,2.45,0,0,1,155.42,39.58Z"/><path class="cls-2" d="M155.1,42.24s.79-2.17,0-3.47-1.67-1.52-2-2.26-.66,2.88.75,4a2.46,2.46,0,0,1,1.2,1.76"/><path class="cls-4" d="M155.1,42.24s.79-2.17,0-3.47-1.67-1.52-2-2.26-.66,2.88.75,4A2.46,2.46,0,0,1,155.1,42.24Z"/><path class="cls-2" d="M154.06,44.84s1.53-2.1.77-3.4-1.42-1.42-1.74-2.17S151.57,42,153,43.12a2.72,2.72,0,0,1,1.08,1.72"/><path class="cls-4" d="M154.06,44.84s1.53-2.1.77-3.4-1.42-1.42-1.74-2.17S151.57,42,153,43.12A2.72,2.72,0,0,1,154.06,44.84Z"/><path class="cls-2" d="M153.39,46.92s1.35-1.86.68-3-1.25-1.25-1.53-1.91-1.35,2.44-.1,3.4a2.38,2.38,0,0,1,.95,1.52"/><path class="cls-4" d="M153.39,46.92s1.35-1.86.68-3-1.25-1.25-1.53-1.91-1.35,2.44-.1,3.4A2.38,2.38,0,0,1,153.39,46.92Z"/><path class="cls-2" d="M155.74,36.73a5.35,5.35,0,0,1,.11-3.28c.65-1.46,2.09-1.92,2.35-2.73s.29,3-1.22,4.15c-1.15.88-1.12,1-1.24,1.86"/><path class="cls-4" d="M155.74,36.73a5.35,5.35,0,0,1,.11-3.28c.65-1.46,2.09-1.92,2.35-2.73s.29,3-1.22,4.15C155.83,35.75,155.86,35.9,155.74,36.73Z"/><path class="cls-2" d="M155.49,39.74a8.63,8.63,0,0,1,.43-3.64c.65-1.45,2.58-1.88,2.83-2.69s-.19,3.52-1.81,4.51c-1.23.75-1.33,1-1.45,1.82"/><path class="cls-4" d="M155.49,39.74a8.63,8.63,0,0,1,.43-3.64c.65-1.45,2.58-1.88,2.83-2.69s-.19,3.52-1.81,4.51C155.71,38.67,155.61,38.9,155.49,39.74Z"/><path class="cls-2" d="M155,42.53a13.34,13.34,0,0,1,.82-3.62c.65-1.45,3-2,3.23-2.78S159,39.06,157.36,40c-1.23.75-2.24,1.66-2.36,2.49"/><path class="cls-4" d="M155,42.53a13.34,13.34,0,0,1,.82-3.62c.65-1.45,3-2,3.23-2.78S159,39.06,157.36,40C156.13,40.79,155.12,41.7,155,42.53Z"/><path class="cls-2" d="M154.14,45.32a21.81,21.81,0,0,1,1.15-3.6c.6-1.2,3.33-2.14,3.57-2.82s-.85,2.92-2.24,3.7a6,6,0,0,0-2.48,2.72"/><path class="cls-4" d="M154.14,45.32a21.81,21.81,0,0,1,1.15-3.6c.6-1.2,3.33-2.14,3.57-2.82s-.85,2.92-2.24,3.7A6,6,0,0,0,154.14,45.32Z"/><path class="cls-2" d="M153.11,47.62s.78-2.16,1.38-3.37,3.33-2.14,3.57-2.82-.85,2.92-2.25,3.7c-1.06.58-2.57,1.79-2.7,2.49"/><path class="cls-4" d="M153.11,47.62s.78-2.16,1.38-3.37,3.33-2.14,3.57-2.82-.85,2.92-2.25,3.7C154.75,45.71,153.24,46.92,153.11,47.62Z"/><path class="cls-2" d="M159.6,29.5s-.52,1.74-1.22.23"/><path class="cls-4" d="M159.6,29.5s-.52,1.74-1.22.23"/><path class="cls-2" d="M157.87,27.43s-.49,2.41-1.41,3,2,1.81,2,1.81l1.17-3s-1.76-.4-1.78-1.78"/><path class="cls-4" d="M157.87,27.43s-.49,2.41-1.41,3,2,1.81,2,1.81l1.17-3S157.89,28.81,157.87,27.43Z"/><path class="cls-2" d="M158.62,34.26a5.65,5.65,0,0,1-.16-2.95,7.4,7.4,0,0,1,1.93-3.24c.09-.85.93,2.86-.47,4.16-1.06,1-1.34,1.19-1.3,2"/><path class="cls-4" d="M158.62,34.26a5.65,5.65,0,0,1-.16-2.95,7.4,7.4,0,0,1,1.93-3.24c.09-.85.93,2.86-.47,4.16C158.86,33.21,158.58,33.42,158.62,34.26Z"/><path class="cls-2" d="M158.47,34.07a5.83,5.83,0,0,0-.3-3c-.6-1.37-2.71-1.57-2.93-2.35s.11,2.86,1.65,3.74c1.18.67,1.48.8,1.58,1.6"/><path class="cls-4" d="M158.47,34.07a5.83,5.83,0,0,0-.3-3c-.6-1.37-2.71-1.57-2.93-2.35s.11,2.86,1.65,3.74C158.07,33.14,158.37,33.27,158.47,34.07Z"/><path class="cls-2" d="M158.53,36.71a4.12,4.12,0,0,0-.18-3c-.76-1.29-2.19-1.49-2.5-2.23s-.07,2.94,1.56,3.62c1.25.51.92.83,1.12,1.62"/><path class="cls-4" d="M158.53,36.71a4.12,4.12,0,0,0-.18-3c-.76-1.29-2.19-1.49-2.5-2.23s-.07,2.94,1.56,3.62C158.66,35.6,158.33,35.92,158.53,36.71Z"/><path class="cls-2" d="M158.46,39.45s.79-2.17,0-3.47-2.06-1.15-2.38-1.89-.26,2.51,1.15,3.6a2.53,2.53,0,0,1,1.2,1.76"/><path class="cls-4" d="M158.46,39.45s.79-2.17,0-3.47-2.06-1.15-2.38-1.89-.26,2.51,1.15,3.6A2.53,2.53,0,0,1,158.46,39.45Z"/><path class="cls-2" d="M158.14,42.12s.79-2.18,0-3.47-1.67-1.53-2-2.27-.65,2.89.76,4a2.51,2.51,0,0,1,1.2,1.76"/><path class="cls-4" d="M158.14,42.12s.79-2.18,0-3.47-1.67-1.53-2-2.27-.65,2.89.76,4A2.51,2.51,0,0,1,158.14,42.12Z"/><path class="cls-2" d="M157.1,44.71s1.53-2.1.76-3.4-1.41-1.42-1.73-2.16S154.6,41.91,156,43a2.7,2.7,0,0,1,1.08,1.71"/><path class="cls-4" d="M157.1,44.71s1.53-2.1.76-3.4-1.41-1.42-1.73-2.16S154.6,41.91,156,43A2.7,2.7,0,0,1,157.1,44.71Z"/><path class="cls-2" d="M156.42,46.79s1.36-1.86.68-3-1.24-1.26-1.52-1.91-1.35,2.44-.11,3.4a2.35,2.35,0,0,1,.95,1.51"/><path class="cls-4" d="M156.42,46.79s1.36-1.86.68-3-1.24-1.26-1.52-1.91-1.35,2.44-.11,3.4A2.35,2.35,0,0,1,156.42,46.79Z"/><path class="cls-2" d="M158.77,36.61a5.47,5.47,0,0,1,.11-3.29c.65-1.45,2.1-1.91,2.35-2.73s.29,3-1.21,4.15c-1.16.88-1.13,1-1.25,1.87"/><path class="cls-4" d="M158.77,36.61a5.47,5.47,0,0,1,.11-3.29c.65-1.45,2.1-1.91,2.35-2.73s.29,3-1.21,4.15C158.86,35.62,158.89,35.77,158.77,36.61Z"/><path class="cls-2" d="M158.52,39.61A8.49,8.49,0,0,1,159,36c.65-1.46,2.58-1.88,2.83-2.7s-.2,3.53-1.81,4.51c-1.23.75-1.34,1-1.46,1.82"/><path class="cls-4" d="M158.52,39.61A8.49,8.49,0,0,1,159,36c.65-1.46,2.58-1.88,2.83-2.7s-.2,3.53-1.81,4.51C158.75,38.54,158.64,38.77,158.52,39.61Z"/><path class="cls-2" d="M158,42.41a12.93,12.93,0,0,1,.82-3.62c.65-1.45,3-2,3.23-2.79s-.08,2.93-1.69,3.92c-1.23.75-2.24,1.65-2.36,2.49"/><path class="cls-4" d="M158,42.41a12.93,12.93,0,0,1,.82-3.62c.65-1.45,3-2,3.23-2.79s-.08,2.93-1.69,3.92C159.17,40.67,158.16,41.57,158,42.41Z"/><path class="cls-2" d="M157.18,45.2a21.81,21.81,0,0,1,1.15-3.6c.59-1.2,3.32-2.14,3.56-2.82s-.84,2.92-2.24,3.69a6,6,0,0,0-2.47,2.73"/><path class="cls-4" d="M157.18,45.2a21.81,21.81,0,0,1,1.15-3.6c.59-1.2,3.33-2.14,3.56-2.82s-.84,2.92-2.24,3.69A6,6,0,0,0,157.18,45.2Z"/><path class="cls-2" d="M156.14,47.49s.79-2.15,1.38-3.36,3.33-2.14,3.57-2.82-.85,2.92-2.24,3.69c-1.06.59-2.58,1.79-2.71,2.49"/><path class="cls-4" d="M156.14,47.49s.79-2.15,1.38-3.36,3.33-2.14,3.57-2.82-.85,2.92-2.24,3.69C157.79,45.59,156.27,46.79,156.14,47.49Z"/><path class="cls-2" d="M155.57,49.3s1.35-1.86.68-3S155,45,154.73,44.39s-1.35,2.44-.11,3.4a2.35,2.35,0,0,1,.95,1.51"/><path class="cls-4" d="M155.57,49.3s1.35-1.86.68-3S155,45,154.73,44.39s-1.35,2.44-.11,3.4A2.35,2.35,0,0,1,155.57,49.3Z"/><path class="cls-2" d="M155.29,50s.78-2.15,1.38-3.36,3.33-2.14,3.57-2.82-.85,2.92-2.24,3.69c-1.06.59-2.58,1.79-2.71,2.49"/><path class="cls-4" d="M155.29,50s.78-2.15,1.38-3.36,3.33-2.14,3.57-2.82-.85,2.92-2.24,3.69C156.94,48.1,155.42,49.3,155.29,50Z"/><path class="cls-2" d="M145.37,18.92l2.29,1.93s1.14,0,.65-.55a12.46,12.46,0,0,0-2.94-1.38"/><path class="cls-4" d="M145.37,18.92l2.29,1.93s1.14,0,.65-.55A12.46,12.46,0,0,0,145.37,18.92Z"/><path class="cls-2" d="M148.7,19.76l-1.53-3L149.54,19s.45,1.58-.84.79"/><path class="cls-4" d="M148.7,19.76l-1.53-3L149.54,19S150,20.55,148.7,19.76Z"/><path class="cls-2" d="M147.08,18.42s.88,1.93.44,2.82,2.47.35,2.47.35l-.55-2.87s-1.55.51-2.36-.3"/><path class="cls-4" d="M147.08,18.42s.88,1.93.44,2.82,2.47.35,2.47.35l-.55-2.87S147.89,19.23,147.08,18.42Z"/><path class="cls-2" d="M151.45,23.07a4.87,4.87,0,0,1-1.57-2.15,6.62,6.62,0,0,1-.07-3.44c-.35-.69,2.13,1.7,1.66,3.39-.35,1.28-.47,1.58,0,2.2"/><path class="cls-4" d="M151.45,23.07a4.87,4.87,0,0,1-1.57-2.15,6.62,6.62,0,0,1-.07-3.44c-.35-.69,2.13,1.7,1.66,3.39C151.12,22.15,151,22.45,151.45,23.07Z"/><path class="cls-2" d="M150.89,23a5,5,0,0,0-1.7-2.12c-1.14-.74-2.89.19-3.45-.29s1.48,2.11,3.13,2c1.25-.08,1.55-.14,2,.42"/><path class="cls-4" d="M150.89,23a5,5,0,0,0-1.69-2.12c-1.15-.74-2.9.19-3.46-.29s1.48,2.11,3.13,2C150.12,22.5,150.42,22.45,150.89,23Z"/><path class="cls-2" d="M152.23,25a3.59,3.59,0,0,0-1.61-2.19c-1.23-.59-2.45.09-3.11-.23s1.43,2.08,3.05,1.76c1.23-.24,1.13.17,1.67.66"/><path class="cls-4" d="M152.23,25a3.59,3.59,0,0,0-1.61-2.19c-1.23-.59-2.45.09-3.11-.23s1.43,2.08,3.05,1.76C151.79,24.07,151.69,24.48,152.23,25Z"/><path class="cls-2" d="M153.86,27.09s-.44-2.05-1.68-2.64-2.18.17-2.79-.24,1,2.05,2.66,2.16a2.23,2.23,0,0,1,1.81.72"/><path class="cls-4" d="M153.86,27.09s-.44-2.05-1.68-2.64-2.18.17-2.79-.24,1,2.05,2.66,2.16A2.23,2.23,0,0,1,153.86,27.09Z"/><path class="cls-2" d="M154.91,29.27s-.44-2.05-1.68-2.64-2-.31-2.67-.71.9,2.52,2.55,2.63a2.22,2.22,0,0,1,1.8.72"/><path class="cls-4" d="M154.91,29.27s-.44-2.05-1.68-2.64-2-.31-2.67-.71.9,2.52,2.55,2.63A2.22,2.22,0,0,1,154.91,29.27Z"/><path class="cls-2" d="M155.36,31.77s.18-2.37-1.06-3-1.81-.36-2.42-.76.15,2.87,1.79,3a2.38,2.38,0,0,1,1.69.75"/><path class="cls-4" d="M155.36,31.77s.18-2.37-1.06-3-1.81-.36-2.42-.76.15,2.87,1.79,3A2.38,2.38,0,0,1,155.36,31.77Z"/><path class="cls-2" d="M155.85,33.68s.15-2.09-.93-2.62-1.6-.32-2.14-.67.13,2.53,1.58,2.63a2.15,2.15,0,0,1,1.49.66"/><path class="cls-4" d="M155.85,33.68s.15-2.09-.93-2.62-1.6-.32-2.14-.67.13,2.53,1.58,2.63A2.15,2.15,0,0,1,155.85,33.68Z"/><path class="cls-2" d="M152.71,24.77a4.69,4.69,0,0,1-1.52-2.54c-.2-1.43.72-2.52.51-3.27s1.7,2.13,1.08,3.77c-.48,1.25-.38,1.35-.07,2"/><path class="cls-4" d="M152.71,24.77a4.69,4.69,0,0,1-1.52-2.54c-.2-1.43.72-2.52.51-3.27s1.7,2.13,1.08,3.77C152.3,24,152.4,24.08,152.71,24.77Z"/><path class="cls-2" d="M154,27.18a7.48,7.48,0,0,1-1.44-3c-.2-1.43,1.11-2.73.91-3.48s1.57,2.77.78,4.34c-.6,1.19-.57,1.42-.25,2.12"/><path class="cls-4" d="M154,27.18a7.48,7.48,0,0,1-1.44-3c-.2-1.43,1.11-2.73.91-3.48s1.57,2.77.78,4.34C153.64,26.25,153.67,26.48,154,27.18Z"/><path class="cls-2" d="M155,29.54a11.45,11.45,0,0,1-1.13-3.16c-.2-1.43,1.38-3,1.17-3.75s1.38,2.26.59,3.83c-.6,1.19-1,2.39-.63,3.08"/><path class="cls-4" d="M155,29.54a11.45,11.45,0,0,1-1.13-3.16c-.2-1.43,1.38-3,1.17-3.75s1.38,2.26.59,3.82C155,27.65,154.66,28.85,155,29.54Z"/><path class="cls-2" d="M155.66,32.09a19.36,19.36,0,0,1-.85-3.31c-.12-1.21,1.57-3.31,1.42-4s.76,2.65.05,3.94a5.45,5.45,0,0,0-.62,3.32"/><path class="cls-4" d="M155.66,32.09a19.36,19.36,0,0,1-.85-3.31c-.12-1.21,1.57-3.31,1.42-4s.76,2.65.05,3.94A5.45,5.45,0,0,0,155.66,32.09Z"/><path class="cls-2" d="M156,34.36s-.44-2-.56-3.25,1.57-3.32,1.43-3.95.76,2.64,0,3.93c-.54,1-1.15,2.67-.91,3.27"/><path class="cls-4" d="M156,34.36s-.44-2-.56-3.25,1.57-3.32,1.43-3.95.76,2.64,0,3.93C156.34,32.08,155.73,33.76,156,34.36Z"/><path class="cls-2" d="M151.35,31.23s-.25,1.8-1.16.41"/><path class="cls-4" d="M151.35,31.23s-.25,1.8-1.16.41"/><path class="cls-2" d="M149,29.43s-.13,2.46-.95,3.15,2.26,1.49,2.26,1.49l.71-3.14s-1.8-.13-2-1.5"/><path class="cls-4" d="M149,29.43s-.13,2.46-.95,3.15,2.26,1.49,2.26,1.49l.71-3.14S149.22,30.8,149,29.43Z"/><path class="cls-2" d="M151.1,36.08a5.66,5.66,0,0,1-.6-2.89,7.55,7.55,0,0,1,1.42-3.5c0-.85,1.35,2.69.16,4.18-.9,1.14-1.15,1.38-1,2.21"/><path class="cls-4" d="M151.1,36.08a5.66,5.66,0,0,1-.6-2.89,7.55,7.55,0,0,1,1.42-3.5c0-.85,1.35,2.69.16,4.18C151.18,35,150.93,35.25,151.1,36.08Z"/><path class="cls-2" d="M150.57,35.91a5.74,5.74,0,0,0-.73-2.91c-.8-1.27-2.91-1.15-3.25-1.89s.53,2.81,2.19,3.46c1.26.48,1.58.56,1.79,1.34"/><path class="cls-4" d="M150.57,35.91a5.74,5.74,0,0,0-.73-2.91c-.8-1.27-2.91-1.15-3.25-1.89s.53,2.81,2.19,3.46C150,35.05,150.36,35.13,150.57,35.91Z"/><path class="cls-2" d="M151,38.51a4.1,4.1,0,0,0-.63-2.95c-.94-1.16-2.38-1.14-2.8-1.83s.36,2.92,2.08,3.34c1.31.33,1,.69,1.35,1.44"/><path class="cls-4" d="M151,38.51a4.1,4.1,0,0,0-.63-2.95c-.94-1.16-2.38-1.14-2.8-1.83s.36,2.92,2.08,3.34C151,37.4,150.72,37.76,151,38.51Z"/><path class="cls-2" d="M151.37,41.24s.45-2.27-.49-3.44-2.21-.83-2.63-1.52.11,2.53,1.67,3.4a2.5,2.5,0,0,1,1.45,1.56"/><path class="cls-4" d="M151.37,41.24s.45-2.27-.49-3.44-2.21-.83-2.63-1.52.11,2.53,1.67,3.4A2.5,2.5,0,0,1,151.37,41.24Z"/><path class="cls-2" d="M151.79,43.92s.46-2.27-.49-3.44-1.88-1.25-2.3-1.94-.22,3,1.34,3.82a2.5,2.5,0,0,1,1.45,1.56"/><path class="cls-4" d="M151.79,43.92s.46-2.27-.49-3.44-1.88-1.25-2.3-1.94-.22,3,1.34,3.82A2.5,2.5,0,0,1,151.79,43.92Z"/><path class="cls-2" d="M151.14,46.64s1.2-2.31.25-3.47-1.61-1.2-2-1.89-1.1,3,.46,3.83a2.68,2.68,0,0,1,1.32,1.53"/><path class="cls-4" d="M151.14,46.64s1.2-2.31.25-3.47-1.61-1.2-2-1.89-1.1,3,.46,3.83A2.68,2.68,0,0,1,151.14,46.64Z"/><path class="cls-2" d="M150.78,48.8s1.07-2,.23-3.07-1.42-1.06-1.79-1.67-1,2.61.4,3.38a2.39,2.39,0,0,1,1.16,1.36"/><path class="cls-4" d="M150.78,48.8s1.07-2,.23-3.07-1.42-1.06-1.79-1.67-1,2.61.4,3.38A2.39,2.39,0,0,1,150.78,48.8Z"/><path class="cls-2" d="M151.59,38.38a5.43,5.43,0,0,1-.38-3.27c.43-1.53,1.8-2.2,1.92-3s.74,2.93-.58,4.29c-1,1-1,1.18-1,2"/><path class="cls-4" d="M151.59,38.38a5.43,5.43,0,0,1-.38-3.27c.43-1.53,1.8-2.2,1.92-3s.74,2.93-.58,4.29C151.54,37.39,151.59,37.53,151.59,38.38Z"/><path class="cls-2" d="M151.79,41.38a8.56,8.56,0,0,1-.11-3.66c.43-1.53,2.27-2.24,2.4-3.08s.33,3.52-1.12,4.73c-1.1.92-1.17,1.17-1.17,2"/><path class="cls-4" d="M151.79,41.38a8.56,8.56,0,0,1-.11-3.66c.43-1.53,2.27-2.24,2.4-3.08s.33,3.52-1.12,4.73C151.86,40.29,151.79,40.54,151.79,41.38Z"/><path class="cls-2" d="M151.73,44.22a13.1,13.1,0,0,1,.27-3.7c.43-1.53,2.65-2.39,2.78-3.23s.36,2.91-1.09,4.12c-1.1.92-2,2-2,2.81"/><path class="cls-4" d="M151.73,44.22a13.1,13.1,0,0,1,.27-3.7c.43-1.53,2.65-2.39,2.78-3.23s.36,2.91-1.09,4.12C152.59,42.33,151.73,43.38,151.73,44.22Z"/><path class="cls-2" d="M151.29,47.11a21.35,21.35,0,0,1,.61-3.73c.41-1.28,3-2.61,3.1-3.32s-.4,3-1.66,4a6,6,0,0,0-2.05,3.07"/><path class="cls-4" d="M151.29,47.11a21.35,21.35,0,0,1,.61-3.73c.41-1.28,3-2.61,3.1-3.32s-.4,3-1.66,4A6,6,0,0,0,151.29,47.11Z"/><path class="cls-2" d="M150.61,49.53s.45-2.25.87-3.53,3-2.61,3.11-3.32-.41,3-1.67,4c-1,.73-2.29,2.15-2.31,2.86"/><path class="cls-4" d="M150.61,49.53s.45-2.25.87-3.53,3-2.61,3.11-3.32-.41,3-1.67,4C152,47.4,150.63,48.82,150.61,49.53Z"/><path class="cls-2" d="M159.27,47a19.44,19.44,0,0,1-8.74-.34c-2.05-.46-2.73-.57-3.3.46s-3,4.44-3.12,5.28-.08,1.56,1.75,1.56a18.41,18.41,0,0,0,4.79-1.1s4.29,2.09,5.17.87S159,47.33,159.27,47"/><path class="cls-4" d="M159.27,47a19.44,19.44,0,0,1-8.74-.34c-2.05-.46-2.73-.57-3.3.46s-3,4.44-3.12,5.28-.08,1.56,1.75,1.56a18.41,18.41,0,0,0,4.79-1.1s4.29,2.09,5.17.87S159,47.33,159.27,47Z"/><path class="cls-2" d="M108.1,47.41s2.35.92,6.81-1c2-.48,4.66-.08,5.24.94s3,4.42,3.18,5.25.09,1.56-1.73,1.58a18.24,18.24,0,0,1-4.8-1s-4.28,2.14-5.16.93-3.23-6.35-3.54-6.69"/><path class="cls-4" d="M108.1,47.41s2.35.92,6.81-1c2-.48,4.66-.08,5.24.94s3,4.42,3.18,5.25.09,1.56-1.73,1.58a18.24,18.24,0,0,1-4.8-1s-4.28,2.14-5.16.93S108.41,47.75,108.1,47.41Z"/><path class="cls-2" d="M151,52.84s-5.76-2.69-6.54-.34"/><path class="cls-4" d="M151,52.84s-5.76-2.69-6.54-.34"/><path class="cls-2" d="M117.14,53.17s5.27-3.09,6.59-.36"/><path class="cls-4" d="M117.14,53.17s5.27-3.09,6.59-.36"/><path class="cls-6" d="M151,30.74l-1.1-3.55m.13,3.49-.86-2.14M148.46,32l-.72-1.88m13.21.39,0-3M158.69,29l-.07-5.74m-1.09,4.28-.41-5.33m3,5.74.17-3.72m-3.2,3.85-.65-6.81m-.52,3.68-1.1-5m0,2.72-1.68-5.23m0,3.19-1.8-4.36m.14,2.65L149,14.66"/><path class="cls-2" d="M123.55,42.86l-.18.12-.08.15a.44.44,0,0,1-.16.12.59.59,0,0,0-.23.27h.65ZM124,44h-1.15c-.06.71-.37,1.06-.94,1.06-.16,0-.24,0-.24-.08l.06-.07.12,0a.77.77,0,0,0,.42-.39,2.19,2.19,0,0,0,.12-.55,4.53,4.53,0,0,1,.12-.62.55.55,0,0,1,.3-.36.6.6,0,0,0,.29-.21,4.31,4.31,0,0,1,.4-.43,3.25,3.25,0,0,1,.44-.42l.06.1Z"/><path class="cls-2" d="M125.46,44h-.76V41c0-.13,0-.19-.09-.19l-.09,0-.1,0,0-.06a.23.23,0,0,1,.11-.19l.2-.07c.07,0,.1,0,.1-.08v-.13a.32.32,0,0,1,.09-.19L125,40a1.12,1.12,0,0,0,.05-.15l.06-.07,0,.06v3.69h.32Z"/><path class="cls-2" d="M126.87,41.54a.27.27,0,0,1-.2-.09.3.3,0,0,1-.08-.2.28.28,0,0,1,.08-.2.27.27,0,0,1,.4,0,.28.28,0,0,1,.08.2.3.3,0,0,1-.08.2.25.25,0,0,1-.2.09m-.76,0a.27.27,0,0,1-.2-.09.3.3,0,0,1-.08-.2.28.28,0,0,1,.08-.2.27.27,0,0,1,.4,0,.25.25,0,0,1,.09.2.27.27,0,0,1-.09.2.25.25,0,0,1-.2.09M125.3,44v-.48h1.43v-.39c0-.13,0-.19-.09-.19l-.09,0-.1,0,0-.06a.22.22,0,0,1,.1-.19l.2-.08c.07,0,.11,0,.11-.06v-.14a.32.32,0,0,1,.08-.19l.13-.18a.63.63,0,0,1,0-.14l.06-.07,0,.06V44Z"/><path class="cls-2" d="M128.57,45a.28.28,0,0,1-.2-.08.3.3,0,0,1-.08-.21.27.27,0,0,1,.08-.19.28.28,0,0,1,.2-.08.29.29,0,0,1,.19.08.27.27,0,0,1,.08.19.3.3,0,0,1-.08.21.29.29,0,0,1-.19.08m-.75,0a.28.28,0,0,1-.2-.08.27.27,0,0,1-.09-.21.25.25,0,0,1,.09-.19.28.28,0,0,1,.2-.08.27.27,0,0,1,.19.08.24.24,0,0,1,.08.19.26.26,0,0,1-.08.21.27.27,0,0,1-.19.08M127,44v-.48h1.46V43.2c0-.16,0-.23-.13-.23h-.07l-.08,0,0,0c0-.11.07-.19.21-.26s.21-.12.21-.16v-.1a.37.37,0,0,1,.1-.24.41.41,0,0,0,.1-.18l0-.1,0-.06,0,.09v2Z"/><path class="cls-2" d="M130.93,39l-.09,0h-1c-.08,0-.12,0-.12,0l0,0,.17-.06.09,0v-.07l.05-.1,0,.07.11.08.08,0a.48.48,0,0,1,0-.12.25.25,0,0,1,.14-.22,1.91,1.91,0,0,1,.21-.14l0-.15,0-.08s.07.06.07.17l-.05.09,0,.1.06.06,0,.08,0,0-.05,0-.06,0c-.09,0-.13,0-.13.12l.09.09.11,0,.05,0,.18.24"/><path class="cls-2" d="M130.62,43.52a2.64,2.64,0,0,0-.31-.28,2.4,2.4,0,0,0-.27.28Zm.81.44-.06,0h-2.09l-.08-.06.07-.08a1.2,1.2,0,0,0,.18-.2l.18-.33a1.36,1.36,0,0,1,.29-.35l-.24-.14V41c0-.11,0-.16-.09-.16h-.09l-.05,0q0-.15.18-.21a.48.48,0,0,0,.17-.08v-.11s.05-.12.14-.31a1.33,1.33,0,0,1,.16-.29l0,.08v2.73l.21.13.22-.13V39.87c0-.07,0-.11,0-.11l.06.1a1.88,1.88,0,0,1,0,.19l.09.14.06.17v.1l.06.06.15,0a.24.24,0,0,1,.17.22l0,.05h-.1c-.07,0-.11.06-.11.18v1.87l-.27.14a1.19,1.19,0,0,1,.31.36l.24.4.13.15Z"/><path class="cls-2" d="M132.44,44H132V41c0-.13,0-.19-.09-.19l-.09,0-.09,0-.05-.06a.23.23,0,0,1,.11-.19l.2-.07c.07,0,.1,0,.1-.08v-.13a.32.32,0,0,1,.09-.19l.12-.18s0-.06,0-.15l.06-.07,0,.06Z"/><path class="cls-2" d="M135.1,41.24a.24.24,0,0,1-.19-.08.22.22,0,0,1-.08-.19.27.27,0,0,1,.08-.19.27.27,0,0,1,.2-.09.25.25,0,0,1,.19.09.27.27,0,0,1,.08.19.27.27,0,0,1-.28.27m.05,1.25-.16.1-.06.14a.46.46,0,0,1-.14.1.4.4,0,0,0-.2.26h.56Zm-.72-1.25a.27.27,0,0,1-.28-.27.27.27,0,0,1,.08-.19.25.25,0,0,1,.19-.09.27.27,0,0,1,.2.09.27.27,0,0,1,.08.19.26.26,0,0,1-.08.19.24.24,0,0,1-.19.08m.72,2.76v-.48h-1.27l-.08-.05.07-.09.17-.15a1.44,1.44,0,0,0,.14-.3,1.28,1.28,0,0,1,.19-.32.52.52,0,0,1,.18-.1l.12-.07a1.35,1.35,0,0,1,.3-.4,1.15,1.15,0,0,1,.19-.09.69.69,0,0,0,.25-.22.51.51,0,0,0,.08-.18l.07-.09,0,.07V44Z"/><path class="cls-2" d="M137,45a.3.3,0,0,1-.2-.08.3.3,0,0,1-.08-.21.27.27,0,0,1,.08-.19.3.3,0,0,1,.2-.08.26.26,0,0,1,.19.08.24.24,0,0,1,.08.19.26.26,0,0,1-.08.21A.26.26,0,0,1,137,45m-.75,0a.28.28,0,0,1-.2-.08.3.3,0,0,1-.08-.21.27.27,0,0,1,.08-.19.29.29,0,0,1,.4,0,.27.27,0,0,1,.08.19.3.3,0,0,1-.08.21.3.3,0,0,1-.2.08m-.83-1v-.48h1.46V43.2c0-.16,0-.23-.12-.23h-.08l-.07,0,0,0c0-.11.07-.19.21-.26s.21-.12.21-.16v-.1a.36.36,0,0,1,.09-.24.33.33,0,0,0,.1-.18l0-.1.05-.06,0,.09v2Z"/><path class="cls-2" d="M138.73,44H138V41c0-.13,0-.19-.08-.19l-.09,0-.1,0,0-.06a.22.22,0,0,1,.1-.19l.2-.07c.07,0,.11,0,.11-.08v-.13a.32.32,0,0,1,.09-.19l.13-.18a.8.8,0,0,1,0-.15l.06-.07,0,.06v3.69h.32Z"/><path class="cls-2" d="M138.57,44v-.48h.9c.08,0,.12,0,.12-.05a1.15,1.15,0,0,1-.07-.15.89.89,0,0,1-.06-.31.75.75,0,0,1,.47-.76l.65-.21a.59.59,0,0,0,.28-.53v-.08l0-.06.07.08,0,.16a.86.86,0,0,1-.07.38l-.11.2-.07.12a.56.56,0,0,0,.1.13.33.33,0,0,1,.11.26l0,.07a.76.76,0,0,0-.44-.21.43.43,0,0,0-.34.15.52.52,0,0,0-.14.35.43.43,0,0,0,.15.35.49.49,0,0,0,.35.13.41.41,0,0,0,.26-.09l.13-.15.08-.09c.05,0,.07.06.07.18l0,.14v.08l.05,0h.12l.19.09a.73.73,0,0,0,.2.13l.1,0,.05.06-.1,0Z"/><path class="cls-2" d="M142.37,45.12c-.23,0-.34,0-.34-.1s.08-.08.24-.09a1.57,1.57,0,0,0,.53-.13.92.92,0,0,0,.55-.87.57.57,0,0,0-.16-.4.47.47,0,0,0-.34-.17h-.22l0-.06q0-.12.18-.24a1.28,1.28,0,0,0,.18-.14v-.19a.65.65,0,0,1,.1-.33c.07-.13.12-.2.16-.2l0,.05v.19a.77.77,0,0,0,.15.43c.09.12.17.25.26.38a1.26,1.26,0,0,1,.15.62,1.06,1.06,0,0,1-.5,1,1.66,1.66,0,0,1-.92.24"/><path class="cls-2" d="M143.63,44v-.48h1.09V41q0-.21-.15-.21l-.07,0-.07,0-.05,0a.26.26,0,0,1,.1-.2,1,1,0,0,1,.21-.11c.08,0,.12-.05.13-.07a5.37,5.37,0,0,1,.29-.6l0,.1v4Z"/><path class="cls-2" d="M123.51,37.18a1.1,1.1,0,0,0,.95-.37,1.62,1.62,0,0,0,.2-.9V31.44c0-.23-.09-.35-.26-.35l-.14,0-.1,0-.06-.06a.48.48,0,0,1,.33-.44l.36-.14.35-.66s0-.08.06-.21l.09-.12s.06,0,.06.16v6.47A1.84,1.84,0,0,1,125,37.4a1.72,1.72,0,0,1-1.37.52,1.74,1.74,0,0,1-1.26-.44,1.65,1.65,0,0,1-.45-1.23,2.44,2.44,0,0,1,.22-1c.15-.35.28-.52.4-.52l.07.12a4,4,0,0,1-.14.42,2.39,2.39,0,0,0-.14.74,1.13,1.13,0,0,0,.33.83,1.22,1.22,0,0,0,.89.33"/><rect class="cls-2" x="124.88" y="35.35" width="0.25" height="0.77"/><rect class="cls-2" x="131.14" y="35.35" width="0.75" height="0.77"/><rect class="cls-2" x="134.14" y="35.35" width="2.21" height="0.77"/><rect class="cls-2" x="135.9" y="35.35" width="2.21" height="0.77"/><rect class="cls-2" x="140.02" y="35.35" width="0.42" height="0.77"/><rect class="cls-2" x="140.28" y="35.35" width="1.14" height="0.77"/><rect class="cls-2" x="124.88" y="35.35" width="0.25" height="0.77"/><rect class="cls-2" x="131.14" y="35.35" width="0.75" height="0.77"/><rect class="cls-2" x="134.14" y="35.35" width="2.21" height="0.77"/><rect class="cls-2" x="135.9" y="35.35" width="2.21" height="0.77"/><rect class="cls-2" x="140.02" y="35.35" width="0.42" height="0.77"/><rect class="cls-2" x="140.28" y="35.35" width="1.14" height="0.77"/><rect class="cls-2" x="124.88" y="35.35" width="0.25" height="0.77"/><rect class="cls-2" x="131.14" y="35.35" width="0.75" height="0.77"/><rect class="cls-2" x="134.14" y="35.35" width="2.21" height="0.77"/><rect class="cls-2" x="135.9" y="35.35" width="2.21" height="0.77"/><rect class="cls-2" x="140.02" y="35.35" width="0.42" height="0.77"/><rect class="cls-2" x="140.28" y="35.35" width="1.14" height="0.77"/><rect class="cls-2" x="124.88" y="35.35" width="0.25" height="0.77"/><rect class="cls-2" x="131.14" y="35.35" width="0.75" height="0.77"/><rect class="cls-2" x="134.14" y="35.35" width="2.21" height="0.77"/><rect class="cls-2" x="135.9" y="35.35" width="2.21" height="0.77"/><rect class="cls-2" x="140.02" y="35.35" width="0.42" height="0.77"/><rect class="cls-2" x="140.28" y="35.35" width="1.14" height="0.77"/><rect class="cls-2" x="124.88" y="35.35" width="0.25" height="0.77"/><rect class="cls-2" x="131.14" y="35.35" width="0.75" height="0.77"/><rect class="cls-2" x="134.14" y="35.35" width="2.21" height="0.77"/><rect class="cls-2" x="135.9" y="35.35" width="2.21" height="0.77"/><rect class="cls-2" x="140.02" y="35.35" width="0.42" height="0.77"/><rect class="cls-2" x="140.28" y="35.35" width="1.14" height="0.77"/><rect class="cls-2" x="124.88" y="35.35" width="0.25" height="0.77"/><rect class="cls-2" x="131.14" y="35.35" width="0.75" height="0.77"/><rect class="cls-2" x="134.14" y="35.35" width="2.21" height="0.77"/><rect class="cls-2" x="135.9" y="35.35" width="2.21" height="0.77"/><rect class="cls-2" x="140.02" y="35.35" width="0.42" height="0.77"/><rect class="cls-2" x="140.28" y="35.35" width="1.14" height="0.77"/><rect class="cls-2" x="124.88" y="35.35" width="0.25" height="0.77"/><rect class="cls-2" x="131.14" y="35.35" width="0.75" height="0.77"/><rect class="cls-2" x="134.14" y="35.35" width="2.21" height="0.77"/><rect class="cls-2" x="135.9" y="35.35" width="2.21" height="0.77"/><rect class="cls-2" x="140.02" y="35.35" width="0.42" height="0.77"/><rect class="cls-2" x="140.28" y="35.35" width="1.14" height="0.77"/><rect class="cls-2" x="124.88" y="35.35" width="0.25" height="0.77"/><rect class="cls-2" x="131.14" y="35.35" width="0.75" height="0.77"/><rect class="cls-2" x="134.14" y="35.35" width="2.21" height="0.77"/><rect class="cls-2" x="135.9" y="35.35" width="2.21" height="0.77"/><rect class="cls-2" x="140.02" y="35.35" width="0.42" height="0.77"/><rect class="cls-2" x="140.28" y="35.35" width="1.14" height="0.77"/><rect class="cls-2" x="124.88" y="35.35" width="0.25" height="0.77"/><rect class="cls-2" x="131.14" y="35.35" width="0.75" height="0.77"/><rect class="cls-2" x="134.14" y="35.35" width="2.21" height="0.77"/><rect class="cls-2" x="135.9" y="35.35" width="2.21" height="0.77"/><rect class="cls-2" x="140.02" y="35.35" width="0.42" height="0.77"/><rect class="cls-2" x="140.28" y="35.35" width="1.14" height="0.77"/><rect class="cls-2" x="124.88" y="35.35" width="0.25" height="0.77"/><rect class="cls-2" x="131.14" y="35.35" width="0.75" height="0.77"/><rect class="cls-2" x="134.14" y="35.35" width="2.21" height="0.77"/><rect class="cls-2" x="135.9" y="35.35" width="2.21" height="0.77"/><rect class="cls-2" x="140.02" y="35.35" width="0.42" height="0.77"/><rect class="cls-2" x="140.28" y="35.35" width="1.14" height="0.77"/><path class="cls-2" d="M140.23,36.12v-.77h2.47v-4c0-.21-.08-.32-.24-.32l-.11,0-.12,0-.07-.07a.4.4,0,0,1,.16-.31,1.63,1.63,0,0,1,.33-.18.47.47,0,0,0,.21-.1,6.87,6.87,0,0,1,.46-1c.06,0,.08,0,.08.15v6.46Z"/><path class="cls-2" d="M145.29,36.12h-.69V31.38c0-.2,0-.3-.14-.3l-.15.05-.15,0-.07-.1a.36.36,0,0,1,.17-.3,2.26,2.26,0,0,1,.32-.12c.11,0,.17-.08.17-.12v-.21a.54.54,0,0,1,.14-.31,2,2,0,0,0,.19-.29,1.34,1.34,0,0,0,.07-.22l.1-.11.06.09Z"/><path class="cls-2" d="M123.51,37.18a1.1,1.1,0,0,0,.95-.37,1.62,1.62,0,0,0,.2-.9V31.44c0-.23-.09-.35-.26-.35l-.14,0-.1,0-.06-.06a.48.48,0,0,1,.33-.44l.36-.14.35-.66s0-.08.06-.21l.09-.12s.06,0,.06.16v6.47A1.84,1.84,0,0,1,125,37.4a1.72,1.72,0,0,1-1.37.52,1.74,1.74,0,0,1-1.26-.44,1.65,1.65,0,0,1-.45-1.23,2.44,2.44,0,0,1,.22-1c.15-.35.28-.52.4-.52l.07.12a4,4,0,0,1-.14.42,2.39,2.39,0,0,0-.14.74,1.13,1.13,0,0,0,.33.83,1.22,1.22,0,0,0,.89.33"/><rect class="cls-2" x="124.88" y="35.35" width="0.25" height="0.77"/><path class="cls-2" d="M128.09,37.62a.43.43,0,0,1-.32-.14.44.44,0,0,1-.13-.33.44.44,0,0,1,.13-.32.46.46,0,0,1,.32-.13.46.46,0,0,1,.31.13.44.44,0,0,1,.13.32.44.44,0,0,1-.13.33.41.41,0,0,1-.31.14M125,36.12V35.4h3.45v-.62q0-.3-.15-.3l-.14,0-.15,0-.07-.1a.36.36,0,0,1,.17-.3l.32-.12c.11,0,.17-.07.17-.11l0-.11v-.1a.62.62,0,0,1,.14-.31,2.35,2.35,0,0,0,.21-.29,2,2,0,0,0,.06-.23l.09-.11.08.1v3.24Z"/><path class="cls-2" d="M131.42,36.12h-1.21V31.38c0-.2,0-.3-.14-.3l-.14.05-.16,0-.06-.1a.34.34,0,0,1,.17-.3,1.65,1.65,0,0,1,.31-.12c.11,0,.17-.08.17-.12v-.11l0-.1a.62.62,0,0,1,.14-.31,2.35,2.35,0,0,0,.21-.29l.06-.22.1-.11.07.09v5.87h.51Z"/><rect class="cls-2" x="131.14" y="35.35" width="0.75" height="0.77"/><path class="cls-2" d="M134,32.32a.45.45,0,0,1-.32-.77.48.48,0,0,1,.32-.13.42.42,0,0,1,.3.13.44.44,0,0,1,.13.32.41.41,0,0,1-.13.32.38.38,0,0,1-.3.13m-2.32,3.8v-.77h2.07v-.52c0-.18-.06-.27-.17-.27l-.12,0-.12,0-.06,0c0-.17.12-.31.34-.42s.33-.2.33-.31v-.16a4.23,4.23,0,0,1,.2-.44,2.56,2.56,0,0,1,.22-.41l.07.1v3.19Z"/><rect class="cls-2" x="134.14" y="35.35" width="2.21" height="0.77"/><rect class="cls-2" x="135.9" y="35.35" width="2.21" height="0.77"/><path class="cls-2" d="M137.16,36.12h-1.9v-.77h1.22v-.62q0-.18-.15-.18l-.1,0-.11,0-.08-.08c0-.13.11-.24.34-.32s.34-.14.34-.19v-.11a.58.58,0,0,1,.11-.4.88.88,0,0,0,.19-.32v-.11l.06-.07.07.12Z"/><path class="cls-2" d="M140.43,36.12h-3.49v-.77h1.21v-.67q0-.18-.15-.18l-.1,0-.11,0-.08-.08c0-.13.12-.24.35-.32s.34-.14.34-.19v-.11a.58.58,0,0,1,.1-.4.69.69,0,0,0,.2-.32l0-.11.05-.07.07.12v2.29h.9v-.79c0-.16-.08-.24-.22-.24l-.08,0h-.08l-.07-.08c0-.14.12-.25.34-.31s.33-.12.33-.16v-.17a.45.45,0,0,1,.12-.28,1.15,1.15,0,0,0,.18-.24.65.65,0,0,0,0-.22l.07-.12.07.12Z"/><rect class="cls-2" x="140.02" y="35.35" width="0.42" height="0.77"/><rect class="cls-2" x="140.28" y="35.35" width="1.14" height="0.77"/><path class="cls-2" d="M140.23,36.12v-.77h2.47v-4c0-.21-.08-.32-.24-.32l-.11,0-.12,0-.07-.07a.4.4,0,0,1,.16-.31,1.63,1.63,0,0,1,.33-.18.47.47,0,0,0,.21-.1,6.87,6.87,0,0,1,.46-1c.06,0,.08,0,.08.15v6.46Z"/><path class="cls-2" d="M145.29,36.12h-.69V31.38c0-.2,0-.3-.14-.3l-.15.05-.15,0-.07-.1a.36.36,0,0,1,.17-.3,2.26,2.26,0,0,1,.32-.12c.11,0,.17-.08.17-.12v-.21a.54.54,0,0,1,.14-.31,2,2,0,0,0,.19-.29,1.34,1.34,0,0,0,.07-.22l.1-.11.06.09Z"/><path d="M153.94,52.11l0-.13-.06-.13-.05.09-.08.05.12.1.07,0h0Zm-.2-.31v-.08l-.06,0h-.1l-.06.07s0,.08.1.15l.08,0Zm.32.32-.07.13-.1.07-.16-.1-.16-.15-.2,0h-.18l-.1,0,0-.19.09,0h.21l-.05-.06,0-.06v0l0,0,.15-.16.06,0h0l-.06-.09.08-.1.07-.08.13.23a3.54,3.54,0,0,1,.14.33.65.65,0,0,1,0,.28"/><path d="M154,49.1a1.58,1.58,0,0,0,0,.51c0,.12.07.18.15.2l.13,0a.39.39,0,0,0,.13-.15,2.25,2.25,0,0,0,.18-.51,1.37,1.37,0,0,0,0-.43.28.28,0,0,0-.06-.2l-.09-.06-.15,0a.69.69,0,0,0-.17.26,2.65,2.65,0,0,0-.12.37m-.2-.08a1.41,1.41,0,0,1,.17-.41.61.61,0,0,1,.27-.22.31.31,0,0,1,.21,0,.37.37,0,0,1,.27.24,1,1,0,0,1,0,.61,1.16,1.16,0,0,1-.18.42.66.66,0,0,1-.24.21.35.35,0,0,1-.24,0,.4.4,0,0,1-.29-.33,1,1,0,0,1,0-.53"/><path d="M150.77,47.69l.39-.09h0l-.29,1.23a.94.94,0,0,0,0,.16l0,0,.12.05v0l-.55-.13v0l.14,0,.05,0a.75.75,0,0,0,0-.16l.19-.79a1.35,1.35,0,0,0,0-.2v-.06l-.05,0h-.11Z"/><path d="M152.08,48.82l.17-.72-.68.6Zm.38.09,0,.15-.2,0-.09.38-.18,0,.1-.39-.62-.14,0-.14.9-.81.12,0-.22,1Z"/><path d="M153.48,49.42l-.17.26-.86-.2v0a4.06,4.06,0,0,0,.67-.44.78.78,0,0,0,.25-.37.36.36,0,0,0,0-.25.24.24,0,0,0-.18-.13H153l-.17.16h0a.5.5,0,0,1,.21-.27.39.39,0,0,1,.3,0,.41.41,0,0,1,.27.19.39.39,0,0,1,.06.3l-.11.21a1.48,1.48,0,0,1-.34.3l-.42.28.38.09.17,0,.09,0,.08-.06Z"/><path d="M150.41,50.1l-.12.13-.15-.13.12-.14Zm-.29.78v-.12l-.17,0-.11.08.05,0,.08,0Zm0-.75-.11.14-.16-.13L150,50Zm.24,1.32-.15,0s-.09-.06-.11-.16a2.18,2.18,0,0,1,0-.27l-.1.07h-.11l-.21-.07-.07-.06a.31.31,0,0,1,.17-.17,1.11,1.11,0,0,1,.35-.13v-.1l.05-.07.07-.07v.28l0,.19v.24c0,.08,0,.12,0,.13l.16,0Z"/><path d="M150.87,51.79l-.12.14-.16-.14.12-.13Zm-.27,0-.12.14-.16-.14.12-.13Zm.32-.25-.61-.15,0-.19.54.13a.47.47,0,0,0,0-.2l-.07-.16.13-.15A.58.58,0,0,1,151,51a1.23,1.23,0,0,1,0,.28Z"/><path d="M152,51.83a.4.4,0,0,1-.16.22.82.82,0,0,1-.26.14.33.33,0,0,1-.23,0l-.15-.06-.15-.08-.14-.1,0,0,.14.07.14,0a.45.45,0,0,0,.3,0,.69.69,0,0,0,.28-.15.31.31,0,0,0,.15-.2v-.19l-.08-.18.1-.15.09.19a.41.41,0,0,1,0,.22Z"/><path d="M152.56,52.21l-.11.13-.16-.13.12-.14Zm.61-.11-1.25-.29.05-.19.88.21-.16-.18-.15-.12-.17-.07-.11,0,.11-.11.2,0a.63.63,0,0,1,.24.17l.19.26c.07.1.12.16.15.17l.06,0Z"/><path d="M116.86,50.51v.08a1.12,1.12,0,0,0-.25-.23c-.12-.08-.2-.12-.26-.1l0,0,0,0h-.1l-.16-.08-.11-.16,0-.08a.76.76,0,0,1,.27,0,1.53,1.53,0,0,1,.39.17.6.6,0,0,1,.25.31m.61.44-.07,0-.18-.06a.82.82,0,0,1-.16-.35l0,0v0a1.66,1.66,0,0,1-.08.45.48.48,0,0,1-.23.24,2.82,2.82,0,0,1-.5.18v0l.4-.27a1.17,1.17,0,0,0,.28-.34.55.55,0,0,0,0-.42l-.06-.19-.09-.18v-.21q.08.15.15.33c0,.08.07.17.11.26s.08.2.11.27a.63.63,0,0,0,.11.18l.07,0,.07,0Z"/><path d="M118.07,51l0,.18-.2,0,0-.18Zm-.22.17,0,.18-.2,0,0-.18Zm.17-.38-.62.17-.05-.19.54-.15a.48.48,0,0,0-.09-.19l-.14-.11,0-.2.14.13a1.3,1.3,0,0,1,.11.27Z"/><path d="M113.47,48.09l.32-.27h0l.34,1.24c0,.09,0,.14.06.15l0,0,.14,0v0l-.56.15v0l.13,0,0-.06s0-.07,0-.16l-.21-.79c0-.11-.06-.18-.07-.21l0,0h-.06l-.1.06Z"/><path d="M115.28,48.24a1.2,1.2,0,0,0,0-.23l-.1-.22-.15-.16-.17,0-.14.13a.34.34,0,0,0,0,.28.53.53,0,0,0,.19.33l.2,0,.11-.06Zm-.46.95v0a.56.56,0,0,0,.24-.13.8.8,0,0,0,.18-.29,1.32,1.32,0,0,0,.06-.39.63.63,0,0,1-.28.19.36.36,0,0,1-.3,0,.48.48,0,0,1-.2-.29.62.62,0,0,1,0-.38.42.42,0,0,1,.65-.21.68.68,0,0,1,.28.41.91.91,0,0,1,0,.49,1,1,0,0,1-.24.45.72.72,0,0,1-.35.22Z"/><path d="M116.4,47.94c0-.1,0-.18,0-.23l-.1-.22-.16-.16-.16,0-.15.14a.44.44,0,0,0,0,.28.66.66,0,0,0,.19.33l.2,0,.11-.05Zm-.47.94v0a.58.58,0,0,0,.24-.14.72.72,0,0,0,.18-.29.84.84,0,0,0,.06-.39.61.61,0,0,1-.28.2.36.36,0,0,1-.3,0,.47.47,0,0,1-.19-.29.58.58,0,0,1,0-.37.44.44,0,0,1,.3-.28.4.4,0,0,1,.35.06.75.75,0,0,1,.29.42,1,1,0,0,1-.24.93.62.62,0,0,1-.35.22Z"/><path d="M117.51,47.63c0-.09,0-.17,0-.23l-.1-.22-.15-.16-.17,0-.15.13a.44.44,0,0,0,0,.28.6.6,0,0,0,.2.33l.2,0,.11-.06Zm-.47.95v0a.59.59,0,0,0,.42-.43.89.89,0,0,0,.06-.39.56.56,0,0,1-.27.19.35.35,0,0,1-.3,0,.4.4,0,0,1-.2-.28.55.55,0,0,1,0-.38.41.41,0,0,1,.29-.28.43.43,0,0,1,.36.07.68.68,0,0,1,.28.41.91.91,0,0,1,0,.49,1.31,1.31,0,0,1-.24.45.77.77,0,0,1-.35.22Z"/><path d="M114.55,50.45l0,.18-.2-.05,0-.17Zm.12.84-.06-.11-.12.11-.07.12h.14Zm-.34-.67,0,.18-.2,0,0-.18Zm.85,1.06-.15,0c-.06,0-.11,0-.18-.1a1,1,0,0,1-.14-.24l-.06.12-.09.07-.22,0-.09,0a.32.32,0,0,1,.06-.25,1.58,1.58,0,0,1,.25-.28l0,0,0-.05v-.09l0-.09.06.13.06.12.08.18.11.22.1.09.16,0Z"/><path d="M115.78,51.75l0,.18-.2,0,0-.18Zm-.22.16,0,.18-.2,0,0-.18Zm.17-.38-.62.17-.06-.19.54-.15a.49.49,0,0,0-.08-.19l-.14-.1,0-.21.14.13a1,1,0,0,1,.1.27Z"/><path d="M116.48,51.32l-.49.14h-.12l-.07-.07,0-.08v-.08h0l.06.05h.08l.42-.12a.84.84,0,0,0-.14-.3.37.37,0,0,0-.28-.13l0-.22a.57.57,0,0,1,.35.22,1.21,1.21,0,0,1,.17.41Z"/><path d="M118.71,50.39l-.08-.12-.09-.09-.08.08,0,.09.13,0h.15Zm.19.18-.12,0h-.17a.79.79,0,0,1-.22-.06l-.1.15a.43.43,0,0,1-.18.08l-.17,0,0-.19.17,0,.16-.1.08-.14a.71.71,0,0,1,.11-.21l.14-.12.18.17.11.19Z"/><path class="cls-7" d="M145.74,20.6a20.24,20.24,0,0,0-2.64-1.51m-19.23.15a22.6,22.6,0,0,0-2.26,1.49m23.76-1.81a22,22,0,0,0-6.66-2.8m-10.18,0a22.72,22.72,0,0,0-6.68,2.93m25.44-.43a23,23,0,0,0-27.09,0m27.06-1.7a24.62,24.62,0,0,0-8.46-3.55m-10.26,0a23.22,23.22,0,0,0-8.39,3.61m29.47.57a25.28,25.28,0,0,0-6.54-3.86m-19.19.12a25.92,25.92,0,0,0-6,3.68"/><path class="cls-2" d="M18.4,40.78a3,3,0,0,1-1.17-1.17,5.05,5.05,0,0,1-.52-1.76,21.29,21.29,0,0,1-.11-2.2h1.67a14.14,14.14,0,0,0,.11,1.89,3.36,3.36,0,0,0,.38,1.24,1.58,1.58,0,0,0,.7.68,2.43,2.43,0,0,0,1.07.21,2.28,2.28,0,0,0,1-.21,1.48,1.48,0,0,0,.65-.68,3.62,3.62,0,0,0,.34-1.24,16.59,16.59,0,0,0,.09-1.89v-6.9h1.85v6.6a1.71,1.71,0,0,0,.09.61.8.8,0,0,0,.27.37,1,1,0,0,0,.43.18,3.54,3.54,0,0,0,.6,0h.27a.58.58,0,0,1,.19,0c.06,0,.09.07.09.15V38c0,.09-.1.14-.28.14H25.9a1.48,1.48,0,0,1-.84-.26,1.67,1.67,0,0,1-.34-.31.75.75,0,0,1-.19-.39h-.06a11.06,11.06,0,0,1-.32,1.77,3.35,3.35,0,0,1-.67,1.27,2.76,2.76,0,0,1-1.17.77,5.53,5.53,0,0,1-1.82.26A4.38,4.38,0,0,1,18.4,40.78Z"/><path class="cls-2" d="M25.89,38V36.73c0-.08,0-.14.09-.15a.54.54,0,0,1,.19,0h1.46V32.27h1.85v5.82H26.17C26,38.09,25.89,38,25.89,38Zm3.58,1.38v1.53H27.62V39.33Z"/><path class="cls-2" d="M34,36.58c.06,0,.09.07.09.15V38c0,.09-.09.14-.28.14H31.05V28.75H32.9v7.8h.94A.54.54,0,0,1,34,36.58Z"/><path class="cls-2" d="M33.57,38V36.73c0-.08,0-.14.08-.15a.58.58,0,0,1,.19,0h.54a1,1,0,0,0,.28,0,.75.75,0,0,0,.3-.17.93.93,0,0,0,.23-.31,1.21,1.21,0,0,0,.09-.5V32.27h1.85v3a1.63,1.63,0,0,0,.1.58,1.16,1.16,0,0,0,.26.4.89.89,0,0,0,.35.23,1.16,1.16,0,0,0,.4.07h.46a.58.58,0,0,1,.19,0c.06,0,.08.07.08.15V38c0,.09-.09.14-.27.14h-.46a1.4,1.4,0,0,1-.49-.08,2.22,2.22,0,0,1-.47-.2,2,2,0,0,1-.41-.29,2.06,2.06,0,0,1-.33-.33,2.22,2.22,0,0,1-.52.45,4.36,4.36,0,0,1-.59.27,2.63,2.63,0,0,1-.57.14,2.9,2.9,0,0,1-.48,0h-.54C33.66,38.09,33.57,38,33.57,38Zm3.51-9.2v1.53H35.23V28.75Z"/><path class="cls-2" d="M45.81,37.89a1.26,1.26,0,0,1-.57-.62h-.05a1.93,1.93,0,0,1-.69.65,2.38,2.38,0,0,1-1.11.21,2.11,2.11,0,0,1-1.1-.24,1.29,1.29,0,0,1-.54-.62h0a.7.7,0,0,1-.12.22,1.92,1.92,0,0,1-.29.27,1.74,1.74,0,0,1-.4.23,1.18,1.18,0,0,1-.48.1H38.7c-.19,0-.28-.05-.28-.14V36.73c0-.08,0-.14.09-.15a.54.54,0,0,1,.19,0h.73a.68.68,0,0,0,.53-.21,1,1,0,0,0,.2-.7V32.79H42V35.7a1,1,0,0,0,.19.71.91.91,0,0,0,.68.21c.32,0,.53-.07.62-.21a1.38,1.38,0,0,0,.14-.71V32.54H45.5V35.7a.94.94,0,0,0,.23.71,1,1,0,0,0,.71.21.83.83,0,0,0,.66-.21,1.17,1.17,0,0,0,.17-.71V32.27h1.85v3.37a1,1,0,0,0,.2.7.69.69,0,0,0,.53.21h1.09a.58.58,0,0,1,.19,0s.08.07.08.15V38c0,.09-.09.14-.27.14h-.73a1.32,1.32,0,0,1-.39-.06,1.68,1.68,0,0,1-.39-.16,1.42,1.42,0,0,1-.34-.25,1,1,0,0,1-.23-.35h0a1.85,1.85,0,0,1-.72.65,2.6,2.6,0,0,1-1.15.21A2.28,2.28,0,0,1,45.81,37.89Z"/><path class="cls-2" d="M52.71,28.75h1.85v9.34H50.93c-.18,0-.28-.05-.28-.14V36.73c0-.08,0-.14.09-.15a.58.58,0,0,1,.19,0h1.78Z"/><path class="cls-2" d="M56.13,28.75H58v9.34H56.13Z"/><path class="cls-2" d="M69.12,36.58c.06,0,.09.07.09.15V38c0,.09-.09.14-.28.14h-.64a2.31,2.31,0,0,1-.52-.06,2.28,2.28,0,0,1-.51-.21,2.36,2.36,0,0,1-.42-.36,1.79,1.79,0,0,1-.3-.53,1.88,1.88,0,0,1-.64.6,2,2,0,0,1-1,.18,2.82,2.82,0,0,1-1.11-.21,2.77,2.77,0,0,1-.86-.6,2.62,2.62,0,0,1-.56-.92,3.5,3.5,0,0,1-.2-1.19,6,6,0,0,1,.12-1.22,2.72,2.72,0,0,1,.42-1,2,2,0,0,1,.81-.68,3,3,0,0,1,1.32-.25h2.75v3.55a1.74,1.74,0,0,0,.24,1.06,1,1,0,0,0,.82.3h.23A.54.54,0,0,1,69.12,36.58Zm-3.74-7.83v1.49H63.89V28.75Zm.34,7.16a2.61,2.61,0,0,0,.17-1.1V33.13h-1a.72.72,0,0,0-.7.48A2.9,2.9,0,0,0,64,34.79a2.28,2.28,0,0,0,.21,1.05.87.87,0,0,0,.85.4A.71.71,0,0,0,65.72,35.91Zm1.63-7.16v1.49h-1.5V28.75Z"/><path class="cls-2" d="M68.66,38V36.73c0-.08,0-.14.08-.15a.58.58,0,0,1,.19,0h.54a1,1,0,0,0,.28,0,.75.75,0,0,0,.3-.17,1.09,1.09,0,0,0,.23-.31,1.21,1.21,0,0,0,.09-.5V32.27h1.85v3a1.44,1.44,0,0,0,.1.58,1.3,1.3,0,0,0,.25.4,1,1,0,0,0,.36.23,1.16,1.16,0,0,0,.4.07h.46a.58.58,0,0,1,.19,0c.06,0,.08.07.08.15V38c0,.09-.09.14-.27.14h-.46a1.4,1.4,0,0,1-.49-.08,2.22,2.22,0,0,1-.47-.2,2.42,2.42,0,0,1-.42-.29,2.48,2.48,0,0,1-.32-.33,2.22,2.22,0,0,1-.52.45,4.36,4.36,0,0,1-.59.27,2.63,2.63,0,0,1-.57.14,2.9,2.9,0,0,1-.48,0h-.54C68.75,38.09,68.66,38,68.66,38ZM71,39.37v1.49H69.53V39.37Zm2,0v1.49h-1.5V39.37Z"/><path class="cls-2" d="M76.37,36.5a3.08,3.08,0,0,1-.48-.93c-.14-.4-.28-.82-.41-1.27S75.2,33.43,75,33a2.58,2.58,0,0,0-.59-1v-.23h4.43a4.3,4.3,0,0,1,1,.12,2.07,2.07,0,0,1,.81.41,2,2,0,0,1,.52.77,3.41,3.41,0,0,1,.19,1.19,3.61,3.61,0,0,1-.05.53c0,.2-.09.39-.15.59s-.14.38-.23.57a2.92,2.92,0,0,1-.25.47v.06h1.36a.58.58,0,0,1,.19,0s.08.07.08.15V38c0,.09-.09.14-.27.14H73.79c-.19,0-.28-.05-.28-.14V36.73c0-.08,0-.14.09-.15a.54.54,0,0,1,.19,0h2.58ZM79,36.39a1.92,1.92,0,0,0,.34-.6A4.58,4.58,0,0,0,79.5,35a4.27,4.27,0,0,0,.07-.75c0-.63-.28-1-.86-1H76.8a1.19,1.19,0,0,1,.27.44c.08.2.17.42.24.66s.16.5.25.76a7.16,7.16,0,0,0,.26.71,2.18,2.18,0,0,0,.3.53.46.46,0,0,0,.36.21A.59.59,0,0,0,79,36.39Z"/><path class="cls-2" d="M85.13,38.16a3.13,3.13,0,0,1-1-1,1.76,1.76,0,0,1-.68.64,1.87,1.87,0,0,1-1,.26H82.1c-.18,0-.27-.05-.27-.14V36.73c0-.08,0-.14.08-.15a.58.58,0,0,1,.19,0h.25a2.15,2.15,0,0,0,.43,0,1.38,1.38,0,0,0,.39-.15.83.83,0,0,0,.28-.28.7.7,0,0,0,.12-.42V35a3.79,3.79,0,0,1,.79-2.56,3.21,3.21,0,0,1,4.52,0,3.79,3.79,0,0,1,.8,2.56v.62a.77.77,0,0,0,.11.42.93.93,0,0,0,.28.28,1.38,1.38,0,0,0,.39.15,2.09,2.09,0,0,0,.43,0h.25a.58.58,0,0,1,.19,0c.06,0,.09.07.09.15V38c0,.09-.1.14-.28.14H90.8a1.89,1.89,0,0,1-1-.26,1.83,1.83,0,0,1-.68-.64,2.71,2.71,0,0,1-2.52,1.29A2.92,2.92,0,0,1,85.13,38.16Zm.89-5a1.17,1.17,0,0,0-.34.47,2.14,2.14,0,0,0-.15.65q0,.36,0,.72c0,.25,0,.49,0,.73a2.07,2.07,0,0,0,.15.64,1.1,1.1,0,0,0,.34.47,1.14,1.14,0,0,0,1.2,0,1.1,1.1,0,0,0,.34-.47,2.07,2.07,0,0,0,.15-.64c0-.24,0-.48,0-.73s0-.48,0-.72a2.14,2.14,0,0,0-.15-.65,1.17,1.17,0,0,0-.34-.47,1.09,1.09,0,0,0-1.2,0Z"/><path class="cls-2" d="M96,33.36a1.41,1.41,0,0,0-1.22-.49,1.59,1.59,0,0,0-.68.13,1.54,1.54,0,0,0-.48.34,1.63,1.63,0,0,0-.3.51,2,2,0,0,0-.09.59H91.55a3.25,3.25,0,0,1,.23-1.23,2.62,2.62,0,0,1,.66-1,3,3,0,0,1,1-.62,3.66,3.66,0,0,1,1.32-.22,4,4,0,0,1,1.55.27A2.8,2.8,0,0,1,98,33.49a4.06,4.06,0,0,1,.2,1.32v2.43a3.66,3.66,0,0,0,0,.37,2.14,2.14,0,0,0,.13.48H91.14c-.19,0-.28-.05-.28-.14V36.73c0-.08,0-.14.09-.15a.54.54,0,0,1,.19,0h5.29a1.09,1.09,0,0,1-.06-.34c0-.15,0-.29,0-.42v-1A2.37,2.37,0,0,0,96,33.36Zm-.37,6v1.53H93.77V39.33Z"/><path class="cls-2" d="M20.24,53.86a.94.94,0,0,0-.4.29,1,1,0,0,0-.2.42,2.52,2.52,0,0,0-.05.48v1.82h-1.1V55.06a3.33,3.33,0,0,1,.1-.86,1.86,1.86,0,0,1,.33-.71,1.63,1.63,0,0,1,.62-.5,2.79,2.79,0,0,1,1-.26v-.06a1.36,1.36,0,0,1-.21-.39,3.81,3.81,0,0,1-.19-.57c-.06-.21-.1-.43-.14-.65a4.7,4.7,0,0,1-.05-.63A5.52,5.52,0,0,1,20.09,49,2.82,2.82,0,0,1,20.57,48a2.07,2.07,0,0,1,.83-.66,3,3,0,0,1,1.22-.23,2.4,2.4,0,0,1,2.06.87,4.11,4.11,0,0,1,.64,2.48,4.08,4.08,0,0,1-.64,2.47,2.42,2.42,0,0,1-2.06.86H20.91A1.78,1.78,0,0,0,20.24,53.86Zm.92-2.49a2,2,0,0,0,.24.74,1.25,1.25,0,0,0,.47.47,1.39,1.39,0,0,0,.75.17,1.44,1.44,0,0,0,.75-.17,1.25,1.25,0,0,0,.47-.47,2.22,2.22,0,0,0,.25-.74,6.35,6.35,0,0,0,0-1.88,2,2,0,0,0-.25-.7,1.13,1.13,0,0,0-.47-.45,1.54,1.54,0,0,0-.75-.16,1.49,1.49,0,0,0-.75.16,1.13,1.13,0,0,0-.47.45,1.81,1.81,0,0,0-.24.7,6.35,6.35,0,0,0,0,1.88Z"/><path class="cls-2" d="M29.1,52.73c.06,0,.09.07.09.15v.73c0,.1-.1.15-.28.15H26.76V44.42h1.11V52.7h1A.58.58,0,0,1,29.1,52.73Z"/><path class="cls-2" d="M28.63,53.61v-.73c0-.08,0-.14.09-.15a.58.58,0,0,1,.19,0h2.23c.19,0,.29,0,.29.14v.73c0,.09,0,.14-.08.16a.66.66,0,0,1-.21,0H28.91C28.73,53.76,28.63,53.71,28.63,53.61Z"/><path class="cls-2" d="M30.87,53.61v-.73c0-.08,0-.14.08-.15a.58.58,0,0,1,.19,0h2.23c.2,0,.29,0,.29.14v.73c0,.09,0,.14-.08.16a.66.66,0,0,1-.21,0H31.14Q30.87,53.76,30.87,53.61Z"/><path class="cls-2" d="M33.1,53.61v-.73c0-.08,0-.14.08-.15a.58.58,0,0,1,.19,0h2.24c.19,0,.28,0,.28.14v.73c0,.09,0,.14-.08.16a.6.6,0,0,1-.2,0H33.37Q33.1,53.76,33.1,53.61Z"/><path class="cls-2" d="M35.33,53.61v-.73c0-.08,0-.14.09-.15a.54.54,0,0,1,.19,0h2.23c.19,0,.29,0,.29.14v.73c0,.09,0,.14-.09.16a.6.6,0,0,1-.2,0H35.61C35.42,53.76,35.33,53.71,35.33,53.61Z"/><path class="cls-2" d="M41.74,53.67a2.5,2.5,0,0,1-.55-.25,2.73,2.73,0,0,1-.45-.36,1.34,1.34,0,0,1-.29-.44,1.9,1.9,0,0,1-.82.86,2.19,2.19,0,0,1-1.09.28h-.7c-.19,0-.28,0-.28-.15v-.73c0-.08,0-.14.09-.15a.54.54,0,0,1,.19,0h.72a1.15,1.15,0,0,0,.77-.29,1.37,1.37,0,0,0,.32-1V47.93h1.1v3a2,2,0,0,0,.12.71,1.82,1.82,0,0,0,.34.56,1.6,1.6,0,0,0,.49.36,1.41,1.41,0,0,0,.6.13h.44a.48.48,0,0,1,.18,0c.06,0,.09.07.09.15v.73q0,.15-.27.15H42.3A1.87,1.87,0,0,1,41.74,53.67ZM39.93,44.4v1.53H38.82V44.4Zm1.69,0v1.53h-1.1V44.4Z"/><path class="cls-2" d="M42.46,53.61v-.73c0-.08,0-.14.08-.15a.58.58,0,0,1,.19,0H45c.19,0,.28,0,.28.14v.73c0,.09,0,.14-.08.16a.64.64,0,0,1-.2,0H42.73Q42.46,53.76,42.46,53.61Z"/><path class="cls-2" d="M46.53,47.93h1.11v5.83H45c-.19,0-.28,0-.28-.15v-.73c0-.08,0-.14.09-.15a.58.58,0,0,1,.19,0h1.55ZM46,55v1.53H44.85V55Zm1.7,0v1.53H46.55V55Z"/><path class="cls-2" d="M53.4,52.7V44.42h1.1v9.34H48.75V52.7h1.32V46.83h1.1V52.7ZM50,44.6v0a1.37,1.37,0,0,1-.17-.28.92.92,0,0,1-.07-.36,1,1,0,0,1,.24-.68,1.12,1.12,0,0,1,1.41,0,.86.86,0,0,1,.29.7h-.45a.56.56,0,0,0-.15-.34.41.41,0,0,0-.35-.16.46.46,0,0,0-.34.15.6.6,0,0,0-.14.44.61.61,0,0,0,.16.46.57.57,0,0,0,.4.15h.94v.47H49.51V44.6Z"/><path class="cls-2" d="M56.19,44.42H57.3v9.34H56.19Z"/><path class="cls-2" d="M66.32,53.37a2.27,2.27,0,0,1-.73-1A1.74,1.74,0,0,1,65,53a1.77,1.77,0,0,1-1,.26,2.32,2.32,0,0,1-.92-.18,1.91,1.91,0,0,1-.74-.53,2.59,2.59,0,0,1-.49-.9,4.08,4.08,0,0,1-.18-1.28,6.4,6.4,0,0,1,.1-1.18,2.82,2.82,0,0,1,.34-1,1.85,1.85,0,0,1,.73-.68,2.66,2.66,0,0,1,1.21-.24h2.37v3.74a2.67,2.67,0,0,0,.1.81,1.39,1.39,0,0,0,.27.5,1,1,0,0,0,.4.26,1.56,1.56,0,0,0,.48.08H68a.52.52,0,0,1,.18,0c.06,0,.09.07.09.15v.73q0,.15-.27.15h-.37A2.16,2.16,0,0,1,66.32,53.37ZM65,51.84a1.82,1.82,0,0,0,.35-1.24V48.36H64.05a1.1,1.1,0,0,0-.59.16,1.16,1.16,0,0,0-.39.43,2,2,0,0,0-.22.65,5.31,5.31,0,0,0-.07.81,2.49,2.49,0,0,0,.31,1.35,1,1,0,0,0,.91.47A1.22,1.22,0,0,0,65,51.84Zm-.91-7.44v1.53H63V44.4Zm1.7,0v1.53H64.65V44.4Z"/><path class="cls-2" d="M67.76,53.61v-.73c0-.08,0-.14.08-.15a.58.58,0,0,1,.19,0h2.23c.2,0,.29,0,.29.14v.73c0,.09,0,.14-.08.16a.66.66,0,0,1-.21,0H68Q67.76,53.76,67.76,53.61Z"/><path class="cls-2" d="M70,53.61v-.73c0-.08,0-.14.08-.15a.58.58,0,0,1,.19,0H72.5c.19,0,.28,0,.28.14v.73c0,.09,0,.14-.08.16a.6.6,0,0,1-.2,0H70.26Q70,53.76,70,53.61Z"/><path class="cls-2" d="M74.06,47.93h1.11v5.83H72.51c-.18,0-.28,0-.28-.15v-.73c0-.08,0-.14.09-.15a.58.58,0,0,1,.19,0h1.55ZM73.49,55v1.53H72.38V55Zm1.7,0v1.53H74.08V55Z"/><path class="cls-2" d="M79.21,52.73c.06,0,.09.07.09.15v.73c0,.1-.09.15-.28.15H76.87V44.42H78V52.7h1A.54.54,0,0,1,79.21,52.73Z"/><path class="cls-2" d="M78.75,53.61v-.73c0-.08,0-.14.08-.15a.58.58,0,0,1,.19,0h2.24c.19,0,.28,0,.28.14v.73c0,.09,0,.14-.08.16a.64.64,0,0,1-.2,0H79Q78.75,53.76,78.75,53.61Z"/><path class="cls-2" d="M83.42,52.65a2,2,0,0,1-.26-.39,4,4,0,0,1-.23-.59,4.78,4.78,0,0,1-.17-.7,3.68,3.68,0,0,1-.07-.73A5.05,5.05,0,0,1,82.84,49a2.79,2.79,0,0,1,.46-1,2,2,0,0,1,.77-.65,2.51,2.51,0,0,1,1.1-.23,1.93,1.93,0,0,1,1.76.89,2.76,2.76,0,0,1,.38.93A6.26,6.26,0,0,1,87.43,50H86.32a5.17,5.17,0,0,0-.07-.71,1.85,1.85,0,0,0-.19-.56,1,1,0,0,0-.36-.38,1,1,0,0,0-.53-.14c-.87,0-1.3.69-1.3,2.06a4.14,4.14,0,0,0,.08,1,2.83,2.83,0,0,0,.22.79,1.41,1.41,0,0,0,.44.52,1.13,1.13,0,0,0,.67.19h2.26v1.06H81.25q-.27,0-.27-.15v-.73c0-.08,0-.14.09-.15a.52.52,0,0,1,.18,0h2.17Z"/><path class="cls-2" d="M92.8,52.73c.06,0,.09.07.09.15v.73c0,.1-.09.15-.28.15h-.43a.84.84,0,0,1-.32-.07,1.45,1.45,0,0,1-.34-.19,1.72,1.72,0,0,1-.29-.31,1,1,0,0,1-.17-.4v1c0,.5,0,.93,0,1.31a3.07,3.07,0,0,1-.23,1,1.36,1.36,0,0,1-.5.58,1.65,1.65,0,0,1-.89.21,2.17,2.17,0,0,1-.47,0,1.6,1.6,0,0,1-.3-.08,1.33,1.33,0,0,1-.24-.12V55.57a1.75,1.75,0,0,0,.85.23.81.81,0,0,0,.42-.1.61.61,0,0,0,.21-.33,2.83,2.83,0,0,0,.08-.61c0-.25,0-.57,0-.95V47.93h1.11v3.33a1.6,1.6,0,0,0,.32,1.08,1,1,0,0,0,.82.36h.41A.54.54,0,0,1,92.8,52.73Z"/><path class="cls-2" d="M92.34,53.61v-.73c0-.08,0-.14.08-.15a.58.58,0,0,1,.19,0h2.24c.19,0,.28,0,.28.14v.73c0,.09,0,.14-.08.16a.64.64,0,0,1-.2,0H92.61Q92.34,53.76,92.34,53.61Z"/><path class="cls-2" d="M97,44.42h1.1v9.34H94.84q-.27,0-.27-.15v-.73c0-.08,0-.14.08-.15a.58.58,0,0,1,.19,0H97Z"/></svg>