<svg id="Layer_1" data-name="Layer 1" xmlns="http://www.w3.org/2000/svg" viewBox="0 0 180 80"><defs><style>.cls-1{fill:#3ac701;}.cls-2{fill:#fff;}.cls-3,.cls-4{fill:none;stroke:#fff;stroke-miterlimit:10;}.cls-3{stroke-width:0.24px;}.cls-4{stroke-width:0.21px;}</style></defs><title>01</title><path class="cls-1" d="M88.72,41.23c.07,0,.1.09.1.2v1.49c0,.12-.11.18-.34.18H87.7a2.82,2.82,0,0,1-.65-.08,2.23,2.23,0,0,1-1.14-.7,2.26,2.26,0,0,1-.37-.65,2.45,2.45,0,0,1-.78.74,2.53,2.53,0,0,1-1.18.22,3.47,3.47,0,0,1-1.36-.26,3.32,3.32,0,0,1-1.06-.74,3.24,3.24,0,0,1-.69-1.13A4,4,0,0,1,80.22,39a7.17,7.17,0,0,1,.15-1.49,3.53,3.53,0,0,1,.51-1.24,2.52,2.52,0,0,1,1-.83,3.61,3.61,0,0,1,1.61-.31h3.39v4.37a2.1,2.1,0,0,0,.3,1.3,1.2,1.2,0,0,0,1,.37h.29A.88.88,0,0,1,88.72,41.23Zm-4.61-9.62v1.83H82.28V31.61Zm.41,8.81a3,3,0,0,0,.22-1.35V37H83.5a.88.88,0,0,0-.85.59A3.65,3.65,0,0,0,82.39,39a2.83,2.83,0,0,0,.26,1.3,1.08,1.08,0,0,0,1,.49A.86.86,0,0,0,84.52,40.42Zm2-8.81v1.83H84.69V31.61Z"/><path class="cls-1" d="M88.15,42.92V41.43c0-.11,0-.17.1-.2a.88.88,0,0,1,.24,0h1.8V35.93h2.28V43.1H88.49C88.26,43.1,88.15,43,88.15,42.92Zm4.4,1.71v1.88H90.27V44.63Z"/><path class="cls-1" d="M94.5,31.61h2.28V43.1H94.5Z"/><path class="cls-1" d="M100.7,46.89a4.13,4.13,0,0,1-.47-.08,3.14,3.14,0,0,1-.4-.13V45a4.79,4.79,0,0,0,.61.2,3.21,3.21,0,0,0,.63.06,1.62,1.62,0,0,0,1.23-.47,3.22,3.22,0,0,0,.63-1.65h-1a3.62,3.62,0,0,1-1.46-.28A3.26,3.26,0,0,1,99.34,42a3.53,3.53,0,0,1-.7-1.21,4.56,4.56,0,0,1-.25-1.56,9.19,9.19,0,0,1,.13-1.58,3.81,3.81,0,0,1,.53-1.4,2.94,2.94,0,0,1,1.06-1,3.7,3.7,0,0,1,1.78-.38,3.76,3.76,0,0,1,1.77.36,2.63,2.63,0,0,1,1.07,1,4.52,4.52,0,0,1,.51,1.58,14.44,14.44,0,0,1,.14,2.07c0,.21,0,.43,0,.64l0,.64h1.26a.85.85,0,0,1,.23,0c.07,0,.1.09.1.2v1.49q0,.18-.33.18h-1.45a8,8,0,0,1-.42,1.53,3.93,3.93,0,0,1-.72,1.21,3,3,0,0,1-1.12.79,3.81,3.81,0,0,1-1.58.29A5.66,5.66,0,0,1,100.7,46.89Zm0-6.78a1.36,1.36,0,0,0,.26.61,1.16,1.16,0,0,0,.52.36,2.58,2.58,0,0,0,.86.12h.71c0-.2,0-.41,0-.64s0-.46,0-.71c0-.47,0-.9,0-1.29a4.92,4.92,0,0,0-.17-1,1.61,1.61,0,0,0-.37-.66.89.89,0,0,0-.63-.23.82.82,0,0,0-.59.23,1.65,1.65,0,0,0-.37.59,3.36,3.36,0,0,0-.21.83c0,.3,0,.61,0,.91A5.61,5.61,0,0,0,100.73,40.11Z"/><path class="cls-1" d="M106.26,42.92V41.43a.19.19,0,0,1,.11-.2.8.8,0,0,1,.23,0h1.8V35.93h2.28V43.1H106.6C106.37,43.1,106.26,43,106.26,42.92Zm4.4,1.71v1.88h-2.28V44.63Z"/><path class="cls-2" d="M88.72,41.23c.07,0,.1.09.1.2v1.49c0,.12-.11.18-.34.18H87.7a2.82,2.82,0,0,1-.65-.08,2.23,2.23,0,0,1-1.14-.7,2.26,2.26,0,0,1-.37-.65,2.45,2.45,0,0,1-.78.74,2.53,2.53,0,0,1-1.18.22,3.47,3.47,0,0,1-1.36-.26,3.32,3.32,0,0,1-1.06-.74,3.24,3.24,0,0,1-.69-1.13A4,4,0,0,1,80.22,39a7.17,7.17,0,0,1,.15-1.49,3.53,3.53,0,0,1,.51-1.24,2.52,2.52,0,0,1,1-.83,3.61,3.61,0,0,1,1.61-.31h3.39v4.37a2.1,2.1,0,0,0,.3,1.3,1.2,1.2,0,0,0,1,.37h.29A.88.88,0,0,1,88.72,41.23Zm-4.61-9.62v1.83H82.28V31.61Zm.41,8.81a3,3,0,0,0,.22-1.35V37H83.5a.88.88,0,0,0-.85.59A3.65,3.65,0,0,0,82.39,39a2.83,2.83,0,0,0,.26,1.3,1.08,1.08,0,0,0,1,.49A.86.86,0,0,0,84.52,40.42Zm2-8.81v1.83H84.69V31.61Z"/><path class="cls-2" d="M88.15,42.92V41.43c0-.11,0-.17.1-.2a.88.88,0,0,1,.24,0h1.8V35.93h2.28V43.1H88.49C88.26,43.1,88.15,43,88.15,42.92Zm4.4,1.71v1.88H90.27V44.63Z"/><path class="cls-2" d="M94.5,31.61h2.28V43.1H94.5Z"/><path class="cls-2" d="M100.7,46.89a4.13,4.13,0,0,1-.47-.08,3.14,3.14,0,0,1-.4-.13V45a4.79,4.79,0,0,0,.61.2,3.21,3.21,0,0,0,.63.06,1.62,1.62,0,0,0,1.23-.47,3.22,3.22,0,0,0,.63-1.65h-1a3.62,3.62,0,0,1-1.46-.28A3.26,3.26,0,0,1,99.34,42a3.53,3.53,0,0,1-.7-1.21,4.56,4.56,0,0,1-.25-1.56,9.19,9.19,0,0,1,.13-1.58,3.81,3.81,0,0,1,.53-1.4,2.94,2.94,0,0,1,1.06-1,3.7,3.7,0,0,1,1.78-.38,3.76,3.76,0,0,1,1.77.36,2.63,2.63,0,0,1,1.07,1,4.52,4.52,0,0,1,.51,1.58,14.44,14.44,0,0,1,.14,2.07c0,.21,0,.43,0,.64l0,.64h1.26a.85.85,0,0,1,.23,0c.07,0,.1.09.1.2v1.49q0,.18-.33.18h-1.45a8,8,0,0,1-.42,1.53,3.93,3.93,0,0,1-.72,1.21,3,3,0,0,1-1.12.79,3.81,3.81,0,0,1-1.58.29A5.66,5.66,0,0,1,100.7,46.89Zm0-6.78a1.36,1.36,0,0,0,.26.61,1.16,1.16,0,0,0,.52.36,2.58,2.58,0,0,0,.86.12h.71c0-.2,0-.41,0-.64s0-.46,0-.71c0-.47,0-.9,0-1.29a4.92,4.92,0,0,0-.17-1,1.61,1.61,0,0,0-.37-.66.89.89,0,0,0-.63-.23.82.82,0,0,0-.59.23,1.65,1.65,0,0,0-.37.59,3.36,3.36,0,0,0-.21.83c0,.3,0,.61,0,.91A5.61,5.61,0,0,0,100.73,40.11Z"/><path class="cls-2" d="M106.26,42.92V41.43a.19.19,0,0,1,.11-.2.8.8,0,0,1,.23,0h1.8V35.93h2.28V43.1H106.6C106.37,43.1,106.26,43,106.26,42.92Zm4.4,1.71v1.88h-2.28V44.63Z"/><path class="cls-1" d="M23,41.23a.19.19,0,0,1,.11.2v1.49c0,.12-.11.18-.34.18H22a3,3,0,0,1-.65-.08,2.1,2.1,0,0,1-.62-.26,2.13,2.13,0,0,1-.51-.44,2.26,2.26,0,0,1-.37-.65,2.47,2.47,0,0,1-.79.74,2.51,2.51,0,0,1-1.17.22,3.56,3.56,0,0,1-1.37-.26,3.43,3.43,0,0,1-1.06-.74,3.24,3.24,0,0,1-.69-1.13A4.28,4.28,0,0,1,14.49,39a7.17,7.17,0,0,1,.15-1.49,3.19,3.19,0,0,1,.51-1.24,2.55,2.55,0,0,1,1-.83,3.69,3.69,0,0,1,1.62-.31h3.39v4.37a2.1,2.1,0,0,0,.3,1.3,1.2,1.2,0,0,0,1,.37h.29A.8.8,0,0,1,23,41.23Zm-4.6-9.62v1.83H16.55V31.61Zm.41,8.81A3.11,3.11,0,0,0,19,39.07V37H17.77a.87.87,0,0,0-.85.59A3.65,3.65,0,0,0,16.66,39a2.83,2.83,0,0,0,.26,1.3,1.07,1.07,0,0,0,1,.49A.86.86,0,0,0,18.79,40.42Zm2-8.81v1.83H19V31.61Z"/><path class="cls-1" d="M22.42,42.92V41.43c0-.11,0-.17.1-.2a.85.85,0,0,1,.23,0h1.87v-.06a2.16,2.16,0,0,1-.27-.48,5.54,5.54,0,0,1-.21-.57A4.49,4.49,0,0,1,24,39.5,2.41,2.41,0,0,1,24,39a4.43,4.43,0,0,1,.95-3,3.41,3.41,0,0,1,2.74-1.09,3.61,3.61,0,0,1,2.78,1,4.3,4.3,0,0,1,1,3.06,4.3,4.3,0,0,1-1,3.06,3.64,3.64,0,0,1-2.78,1h-4.9Q22.42,43.1,22.42,42.92Zm3.89-3a2.3,2.3,0,0,0,.19.73,1.1,1.1,0,0,0,.41.49,1.27,1.27,0,0,0,.74.19,1.33,1.33,0,0,0,.74-.19,1.28,1.28,0,0,0,.42-.52,2.3,2.3,0,0,0,.19-.73c0-.27,0-.56,0-.86s0-.59,0-.87a2.3,2.3,0,0,0-.19-.73,1.38,1.38,0,0,0-.42-.53,1.25,1.25,0,0,0-.74-.2,1.13,1.13,0,0,0-1.15.73,2.3,2.3,0,0,0-.19.73c0,.28,0,.57,0,.87S26.29,39.61,26.31,39.89Z"/><path class="cls-1" d="M33,31.61H35.3V43.1H33Z"/><path class="cls-1" d="M45.05,41.23a.19.19,0,0,1,.11.2v1.49c0,.12-.12.18-.34.18h-.34A2,2,0,0,1,44,43a3,3,0,0,1-.49-.2,1.81,1.81,0,0,1-.41-.32,1.07,1.07,0,0,1-.28-.42h-.07a3.26,3.26,0,0,1-.13.48,2,2,0,0,1-.25.53H36.67V41.2h3.81V39.27c0-.38,0-.72,0-1a2.36,2.36,0,0,0-.18-.73,1,1,0,0,0-.42-.43,1.52,1.52,0,0,0-.73-.15H37.38V35.16h1.73a6.14,6.14,0,0,1,1.57.19,2.66,2.66,0,0,1,1.15.65,2.83,2.83,0,0,1,.71,1.18A5.9,5.9,0,0,1,42.78,39v1a1.26,1.26,0,0,0,.17.62,1.24,1.24,0,0,0,.41.38,1.58,1.58,0,0,0,.53.18,3,3,0,0,0,.59.05h.34A.85.85,0,0,1,45.05,41.23Z"/><path class="cls-1" d="M44.48,42.92V41.43a.19.19,0,0,1,.11-.2.85.85,0,0,1,.23,0h.66a1.55,1.55,0,0,0,.35-.05,1.07,1.07,0,0,0,.36-.2,1.17,1.17,0,0,0,.29-.39,1.51,1.51,0,0,0,.11-.61v-4h2.28v3.7a1.85,1.85,0,0,0,.12.71,1.58,1.58,0,0,0,.31.49,1.07,1.07,0,0,0,.45.28,1.37,1.37,0,0,0,.49.09h.56a.85.85,0,0,1,.23,0,.19.19,0,0,1,.11.2v1.49c0,.12-.12.18-.34.18h-.56a1.81,1.81,0,0,1-.61-.1,2.74,2.74,0,0,1-.58-.25,3.07,3.07,0,0,1-.51-.35,2.48,2.48,0,0,1-.39-.41,2.57,2.57,0,0,1-.65.55,3.92,3.92,0,0,1-.73.33,3.14,3.14,0,0,1-.7.18,4.54,4.54,0,0,1-.59.05h-.66C44.6,43.1,44.48,43,44.48,42.92Zm3-11.31v1.83H45.66V31.61Zm2.42,0v1.83H48.07V31.61Z"/><path class="cls-1" d="M54.88,36.58v3.56a1.31,1.31,0,0,0,.23.87,1.11,1.11,0,0,0,.83.26c.4,0,.66-.09.77-.26a1.57,1.57,0,0,0,.18-.87V36.27h2.28v3.81a1.27,1.27,0,0,0,.24.87.86.86,0,0,0,.66.25h1.14V35.93h2.3V43.1h-3A2.06,2.06,0,0,1,60,43a2.86,2.86,0,0,1-.48-.2,1.67,1.67,0,0,1-.42-.32,1.19,1.19,0,0,1-.28-.42h-.06a2.49,2.49,0,0,1-.86.8,3.05,3.05,0,0,1-1.38.26,2.51,2.51,0,0,1-1.34-.3,1.53,1.53,0,0,1-.65-.76H54.5a.9.9,0,0,1-.16.26,2.28,2.28,0,0,1-.35.34,2.19,2.19,0,0,1-.5.29,1.47,1.47,0,0,1-.58.12H50.8c-.23,0-.34-.06-.34-.18V41.43a.19.19,0,0,1,.11-.2.8.8,0,0,1,.23,0h.9a.86.86,0,0,0,.66-.25,1.27,1.27,0,0,0,.24-.87v-3.5Z"/><path class="cls-1" d="M66,41.2V34.57h2.28V41.2H70V31.61h2.28V43.1H64.8V41.2Z"/><path class="cls-1" d="M74.25,31.61h2.28V43.1H74.25Z"/><path class="cls-2" d="M23,41.23a.19.19,0,0,1,.11.2v1.49c0,.12-.11.18-.34.18H22a3,3,0,0,1-.65-.08,2.1,2.1,0,0,1-.62-.26,2.13,2.13,0,0,1-.51-.44,2.26,2.26,0,0,1-.37-.65,2.47,2.47,0,0,1-.79.74,2.51,2.51,0,0,1-1.17.22,3.56,3.56,0,0,1-1.37-.26,3.43,3.43,0,0,1-1.06-.74,3.24,3.24,0,0,1-.69-1.13A4.28,4.28,0,0,1,14.49,39a7.17,7.17,0,0,1,.15-1.49,3.19,3.19,0,0,1,.51-1.24,2.55,2.55,0,0,1,1-.83,3.69,3.69,0,0,1,1.62-.31h3.39v4.37a2.1,2.1,0,0,0,.3,1.3,1.2,1.2,0,0,0,1,.37h.29A.8.8,0,0,1,23,41.23Zm-4.6-9.62v1.83H16.55V31.61Zm.41,8.81A3.11,3.11,0,0,0,19,39.07V37H17.77a.87.87,0,0,0-.85.59A3.65,3.65,0,0,0,16.66,39a2.83,2.83,0,0,0,.26,1.3,1.07,1.07,0,0,0,1,.49A.86.86,0,0,0,18.79,40.42Zm2-8.81v1.83H19V31.61Z"/><path class="cls-2" d="M22.42,42.92V41.43c0-.11,0-.17.1-.2a.85.85,0,0,1,.23,0h1.87v-.06a2.16,2.16,0,0,1-.27-.48,5.54,5.54,0,0,1-.21-.57A4.49,4.49,0,0,1,24,39.5,2.41,2.41,0,0,1,24,39a4.43,4.43,0,0,1,.95-3,3.41,3.41,0,0,1,2.74-1.09,3.61,3.61,0,0,1,2.78,1,4.3,4.3,0,0,1,1,3.06,4.3,4.3,0,0,1-1,3.06,3.64,3.64,0,0,1-2.78,1h-4.9Q22.42,43.1,22.42,42.92Zm3.89-3a2.3,2.3,0,0,0,.19.73,1.1,1.1,0,0,0,.41.49,1.27,1.27,0,0,0,.74.19,1.33,1.33,0,0,0,.74-.19,1.28,1.28,0,0,0,.42-.52,2.3,2.3,0,0,0,.19-.73c0-.27,0-.56,0-.86s0-.59,0-.87a2.3,2.3,0,0,0-.19-.73,1.38,1.38,0,0,0-.42-.53,1.25,1.25,0,0,0-.74-.2,1.13,1.13,0,0,0-1.15.73,2.3,2.3,0,0,0-.19.73c0,.28,0,.57,0,.87S26.29,39.61,26.31,39.89Z"/><path class="cls-2" d="M33,31.61H35.3V43.1H33Z"/><path class="cls-2" d="M45.05,41.23a.19.19,0,0,1,.11.2v1.49c0,.12-.12.18-.34.18h-.34A2,2,0,0,1,44,43a3,3,0,0,1-.49-.2,1.81,1.81,0,0,1-.41-.32,1.07,1.07,0,0,1-.28-.42h-.07a3.26,3.26,0,0,1-.13.48,2,2,0,0,1-.25.53H36.67V41.2h3.81V39.27c0-.38,0-.72,0-1a2.36,2.36,0,0,0-.18-.73,1,1,0,0,0-.42-.43,1.52,1.52,0,0,0-.73-.15H37.38V35.16h1.73a6.14,6.14,0,0,1,1.57.19,2.66,2.66,0,0,1,1.15.65,2.83,2.83,0,0,1,.71,1.18A5.9,5.9,0,0,1,42.78,39v1a1.26,1.26,0,0,0,.17.62,1.24,1.24,0,0,0,.41.38,1.58,1.58,0,0,0,.53.18,3,3,0,0,0,.59.05h.34A.85.85,0,0,1,45.05,41.23Z"/><path class="cls-2" d="M44.48,42.92V41.43a.19.19,0,0,1,.11-.2.85.85,0,0,1,.23,0h.66a1.55,1.55,0,0,0,.35-.05,1.07,1.07,0,0,0,.36-.2,1.17,1.17,0,0,0,.29-.39,1.51,1.51,0,0,0,.11-.61v-4h2.28v3.7a1.85,1.85,0,0,0,.12.71,1.58,1.58,0,0,0,.31.49,1.07,1.07,0,0,0,.45.28,1.37,1.37,0,0,0,.49.09h.56a.85.85,0,0,1,.23,0,.19.19,0,0,1,.11.2v1.49c0,.12-.12.18-.34.18h-.56a1.81,1.81,0,0,1-.61-.1,2.74,2.74,0,0,1-.58-.25,3.07,3.07,0,0,1-.51-.35,2.48,2.48,0,0,1-.39-.41,2.57,2.57,0,0,1-.65.55,3.92,3.92,0,0,1-.73.33,3.14,3.14,0,0,1-.7.18,4.54,4.54,0,0,1-.59.05h-.66C44.6,43.1,44.48,43,44.48,42.92Zm3-11.31v1.83H45.66V31.61Zm2.42,0v1.83H48.07V31.61Z"/><path class="cls-2" d="M54.88,36.58v3.56a1.31,1.31,0,0,0,.23.87,1.11,1.11,0,0,0,.83.26c.4,0,.66-.09.77-.26a1.57,1.57,0,0,0,.18-.87V36.27h2.28v3.81a1.27,1.27,0,0,0,.24.87.86.86,0,0,0,.66.25h1.14V35.93h2.3V43.1h-3A2.06,2.06,0,0,1,60,43a2.86,2.86,0,0,1-.48-.2,1.67,1.67,0,0,1-.42-.32,1.19,1.19,0,0,1-.28-.42h-.06a2.49,2.49,0,0,1-.86.8,3.05,3.05,0,0,1-1.38.26,2.51,2.51,0,0,1-1.34-.3,1.53,1.53,0,0,1-.65-.76H54.5a.9.9,0,0,1-.16.26,2.28,2.28,0,0,1-.35.34,2.19,2.19,0,0,1-.5.29,1.47,1.47,0,0,1-.58.12H50.8c-.23,0-.34-.06-.34-.18V41.43a.19.19,0,0,1,.11-.2.8.8,0,0,1,.23,0h.9a.86.86,0,0,0,.66-.25,1.27,1.27,0,0,0,.24-.87v-3.5Z"/><path class="cls-2" d="M66,41.2V34.57h2.28V41.2H70V31.61h2.28V43.1H64.8V41.2Z"/><path class="cls-2" d="M74.25,31.61h2.28V43.1H74.25Z"/><rect class="cls-3" x="10.85" y="50.28" width="103.33" height="8.55" rx="4.27"/><path class="cls-2" d="M21.88,56.42l-.25-.05a2.27,2.27,0,0,1-.46-.16,2.11,2.11,0,0,1-.4-.26l.33-.42a1.44,1.44,0,0,0,.49.29,1.7,1.7,0,0,0,.57.09,1.2,1.2,0,0,0,.65-.15.5.5,0,0,0,.23-.44h0a.48.48,0,0,0-.11-.32.55.55,0,0,0-.27-.17,2.51,2.51,0,0,0-.42-.11h-.08c-.26-.05-.46-.1-.63-.15a.88.88,0,0,1-.41-.31,1,1,0,0,1-.17-.62h0a1.11,1.11,0,0,1,.16-.61,1,1,0,0,1,.47-.38,1.8,1.8,0,0,1,.73-.13,1.84,1.84,0,0,1,.41,0,2,2,0,0,1,.39.14,1.92,1.92,0,0,1,.39.22l-.31.43a1.6,1.6,0,0,0-.44-.24,1.14,1.14,0,0,0-.44-.08,1.08,1.08,0,0,0-.61.15.55.55,0,0,0-.22.45h0a.43.43,0,0,0,.11.31.7.7,0,0,0,.29.17,3.5,3.5,0,0,0,.46.11h.1a3.77,3.77,0,0,1,.58.17.87.87,0,0,1,.39.32.94.94,0,0,1,.16.59h0a1.08,1.08,0,0,1-.16.6,1.1,1.1,0,0,1-.49.38,1.92,1.92,0,0,1-.76.13Z"/><path class="cls-2" d="M29.24,56.25a1.07,1.07,0,0,1-.46-.48,1.73,1.73,0,0,1-.16-.78V52.54h.54V55a.92.92,0,0,0,.21.65.9.9,0,0,0,1.2,0,.92.92,0,0,0,.21-.65V52.54h.54V55a1.73,1.73,0,0,1-.16.78,1.07,1.07,0,0,1-.46.48,1.41,1.41,0,0,1-.73.17A1.39,1.39,0,0,1,29.24,56.25Z"/><path class="cls-2" d="M37.43,56.42l-.25-.05a2.27,2.27,0,0,1-.46-.16,2.19,2.19,0,0,1-.41-.26l.34-.42a1.5,1.5,0,0,0,.48.29,1.81,1.81,0,0,0,.58.09,1.2,1.2,0,0,0,.65-.15.5.5,0,0,0,.23-.44h0a.48.48,0,0,0-.11-.32.55.55,0,0,0-.27-.17,2.51,2.51,0,0,0-.42-.11h-.08a6,6,0,0,1-.63-.15.88.88,0,0,1-.41-.31.94.94,0,0,1-.17-.62h0a1.11,1.11,0,0,1,.16-.61,1,1,0,0,1,.46-.38,2.15,2.15,0,0,1,1.15-.09,2,2,0,0,1,.39.14,1.63,1.63,0,0,1,.38.22l-.3.43a1.6,1.6,0,0,0-.44-.24,1.14,1.14,0,0,0-.44-.08,1.08,1.08,0,0,0-.61.15.52.52,0,0,0-.22.45h0a.43.43,0,0,0,.11.31.73.73,0,0,0,.28.17,4.2,4.2,0,0,0,.47.11H38a3.77,3.77,0,0,1,.58.17.87.87,0,0,1,.39.32.94.94,0,0,1,.16.59h0a1,1,0,0,1-.17.6,1,1,0,0,1-.48.38,1.92,1.92,0,0,1-.76.13Z"/><path class="cls-2" d="M43.69,52.54h2.72v.51H43.69Zm1.09.31h.54v3.53h-.54Z"/><path class="cls-2" d="M56.42,52.54H57v3.84h-.54Zm.32,3.34h1a1,1,0,0,0,.6-.15.56.56,0,0,0,.18-.44h0a.9.9,0,0,0-.06-.34.5.5,0,0,0-.22-.21.78.78,0,0,0-.37-.08H56.74v-.48h1.17a.65.65,0,0,0,.45-.14.57.57,0,0,0,.15-.42.53.53,0,0,0-.16-.43.77.77,0,0,0-.51-.14h-1.1v-.5h1.2a1.46,1.46,0,0,1,.62.12.94.94,0,0,1,.38.36,1.22,1.22,0,0,1,.12.56A.91.91,0,0,1,59,54a.83.83,0,0,1-.23.3,1,1,0,0,1-.39.16.9.9,0,0,1,.4.17.82.82,0,0,1,.26.32,1,1,0,0,1,.09.43h0a1.12,1.12,0,0,1-.14.55.91.91,0,0,1-.39.36,1.26,1.26,0,0,1-.6.13H56.74Z"/><path class="cls-2" d="M65.3,52.54h.46l1.41,3.84h-.58l-1.06-3.1-1.07,3.1h-.58ZM64.53,55h2v.51h-2Z"/><path class="cls-2" d="M73.43,52.54h.37l.79,3,.68-3h.56l-.94,3.84h-.55l-.71-2.68-.74,2.68h-.55l-.94-3.84H72l.68,3Z"/><path class="cls-2" d="M81.53,52.54H82l1.41,3.84h-.58l-1.06-3.1-1.07,3.1h-.58ZM80.76,55h2v.51h-2Z"/><path class="cls-2" d="M88.32,52.54h.53v3.84h-.53Zm.32,3.34h1a.93.93,0,0,0,.59-.15.53.53,0,0,0,.19-.44h0a.74.74,0,0,0-.07-.34.43.43,0,0,0-.21-.21.78.78,0,0,0-.37-.08H88.64v-.48h1.17a.65.65,0,0,0,.45-.14.57.57,0,0,0,.15-.42.51.51,0,0,0-.17-.43.73.73,0,0,0-.5-.14h-1.1v-.5h1.19a1.48,1.48,0,0,1,.63.12.92.92,0,0,1,.37.36,1.1,1.1,0,0,1,.13.56.91.91,0,0,1-.08.37.83.83,0,0,1-.23.3,1,1,0,0,1-.39.16.9.9,0,0,1,.4.17.82.82,0,0,1,.26.32,1,1,0,0,1,.09.43h0a1.12,1.12,0,0,1-.14.55.91.91,0,0,1-.39.36,1.29,1.29,0,0,1-.6.13H88.64Z"/><path class="cls-2" d="M97.19,52.54h.46l1.42,3.84h-.58l-1.07-3.1-1.06,3.1h-.58ZM96.43,55h2v.51h-2Z"/><path class="cls-2" d="M105,52.54h.46l1.42,3.84h-.58l-1.07-3.1-1.06,3.1h-.58ZM104.27,55h2v.51h-2Z"/><path class="cls-4" d="M146.84,61.29v.13H144l-11.71-.13h-1c-6.19-.3-10-2.91-12.31-6a14.24,14.24,0,0,1-2.73-8.67l.12-7.51.06,0c.49.4,1,.78,1.51,1.13l.15.33,1.24,2.93c2.5,5.25,5.53,10.1,14.57,10.5l.91.16.3,0,.87.19.23.05h.07c.36.08.7.18,1,.27l.23.07.19.06.37.11.13,0,.21.07h0l.21.07.22.08.23.09.23.09.24.09.15.07h0l.13.06.16.07.22.1.13.06.15.07c.24.11.48.23.7.35l.12.06.13.07.11.07c.25.13.49.28.72.42l.19.12h0l.19.12.19.13.13.09.15.11.14.1.53.41.12.1.15.13.14.11.15.14.16.14c.24.22.48.45.7.69l.11.12.48.53a2.09,2.09,0,0,0,.14.17l.3.37a.76.76,0,0,0,.11.14l0,.05a1.13,1.13,0,0,1,.1.13Z"/><path class="cls-4" d="M146.85,60.89v.4l-.3-.42a1.13,1.13,0,0,0-.1-.13l0-.05a.76.76,0,0,1-.11-.14l-.3-.37a2.09,2.09,0,0,1-.14-.17l-.48-.53-.11-.12c-.22-.24-.46-.47-.7-.69l-.16-.14-.15-.14-.14-.11-.15-.13-.12-.1-.53-.41-.14-.1-.15-.11-.13-.09-.19-.13-.19-.12h0l-.19-.12c-.23-.14-.47-.29-.72-.42l-.11-.07-.13-.07-.12-.06c-.22-.12-.46-.24-.7-.35l-.15-.07-.13-.06-.22-.1-.16-.07-.13-.06h0l-.15-.07-.24-.09-.23-.09-.23-.09-.22-.08-.21-.07h0l-.21-.07-.13,0-.37-.11-.19-.06-.23-.07c-.33-.09-.67-.19-1-.27h-.07l-.23-.05-.87-.19-.3,0-.91-.16c-9-.4-12.07-5.25-14.57-10.5l-1.24-2.93-.15-.33A22.66,22.66,0,0,0,127.58,44c.66.1,1.31.19,2,.3a36.78,36.78,0,0,1,6.62,1.59,14.83,14.83,0,0,1,2.77,1.36,13.46,13.46,0,0,1,2.42,2c.23.24.46.49.67.74l.12.15A22.08,22.08,0,0,1,146,57.79C146.3,58.81,146.6,59.85,146.85,60.89Z"/><path class="cls-4" d="M142.33,57l.38.25Z"/><path class="cls-4" d="M147,53.59l-.13,7.3c-.25-1-.55-2.08-.88-3.1a22.08,22.08,0,0,0-3.83-7.67L142,50c-.21-.25-.44-.5-.67-.74a13.46,13.46,0,0,0-2.42-2,14.83,14.83,0,0,0-2.77-1.36,36.78,36.78,0,0,0-6.62-1.59c-.65-.11-1.3-.2-2-.3A22.66,22.66,0,0,1,118,40.28c-.52-.35-1-.73-1.51-1.13l-.06,0V39l9.07.33,7.63.27a12.08,12.08,0,0,1,1.33.1,14.49,14.49,0,0,1,3.82,1l.46.2a12.46,12.46,0,0,1,2,1.13,9.46,9.46,0,0,1,1,.75c.24.2.47.42.71.66l.51.53a17.35,17.35,0,0,1,2.12,3c.32.54.62,1.13.92,1.76A11.07,11.07,0,0,1,147,53.59Z"/><line class="cls-4" x1="117.95" y1="40.28" x2="117.94" y2="40.25"/><path class="cls-4" d="M146.84,61.29l0,0"/><path class="cls-4" d="M116.36,39.09h0"/><path class="cls-4" d="M134.41,39.68a12.08,12.08,0,0,0-1.33-.1l-7.63-.27a12.84,12.84,0,0,1,1.85-15l4.65-5.1a.64.64,0,0,1,0,.07c.09.57.21,1.14.35,1.7l-.1.32-.93,2.78C129.86,29.07,129,34.1,134.41,39.68Z"/><path class="cls-4" d="M147.28,39.15c0,.36,0,.72-.07,1.1s-.11.91-.19,1.39h0c-.07.38-.16.77-.26,1.17s-.16.66-.26,1a10,10,0,0,1-1.5,3.08,17.35,17.35,0,0,0-2.12-3l.06-.58q0-.48.06-1a1.93,1.93,0,0,0,0-.24,12.19,12.19,0,0,0-.47-3.46,12.49,12.49,0,0,0-1.1-2.68,33.06,33.06,0,0,0-3.6-5.16c-.38-.46-.77-.92-1.16-1.37A20.94,20.94,0,0,1,132.32,21c-.14-.56-.26-1.13-.35-1.7a.64.64,0,0,0,0-.07l.08-.08,6.8,6.46,4.35,4.13.49.49h0a13.2,13.2,0,0,1,2.4,3.39c.13.25.24.51.35.78a11.23,11.23,0,0,1,.85,3.76C147.28,38.47,147.29,38.81,147.28,39.15Z"/><line class="cls-4" x1="132.32" y1="20.99" x2="132.33" y2="20.96"/><path class="cls-4" d="M132,19.2v0"/><path class="cls-4" d="M143,42.11a1.93,1.93,0,0,1,0,.24q0,.51-.06,1l-.06.58-.51-.53c-.24-.24-.47-.46-.71-.66a9.46,9.46,0,0,0-1-.75,12.46,12.46,0,0,0-2-1.13l-.46-.2a14.49,14.49,0,0,0-3.82-1c-5.41-5.58-4.55-10.61-3.12-15.59l.93-2.78.1-.32a20.94,20.94,0,0,0,4.36,8.45c.39.45.78.91,1.16,1.37a33.06,33.06,0,0,1,3.6,5.16,12.49,12.49,0,0,1,1.1,2.68A12.19,12.19,0,0,1,143,42.11Z"/><path class="cls-4" d="M153.66,18.59l0,.05c-.27.41-.52.83-.75,1.25l-.24.14-2.15,1.18c-3.22,2-6.2,4.19-6.82,9l-.49-.49-4.35-4.13a10.74,10.74,0,0,1,2.64-3.74,11,11,0,0,1,6.43-2.77Z"/><path class="cls-4" d="M152.88,19.89a17.58,17.58,0,0,0-2.11,7.67c0,.43,0,.85-.05,1.28a30,30,0,0,1-.72,5.44,10.89,10.89,0,0,1-1.41,3.26,10.34,10.34,0,0,1-1.25,1.55l-.06.06c0-.34,0-.68,0-1a11.23,11.23,0,0,0-.85-3.76c-.11-.27-.22-.53-.35-.78a13.2,13.2,0,0,0-2.4-3.39h0c.62-4.82,3.6-7,6.82-9L152.64,20Z"/><path class="cls-4" d="M154.63,32.29a10.92,10.92,0,0,1-.45,3.16c-.07.24-.15.49-.24.73a9.59,9.59,0,0,1-1.17,2.2,12.51,12.51,0,0,1-.91,1.09c-.24.25-.49.5-.77.75l-.59.49A17.82,17.82,0,0,1,148.66,42c-.22.13-.44.25-.67.36a8.71,8.71,0,0,1-1.23.48c.1-.4.19-.79.26-1.17h0c.08-.48.15-.94.19-1.39s.06-.74.07-1.1l.06-.06a10.34,10.34,0,0,0,1.25-1.55A10.89,10.89,0,0,0,150,34.28a30,30,0,0,0,.72-5.44c0-.43,0-.85.05-1.28a17.58,17.58,0,0,1,2.11-7.67c.23-.42.48-.84.75-1.25l0-.05h.09l.52,7.87.33,5Q154.63,31.86,154.63,32.29Z"/><line class="cls-4" x1="152.88" y1="19.9" x2="152.91" y2="19.88"/><path class="cls-4" d="M153.67,18.58h0"/><path class="cls-4" d="M167.7,30.74l0,0a12.57,12.57,0,0,0-1.23.39l-.24,0-2.13-.47c-3.16-.56-6.31-.83-9.42,1.66q0-.43,0-.87l-.33-5a9.51,9.51,0,0,1,3.4-.69,9.74,9.74,0,0,1,5.9,1.93Z"/><path class="cls-4" d="M166.42,31.15a15.43,15.43,0,0,0-5.9,3.87l-.37.38A27.79,27.79,0,0,1,156.06,39l-.51.32a9.09,9.09,0,0,1-3.05,1.18h0a9.09,9.09,0,0,1-1,.14l-.32,0h-.65l.59-.49c.28-.25.53-.5.77-.75a12.51,12.51,0,0,0,.91-1.09,9.59,9.59,0,0,0,1.17-2.2c.09-.24.17-.49.24-.73a10.92,10.92,0,0,0,.45-3.16c3.11-2.49,6.26-2.22,9.42-1.66l2.13.47Z"/><path class="cls-4" d="M167.76,30.79l-4,5.21L161,39.64l-.15.2a10,10,0,0,1-2.64,2.43l-.43.26a8.69,8.69,0,0,1-2.06.82l-.24,0a8.06,8.06,0,0,1-1,.17c-.31,0-.63,0-1,.06s-.81,0-1.25-.05-1-.11-1.52-.21a7.52,7.52,0,0,1-2.66-1c.23-.11.45-.23.67-.36a17.82,17.82,0,0,0,1.84-1.27h.65l.32,0a9.09,9.09,0,0,0,1-.14h0a9.09,9.09,0,0,0,3.05-1.18l.51-.32a27.79,27.79,0,0,0,4.09-3.64l.37-.38a15.43,15.43,0,0,1,5.9-3.87,12.57,12.57,0,0,1,1.23-.39l0,0Z"/><line class="cls-4" x1="166.42" y1="31.15" x2="166.44" y2="31.16"/><path class="cls-4" d="M167.71,30.74h0"/><path class="cls-4" d="M169.14,46.37l0,0c-.3-.18-.61-.34-.92-.49l-.11-.17-.92-1.51c-1.44-2.13-3.05-4.11-6.2-4.54l2.8-3.64a7.8,7.8,0,0,1,2.63,1.72,7.9,7.9,0,0,1,2.21,4.53Z"/><path class="cls-4" d="M168.18,45.86a12.7,12.7,0,0,0-5.59-1.26h-1.54a18.86,18.86,0,0,1-3.31-.32,8,8,0,0,1-2-.67c0-.09-.07-.17-.11-.25a8.69,8.69,0,0,0,2.06-.82l.43-.26a10,10,0,0,0,2.64-2.43l.15-.2c3.15.43,4.76,2.41,6.2,4.54l.92,1.51Z"/><path class="cls-4" d="M155.78,43.6l-.35-.2.24,0C155.71,43.43,155.74,43.51,155.78,43.6Z"/><path class="cls-4" d="M169.15,46.44l-5.61.64-3.59.4a5.87,5.87,0,0,1-.59.05,8.23,8.23,0,0,1-2.32-.21,7,7,0,0,1-2.79-1.39,9.76,9.76,0,0,1-1.35-1.37c-.24-.3-.48-.62-.73-1,.44,0,.86.05,1.25.05s.66,0,1-.06a8.06,8.06,0,0,0,1-.17l.35.2a8,8,0,0,0,2,.67,18.86,18.86,0,0,0,3.31.32h1.54a12.7,12.7,0,0,1,5.59,1.26c.31.15.62.31.92.49l0,0Z"/><line class="cls-4" x1="168.18" y1="45.86" x2="168.19" y2="45.88"/><path class="cls-4" d="M169.15,46.38h0"/><path class="cls-4" d="M163.49,53.83l-1.81,2.88v0c-.1-.27-.21-.54-.32-.8l0-.16.2-1.43c.24-2.34.24-4.66-2.21-6.76a5.87,5.87,0,0,0,.59-.05l3.59-.4a6.25,6.25,0,0,1,.93,2.75A6.4,6.4,0,0,1,163.49,53.83Z"/><path class="cls-4" d="M155.78,43.6l-.35-.2.24,0C155.71,43.43,155.74,43.51,155.78,43.6Z"/><path class="cls-4" d="M161.57,54.29l-.2,1.43,0,.16a10.44,10.44,0,0,0-2.85-3.71,19.29,19.29,0,0,1-2.88-2.74,6.15,6.15,0,0,1-1.31-3,5.24,5.24,0,0,1-.06-.54A7,7,0,0,0,157,47.32a8.23,8.23,0,0,0,2.32.21C161.81,49.63,161.81,52,161.57,54.29Z"/><path class="cls-4" d="M161.68,56.71l0,0-6.32-4.16A6.59,6.59,0,0,1,153.59,51a6.5,6.5,0,0,1-1.1-4.9,4.57,4.57,0,0,1,.41-1.51,9.76,9.76,0,0,0,1.35,1.37,5.24,5.24,0,0,0,.06.54,6.15,6.15,0,0,0,1.31,3,19.29,19.29,0,0,0,2.88,2.74,10.44,10.44,0,0,1,2.85,3.71c.11.26.22.53.32.8Z"/><line class="cls-4" x1="161.35" y1="55.88" x2="161.34" y2="55.9"/><path class="cls-4" d="M161.68,56.72h0"/></svg>