<svg id="Layer_1" data-name="Layer 1" xmlns="http://www.w3.org/2000/svg" viewBox="0 0 180 80"><defs><style>.cls-1{fill:#fff;}.cls-2{fill:none;stroke:#fff;stroke-miterlimit:10;stroke-width:0.43px;}</style></defs><title>01</title><path class="cls-1" d="M167.4,56.5l-2.59-23.67-.63-5.93-.32-3-.15-1.48a6,6,0,0,0-.27-1.41,7.08,7.08,0,0,0-3.67-4.18,8.27,8.27,0,0,0-2.74-.82,11.48,11.48,0,0,0-1.45-.06h-1.49l-11.91.06-11.91,0-23.82,0,.43-.51,1,6.56.08.52h-.52c-6.9,0-13.79,0-20.68,0l-20.67,0-20.67-.09q-10.33-.06-20.67-.15h-.1l0-.09L21,13.6l.13,0,3.78,8.61-.14-.09q10.34-.11,20.67-.14l20.67-.1,20.67,0c6.89,0,13.78,0,20.68,0l-.45.52-1-6.55-.08-.51h.52l23.82,0,11.91,0,11.91.06h1.49a11.37,11.37,0,0,1,1.53.08,8.92,8.92,0,0,1,2.93.91A7.72,7.72,0,0,1,164,20.89a7.26,7.26,0,0,1,.27,1.51l.14,1.48.28,3,.56,5.94Z"/><polygon class="cls-1" points="25.24 14.62 21.51 14.63 18.93 17.32 18.88 8.49 25.24 14.62"/><path class="cls-2" d="M112,24.91H12.6l4.71,18.78c.57,2.3,2.56,9.94,9.73,9.94h88.17Z"/><path class="cls-1" d="M104,45.88a1,1,0,1,1,1-1A1,1,0,0,1,104,45.88Z"/><ellipse class="cls-1" cx="81.06" cy="33.69" rx="0.95" ry="1.03"/><path class="cls-1" d="M78.68,32.66a1,1,0,1,1-1,1A1,1,0,0,1,78.68,32.66Z"/><ellipse class="cls-1" cx="56.05" cy="33.69" rx="0.95" ry="1.03"/><path class="cls-1" d="M53.66,32.66a1,1,0,1,1-.95,1A1,1,0,0,1,53.66,32.66Z"/><ellipse class="cls-1" cx="49.4" cy="33.69" rx="0.95" ry="1.03"/><path class="cls-1" d="M47,32.66a1,1,0,1,1-.95,1A1,1,0,0,1,47,32.66Z"/><path class="cls-1" d="M29.31,43H23.19V41.41h4.27a4.14,4.14,0,0,0-3.39-4.24l.46-1.66c3.12.86,4.78,2.72,4.78,6.48Z"/><path class="cls-1" d="M55,35.67a3.51,3.51,0,0,0-3.73,3.68,2.54,2.54,0,0,0,.8,2.17,2.54,2.54,0,0,0-.8-.11H49.43V35.87h-1.9v5.54H44.41c.05-.68.06-1.39.06-2.07,0-2.28-.94-3.67-2.92-3.67a4.08,4.08,0,0,0-3.69,2.82h0A14.63,14.63,0,0,0,38,36.25v-.38h-1.9v5.54h-3v-9.1H31.24V43H58.29V39.16C58.29,37,57.29,35.67,55,35.67ZM42.46,41.41H38c.36-2.12,1.64-4.13,3.17-4.13,1,0,1.37.86,1.37,2.29C42.53,40.11,42.5,40.8,42.46,41.41Zm14,0H55.35c-1.5,0-2.16-.7-2.16-2.12,0-1.18.63-2,1.71-2s1.54.64,1.54,2.15Z"/><polygon class="cls-1" points="61.61 32.21 63.71 40.28 61.78 40.28 59.73 32.48 61.61 32.21"/><polygon class="cls-1" points="66.65 42.99 60.32 42.99 60.32 41.41 64.76 41.41 64.76 32.31 66.65 32.31 66.65 42.99"/><rect class="cls-1" x="69.08" y="32.31" width="1.9" height="10.68"/><path class="cls-1" d="M86.15,46.3a1,1,0,0,1-1-1,1,1,0,1,1,1,1Z"/><path class="cls-1" d="M86.26,35.87v5.54h-3.2V36.2a8.83,8.83,0,0,0-3-.53,3.55,3.55,0,0,0-3.81,3.8c0,2.15,1,3.52,3.85,3.52h8.06V35.87Zm-5,5.54H80.3a1.88,1.88,0,0,1-2.16-2.12c0-1.18.64-2,1.72-2a3.36,3.36,0,0,1,1.36.27Z"/><rect class="cls-1" x="90.44" y="32.31" width="1.9" height="10.68"/><path class="cls-1" d="M104.12,35.87v5.54h-3.21V36.2a8.76,8.76,0,0,0-3-.53,3.56,3.56,0,0,0-3.81,3.8C94.1,41.62,95.16,43,98,43h1.12v.22c0,1.43-1,2-2.49,2A11.36,11.36,0,0,1,94.35,45l-.12,1.64a15,15,0,0,0,2.19.19c3.22,0,4.49-1.69,4.49-3.78v0H106V35.87Zm-5,5.54h-.92A1.88,1.88,0,0,1,96,39.29c0-1.18.64-2,1.71-2a3.38,3.38,0,0,1,1.37.27Z"/><path class="cls-1" d="M117.13,32.78l-.6,0-.48,2.7a3.39,3.39,0,0,0,.58.05,3,3,0,0,0,1.57-.38,1.21,1.21,0,0,0,.62-1.07C118.82,33.22,118.25,32.78,117.13,32.78Z"/><polygon class="cls-1" points="122.2 34.14 124.24 34.14 123.81 31.13 122.2 34.14"/><path class="cls-1" d="M131.49,43a2.06,2.06,0,0,0-1.78,1.19,4.77,4.77,0,0,0-.69,2.43,2.53,2.53,0,0,0,.37,1.46,1.2,1.2,0,0,0,1.05.53,2.16,2.16,0,0,0,1.91-1.12,4.79,4.79,0,0,0,.72-2.66C133.07,43.58,132.54,43,131.49,43Z"/><path class="cls-1" d="M119,30.81c0-.53-.42-.79-1.25-.79-.16,0-.4,0-.72,0L116.69,32a6.35,6.35,0,0,0,.68,0C118.44,32.05,119,31.63,119,30.81Z"/><path class="cls-1" d="M145.16,30.81c0-.53-.42-.79-1.25-.79-.15,0-.39,0-.72,0L142.88,32a6.18,6.18,0,0,0,.67,0C144.63,32.05,145.16,31.63,145.16,30.81Z"/><polygon class="cls-1" points="138.41 31.13 136.8 34.14 138.84 34.14 138.41 31.13"/><path class="cls-1" d="M144.39,35.18a1.2,1.2,0,0,0,.61-1.07c0-.89-.56-1.33-1.68-1.33l-.61,0-.48,2.7a3.48,3.48,0,0,0,.58.05A3,3,0,0,0,144.39,35.18Z"/><polygon class="cls-1" points="156.01 31.13 154.4 34.14 156.44 34.14 156.01 31.13"/><path class="cls-1" d="M160.86,25.63c-.55-3.53-3.92-6.18-7.91-6.18H110.7l3.47,34.44c.55,3.54,3.92,6.18,7.9,6.18h42.27Zm-4.63,3.57h.25l1.4,7.13h-1.12l-.22-1.48H154l-.83,1.48h-1.08Zm-13.89.09a9,9,0,0,1,1.32-.1c1.65,0,2.48.55,2.48,1.66a1.55,1.55,0,0,1-.39,1,1.44,1.44,0,0,1-.93.53c.79.14,1.18.68,1.18,1.61a2.06,2.06,0,0,1-.84,1.79,4.59,4.59,0,0,1-2.65.6c-.34,0-.81,0-1.42-.06Zm-3.46-.09,1.39,7.13h-1.11l-.22-1.48h-2.52l-.83,1.48h-1.08l4.12-7.13Zm-22.56,7.19c-.33,0-.81,0-1.41-.06l1.24-7a9.15,9.15,0,0,1,1.32-.1c1.66,0,2.48.55,2.48,1.66a1.55,1.55,0,0,1-.39,1,1.44,1.44,0,0,1-.92.53c.78.14,1.17.68,1.17,1.61a2.08,2.08,0,0,1-.83,1.79A4.63,4.63,0,0,1,116.32,36.39Zm5.47,6.71h-3.27l-.35,2h2.34l-.14.82H118l-.45,2.56h3.22l-.15.88H116.4l1.25-7.11H122Zm0-8.25L121,36.33h-1.07L124,29.2h.26l1.39,7.13h-1.11l-.23-1.48Zm5.24,8.43a1.83,1.83,0,0,0-1.15-.31A2.28,2.28,0,0,0,124,44.11a4.24,4.24,0,0,0-.79,2.47c0,1.34.56,2,1.67,2a2.55,2.55,0,0,0,1.67-.7l-.08,1a2.71,2.71,0,0,1-1.85.55,2.26,2.26,0,0,1-1.8-.72,2.91,2.91,0,0,1-.64-2,5.22,5.22,0,0,1,1.06-3.3A3.33,3.33,0,0,1,126,42.11a3.42,3.42,0,0,1,1.36.22Zm-.09-14h1l.57,4.76,2.39-4.76h.34L132,34l2.21-4.73h1l-3.45,7.14h-.3l-.81-4.75-2.43,4.75h-.31Zm6.11,18.82a3.3,3.3,0,0,1-2.8,1.35,2.05,2.05,0,0,1-1.68-.76,3,3,0,0,1-.61-2,5.34,5.34,0,0,1,1-3.25,3.06,3.06,0,0,1,2.59-1.38,2.5,2.5,0,0,1,1.87.67,2.68,2.68,0,0,1,.64,1.93A5.46,5.46,0,0,1,133.08,48.11Zm6.21,1.32H139l-2.77-5-.84,5h-1l1.26-7.11h.39l2.72,4.84.82-4.84h1Zm6.83-1.32a3.31,3.31,0,0,1-2.8,1.35,2.07,2.07,0,0,1-1.69-.76,3.11,3.11,0,0,1-.61-2,5.34,5.34,0,0,1,1-3.25,3.07,3.07,0,0,1,2.6-1.38,2.51,2.51,0,0,1,1.87.67,2.68,2.68,0,0,1,.64,1.93A5.52,5.52,0,0,1,146.12,48.11Zm0-11.78,4.12-7.13h.25l1.4,7.13h-1.12l-.22-1.48H148l-.83,1.48Zm7.11,13-.09-4.4-2.37,4.49h-.24l-.77-4.53-1.64,4.44h-.92l2.54-7.11h.49l.77,5,2.5-5H154l.2,7.11Zm4.42,0h-1l.56-3.19-1.61-3.92h1l1.21,3,2.24-3h1.09l-3,3.92Z"/><path class="cls-1" d="M144.53,43a2,2,0,0,0-1.78,1.19,4.79,4.79,0,0,0-.7,2.43,2.61,2.61,0,0,0,.37,1.46,1.22,1.22,0,0,0,1.05.53,2.16,2.16,0,0,0,1.92-1.12,4.87,4.87,0,0,0,.71-2.66C146.1,43.58,145.58,43,144.53,43Z"/><polygon class="cls-1" points="150 31.13 148.39 34.14 150.43 34.14 150 31.13"/><path class="cls-1" d="M24.45,56.25q10.92-.24,21.84-.32c7.28-.1,14.56-.09,21.84-.12s14.56,0,21.84,0,14.56.11,21.84.17H112l.05.16L114.49,65l-.21.06-2.69-8.77.22.17c-7.28.06-14.56.18-21.84.18s-14.56.07-21.84,0-14.56,0-21.84-.12S31.73,56.41,24.45,56.25Z"/><polygon class="cls-1" points="116.21 71.3 110.04 63.54 114.25 64.58 117.24 61.44 116.21 71.3"/></svg>