<svg id="Layer_1" data-name="Layer 1" xmlns="http://www.w3.org/2000/svg" viewBox="0 0 180 80"><defs><style>.cls-1{fill:#fff;}</style></defs><title>01</title><path class="cls-1" d="M126.49,43.92c.05-.19.1-.38.14-.58s.05-.2.07-.29l15.08-3.46-11.43-2.35-.31-.07-3.34-.69c0-.15-.07-.31-.1-.46l-.15-.57a16.33,16.33,0,0,0-3.35-6.37l3.54-5.63-5.54,3.64a16.44,16.44,0,0,0-6.37-3.3c-.31-.08-.63-.16-1-.22L110.32,8.49,108,20l0,.29-.69,3.33c-.32.06-.64.14-.95.22a16.49,16.49,0,0,0-6.45,3.37l-5.64-3.54,3.64,5.55a16.14,16.14,0,0,0-3.27,6.28c-.05.18-.1.38-.15.57s-.07.31-.1.47L79.21,40l11.47,2.36.28.06,3.33.69.06.28c0,.2.09.38.15.58a16.16,16.16,0,0,0,3.39,6.55l-3.54,5.64,5.54-3.65a16.44,16.44,0,0,0,6.37,3.3c.32.08.64.16,1,.22l3.45,15.08L113,59.6l.06-.29.68-3.33c.32-.06.64-.14,1-.22a16.49,16.49,0,0,0,6.45-3.37l5.65,3.53-3.65-5.55A16.25,16.25,0,0,0,126.49,43.92Zm-22.6,3.8a35.31,35.31,0,0,1-.86-7.48h15.13a34.77,34.77,0,0,1-.85,7.48Zm-6.68,0A15.26,15.26,0,0,1,95,40.24h7.07a35.6,35.6,0,0,0,.83,7.48Zm5.71-15.89a35.51,35.51,0,0,0-.83,7.47H95a15.32,15.32,0,0,1,2.18-7.47Zm14.39,0a34.6,34.6,0,0,1,.85,7.47H103a35.29,35.29,0,0,1,.86-7.47Zm6.48,0A15.32,15.32,0,0,1,126,39.3h-6.86a36.18,36.18,0,0,0-.83-7.47Zm-4.68,8.41H126a15.26,15.26,0,0,1-2.19,7.48h-5.5A36.28,36.28,0,0,0,119.11,40.24ZM122.53,30c.22.28.42.58.63.87h-5.11c-.12-.45-.24-.91-.39-1.38l-.12-.32h0a12.56,12.56,0,0,0-2.24-4.12,15.47,15.47,0,0,1,4.9,2.63A16,16,0,0,1,122.53,30Zm-12-5.73a15.16,15.16,0,0,1,2.79.26,5.58,5.58,0,0,1,.76.57l.13.12a11.61,11.61,0,0,1,2.57,4.57l.08.24c.09.29.16.56.24.84H104.13c.11-.4.23-.81.37-1.23a10.74,10.74,0,0,1,2.71-4.59,4.93,4.93,0,0,1,.77-.57A16.07,16.07,0,0,1,110.5,24.28Zm-9.76,3.46A15.71,15.71,0,0,1,106,25a13.1,13.1,0,0,0-2.34,4.36c-.19.54-.34,1-.47,1.54H97.83c.19-.27.37-.54.58-.8A15.16,15.16,0,0,1,100.74,27.74Zm-2.27,21.8c-.24-.28-.45-.58-.66-.87h5.33c.14.51.29,1,.47,1.55A12.87,12.87,0,0,0,106,54.57a15.28,15.28,0,0,1-7.49-5Zm12,5.73a16.07,16.07,0,0,1-2.52-.21,5.51,5.51,0,0,1-.78-.57,10.76,10.76,0,0,1-2.7-4.58c-.14-.41-.25-.83-.36-1.24h12.93c-.09.34-.19.7-.31,1.07a11.44,11.44,0,0,1-2.57,4.57l-.14.13a5.58,5.58,0,0,1-.76.57A15.16,15.16,0,0,1,110.5,55.27Zm9.76-3.47a15.19,15.19,0,0,1-4.94,2.68A13.26,13.26,0,0,0,117.66,50c.15-.49.28-.94.39-1.37h5.13c-.19.27-.39.54-.6.79A14.67,14.67,0,0,1,120.26,51.8Z"/><path class="cls-1" d="M91.39,35.47A19.2,19.2,0,0,1,95,27.83l.06-.09-1.86-1.86-.09.11a22,22,0,0,0-4.36,9.43l0,.15h2.67Z"/><path class="cls-1" d="M95,51.68a19.09,19.09,0,0,1-3.6-7.79l0-.1H88.65l0,.15a22,22,0,0,0,4.38,9.58l.08.1L95,51.76Z"/><path class="cls-1" d="M98.55,55.3l-.09-.07L96.6,57.09l.11.09a22.08,22.08,0,0,0,9.53,4.4l.15,0V58.92l-.1,0A19.09,19.09,0,0,1,98.55,55.3Z"/><path class="cls-1" d="M122.4,55.32a19.05,19.05,0,0,1-7.7,3.59l-.1,0v2.66l.15,0a22,22,0,0,0,9.49-4.36l.11-.09-1.86-1.87Z"/><path class="cls-1" d="M129.64,43.89A19.25,19.25,0,0,1,126,51.72l-.07.09,1.86,1.86.09-.11a22,22,0,0,0,4.41-9.62l0-.15h-2.67Z"/><path class="cls-1" d="M126,27.87a19.46,19.46,0,0,1,3.57,7.6l0,.1h2.67l0-.15A22,22,0,0,0,127.93,26l-.08-.1L126,27.79Z"/><path class="cls-1" d="M122.44,24.25l.09.07,1.86-1.86-.11-.09A22,22,0,0,0,114.75,18l-.15,0v2.68l.1,0A19.09,19.09,0,0,1,122.44,24.25Z"/><path class="cls-1" d="M98.59,24.23a19.17,19.17,0,0,1,7.7-3.59l.1,0V18l-.15,0a22,22,0,0,0-9.49,4.36l-.11.09L98.5,24.3Z"/><path class="cls-1" d="M39.54,27.14h2V42h-2Z"/><path class="cls-1" d="M43.47,37.81l1.83-.49c.11,1.59.52,3.18,2.11,3.18,1.06,0,1.63-.6,1.63-1.74a3.57,3.57,0,0,0-1.61-2.85l-2.49-2.2a3.89,3.89,0,0,1-1.43-3.27A3.17,3.17,0,0,1,47,27c2.36,0,3.49,1.22,3.73,3.82L49,31.32c-.11-1.47-.44-2.71-2-2.71a1.47,1.47,0,0,0-1.63,1.63,2.34,2.34,0,0,0,1,2l2.5,2.19A5.49,5.49,0,0,1,51,38.6a3.34,3.34,0,0,1-3.55,3.53C44.83,42.13,43.62,40.37,43.47,37.81Z"/><path class="cls-1" d="M52.51,27.14h3.22c3.29,0,4.39,1.52,4.39,4.52v5.46C60.12,40.26,59,42,55.9,42H52.51Zm3.24,13.34C58,40.48,58,39.13,58,36.73V31.92c0-2.29-.22-3.24-2.34-3.24H54.58v11.8Z"/><path class="cls-1" d="M41.23,44.64h1.69L45.6,57.19H43.94L43.37,54H40.81l-.6,3.16H38.56Zm1.9,8.14-1.05-5.66-1,5.66Z"/><path class="cls-1" d="M46.51,53.75V51.69c0-2.24.45-3.58,2.61-3.58,2,0,2.45,1,2.45,2.82v.53h-1.5v-.54c0-1.16-.2-1.58-.93-1.58s-1,.49-1,2v2.82c0,1.53.25,1.92,1,1.92s.91-.63.91-1.55v-.73h1.5v.62c0,1.82-.53,2.88-2.45,2.88C46.92,57.31,46.51,55.9,46.51,53.75Z"/><path class="cls-1" d="M52.81,55.24c0-2.23,1.61-2.88,3.53-3.64V51c0-1.08-.12-1.61-.9-1.61s-.94.5-.94,1.27v.45L52.85,51c0-2,.87-2.9,2.7-2.9S58,49.1,58,51V55a15.71,15.71,0,0,0,.15,2.15H56.63c-.06-.33-.17-.9-.21-1.32a1.9,1.9,0,0,1-1.82,1.44A2,2,0,0,1,52.81,55.24Zm3.53-.09V52.61c-1,.58-1.87,1.08-1.87,2.12,0,.73.27,1.16.79,1.16A1.56,1.56,0,0,0,56.34,55.15Z"/><path class="cls-1" d="M59.37,53.67V51.94c0-2,.37-3.83,2.2-3.83a2.11,2.11,0,0,1,1.49.7V44.64h1.66V57.19H63.06v-.57a2,2,0,0,1-1.44.69C60.1,57.31,59.37,56.32,59.37,53.67Zm3.69,2V49.8A1.91,1.91,0,0,0,62,49.42c-.78,0-1,.85-1,1.87v2.52c0,1.26.12,2.2,1,2.2A1.93,1.93,0,0,0,63.06,55.67Z"/><path class="cls-1" d="M66.17,53.74V51.69c0-2.37.59-3.58,2.65-3.58,2.24,0,2.54,1.46,2.54,3.91v.72H67.83v1.8c0,1.09.29,1.55,1,1.55s.9-.57.9-1.47v-.54h1.61v.34c0,1.79-.7,2.89-2.52,2.89C66.71,57.31,66.17,56.07,66.17,53.74Zm3.56-1.89V51c0-1.1-.11-1.7-.93-1.7s-1,.48-1,2v.48Z"/><path class="cls-1" d="M72.81,48.24h1.53v.85a2.81,2.81,0,0,1,2.11-1,1.42,1.42,0,0,1,1.46,1.13,2.83,2.83,0,0,1,2.23-1.13c.86,0,1.58.59,1.58,2.08v7H80.2V50.27c0-.87-.31-1.1-.78-1.1a2.08,2.08,0,0,0-1.39.72v7.3H76.51V50.27c0-.87-.31-1.1-.77-1.1a2.14,2.14,0,0,0-1.4.72v7.3H72.81Z"/><path class="cls-1" d="M83.15,58.17c1.21,0,1.63-.14,1.63-.67a15.42,15.42,0,0,0-.34-1.64l-1.8-7.62h1.67l1.21,6.69,1.16-6.69h1.68l-2.14,9.45c-.3,1.3-1.24,1.75-2.87,1.75h-.2Z"/></svg>