<?xml version="1.0" encoding="utf-8"?>
<!-- Generator: Adobe Illustrator 23.0.3, SVG Export Plug-In . SVG Version: 6.00 Build 0)  -->
<svg version="1.1" id="Layer_1" xmlns="http://www.w3.org/2000/svg" xmlns:xlink="http://www.w3.org/1999/xlink" x="0px" y="0px"
	 viewBox="0 0 180 80" style="enable-background:new 0 0 180 80;" xml:space="preserve">
<style type="text/css">
	.st0{fill:none;stroke:#FFFFFF;stroke-width:0.4844;stroke-miterlimit:10;}
	.st1{fill:#FFFFFF;}
</style>
<g>
	<path class="st0" d="M151.5,35v13.9c0,3.6-3,6.6-6.7,6.6h-130c-3.7,0-6.7-2.9-6.7-6.6V35c0-3.6,3-6.6,6.7-6.6h130
		C148.6,28.5,151.5,31.4,151.5,35z"/>
	<g>
		<g>
			<path class="st1" d="M169.6,40.8c-0.1-0.2-0.2-0.4-0.3-0.6c-0.2-0.4-0.5-0.6-1-0.6c-0.5,0-1,0.1-1.6,0c-0.6-0.2-0.6-0.1-0.9,0.4
				c-0.2,0.4-0.2,0.6,0.2,0.9c0.2,0.1,0.3,0.2,0.5,0.4c0.2,0.2,0.3,0.4,0.3,0.7c-0.1,0-0.2,0-0.2-0.1c-0.5-0.5-1.2-0.8-1.7-1.3
				c-0.2-0.2-0.6-0.2-0.8-0.5c-0.4-0.5-1-0.7-1.4-1.2c-0.3-0.4-0.5-0.8-0.8-1.1c0,0,0-0.1,0-0.1c0.2-0.2,0.5-0.5,0.9-0.4
				c0.1,0,0.3,0.1,0.5,0c-0.2-0.2-0.4-0.3-0.5-0.5c-0.1-0.1-0.2-0.3,0-0.5c0.1-0.1,0.3-0.1,0.5,0c0.2,0.1,0.4,0.3,0.5,0.4
				c0.1,0.1,0.2,0.2,0.4,0.1c0.1-0.1,0-0.3-0.1-0.3c-0.2-0.2-0.5-0.3-0.8-0.4c-0.5-0.1-1.1,0-1.6,0c-0.2,0-0.4-0.1-0.4-0.2
				c-0.1-0.2,0-0.3,0.2-0.4c0.3-0.2,0.1-0.6,0.3-0.8c0.1-0.1-0.1-0.1-0.2-0.1c-0.2,0-0.5,0.1-0.7,0.3c-0.1,0.1-0.2,0.2-0.3,0.1
				c0.3-0.3,0.5-0.6,0.9-0.8c0.1-0.1,0.2-0.3,0-0.3c-0.3,0-0.6-0.3-1-0.1c-0.2,0.1-0.5,0.1-0.5-0.1c-0.1-0.3,0.2-0.3,0.4-0.3
				c0.1,0,0.1,0,0.2,0c0.2-0.1,0.4-0.1,0.1-0.3c-0.1-0.1-0.1-0.1-0.1-0.2c0.1-0.1,0.1-0.3,0.1-0.4c0-0.3,0.1-0.3,0.3-0.2
				c0.2,0.2,0.5,0.3,0.6,0.6c0.1,0.4,0.4,0.6,0.8,0.5c0.3,0,0.5,0,0.7,0.1c0.2,0.1,0.3,0.1,0.4-0.1c0.5-0.5,1-0.4,1.6-0.2
				c0.8,0.2,1.6,0.3,2.4,0c2-0.6,3.2-2.1,4.3-3.7c0.1-0.2,0.1-0.3,0-0.5c-0.2-0.1-0.3-0.1-0.5,0c-0.4,0.3-0.5,0.6-0.7,1
				c-0.2,0.6-0.6,1.2-1,1.7c-1.5,1.6-4,2-5.7,0.9c-0.2-0.1-0.4-0.2-0.3-0.4c0-0.2,0.3,0,0.4-0.1c-0.1-0.1-0.3-0.2-0.4-0.2
				c-0.3,0-0.4-0.2-0.5-0.4c-0.1-0.4-0.3-0.6-0.6-0.8c-0.6-0.6-1.4-1-1.9-1.7c-0.3-0.4-0.8-0.6-0.5-1.2c0,0,0-0.1-0.1-0.1
				c-0.4-0.1-0.1-0.3,0-0.4c0.2-0.1,0.4-0.3,0.3-0.5c-0.2,0-0.3,0.1-0.5,0.2c-0.2,0.1-0.4,0.2-0.6,0.1c-0.8-0.6-1.5,0-2.2,0.1
				c-0.1,0-0.1,0.1-0.1,0.1c-0.1,0.2-0.2,0-0.3,0c-0.2,0-0.1-0.2-0.1-0.3c0,0,0-0.1,0.1-0.1c0.1-0.4-0.1-1.2-0.1-1.2l0,0
				c-0.1-0.1-0.1-0.3-0.1-0.4c-0.4-1.3-0.5-1.9-2.2-2c-0.5,0-1,0-1.3,0.4c-0.5,0.6-0.5,1.3-0.5,2.1c0,0.1,0,0.1,0.1,0.2
				c0.3,0.4,0.5,0.9,0.6,1.5c0.1,0.3,0.2,0.6,0.4,0.9c0.1,0.1,0.1,0.2,0,0.3c-0.3,0.3-0.7,0.6-0.8,1.1c-0.1,0.4-0.3,0.4-0.7,0.4
				c-0.3,0-0.5,0-0.8,0.2c-0.6,0.4-1.2,0.5-1.9,0.6c-0.2,0.1-0.4,0-0.6-0.1c-0.4-0.3-0.8-0.6-1.4-0.4c-0.2,0.1-0.4,0.2-0.7,0.2
				c0,0-0.1,0-0.1,0.1c0,0.2-0.1,0.2-0.2,0.1c-0.4-0.1-0.8-0.2-1.2-0.3c-0.6-0.2-1-0.6-1.1-1.2c0-0.1,0-0.3-0.2-0.3
				c-0.2,0-0.1,0.3-0.1,0.4c0.2,0.6,0.6,1,1.2,1.1c0.8,0.2,1.4,0.8,2.2,1.1c0.5,0.2,1,0.4,1.5,0.3c0.5-0.1,0.9,0,1.3,0.1
				c0.4,0.1,0.9,0.3,1.3,0.3c0.5,0,1,0.1,1.5,0c0.2,0,0.3-0.1,0.2-0.3c0-0.1-0.1-0.2-0.1-0.3c0-0.1-0.1-0.2,0-0.3
				c0.2,1.1,0.7,2.1,0.7,3.3c0.6-0.4,0.8-1.1,1.1-1.7c-0.4,0.9-0.6,1.9-1.1,2.8c-0.1,0.2-0.3,0.5-0.2,0.7c0.1-0.1,0.2-0.2,0.3-0.2
				c0.2-0.1,0.4-0.1,0.4,0.1c0,0.6,0.7,1.4-0.2,1.9c0.9-0.3,1.3-1,1.9-1.6c0.6-0.6,1.2-1.1,2-1.5c-1.3,1.1-2.6,2.2-3.3,3.8
				c0.4-0.1,0.5,0.1,0.4,0.4c-0.1,0.2-0.1,0.5-0.2,0.7c-0.1,0.3,0,0.5,0.1,0.8c0,0.5-0.3,0.7-0.7,0.9c-0.7,0.4-1.2,1-1.7,1.6
				c-0.4,0.5-0.6,1.1-1.2,1.4c-0.2,0.1-0.3,0.4-0.3,0.6c0.1,0.7-0.3,1.3-0.5,1.9c-0.1,0.3-0.5,0.5-0.6,0.8c-0.4,0.9-0.6,1.8-0.8,2.8
				c-0.1,0.3-0.2,0.6-0.5,0.7s-0.6,0-0.7-0.4c0-0.1-0.1-0.3-0.3-0.2c-0.2,0-0.1,0.2-0.2,0.3c-0.6-0.4-1.3-0.7-1.9-1.1
				c-0.2-0.1-0.5-0.2-0.7,0c-0.2,0.2-0.3,1.4-0.1,1.5c0.3,0.2,0.3,0.5,0.6,0.7c0.2,0.2,0.4,0.5,0.6,0.6c0.4,0.1,0.7,0.3,1.1,0.5
				c0.4,0.3,0.9,0.5,1.1,1.1c0,0.1,0.1,0.1,0.1,0.1c0.2,0,0.4,0.1,0.5,0.2c0.2,0.1,0.5,0.3,0.6-0.1c0-0.1,0.2-0.2,0.3-0.2
				c0,0.1,0.1,0.2,0.1,0.3c0.8,1.6,2.6,1.7,3.6,0.8c0.4-0.3,0.8-0.5,1.2-0.5c0.4,0,0.8,0.1,1.1,0.2c0.8,0.2,1.5,0.2,2.3,0.1
				c0.3-0.1,0.7-0.1,1-0.3c0.1-0.1,0.3-0.2,0.2-0.3c-0.1-0.2-0.2-0.2-0.4-0.1c-0.2,0-0.3,0.1-0.5,0.2c-1.3,0.8-2.6,0.4-3.9,0
				c-0.2-0.1-0.4-0.1-0.4-0.4c0-0.2,0.3-0.2,0.4-0.3c-0.1-0.2-0.2-0.3-0.2-0.5c0-1.5-1.3-2.5-2.8-2.3c-0.1,0-0.2,0.1-0.4,0
				c0.4-0.8,1.2-1.2,1.5-2.1c0.3-0.8,0.4-1.7,0.6-2.5c-0.2,0-0.4,0.1-0.6,0c0.3-0.2,0.6-0.3,0.9-0.5c1.3-0.6,2.5-0.7,3.9-0.1
				c1.8,0.8,3.8,0.8,5.7,0.5c0.2,0,0.5,0,0.4-0.4c-0.1-0.3-0.3-0.3-0.6-0.3c-0.1,0-0.2,0.1-0.3,0.1c-1,0.4-2,0.5-3.1,0.5
				c-1,0-1.8-0.4-2.5-1.1c-0.1-0.1-0.2-0.2-0.1-0.3c0.1-0.2,0.2-0.1,0.3,0c0.1,0.1,0.3,0.1,0.4,0.2c0.4,0.4,1,0.5,1.5,0.6
				c0.1,0,0.3,0,0.3-0.1c0-0.1-0.2-0.1-0.3-0.1c-0.4,0-0.7,0-1-0.2c-0.2-0.1-0.3-0.3-0.3-0.5c0.1-0.4,0.2-0.7,0.5-0.9
				c0.5-0.3,1-0.7,1.5-1.1c-0.4-0.2-0.8-0.3-1.2-0.3h-0.7c0.4-0.1,0.8-0.2,1.2-0.1c0.3,0,0.5,0.1,0.7,0.2c1.1,0.3,2.1,0.9,3.2,1.3
				c0.3,0.1,0.4,0.1,0.7-0.1c0.3-0.2,0.5-0.5,0.8-0.8c0,0.4-0.3,0.5-0.4,0.8c0.4,0.1,0.8,0.2,1.2,0.4c0.8,0.4,1.7,0.9,2.5,1.3
				c0.6,0.4,1.2,0.1,1.8-0.1c0.2-0.1,0.3-0.3,0.4-0.6c0.1-0.7-0.1-1.3-0.1-2c0-0.8-0.4-1.5-1.1-2.1c0.4-0.1,0.8-0.3,1.2-0.1
				 M149.4,53.2c0,0.1-0.1,0.2-0.3,0.1c-0.1-0.1-0.1-0.2-0.1-0.3c0.2-0.4,0.5-0.7,0.9-0.8C149.8,52.5,149.6,52.8,149.4,53.2z"/>
			<path class="st1" d="M169.3,30c0.6-1.4,0.9-2.9,1.1-4.3c0-0.2,0-0.5,0.3-0.5c0.3,0,0.3,0.3,0.3,0.6c0,0.7-0.2,1.4-0.5,2.1
				c-0.2,0.7-0.6,1.3-0.9,1.9C169.5,29.9,169.5,30,169.3,30z"/>
			<path class="st1" d="M164.3,37.6c0.4,0,0.7-0.1,1-0.1c0.5,0,0.9-0.2,1.2-0.6c0.1-0.1,0.2-0.1,0.2-0.2c0.1-0.1,0.3-0.1,0.4,0
				c0.1,0.1,0.1,0.3-0.1,0.4c-0.4,0.4-0.9,0.5-1.4,0.6C165.3,37.8,164.8,37.8,164.3,37.6z"/>
			<path class="st1" d="M171.4,43.9c0.3,0.5,0.4,1,0.2,1.5c0,0.1-0.1,0.3-0.2,0.3c-0.2,0-0.1-0.2-0.1-0.3
				C171.4,44.8,171.5,44.4,171.4,43.9z"/>
			<path class="st1" d="M156.2,47.6c-0.1,0.1-0.2,0.1-0.3,0.1c-0.1,0-0.2-0.1-0.3-0.1c-0.5-0.3-1-0.5-1.5-0.5h-0.7
				c0.3-0.1,0.6-0.2,0.8-0.2c0.5,0,1,0.1,1.5,0.3c0.1,0,0.2,0.1,0.3,0.1C156.2,47.4,156.3,47.5,156.2,47.6z"/>
			<path class="st1" d="M170.6,42c0.3,0.1,0.6,0.3,0.8,0.6c0.1,0.1,0.2,0.3,0,0.4c-0.2,0.1-0.3,0-0.4-0.2
				C170.9,42.5,170.8,42.2,170.6,42z"/>
			<path class="st1" d="M164.3,32.2c0.5,0.1,1,0,1.4,0.1c0.1,0,0.2,0,0.2,0.1c0,0.1-0.1,0.1-0.2,0.1
				C165.3,32.5,164.7,32.5,164.3,32.2z"/>
			<path class="st1" d="M154.6,54.7c0.4,0,0.9,0.1,1.3,0.1c0.1,0,0.2,0.1,0.1,0.2c0,0.1-0.1,0.2-0.2,0.2c-0.3,0-0.5-0.1-0.8-0.2
				C154.9,54.8,154.8,54.8,154.6,54.7z"/>
			<path class="st1" d="M149.2,56.1c0.3,0.2,0.5,0.4,0.8,0.5c0.1,0.1,0.2,0.2,0,0.3c-0.1,0.1-0.2,0-0.3-0.1
				C149.7,56.5,149.4,56.4,149.2,56.1z"/>
			<path class="st1" d="M161.2,26.2c0.4-0.1,0.7-0.2,1.1,0C161.9,26.3,161.6,26.2,161.2,26.2z"/>
			<path class="st1" d="M153.1,34.8c-0.2,0.1-0.3,0.2-0.4,0.1c-0.1,0-0.2-0.1-0.2-0.2c0-0.1,0-0.1,0-0.2c0.1-0.1,0.2,0,0.2,0
				C152.8,34.7,152.9,34.8,153.1,34.8z"/>
			<path class="st1" d="M145.4,30c0.2,0,0.3,0.3,0.6,0.3C145.7,30.3,145.5,30.2,145.4,30z"/>
		</g>
	</g>
	<g>
		<path class="st1" d="M22.4,46.4c-3.6,0-4.9-1.6-4.9-4.2c0-2.4,1.5-4.6,4.8-4.6c2.2,0,3.8,0.6,3.8,0.6v6.3h1.8v1.9H22.4z
			 M19.4,35.2c0-0.7,0.5-1.2,1.2-1.2c0.7,0,1.2,0.5,1.2,1.2c0,0.7-0.5,1.2-1.2,1.2C19.9,36.5,19.4,35.9,19.4,35.2z M23.8,39.8
			c0,0-0.7-0.3-1.7-0.3c-1.4,0-2.2,1-2.2,2.5c0,1.7,0.8,2.6,2.7,2.6h1.2V39.8z M22.4,35.2c0-0.7,0.5-1.2,1.2-1.2
			c0.7,0,1.2,0.5,1.2,1.2c0,0.7-0.5,1.2-1.2,1.2C22.9,36.5,22.4,35.9,22.4,35.2z"/>
		<path class="st1" d="M27.7,44.5h3.4v-6.7h2.4v6.7h1.8v1.9h-7.7V44.5z M29.2,50.4c-0.7,0-1.2-0.5-1.2-1.2c0-0.7,0.5-1.2,1.2-1.2
			c0.7,0,1.2,0.5,1.2,1.2C30.4,49.8,29.9,50.4,29.2,50.4z M32.2,50.4c-0.7,0-1.2-0.5-1.2-1.2c0-0.7,0.5-1.2,1.2-1.2s1.2,0.5,1.2,1.2
			C33.4,49.8,32.9,50.4,32.2,50.4z"/>
		<path class="st1" d="M47.6,46.4H35v-1.9h2.2v-6.7h2.4v0.5c0,0.8-0.1,1.8-0.2,2.7h0c0.9-2.2,2.7-3.4,4.7-3.4c2.5,0,3.7,1.7,3.7,4.4
			C47.9,43.5,47.8,45,47.6,46.4z M43.7,39.5c-2,0-3.6,2.4-4,5h5.7c0.1-0.7,0.1-1.6,0.1-2.2C45.4,40.6,45,39.5,43.7,39.5z M42.6,35.1
			c0-0.7,0.6-1.3,1.3-1.3c0.7,0,1.3,0.6,1.3,1.3c0,0.7-0.6,1.3-1.3,1.3C43.2,36.3,42.6,35.8,42.6,35.1z"/>
		<path class="st1" d="M50.6,33.6H53v11h1.8v1.9h-4.2V33.6z"/>
		<path class="st1" d="M54.6,44.5H58v-6.7h2.4v8.6h-5.8V44.5z M56.1,50.4c-0.7,0-1.2-0.5-1.2-1.2c0-0.7,0.5-1.2,1.2-1.2
			c0.7,0,1.2,0.5,1.2,1.2C57.3,49.8,56.8,50.4,56.1,50.4z M59.1,50.4c-0.7,0-1.2-0.5-1.2-1.2c0-0.7,0.5-1.2,1.2-1.2s1.2,0.5,1.2,1.2
			C60.3,49.8,59.8,50.4,59.1,50.4z"/>
		<path class="st1" d="M60.5,50.9l0.2-1.9c0.4,0.1,0.9,0.2,1.5,0.2c1.2,0,2-0.6,2-2.6v-8.8h2.4v6.7h1.8v1.9h-1.8v0.1
			c0,2.3-0.8,4.6-4.5,4.6C61.5,51.1,60.9,51,60.5,50.9z"/>
		<path class="st1" d="M68.1,44.5h2.3v-11h2.4v12.9h-4.7V44.5z"/>
		<path class="st1" d="M75.8,33.6h2.4v12.9h-2.4V33.6z"/>
	</g>
	<g>
		<path class="st1" d="M144.7,28.3H88.3v27.5h56.3c3.7,0,6.7-3,6.7-6.7V35C151.3,31.3,148.3,28.3,144.7,28.3z M102.7,34.9
			c0.5,0,0.9,0.4,0.9,0.9c0,0.5-0.4,0.9-0.9,0.9c-0.5,0-0.9-0.4-0.9-0.9C101.7,35.3,102.1,34.9,102.7,34.9z M100.1,34.9
			c0.5,0,0.9,0.4,0.9,0.9c0,0.5-0.4,0.9-0.9,0.9c-0.5,0-0.9-0.4-0.9-0.9C99.2,35.3,99.6,34.9,100.1,34.9z M108.8,50
			c-0.5,0-0.9-0.4-0.9-0.9c0-0.5,0.4-0.9,0.9-0.9c0.5,0,1,0.4,1,0.9C109.8,49.6,109.4,50,108.8,50z M110.8,46.5h-9.1
			c-3.3,0-4.5-1.6-4.5-4c0-2.3,1.4-4.3,4.4-4.3c1.9,0,3.5,0.6,3.5,0.6v6.5h4.2v-6.9h1.6V46.5z M115.6,46.5H114V34.3h1.6V46.5z
			 M129.7,50c-0.5,0-0.9-0.4-0.9-0.9c0-0.5,0.4-0.9,0.9-0.9c0.5,0,1,0.4,1,0.9C130.6,49.6,130.2,50,129.7,50z M137.3,46.5h-11.5v0.3
			c0,2-1.3,4.1-5.1,4.1c-1.3,0-2.7-0.3-2.7-0.3l0.1-1.3c0,0,1.5,0.3,2.8,0.3c1.9,0,3.3-0.7,3.3-2.7v-0.4h-1.8c-3.3,0-4.5-1.6-4.5-4
			c0-2.3,1.4-4.3,4.4-4.3c1.9,0,3.5,0.6,3.5,0.6v6.5h4.2v-6.9h1.6v6.9h4.1v-11h1.6V46.5z M142.2,46.5h-1.6V34.3h1.6V46.5z"/>
		<path class="st1" d="M119.6,42.3c0,2,0.9,2.9,3.2,2.9h1.5v-5.4c0,0-0.8-0.4-2.1-0.4C120.6,39.4,119.6,40.6,119.6,42.3z"/>
		<path class="st1" d="M98.8,42.3c0,2,0.9,2.9,3.2,2.9h1.5v-5.4c0,0-0.8-0.4-2.1-0.4C99.7,39.4,98.8,40.6,98.8,42.3z"/>
		<path class="st1" d="M124.3,45.2h-1.5c-2.2,0-3.2-1-3.2-2.9c0-1.7,1-2.9,2.6-2.9c1.2,0,2.1,0.4,2.1,0.4V45.2z"/>
	</g>
</g>
<image style="overflow:visible;" width="415" height="147" xlink:href="1DE0C3DE.jpg"  transform="matrix(0.9999 0 0 0.9999 -8102 -8152)">
</image>
</svg>
